<svg width="21" height="21" viewBox="0 0 21 21" fill="none" xmlns="http://www.w3.org/2000/svg">
<path d="M1.5 3.75C1.5 3.15326 1.73705 2.58097 2.15901 2.15901C2.58097 1.73705 3.15326 1.5 3.75 1.5H6C6.59674 1.5 7.16903 1.73705 7.59099 2.15901C8.01295 2.58097 8.25 3.15326 8.25 3.75V4.875C8.25 5.47174 8.01295 6.04403 7.59099 6.46599C7.16903 6.88795 6.59674 7.125 6 7.125H3.75C3.15326 7.125 2.58097 6.88795 2.15901 6.46599C1.73705 6.04403 1.5 5.47174 1.5 4.875V3.75Z" stroke="white" stroke-width="2" stroke-linecap="round" stroke-linejoin="round"/>
<path d="M1.5 13.875C1.5 13.2783 1.73705 12.706 2.15901 12.284C2.58097 11.8621 3.15326 11.625 3.75 11.625H6C6.59674 11.625 7.16903 11.8621 7.59099 12.284C8.01295 12.706 8.25 13.2783 8.25 13.875V17.25C8.25 17.8467 8.01295 18.419 7.59099 18.841C7.16903 19.2629 6.59674 19.5 6 19.5H3.75C3.15326 19.5 2.58097 19.2629 2.15901 18.841C1.73705 18.419 1.5 17.8467 1.5 17.25V13.875Z" stroke="white" stroke-width="2" stroke-linecap="round" stroke-linejoin="round"/>
<path d="M12.75 3.75C12.75 3.15326 12.9871 2.58097 13.409 2.15901C13.831 1.73705 14.4033 1.5 15 1.5H17.25C17.8467 1.5 18.419 1.73705 18.841 2.15901C19.2629 2.58097 19.5 3.15326 19.5 3.75V7.125C19.5 7.72174 19.2629 8.29403 18.841 8.71599C18.419 9.13795 17.8467 9.375 17.25 9.375H15C14.4033 9.375 13.831 9.13795 13.409 8.71599C12.9871 8.29403 12.75 7.72174 12.75 7.125V3.75Z" stroke="white" stroke-width="2" stroke-linecap="round" stroke-linejoin="round"/>
<path d="M12.75 16.125C12.75 15.5283 12.9871 14.956 13.409 14.534C13.831 14.1121 14.4033 13.875 15 13.875H17.25C17.8467 13.875 18.419 14.1121 18.841 14.534C19.2629 14.956 19.5 15.5283 19.5 16.125V17.25C19.5 17.8467 19.2629 18.419 18.841 18.841C18.419 19.2629 17.8467 19.5 17.25 19.5H15C14.4033 19.5 13.831 19.2629 13.409 18.841C12.9871 18.419 12.75 17.8467 12.75 17.25V16.125Z" stroke="white" stroke-width="2" stroke-linecap="round" stroke-linejoin="round"/>
</svg>
