<svg width="44" height="45" viewBox="0 0 44 45" fill="none" xmlns="http://www.w3.org/2000/svg">
<g clip-path="url(#clip0_2203_14894)">
<path d="M27.5 18.888L35.8472 14.7154C36.1266 14.5757 36.4371 14.5098 36.7492 14.5239C37.0612 14.5379 37.3645 14.6315 37.6303 14.7957C37.896 14.9599 38.1154 15.1892 38.2676 15.462C38.4199 15.7348 38.4998 16.042 38.5 16.3544V28.755C38.4998 29.0674 38.4199 29.3746 38.2676 29.6474C38.1154 29.9201 37.896 30.1495 37.6303 30.3137C37.3645 30.4779 37.0612 30.5715 36.7492 30.5855C36.4371 30.5996 36.1266 30.5337 35.8472 30.394L27.5 26.2214V18.888Z" stroke="white" stroke-width="2" stroke-linecap="round" stroke-linejoin="round"/>
<path d="M5.5 15.2214C5.5 14.2489 5.88631 13.3163 6.57394 12.6286C7.26158 11.941 8.19421 11.5547 9.16667 11.5547H23.8333C24.8058 11.5547 25.7384 11.941 26.4261 12.6286C27.1137 13.3163 27.5 14.2489 27.5 15.2214V29.888C27.5 30.8605 27.1137 31.7931 26.4261 32.4807C25.7384 33.1684 24.8058 33.5547 23.8333 33.5547H9.16667C8.19421 33.5547 7.26158 33.1684 6.57394 32.4807C5.88631 31.7931 5.5 30.8605 5.5 29.888V15.2214Z" stroke="white" stroke-width="2" stroke-linecap="round" stroke-linejoin="round"/>
</g>
<defs>
<clipPath id="clip0_2203_14894">
<rect width="44" height="44" fill="white" transform="translate(0 0.554688)"/>
</clipPath>
</defs>
</svg>
