<?xml version="1.0" encoding="utf-8"?>
<!-- Generator: Adobe Illustrator 24.1.0, SVG Export Plug-In . SVG Version: 6.00 Build 0)  -->
<svg version="1.1" id="Capa_1" xmlns="http://www.w3.org/2000/svg" xmlns:xlink="http://www.w3.org/1999/xlink" x="0px" y="0px"
	 viewBox="0 0 332.8 332.8" style="enable-background:new 0 0 332.8 332.8;" xml:space="preserve">
<style type="text/css">
	.st0{fill:#FFFFFF;}
</style>
<g>
	<g>
		<g>
			<path class="st0" d="M330.8,171c-3.6-6.4-12-8.8-18.8-4.8l-45.6,26.4l-11.6,6.8v63.2l10.8,6.4c0.4,0,0.4,0.4,0.8,0.4l44.8,26
				c2,1.6,4.8,2.4,7.6,2.4c7.6,0,13.6-6,13.6-13.6v-53.6l0.4-52.8C332.8,175.4,332.4,173,330.8,171z"/>
			<path class="st0" d="M64.4,150.6c35.6,0,64.4-28.8,64.4-64.4S100,21.8,64.4,21.8S0,50.6,0,86.2C-0.4,121.8,28.8,150.6,64.4,150.6
				z M64.4,59.8c14.8,0,26.4,12,26.4,26.4c0,14.8-12,26.4-26.4,26.4S38,100.6,38,86.2C37.6,71.4,49.6,59.8,64.4,59.8z"/>
			<path class="st0" d="M227.6,154.2c-10.4,5.2-22,8.4-34.4,8.4c-15.2,0-29.6-4.4-41.6-12.4H106c-12,8-26.4,12.4-41.6,12.4
				c-12.4,0-24-2.8-34.4-8.4c-9.2,5.2-15.6,15.6-15.6,26.8v97.6c0,18,14.8,32.4,32.4,32.4h164.4c18,0,32.4-14.8,32.4-32.4V181
				C243.2,169.8,236.8,159.4,227.6,154.2z"/>
			<path class="st0" d="M193.2,150.6c35.6,0,64.4-28.8,64.4-64.4s-28.8-64.4-64.4-64.4s-64.4,28.8-64.4,64.4
				C128.8,121.8,157.6,150.6,193.2,150.6z M193.2,59.8c14.8,0,26.4,12,26.4,26.4c0,14.8-12,26.4-26.4,26.4s-26.4-12-26.4-26.4
				C166.8,71.4,178.4,59.8,193.2,59.8z"/>
		</g>
	</g>
</g>
</svg>
