<?xml version="1.0" encoding="UTF-8"?><svg id="uuid-cd8bff2f-8780-46bd-9199-282bdb388357" xmlns="http://www.w3.org/2000/svg" viewBox="0 0 464.95 463.87"><path d="m457.33,186.66l-56.93-5.6c-3.73-11.2-7.46-21.46-13.07-30.8l36.4-43.87c2.8-3.73,2.8-9.33-.93-12.13l-51.33-51.33c-3.73-3.73-8.4-3.73-12.13-.93l-43.87,36.4c-10.27-5.6-20.54-9.33-30.8-13.07l-5.6-56.93c0-4.67-4.67-8.4-9.33-8.4h-72.8c-4.67,0-9.33,3.73-9.33,8.4l-6.53,56c-11.2,2.8-21.46,7.46-30.8,13.07l-43.87-36.4c-3.73-2.8-9.33-2.8-12.13.93l-51.33,51.33c-3.73,3.73-3.73,9.33-.93,12.13l36.4,43.87c-5.6,9.33-9.33,20.54-13.07,30.8l-56.93,5.6c-4.67.93-8.4,4.67-8.4,9.33v72.8c0,4.67,3.73,8.4,8.4,9.33l56.93,5.6c3.73,11.2,7.46,21.46,13.07,30.8l-36.4,43.87c-2.8,3.73-2.8,9.33.93,12.13l51.33,51.33c3.73,3.73,8.4,3.73,12.13.93l43.87-36.4c10.27,5.6,20.54,9.33,30.8,13.07l5.6,56.93c0,4.67,4.67,8.4,9.33,8.4h72.8c4.67,0,9.33-3.73,9.33-8.4l5.6-56.93c11.2-2.8,21.46-7.46,30.8-13.07l43.87,36.4c3.73,2.8,9.33,2.8,12.13-.93l51.33-51.33c3.73-3.73,3.73-9.33.93-12.13l-36.4-43.87c5.6-9.33,9.33-20.54,13.07-30.8l56.93-5.6c4.67,0,8.4-4.67,8.4-9.33v-72.8c.93-3.73-2.8-8.4-7.47-8.4h0Zm-224.93,168.93c-68.13,0-123.2-55.07-123.2-123.2s55.07-123.2,123.2-123.2,123.2,55.07,123.2,123.2-55.07,123.2-123.2,123.2Z" style="fill:#fff;"/></svg>