<?xml version="1.0" encoding="utf-8"?>
<!-- Generator: Adobe Illustrator 28.1.0, SVG Export Plug-In . SVG Version: 6.00 Build 0)  -->
<svg version="1.1" id="Layer_1" xmlns="http://www.w3.org/2000/svg" xmlns:xlink="http://www.w3.org/1999/xlink" x="0px" y="0px"
	 viewBox="0 0 512 512" style="enable-background:new 0 0 512 512;" xml:space="preserve">
<style type="text/css">
	.st0{fill:#FFFFFF;}
</style>
<path class="st0" d="M406,244h26.5C426.6,156,356,85.4,268,79.5V106h-24V79.5C156,85.4,85.4,156,79.5,244H106v24H79.5
	C85.4,356,156,426.6,244,432.5V406h24v26.5c88-5.9,158.6-76.5,164.5-164.5H406L406,244z M351.8,176.2l-55.3,114.7
	c-1.2,2.4-3.2,4.4-5.6,5.6l-114.7,55.3c-1.7,0.8-3.4,1.2-5.2,1.2c-3.1,0-6.2-1.2-8.5-3.5c-3.6-3.6-4.5-9.1-2.3-13.7l55.3-114.7
	c1.2-2.4,3.2-4.4,5.6-5.6l114.7-55.3c4.6-2.2,10.1-1.3,13.7,2.3C353.1,166.1,354,171.6,351.8,176.2L351.8,176.2z"/>
<path class="st0" d="M196.7,315.3l68.6-33.1l-35.5-35.5L196.7,315.3z"/>
<path class="st0" d="M425.1,86.9c-45.2-45.2-105.2-70-169.1-70s-123.9,24.9-169.1,70s-70,105.2-70,169.1s24.9,123.9,70,169.1
	s105.2,70,169.1,70s123.9-24.9,169.1-70s70-105.2,70-169.1S470.2,132.1,425.1,86.9L425.1,86.9z M256,456.9
	c-110.8,0-200.9-90.1-200.9-200.9S145.2,55.1,256,55.1S456.9,145.2,456.9,256S366.8,456.9,256,456.9z"/>
<path class="st0" d="M282.2,265.3l33.1-68.6l-68.6,33.1L282.2,265.3z"/>
</svg>
