<?xml version="1.0" encoding="UTF-8"?>
<svg id="Layer_1" data-name="Layer 1" xmlns="http://www.w3.org/2000/svg" xmlns:xlink="http://www.w3.org/1999/xlink" viewBox="0 0 24 24">
  <defs>
    <style>
      .cls-1 {
        fill: none;
      }

      .cls-2 {
        clip-path: url(#clippath);
      }

      .cls-3 {
        fill: #fff;
      }
    </style>
    <clipPath id="clippath">
      <rect class="cls-1" width="24" height="24"/>
    </clipPath>
  </defs>
  <g class="cls-2">
    <path class="cls-3" d="m4,15c-.55,0-1,.45-1,1v3c0,1.1.9,2,2,2h3c.55,0,1-.45,1-1s-.45-1-1-1h-2c-.55,0-1-.45-1-1v-2c0-.55-.45-1-1-1Zm1-9c0-.55.45-1,1-1h2c.55,0,1-.45,1-1s-.45-1-1-1h-3c-1.1,0-2,.9-2,2v3c0,.55.45,1,1,1s1-.45,1-1v-2Zm14-3h-3c-.55,0-1,.45-1,1s.45,1,1,1h2c.55,0,1,.45,1,1v2c0,.55.45,1,1,1s1-.45,1-1v-3c0-1.1-.9-2-2-2Zm0,15c0,.55-.45,1-1,1h-2c-.55,0-1,.45-1,1s.45,1,1,1h3c1.1,0,2-.9,2-2v-3c0-.55-.45-1-1-1s-1,.45-1,1v2Zm-7-10c-2.21,0-4,1.79-4,4s1.79,4,4,4,4-1.79,4-4-1.79-4-4-4Zm0,6c-1.1,0-2-.9-2-2s.9-2,2-2,2,.9,2,2-.9,2-2,2Z"/>
  </g>
</svg>