<svg id="Calque_1" data-name="Calque 1" xmlns="http://www.w3.org/2000/svg" viewBox="0 0 84.83 54"><defs><style>.cls-1{fill:#fff;}</style></defs><rect class="cls-1" x="0.5" y="0.5" width="63.13" height="53"/><path class="cls-1" d="M67.12,6V58H5V6H67.12m1-1H4V59H68.12V5Z" transform="translate(-4 -5)"/><rect class="cls-1" x="68.87" y="0.75" width="15.46" height="12.86"/><path class="cls-1" d="M87.83,6.25V18.12H73.37V6.25H87.83m1-1H72.37V19.12H88.83V5.25Z" transform="translate(-4 -5)"/><rect class="cls-1" x="68.87" y="17.69" width="15.46" height="12.86"/><path class="cls-1" d="M87.83,23.19V35.05H73.37V23.19H87.83m1-1H72.37V36.05H88.83V22.19Z" transform="translate(-4 -5)"/><rect class="cls-1" x="68.87" y="34.75" width="15.46" height="12.86"/><path class="cls-1" d="M87.83,40.25V52.12H73.37V40.25H87.83m1-1H72.37V53.12H88.83V39.25Z" transform="translate(-4 -5)"/></svg>