<?xml version="1.0" encoding="utf-8"?>
<!-- Generator: Adobe Illustrator 28.1.0, SVG Export Plug-In . SVG Version: 6.00 Build 0)  -->
<svg version="1.1" id="svg4695" xmlns:svg="http://www.w3.org/2000/svg"
	 xmlns="http://www.w3.org/2000/svg" xmlns:xlink="http://www.w3.org/1999/xlink" x="0px" y="0px" viewBox="0 0 682.7 682.7"
	 style="enable-background:new 0 0 682.7 682.7;" xml:space="preserve">
<style type="text/css">
	.st0{fill:none;stroke:#FFFFFF;stroke-width:32;stroke-linecap:round;stroke-linejoin:round;stroke-miterlimit:17.7777;}
</style>
<g id="g4701" transform="matrix(1.3333333,0,0,-1.3333333,0,682.66667)">
	<g id="g4703">
		<g>
			<g id="g4705">
				<g id="g4711" transform="translate(297,409.4844)">
					<path id="path4713" class="st0" d="M0,0h-248.3c-22.8,0-41.2-18.5-41.2-41.2V-266c0-20.7,15.2-37.8,35.1-40.8
						c3.2-0.5,5.6-3.2,5.6-6.5V-377c0-7,8.4-10.6,13.4-5.7l74,72.4c2,1.9,4.6,3,7.4,3h265.2c22.8,0,41.2,18.5,41.2,41.2v142.2"/>
				</g>
				<g id="g4715" transform="translate(88.7417,300.3105)">
					<path id="path4717" class="st0" d="M0,0v-105.1c1.2-0.2,36.8,0,36.8,0"/>
				</g>
				<g id="g4719" transform="translate(168.8081,300.3105)">
					<path id="path4721" class="st0" d="M0,0v-105.2"/>
				</g>
				<g id="g4723" transform="translate(368.2598,299.8301)">
					<path id="path4725" class="st0" d="M0,0h-43.9v-104.3H0"/>
				</g>
				<g id="g4727" transform="translate(365.0205,247.7051)">
					<path id="path4729" class="st0" d="M0,0h-40.7"/>
				</g>
				<g id="g4731" transform="translate(211.2061,300.3105)">
					<path id="path4733" class="st0" d="M0,0l36-103.6c0.8-2.1,3.8-2.1,4.5,0L74.8-0.2"/>
				</g>
				<g id="g4735" transform="translate(363.1865,410.9316)">
					<path id="path4737" class="st0" d="M0,0c30.3,30.3,79.5,30.3,109.9,0"/>
				</g>
				<g id="g4739" transform="translate(404.7402,364.749)">
					<path id="path4741" class="st0" d="M0,0c7.4,7.4,19.4,7.4,26.8,0"/>
				</g>
				<g id="g4743" transform="translate(383.7646,387.8545)">
					<path id="path4745" class="st0" d="M0,0c19,19,49.7,19,68.7,0"/>
				</g>
				<g id="g4747" transform="translate(504.5,401.0889)">
					<path id="path4749" class="st0" d="M0,0c0-47.7-38.7-86.4-86.4-86.4S-172.8-47.7-172.8,0s38.7,86.4,86.4,86.4S0,47.7,0,0z"/>
				</g>
			</g>
		</g>
	</g>
</g>
</svg>
