<svg width="483" height="65" viewBox="0 0 483 65" fill="none" xmlns="http://www.w3.org/2000/svg">
    <g clip-path="url(#clip0_724_2)">
        <path d="M96.1405 54.9991L91.5605 47.8691H93.6805L97.0705 53.2691L100.49 47.8691H102.61L98.0005 54.9991V59.7391H96.1405V54.9991Z" fill="white"/>
        <path d="M102 55.4089C102 53.0489 103.91 51.1289 106.28 51.1289C108.65 51.1289 110.56 53.0389 110.56 55.4089C110.56 57.7789 108.65 59.6989 106.28 59.6989C103.91 59.6989 102 57.7889 102 55.4189V55.4089ZM108.82 55.4089C108.82 53.5089 107.82 52.2889 106.27 52.2889C104.72 52.2889 103.73 53.5089 103.73 55.4089C103.73 57.3089 104.73 58.5189 106.27 58.5189C107.81 58.5189 108.83 57.2989 108.83 55.4089H108.82Z" fill="white"/>
        <path d="M112.78 51.1196H114.49V56.2596C114.49 57.6496 114.91 58.3796 116.08 58.3796C117.25 58.4096 118.22 57.4896 118.26 56.3196C118.26 56.2096 118.26 56.1096 118.24 55.9996V51.0996H120V59.6696H118.29V58.3096C117.77 59.3096 116.72 59.9096 115.6 59.8496C113.6 59.8496 112.86 58.7096 112.86 56.7296L112.78 51.1196Z" fill="white"/>
        <path d="M122.7 51.1197H124.41V52.4497C124.87 51.5397 125.81 50.9797 126.83 50.9997C126.99 50.9897 127.16 50.9897 127.32 50.9997V52.7797C127.08 52.6997 126.84 52.6697 126.59 52.6697C125.44 52.6097 124.46 53.4997 124.4 54.6497C124.4 54.7697 124.4 54.8797 124.41 54.9997V59.6897H122.7V51.1197Z" fill="white"/>
        <path d="M134.56 51.1198L136.36 57.5391L138.36 51.1191H140L142 57.5391L143.84 51.1191H145.62L142.95 59.6891H141.26L139.26 53.4591L137.19 59.6891H135.53L132.76 51.1191L134.56 51.1198Z" fill="white"/>
        <path d="M146.46 55.4089C146.46 53.0489 148.37 51.1289 150.74 51.1289C153.11 51.1289 155.02 53.0389 155.02 55.4089C155.02 57.7789 153.11 59.6989 150.74 59.6989C148.37 59.6989 146.46 57.7889 146.46 55.4189V55.4089ZM153.28 55.4089C153.28 53.5089 152.28 52.2889 150.73 52.2889C149.18 52.2889 148.19 53.5089 148.19 55.4089C148.19 57.3089 149.19 58.5189 150.73 58.5189C152.27 58.5189 153.28 57.2989 153.28 55.4089Z" fill="white"/>
        <path d="M157.18 51.1197H158.89V52.4497C159.35 51.5397 160.29 50.9797 161.31 50.9997C161.47 50.9897 161.64 50.9897 161.8 50.9997V52.7797C161.56 52.6997 161.32 52.6697 161.07 52.6697C159.92 52.6097 158.94 53.4997 158.88 54.6497C158.88 54.7697 158.88 54.8797 158.89 54.9997V59.6897H157.18V51.1197Z" fill="white"/>
        <path d="M163.28 47.8398H165V54.9998L168.54 51.1198H170.76L167 54.9998L171.16 59.6798H168.93L165 54.9998V59.6598H163.29V47.8398H163.28Z" fill="white"/>
        <path d="M172.68 51.1197H174.4V52.4497C174.98 51.4797 176.05 50.9197 177.18 50.9997C179.6 50.9997 180.83 52.8797 180.83 55.4397C180.83 57.9997 179.5 59.8897 177.16 59.8897C176.03 59.9497 174.97 59.3497 174.43 58.3497V62.8497H172.71L172.68 51.1197ZM179.09 55.3997C179.09 53.4497 178.22 52.2797 176.68 52.2797C175.14 52.2797 174.38 53.4597 174.38 55.4297C174.38 57.3997 175.1 58.5397 176.7 58.5397C178.3 58.5397 179.09 57.4097 179.09 55.3997Z" fill="white"/>
        <path d="M183 47.8398H184.72V59.6898H183V47.8398Z" fill="white"/>
        <path d="M192.48 58.4897C191.77 59.4197 190.65 59.9297 189.48 59.8497C187.65 59.8497 186.77 58.8497 186.77 57.5697C186.77 55.1097 189.27 55.0597 191.03 54.7597C192.31 54.5497 192.49 54.4497 192.49 53.8497C192.49 52.9497 191.89 52.3197 190.73 52.3197C189.83 52.1797 189 52.7997 188.86 53.6897C188.85 53.7697 188.84 53.8497 188.84 53.9297H187.19C187.38 52.0697 188.37 50.9297 190.74 50.9297C193.11 50.9297 194.2 52.0697 194.2 54.3597V59.6597H192.49V58.4897H192.48ZM192.48 55.4897C190.72 55.9497 188.48 55.8097 188.48 57.2797C188.48 58.0297 189.12 58.5197 190.01 58.5197C191.26 58.6397 192.37 57.7297 192.49 56.4797C192.49 56.3997 192.5 56.3197 192.5 56.2397L192.48 55.4897Z" fill="white"/>
        <path d="M203.92 56.529C203.8 58.679 202.44 59.849 200.2 59.849C197.47 59.849 196.2 58.039 196.2 55.409C196.2 52.779 197.61 50.959 200.2 50.959C202.44 50.959 203.81 52.159 203.93 54.309H202.23C202.23 53.239 201.36 52.369 200.29 52.369C200.25 52.369 200.21 52.369 200.18 52.369C198.71 52.369 197.89 53.369 197.89 55.369C197.89 57.369 198.71 58.369 200.18 58.369C201.21 58.469 202.12 57.719 202.22 56.689C202.22 56.609 202.23 56.539 202.22 56.459L203.91 56.529H203.92Z" fill="white"/>
        <path d="M213.42 56.76C213.28 58.55 211.95 59.85 209.69 59.85C206.89 59.85 205.69 58.07 205.69 55.41C205.69 52.75 207 51 209.67 51C212.34 51 213.44 52.7 213.44 55.44V55.71H207.44C207.44 57.57 208.31 58.51 209.65 58.51C210.69 58.64 211.63 57.9 211.75 56.86C211.75 56.84 211.75 56.82 211.75 56.8L213.41 56.76H213.42ZM211.74 54.55C211.87 53.45 211.09 52.46 210 52.32C209.89 52.31 209.78 52.3 209.67 52.31C208.39 52.31 207.61 53.04 207.43 54.55H211.74Z" fill="white"/>
        <path d="M216.52 57.4896C217.12 57.4596 217.63 57.9296 217.66 58.5296C217.66 58.5596 217.66 58.5996 217.66 58.6296C217.68 59.2396 217.21 59.7496 216.6 59.7696C216.57 59.7696 216.55 59.7696 216.52 59.7696C215.89 59.7696 215.38 59.2596 215.38 58.6296C215.38 57.9996 215.89 57.4896 216.52 57.4896Z" fill="white"/>
        <path d="M224.67 47.8398H229.67C231.83 47.8398 233.05 49.0598 233.05 50.7698C233.07 51.7898 232.53 52.7398 231.64 53.2398C232.94 53.6598 233.83 54.8698 233.84 56.2398C233.84 58.3298 232.39 59.6398 230.09 59.6398H224.7L224.67 47.8398ZM229.26 52.8398C230.18 52.9498 231.01 52.2798 231.12 51.3598C231.12 51.2698 231.13 51.1898 231.12 51.0998C231.17 50.2198 230.49 49.4598 229.61 49.4098C229.52 49.4098 229.44 49.4098 229.35 49.4098H226.51V52.7898L229.25 52.8298L229.26 52.8398ZM229.95 58.1898C230.93 58.3098 231.82 57.5998 231.94 56.6198C231.94 56.5398 231.95 56.4498 231.95 56.3698C232.01 55.3198 231.2 54.4298 230.16 54.3698C230.09 54.3698 230.02 54.3698 229.95 54.3698H226.6V58.1798H229.95V58.1898Z" fill="white"/>
        <path d="M243.21 56.759C243.07 58.549 241.74 59.849 239.48 59.849C236.68 59.849 235.48 58.069 235.48 55.409C235.48 52.749 236.8 50.959 239.48 50.959C242.16 50.959 243.24 52.659 243.24 55.399V55.669H237.24C237.29 57.529 238.11 58.469 239.45 58.469C240.5 58.589 241.45 57.839 241.57 56.789C241.57 56.779 241.57 56.769 241.57 56.759H243.21ZM241.53 54.549C241.66 53.449 240.88 52.459 239.79 52.319C239.69 52.309 239.58 52.299 239.47 52.309C238.19 52.309 237.4 53.039 237.23 54.549H241.53Z" fill="white"/>
        <path d="M245.69 52.5299H244.49V51.1199H245.69V48.9199H247.4V51.1199H249.4V52.5299H247.4V56.9999C247.31 57.5899 247.71 58.1499 248.31 58.2499C248.41 58.2699 248.52 58.2699 248.62 58.2499C248.9 58.2499 249.18 58.2199 249.45 58.1699V59.6899C249.08 59.7699 248.7 59.8099 248.32 59.8199C246.67 59.8199 245.69 59.0199 245.69 57.0999V52.5299Z" fill="white"/>
        <path d="M251.35 52.5299H250.15V51.1199H251.35V48.9199H253.07V51.1199H255.07V52.5299H253.07V56.9999C253.07 57.8599 253.48 58.2499 254.28 58.2499C254.56 58.2499 254.84 58.2199 255.12 58.1699V59.6899C254.74 59.7699 254.36 59.8099 253.98 59.8199C252.33 59.8199 251.35 59.0199 251.35 57.0999V52.5299Z" fill="white"/>
        <path d="M264.06 56.759C263.92 58.549 262.59 59.849 260.33 59.849C257.53 59.849 256.33 58.069 256.33 55.409C256.33 52.749 257.66 50.959 260.33 50.959C263 50.959 264.09 52.659 264.09 55.399V55.669H258.09C258.09 57.529 258.96 58.469 260.3 58.469C261.34 58.599 262.28 57.859 262.4 56.819C262.4 56.799 262.4 56.779 262.4 56.759H264.06ZM262.38 54.549C262.51 53.449 261.73 52.459 260.64 52.319C260.54 52.309 260.43 52.299 260.32 52.309C259.03 52.309 258.25 53.039 258.07 54.549H262.38Z" fill="white"/>
        <path d="M266.49 51.1197H268.2V52.4497C268.66 51.5397 269.6 50.9797 270.62 50.9997C270.79 50.9897 270.95 50.9897 271.12 50.9997V52.7797C270.88 52.6997 270.63 52.6697 270.38 52.6697C269.23 52.6097 268.25 53.4997 268.19 54.6497C268.19 54.7697 268.19 54.8797 268.2 54.9997V59.6897H266.49V51.1197Z" fill="white"/>
        <path d="M272.15 57.4896C272.75 57.4596 273.26 57.9296 273.29 58.5296C273.29 58.5596 273.29 58.5996 273.29 58.6296C273.31 59.2396 272.84 59.7496 272.23 59.7696C272.2 59.7696 272.18 59.7696 272.15 59.7696C271.52 59.7696 271.01 59.2596 271.01 58.6296C271.01 57.9996 271.52 57.4896 272.15 57.4896Z" fill="white"/>
        <path d="M55.8105 1.08984H62.1205C62.9505 1.08984 63.6205 1.75984 63.6205 2.58984V8.89984H55.8105V1.08984Z" fill="white"/>
        <path d="M55.65 16.61V8.81H47.79V1H2.5C1.67 1 1 1.67 1 2.5V62C1 62.83 1.67 63.5 2.5 63.5H62C62.83 63.5 63.5 62.83 63.5 62V16.61H55.65Z" stroke="white" stroke-width="2" stroke-miterlimit="10"/>
        <path d="M53.8701 27.9707V29.7207H52.1201V41.9707H53.8701V38.4707H55.6201V27.9707H53.8701Z" fill="#F2F2F2"/>
        <path d="M46.8701 26.2207V29.7207H48.6201V27.9707H52.1201H53.8701V26.2207H46.8701Z" fill="#F2F2F2"/>
        <path d="M52.1201 41.9707H50.3701V43.7207H52.1201V41.9707Z" fill="#F2F2F2"/>
        <path d="M48.6201 43.7207H46.8701V45.4707H48.6201V43.7207Z" fill="#F2F2F2"/>
        <path d="M34.6201 13.9609V17.4709H36.3701V13.9609H34.6201Z" fill="#E0E0E0"/>
        <path d="M34.6104 17.4707H32.8604V19.2207H34.6104V17.4707Z" fill="#E0E0E0"/>
        <path d="M34.6203 10.4609H32.8604V13.9609H34.6203V10.4609Z" fill="#E0E0E0"/>
        <path d="M27.6104 17.4709H29.3604V13.9609H27.6104V17.4709Z" fill="#E0E0E0"/>
        <path d="M27.6104 17.4707H25.8604V19.2207H27.6104V17.4707Z" fill="#E0E0E0"/>
        <path d="M27.6104 10.4609H25.8604V13.9609H27.6104V10.4609Z" fill="#E0E0E0"/>
        <path d="M20.6104 17.4709H22.3604V13.9609H20.6104V17.4709Z" fill="#E0E0E0"/>
        <path d="M20.6104 17.4707H18.8604V19.2207H20.6104V17.4707Z" fill="#E0E0E0"/>
        <path d="M20.6104 10.4609H18.8604V13.9609H20.6104V10.4609Z" fill="#E0E0E0"/>
        <path d="M48.6204 27.9707V29.7207H46.8704V26.2207V22.7207H43.3704V26.2207H45.1204V48.9707H41.6204V50.7207H39.8704V52.4807H34.6204V54.2307H17.1104V55.9807H39.8704V54.2307H43.3704V50.7207H46.8704V47.2207H48.6204V45.4707H46.8704V43.7207V31.4707H50.3704V29.7207H52.1204V27.9707H48.6204Z" fill="#C7C7C7"/>
        <path d="M15.3604 20.9707V22.7207H20.6104V20.9707H15.3604Z" fill="white"/>
        <path d="M15.3604 24.4707V38.4707H17.1104V36.7207H18.8604V27.9707H20.6104V24.4707H15.3604Z" fill="white"/>
        <path d="M53.8701 38.4707V41.9707H55.6201V38.4707H53.8701Z" fill="#E0E0E0"/>
        <path d="M53.8701 41.9707H52.1201V43.7207H53.8701V41.9707Z" fill="#E0E0E0"/>
        <path d="M53.8701 27.9707H52.1201V29.7207H53.8701V27.9707Z" fill="#E0E0E0"/>
        <path d="M48.6201 43.7207V45.4707H52.1201V43.7207H50.3701H48.6201Z" fill="#E0E0E0"/>
        <path d="M43.3703 22.7207H20.6104H15.3604H10.1104V24.4707H15.3604H20.6104H39.8703V45.4707H38.1203V47.2207H36.3703V48.9707H31.1104V50.7207H27.6104V52.4807H13.6104V54.2307H17.1104H34.6203V52.4807H39.8703V50.7207H41.6203V48.9707H45.1203V26.2207H43.3703V22.7207Z" fill="#E0E0E0"/>
        <path d="M20.6104 20.9707V22.7207H43.3704H46.8704V20.9707H20.6104Z" fill="#F2F2F2"/>
        <path d="M20.6104 24.4707V27.9707H18.8604V36.7207H17.1104V38.4707H15.3604V24.4707H10.1104V50.7207H11.8604V52.4807H13.6104H27.6104V50.7207H31.1104V48.9707H36.3703V47.2207H38.1203V45.4707H39.8703V24.4707H20.6104Z" fill="#F2F2F2"/>
        <path d="M15.3604 22.7207V20.9707H10.1104V22.7207H15.3604Z" fill="#F2F2F2"/>
        <path d="M93.5299 40.0493C93.3799 39.7993 93.2299 39.5293 93.0999 39.2593C92.9599 38.9993 92.8399 38.7293 92.7399 38.4493C90.7999 33.3493 88.8899 28.2993 86.9999 23.2893C85.1099 18.2793 83.1699 13.2293 81.1699 8.11938C81.1799 8.04938 81.1799 7.98937 81.1699 7.91937C81.1699 7.85937 81.1699 7.79938 81.1699 7.73938C81.1699 7.31938 81.4399 7.10938 81.9999 7.10938H89.2399C89.7699 7.11937 90.2199 7.48937 90.3499 7.99937L97.2399 28.4893L103.61 7.99937C103.77 7.45937 104.28 7.10938 104.84 7.13938H112.16C112.42 7.11938 112.67 7.18938 112.89 7.32938C113.03 7.45938 113.11 7.64938 113.1 7.83938C113.1 7.91938 113.1 8.00938 113.1 8.08938V8.14937L109.1 19.6293L112.1 28.4693L119.38 7.99937C119.54 7.45937 120.06 7.09938 120.62 7.13938H127.7C127.96 7.11938 128.22 7.17938 128.43 7.32938C128.58 7.45938 128.66 7.64938 128.65 7.83938C128.65 7.91938 128.65 8.00938 128.65 8.08938V8.14937C127.65 10.7893 126.58 13.4293 125.52 16.0493L122.31 23.9293C121.24 26.5493 120.17 29.1793 119.12 31.8093C118.07 34.4393 117 36.9993 116 39.6693C115.91 39.8793 115.77 40.0693 115.6 40.2193C115.39 40.4193 115.12 40.5293 114.83 40.5193H109.32C109.06 40.5393 108.79 40.4693 108.57 40.3293C108.39 40.2093 108.26 40.0293 108.2 39.8293L104.64 30.4693C104.13 31.8293 103.64 33.1693 103.13 34.4693C102.62 35.7693 102.13 37.1193 101.65 38.4693C101.57 38.6793 101.49 38.8993 101.39 39.1293C101.3 39.3593 101.18 39.5793 101.04 39.7793C100.92 39.9793 100.76 40.1493 100.58 40.2893C100.41 40.4293 100.2 40.4993 99.9799 40.4893H94.4699C94.0999 40.5493 93.7199 40.3793 93.5299 40.0493Z" fill="white"/>
        <path d="M127.86 26.2594C127.86 23.6194 128.54 21.0194 129.86 18.7294C130.5 17.6394 131.27 16.6294 132.16 15.7294C133.06 14.8394 134.06 14.0794 135.16 13.4494C137.45 12.1394 140.04 11.4494 142.68 11.4494C144.65 11.4394 146.6 11.8194 148.42 12.5894C150.17 13.3094 151.76 14.3694 153.1 15.7094C154.44 17.0494 155.51 18.6394 156.25 20.3894C157.54 23.4894 157.76 26.9394 156.88 30.1794C155.88 33.8994 153.45 37.0694 150.12 38.9994C147.86 40.3094 145.29 40.9994 142.68 40.9994C141.33 40.9994 139.98 40.8294 138.68 40.4794C137.44 40.1494 136.25 39.6594 135.14 39.0094C132.95 37.7394 131.13 35.9194 129.86 33.7294C129.22 32.6194 128.72 31.4294 128.38 30.1894C128.03 28.9094 127.86 27.5894 127.86 26.2594ZM136.07 26.2594C136.07 27.2094 136.22 28.1494 136.53 29.0394C136.82 29.8594 137.26 30.6194 137.84 31.2794C138.39 31.9094 139.08 32.4194 139.84 32.7694C140.69 33.1494 141.62 33.3394 142.55 33.3194C143.46 33.3294 144.36 33.1494 145.19 32.7694C145.96 32.4294 146.64 31.9194 147.19 31.2794C147.78 30.6194 148.22 29.8394 148.5 28.9994C149.09 27.1994 149.09 25.2694 148.5 23.4694C148.23 22.6294 147.8 21.8594 147.24 21.1794C146.7 20.5194 146.01 19.9894 145.24 19.6194C144.42 19.2194 143.51 19.0294 142.6 19.0394C141.66 19.0194 140.74 19.2194 139.89 19.6194C139.12 19.9894 138.44 20.5194 137.89 21.1794C137.32 21.8594 136.87 22.6294 136.58 23.4694C136.25 24.3594 136.08 25.3094 136.07 26.2594Z" fill="white"/>
        <path d="M161.88 13.6093C161.88 13.3593 161.94 13.1093 162.05 12.8793C162.15 12.6693 162.29 12.4793 162.47 12.3293C162.83 12.0893 163.25 11.9493 163.68 11.9493H167.08C167.31 11.9393 167.55 11.9893 167.75 12.1093C167.92 12.2093 168.06 12.3493 168.17 12.5093C168.29 12.6893 168.38 12.8693 168.46 13.0693C168.54 13.2893 168.64 13.4993 168.76 13.6993L168.95 14.1393C169.03 14.3793 169.13 14.6293 169.24 14.9093C169.35 15.1893 169.44 15.4493 169.54 15.6993C169.64 15.9493 169.7 16.0993 169.73 16.1793C170.18 15.6793 170.61 15.1793 171.03 14.6193C171.43 14.0793 171.87 13.5693 172.34 13.0993C172.8 12.6593 173.32 12.2893 173.89 11.9993C174.51 11.6893 175.2 11.5393 175.89 11.5493C176.62 11.5493 177.34 11.5993 178.06 11.7293C178.68 11.8393 179.29 12.0193 179.87 12.2593C180.46 12.4993 181.03 12.7993 181.57 13.1493C182.13 13.5093 182.74 13.9293 183.4 14.4093C184.4 14.9593 184.63 15.7893 183.99 16.8793L182 20.3193C181.76 20.7293 181.36 21.0293 180.9 21.1493C180.42 21.2493 179.91 21.1793 179.48 20.9493C178.9 20.3693 178.22 19.8893 177.48 19.5393C176.76 19.2293 175.98 19.0693 175.2 19.0793C174.68 19.0693 174.15 19.1493 173.66 19.3293C173.22 19.4893 172.81 19.7293 172.45 20.0293C172.08 20.3493 171.74 20.7193 171.45 21.1093C171.14 21.5293 170.82 21.9893 170.51 22.4993V38.7893C170.54 39.2593 170.39 39.7193 170.09 40.0793C169.71 40.4093 169.21 40.5693 168.71 40.5193H163.65C162.81 40.6493 162.02 40.0693 161.89 39.2293C161.87 39.0793 161.87 38.9293 161.89 38.7893V13.6093H161.88Z" fill="white"/>
        <path d="M187.78 4.48025C187.78 4.29025 187.86 4.10025 187.97 3.94025C188.11 3.77025 188.29 3.65025 188.5 3.59025C188.83 3.50025 189.16 3.46025 189.5 3.47025H194.88C195.12 3.46025 195.37 3.51025 195.59 3.61025C195.77 3.70025 195.92 3.82025 196.04 3.98025C196.15 4.12025 196.22 4.29025 196.26 4.47025C196.3 4.63025 196.32 4.79025 196.32 4.95025V21.6002L204.42 12.6002C204.76 12.1902 205.27 11.9502 205.81 11.9502H212.72C213.55 11.9502 213.96 12.2702 213.96 12.9502C213.96 13.0902 213.94 13.2202 213.88 13.3502C213.79 13.5102 213.68 13.6702 213.55 13.8002L204.31 23.5702L216 38.4802H215.95C216.13 38.6402 216.27 38.8502 216.37 39.0702C216.44 39.2402 216.48 39.4302 216.49 39.6202C216.53 39.8902 216.42 40.1602 216.21 40.3302C215.96 40.4802 215.66 40.5402 215.37 40.5202H207.76C207.49 40.5202 207.24 40.4102 207.04 40.2302C206.76 39.9702 206.51 39.6702 206.3 39.3502L198.94 28.9402L196.45 31.5202V38.7902C196.45 38.9502 196.43 39.1102 196.39 39.2602C196.35 39.4602 196.28 39.6602 196.17 39.8402C196.05 40.0302 195.89 40.2002 195.7 40.3202C195.47 40.4702 195.21 40.5402 194.94 40.5202H189.29C189.04 40.5202 188.8 40.4502 188.59 40.3102C188.41 40.1802 188.25 40.0202 188.13 39.8302C188.03 39.6702 187.95 39.5002 187.89 39.3202C187.85 39.2302 187.82 39.1402 187.81 39.0402L187.78 4.48025Z" fill="white"/>
        <path d="M274.15 36.9988C273.75 37.3988 273.3 37.8388 272.81 38.2988C272.31 38.7788 271.78 39.2188 271.21 39.6088C270.62 40.0088 269.99 40.3488 269.32 40.6088C268.62 40.8688 267.88 41.0088 267.13 40.9988C263.32 41.0388 259.67 39.4888 257.06 36.7188C255.81 35.3488 254.82 33.7588 254.16 32.0188C252.77 28.2688 252.77 24.1488 254.16 20.3988C254.82 18.6688 255.81 17.0788 257.06 15.7188C258.31 14.3788 259.82 13.3188 261.5 12.5988C263.28 11.8288 265.19 11.4388 267.13 11.4588C267.9 11.4588 268.66 11.5688 269.39 11.8188C270.05 12.0488 270.68 12.3588 271.26 12.7388C271.82 13.1088 272.33 13.5388 272.81 14.0088C273.29 14.4888 273.73 14.9488 274.15 15.3988V5.14886C274.14 4.70886 274.3 4.26886 274.59 3.93886C274.94 3.58886 275.42 3.39886 275.91 3.43886H281C281.21 3.43886 281.42 3.48886 281.62 3.56886C281.84 3.64886 282.04 3.76886 282.22 3.91886C282.4 4.06886 282.54 4.24886 282.65 4.45886C282.77 4.66886 282.83 4.90886 282.82 5.14886V38.7888C282.82 39.9488 282.22 40.5188 281 40.5188H276.59C276.35 40.5288 276.11 40.4988 275.89 40.4088C275.73 40.3388 275.58 40.2188 275.48 40.0788C275.35 39.9188 275.25 39.7388 275.17 39.5488C275.08 39.3288 274.97 39.0788 274.84 38.7888L274.15 36.9988ZM261.22 26.2588C261.22 27.2088 261.37 28.1488 261.68 29.0388C261.96 29.8688 262.41 30.6288 263 31.2788C263.58 31.9088 264.28 32.4188 265.06 32.7688C265.9 33.1488 266.81 33.3288 267.73 33.3188C268.66 33.3188 269.58 33.1488 270.44 32.8088C271.26 32.4788 272.02 31.9888 272.66 31.3788C273.29 30.7588 273.8 30.0288 274.17 29.2288C274.56 28.3888 274.78 27.4888 274.82 26.5688V26.2588C274.82 25.3188 274.64 24.3788 274.28 23.5088C273.93 22.6588 273.42 21.8788 272.78 21.2188C272.14 20.5588 271.37 20.0288 270.53 19.6588C269.65 19.2688 268.69 19.0688 267.73 19.0788C266.81 19.0688 265.89 19.2588 265.06 19.6588C264.27 20.0288 263.57 20.5588 263 21.2188C262.42 21.8888 261.98 22.6688 261.69 23.5088C261.38 24.3888 261.22 25.3188 261.22 26.2588Z" fill="white"/>
        <path d="M339.83 37.1003C338.53 38.3303 337.03 39.3103 335.38 40.0003C333.71 40.6803 331.93 41.0203 330.13 41.0003C326.17 41.0203 322.35 39.5003 319.49 36.7603C318.1 35.4003 316.98 33.7903 316.21 32.0003C315.4 30.1603 314.99 28.1803 315 26.1703C314.99 23.6103 315.63 21.1003 316.86 18.8603C317.45 17.7703 318.18 16.7603 319.02 15.8603C319.86 14.9603 320.81 14.1803 321.86 13.5403C324.06 12.1903 326.6 11.4803 329.18 11.4903C330.4 11.4903 331.62 11.6503 332.8 11.9803C333.95 12.3003 335.06 12.7703 336.09 13.3803C338.14 14.5803 339.85 16.2703 341.09 18.3003C341.71 19.2903 342.19 20.3703 342.52 21.4903C342.86 22.6303 343.03 23.8003 343.03 24.9903V26.9003C343.03 27.3203 342.92 27.7303 342.69 28.0803C342.43 28.4103 342.05 28.6303 341.64 28.6903C340.93 28.8203 340.21 28.8803 339.49 28.8603H323.29C323.4 29.7203 323.71 30.5503 324.2 31.2703C324.63 31.8803 325.17 32.4003 325.79 32.8103C326.38 33.1803 327.02 33.4603 327.7 33.6303C328.32 33.7903 328.97 33.8703 329.61 33.8803C330.17 33.8803 330.73 33.8203 331.28 33.7103C331.84 33.6003 332.39 33.4503 332.93 33.2603C333.43 33.0803 333.92 32.8603 334.39 32.6103C334.78 32.4003 335.14 32.1403 335.46 31.8303C335.65 31.6703 335.86 31.5203 336.08 31.3903C336.25 31.2903 336.44 31.2403 336.63 31.2403C336.85 31.2403 337.06 31.3203 337.23 31.4503C337.48 31.6203 337.71 31.8203 337.92 32.0303L340.3 34.7303C340.44 34.8803 340.55 35.0603 340.62 35.2603C340.66 35.4203 340.68 35.5803 340.68 35.7403C340.68 36.0203 340.6 36.2903 340.44 36.5203C340.27 36.7403 340.06 36.9403 339.83 37.1003ZM329 18.3603C328.42 18.3603 327.84 18.4803 327.3 18.7103C326.74 18.9403 326.23 19.2603 325.76 19.6403C325.28 20.0403 324.84 20.4803 324.46 20.9703C324.1 21.4403 323.79 21.9503 323.53 22.4803H335C334.71 21.9203 334.37 21.3703 334 20.8603C333.64 20.3703 333.22 19.9303 332.74 19.5503C332.25 19.1703 331.71 18.8803 331.12 18.6803C330.44 18.4603 329.72 18.3503 329 18.3603Z" fill="white"/>
        <path d="M382 7.48922C381.99 7.09922 382.16 6.72922 382.47 6.48922C382.87 6.19922 383.31 5.97922 383.78 5.81922L388.88 3.99922H389.28C389.72 3.93922 390.15 4.12922 390.4 4.48922C390.61 4.87922 390.7 5.31922 390.68 5.75922V12.8492H394.43C394.86 12.8292 395.28 12.9792 395.6 13.2692C395.92 13.6192 396.09 14.0892 396.05 14.5592V18.8992C396.09 19.3992 395.93 19.8992 395.6 20.2792C395.29 20.5792 394.86 20.7392 394.43 20.7192H390.68V38.8092C390.71 39.2892 390.53 39.7692 390.18 40.0992C389.79 40.4092 389.31 40.5692 388.81 40.5392H383.73C382.89 40.6592 382.12 40.0792 382 39.2392C381.98 39.0892 381.98 38.9392 382 38.7892V20.6992H380.36C379.2 20.6992 378.63 20.0892 378.63 18.8792V14.5392C378.52 13.7092 379.1 12.9392 379.93 12.8292C380.07 12.8092 380.22 12.8092 380.36 12.8292H382V7.48922Z" fill="white"/>
        <path d="M426.12 40.1406C425.94 40.3006 425.73 40.4106 425.5 40.4606C425.3 40.5006 425.09 40.5206 424.88 40.5306H421.48C421.24 40.5306 421 40.4806 420.78 40.3806C420.59 40.2806 420.43 40.1506 420.29 39.9906C420.15 39.8206 420.04 39.6306 419.95 39.4306C419.86 39.2206 419.79 39.0006 419.73 38.7806L419 35.9006C418.71 36.4506 418.38 36.9806 418 37.4806C417.54 38.1106 416.99 38.6706 416.37 39.1506C415.65 39.7006 414.86 40.1306 414.01 40.4506C413 40.8106 411.93 40.9906 410.86 40.9706C407.7 41.0206 404.69 39.6706 402.63 37.2806C401.63 36.1006 400.85 34.7406 400.35 33.2806C399.8 31.7206 399.53 30.0706 399.54 28.4106V13.6806C399.51 13.2206 399.64 12.7606 399.91 12.3906C400.22 12.0706 400.65 11.9106 401.09 11.9506H406.29C406.76 11.9006 407.23 12.0206 407.62 12.2806C407.91 12.6406 408.04 13.1006 407.98 13.5506V28.2106C407.98 28.8506 408.13 29.4806 408.42 30.0506C408.71 30.6306 409.1 31.1506 409.57 31.5806C410.05 32.0206 410.61 32.3806 411.21 32.6306C411.8 32.8806 412.42 33.0106 413.06 33.0106C413.64 33.0006 414.21 32.8706 414.74 32.6306C415.32 32.3806 415.86 32.0406 416.34 31.6306C416.82 31.2006 417.23 30.6906 417.54 30.1206C417.85 29.5606 418.01 28.9306 418.01 28.2906V13.6206C418.01 13.3606 418.06 13.0906 418.16 12.8506C418.24 12.6106 418.39 12.4006 418.6 12.2606C418.77 12.1506 418.95 12.0706 419.15 12.0206C419.34 11.9706 419.54 11.9506 419.74 11.9506H424.83C425.34 11.9006 425.84 12.0706 426.22 12.4206C426.52 12.7706 426.67 13.2206 426.65 13.6806V38.8606C426.65 39.1406 426.59 39.4106 426.46 39.6506C426.34 39.8806 426.16 40.0806 425.93 40.2106L426.12 40.1406Z" fill="white"/>
        <path d="M432.1 13.6093C432.1 13.3593 432.16 13.1093 432.27 12.8793C432.37 12.6693 432.51 12.4793 432.69 12.3293C433.05 12.1093 433.47 11.9893 433.9 11.9993H437.3C437.53 11.9893 437.77 12.0393 437.97 12.1593C438.14 12.2593 438.28 12.3993 438.39 12.5593C438.51 12.7393 438.6 12.9193 438.68 13.1193C438.77 13.3393 438.87 13.5493 438.99 13.7493C438.99 13.8093 439.08 13.9593 439.17 14.1893C439.26 14.4193 439.35 14.6793 439.46 14.9593C439.57 15.2393 439.66 15.4993 439.76 15.7493C439.86 15.9993 439.92 16.1493 439.95 16.2293C440.4 15.7293 440.83 15.2293 441.25 14.6693C441.65 14.1293 442.09 13.6193 442.56 13.1493C443.02 12.6893 443.54 12.2993 444.12 11.9993C444.74 11.6893 445.43 11.5393 446.12 11.5493C446.85 11.5493 447.57 11.5993 448.29 11.7293C448.91 11.8393 449.52 12.0193 450.1 12.2593C450.69 12.4993 451.26 12.7993 451.8 13.1493C452.36 13.5093 452.98 13.9293 453.64 14.4093C454.43 14.7293 454.82 15.6293 454.5 16.4293C454.43 16.5993 454.34 16.7493 454.22 16.8793L452.17 20.3693C451.93 20.7793 451.53 21.0793 451.07 21.1993C450.59 21.2993 450.09 21.2293 449.65 20.9993C449.07 20.4193 448.39 19.9393 447.65 19.5893C446.93 19.2693 446.15 19.1193 445.37 19.1293C444.85 19.1193 444.32 19.1993 443.83 19.3793C443.39 19.5393 442.99 19.7793 442.63 20.0793C442.26 20.3993 441.92 20.7593 441.63 21.1593C441.32 21.5793 441 22.0393 440.69 22.5493V38.7893C440.72 39.2593 440.57 39.7193 440.27 40.0793C439.89 40.4093 439.39 40.5693 438.89 40.5193H433.83C432.99 40.6493 432.2 40.0693 432.07 39.2293C432.05 39.0793 432.05 38.9293 432.07 38.7893L432.1 13.6093Z" fill="white"/>
        <path d="M479.76 37.0994C478.46 38.3294 476.95 39.3094 475.3 39.9994C473.64 40.6794 471.86 41.0194 470.06 40.9994C466.1 41.0194 462.28 39.4994 459.42 36.7594C458.02 35.3994 456.9 33.7894 456.13 31.9994C455.31 30.1494 454.9 28.1494 454.92 26.1294C454.92 23.5794 455.55 21.0594 456.77 18.8194C457.36 17.7294 458.09 16.7194 458.93 15.8194C461.56 13.0194 465.24 11.4294 469.09 11.4494C470.31 11.4494 471.53 11.6094 472.71 11.9394C475.02 12.5894 477.12 13.8094 478.83 15.4994C479.67 16.3394 480.39 17.2894 481 18.3094C481.61 19.3094 482.09 20.3794 482.43 21.4994C482.79 22.6294 482.98 23.8094 483 24.9994V26.9094C483 27.3294 482.88 27.7394 482.65 28.0894C482.4 28.4094 482.05 28.6194 481.65 28.6994C480.94 28.8294 480.23 28.8894 479.51 28.8694H463.2C463.31 29.7294 463.62 30.5594 464.11 31.2794C464.53 31.8894 465.07 32.4094 465.69 32.8194C466.28 33.1894 466.93 33.4694 467.61 33.6394C468.23 33.7994 468.88 33.8794 469.52 33.8894C470.08 33.8894 470.63 33.8294 471.18 33.7194C471.74 33.6094 472.3 33.4594 472.84 33.2694C473.34 33.0894 473.83 32.8694 474.3 32.6194C474.69 32.4094 475.05 32.1494 475.37 31.8394C475.56 31.6694 475.77 31.5294 475.99 31.3994C476.16 31.2994 476.35 31.2494 476.54 31.2494C476.75 31.2494 476.96 31.3294 477.13 31.4594C477.38 31.6294 477.61 31.8194 477.82 32.0394L480.21 34.7394C480.35 34.8894 480.45 35.0694 480.52 35.2694C480.57 35.4294 480.59 35.5894 480.59 35.7494C480.59 36.0294 480.51 36.3094 480.34 36.5294C480.18 36.7494 479.98 36.9394 479.76 37.0994ZM468.93 18.3594C468.35 18.3594 467.77 18.4794 467.23 18.7094C466.68 18.9494 466.16 19.2594 465.69 19.6394C465.21 20.0394 464.78 20.4994 464.4 20.9994C464.04 21.4694 463.73 21.9794 463.47 22.5094H475C474.71 21.9394 474.38 21.3994 474 20.8894C473.64 20.3994 473.21 19.9594 472.74 19.5794C472.25 19.1994 471.71 18.9094 471.12 18.7094C470.42 18.4694 469.67 18.3494 468.93 18.3594Z" fill="white"/>
        <path d="M239.57 35.0098H234.08V40.4998H239.57V35.0098Z" fill="white"/>
        <path d="M303.89 11.9492H298.4V17.4392H303.89V11.9492Z" fill="white"/>
        <path d="M347.91 11.9902H342.42V17.4802H347.91V11.9902Z" fill="white"/>
        <path d="M355.12 17.4195H347.75V38.7895C347.66 39.6595 348.28 40.4395 349.15 40.5295C349.29 40.5495 349.43 40.5395 349.57 40.5195H354.66C354.86 40.5195 355.06 40.4995 355.25 40.4595C355.45 40.3995 355.64 40.3195 355.81 40.2095C356.01 40.0595 356.16 39.8595 356.24 39.6195C356.34 39.3795 356.39 39.1195 356.39 38.8595V24.2295C356.43 23.5695 356.62 22.9295 356.94 22.3495C357.25 21.7895 357.66 21.2795 358.13 20.8495C358.59 20.4295 359.12 20.0995 359.69 19.8495C360.21 19.6195 360.77 19.4995 361.34 19.4895C361.98 19.4895 362.61 19.6195 363.2 19.8695C363.8 20.1095 364.35 20.4495 364.83 20.8695C365.36 21.3595 365.78 21.9495 366.08 22.6095C366.31 23.1195 366.43 23.6795 366.43 24.2395V38.9295C366.37 39.3795 366.5 39.8395 366.79 40.1995C367.18 40.4595 367.65 40.5695 368.11 40.5195H373.31C373.75 40.5595 374.19 40.3995 374.49 40.0795C374.76 39.7095 374.89 39.2495 374.86 38.7895V24.0495C374.87 22.3995 374.6 20.7495 374.05 19.1895C373.55 17.7295 372.77 16.3695 371.77 15.1895C370.78 14.0495 369.57 13.1295 368.2 12.4995C366.74 11.8195 365.16 11.4795 363.55 11.4995C362.47 11.4795 361.4 11.6595 360.39 12.0295C359.54 12.3395 358.75 12.7795 358.03 13.3295C357.41 13.8095 356.86 14.3695 356.4 14.9995C356.05 15.4695 355.74 15.9695 355.47 16.4895C355.44 16.5495 355.41 16.6095 355.39 16.6795L355.12 17.4195Z" fill="white"/>
        <path d="M303.84 17.3988L300.39 28.3988C300.29 28.1288 300.13 27.6788 299.91 27.0388C299.69 26.3988 299.44 25.6488 299.17 24.7888C298.9 23.9288 298.59 22.9788 298.26 21.9588C297.93 20.9388 297.59 19.8888 297.26 18.8488C296.93 17.8088 296.6 16.7888 296.26 15.7988C295.92 14.8088 295.67 13.9188 295.41 13.1188C295.31 12.7588 295.09 12.4388 294.79 12.2188C294.5 12.0088 294.15 11.8988 293.79 11.9088H288C287.3 11.9088 286.85 12.1288 286.66 12.5588C286.48 13.0888 286.54 13.6588 286.83 14.1388L297.2 39.5188C297.31 39.7988 297.5 40.0488 297.75 40.2288C298.15 40.4288 298.59 40.5188 299.03 40.4788H301.7C302.06 40.4988 302.41 40.3988 302.7 40.1988C302.93 40.0088 303.13 39.7788 303.28 39.5188L312.52 17.3588L303.84 17.3988Z" fill="white"/>
        <path d="M250.46 39.5093L238.65 9.04938L238.09 7.75938C237.97 7.60938 237.83 7.46938 237.68 7.34938C237.5 7.19938 237.27 7.10938 237.03 7.10938H231.27C231.14 7.10938 231.01 7.13937 230.89 7.18937C230.75 7.23937 230.62 7.30937 230.5 7.39937C230.39 7.47937 230.28 7.58938 230.2 7.69938C230.13 7.77938 230.08 7.87938 230.05 7.98938L217.84 39.6193C217.72 39.9193 217.75 40.1493 217.94 40.2993C218.14 40.4493 218.39 40.5293 218.65 40.5193H225.28C225.81 40.5493 226.29 40.2093 226.43 39.6893L227.3 37.4093C227.59 36.6493 227.88 35.8893 228.16 35.1193H234.16V27.8993H230.69C230.98 27.1393 231.27 26.3093 231.56 25.4393C231.85 24.5693 232.14 23.6693 232.43 22.7693C232.72 21.8693 233 20.9793 233.29 20.0893C233.58 19.1993 233.87 18.3793 234.16 17.6193L241.85 39.6893C241.93 39.9393 242.08 40.1693 242.29 40.3293C242.53 40.4693 242.81 40.5393 243.09 40.5193H249.55C249.86 40.5593 250.17 40.4493 250.4 40.2393C250.57 40.0293 250.59 39.7393 250.46 39.5093Z" fill="white"/>
    </g>
    <defs>
        <clipPath id="clip0_724_2">
            <rect width="483" height="65" fill="white"/>
        </clipPath>
    </defs>
</svg>
