<?xml version="1.0" encoding="utf-8"?>
<!-- Generator: Adobe Illustrator 28.2.0, SVG Export Plug-In . SVG Version: 6.00 Build 0)  -->
<svg version="1.1" id="Capa_1" xmlns="http://www.w3.org/2000/svg" xmlns:xlink="http://www.w3.org/1999/xlink" x="0px" y="0px"
	 viewBox="0 0 477.9 477.9" style="enable-background:new 0 0 477.9 477.9;" xml:space="preserve">
<style type="text/css">
	.st0{fill:#FFFFFF;}
</style>
<g>
	<g>
		<path class="st0" d="M460.8,0c-2.7,0-5.3,0.6-7.6,1.8L323.8,66.5l-146.2-65c-0.2-0.1-0.5-0.1-0.8-0.2c-0.7-0.2-1.3-0.5-2-0.6
			c-0.7-0.2-1.4-0.3-2.1-0.4c-1.4-0.1-2.8-0.1-4.2,0c-0.7,0.1-1.4,0.2-2.1,0.4c-0.7,0.2-1.4,0.4-2,0.6c-0.3,0.1-0.5,0.1-0.8,0.2
			L10.1,69.7C4,72.5,0,78.6,0,85.3v375.5c0,5.8,2.9,11.2,7.8,14.3c4.8,3.2,10.9,3.6,16.2,1.3l146.7-65.2l146.7,65.2
			c0.3,0.1,0.5,0,0.8,0.2c4.1,1.8,8.9,1.7,12.9-0.3c0.3-0.1,0.6,0,0.9-0.2l136.5-68.3c5.8-2.9,9.4-8.8,9.4-15.3V17.1
			C477.9,7.6,470.2,0,460.8,0z M153.6,381.4L34.1,434.5V96.4l119.5-53.1V381.4z M307.2,434.5l-119.5-53.1V43.3l119.5,53.1V434.5z
			 M443.7,382l-102.4,51.2V95.9l102.4-51.2V382z"/>
	</g>
</g>
</svg>
