<?xml version="1.0" encoding="utf-8"?>
<!-- Generator: Adobe Illustrator 27.3.1, SVG Export Plug-In . SVG Version: 6.00 Build 0)  -->
<svg version="1.1" id="uuid-ee768217-a98e-4fab-bddd-7913217901f1"
	 xmlns="http://www.w3.org/2000/svg" xmlns:xlink="http://www.w3.org/1999/xlink" x="0px" y="0px" viewBox="0 0 486.7 418.4"
	 style="enable-background:new 0 0 486.7 418.4;" xml:space="preserve">
<style type="text/css">
	.st0{fill:#FFFFFF;}
</style>
<path class="st0" d="M446,129.2h-15.3v-95c0-13.3-7.2-24.5-18.9-30.7C400-2.1,386.2-1.1,376,7.1l-122.6,95H105.8
	c-26.1,0-48,17.4-55.2,41.4h-22C12.8,143.5,0,156.3,0,172.1V213c0,15.8,12.8,28.6,28.6,28.6h22c7.2,23,27.6,40.4,53.1,41.4
	l27.6,113.9c3.1,12.8,14.3,21.5,27.1,21.5h0.5l36.3-0.5c8.7,0,16.4-4.1,22-10.7c5.1-6.6,7.2-15.3,5.1-23.5l-24-100.1h56.2l122.6,95
	c6.1,4.6,13.3,7.2,20.9,7.2c5.1,0,10.2-1,14.8-3.6c11.8-5.6,18.9-17.4,18.9-30.7l0-95.5H447c22,0,39.3-17.4,39.3-39.3V168
	C485.4,146.6,468,129.2,446,129.2L446,129.2z M28.6,172.6H48v39.9H29.6L28.6,172.6z M77.1,225.3v-65.4c0-15.8,12.8-28.6,28.6-28.6
	h141.5v122.6l-141.5,0C89.9,253.9,77.1,241.1,77.1,225.3L77.1,225.3z M192.6,388.2l-33.2,0.5l-25.5-105.2h33.2L192.6,388.2z
	 M401.6,351c0,2.6-1.5,3.6-2.6,4.1c-1,0.5-3.1,1-4.6-0.5l-117.5-90.9V121l117.5-90.9c2-1.5,4.1-1,4.6-0.5c1,0.5,2.6,1.5,2.6,4.1V351
	z M456.2,216.6c0,5.6-4.6,10.2-10.2,10.2h-15.3v-68.5H446c5.6,0,10.2,4.6,10.2,10.2V216.6z"/>
</svg>
