<svg width="44" height="45" viewBox="0 0 44 45" fill="none" xmlns="http://www.w3.org/2000/svg">
<g clip-path="url(#clip0_2203_14891)">
<path d="M9.1665 18.8874C9.1665 22.291 10.5186 25.5552 12.9253 27.9619C15.332 30.3686 18.5962 31.7207 21.9998 31.7207M21.9998 31.7207C25.4034 31.7207 28.6677 30.3686 31.0744 27.9619C33.4811 25.5552 34.8332 22.291 34.8332 18.8874M21.9998 31.7207V39.054M14.6665 39.054H29.3332M16.4998 9.7207C16.4998 8.26201 17.0793 6.86307 18.1108 5.83162C19.1422 4.80017 20.5411 4.2207 21.9998 4.2207C23.4585 4.2207 24.8575 4.80017 25.8889 5.83162C26.9204 6.86307 27.4998 8.26201 27.4998 9.7207V18.8874C27.4998 20.3461 26.9204 21.745 25.8889 22.7765C24.8575 23.8079 23.4585 24.3874 21.9998 24.3874C20.5411 24.3874 19.1422 23.8079 18.1108 22.7765C17.0793 21.745 16.4998 20.3461 16.4998 18.8874V9.7207Z" stroke="white" stroke-width="2" stroke-linecap="round" stroke-linejoin="round"/>
</g>
<defs>
<clipPath id="clip0_2203_14891">
<rect width="44" height="44" fill="white" transform="translate(0 0.554688)"/>
</clipPath>
</defs>
</svg>
