<?xml version="1.0" encoding="utf-8"?>
<!-- Generator: Adobe Illustrator 24.1.0, SVG Export Plug-In . SVG Version: 6.00 Build 0)  -->
<svg version="1.1" id="Capa_1" xmlns="http://www.w3.org/2000/svg" xmlns:xlink="http://www.w3.org/1999/xlink" x="0px" y="0px"
	 viewBox="0 0 512 512" style="enable-background:new 0 0 512 512;" xml:space="preserve">
<style type="text/css">
	.st0{fill:#FFFFFF;}
</style>
<rect x="257" y="-47.9" transform="matrix(-0.7402 0.6723 -0.6723 -0.7402 643.9641 283.6469)" class="st0" width="20.4" height="628.3"/>
<g>
	<g>
		<path class="st0" d="M333.6,250.3c-52.6-43.9-105.1-87.9-157.7-131.8c0-17.9,0-35.8,0-53.6c6.5-38.6,40.3-67,79.3-66.8
			c38.6,0.2,71.9,28.5,78.4,66.8C333.6,126.7,333.6,188.5,333.6,250.3z"/>
		<path class="st0" d="M322.6,279.9c-48.9-53.8-97.8-107.6-146.6-161.4l0,0c52.6,43.9,105.1,87.9,157.7,131.8
			c-0.2,1.6-0.5,3.3-0.9,5C330.5,265.2,326.6,273.5,322.6,279.9z"/>
	</g>
	<path class="st0" d="M292.5,308.1c-2.3,1.2-39.5,20.3-76.7-1c-36.4-20.8-39.4-61.2-39.6-64.1c-0.1-21-0.1-42.1-0.2-63.1
		C214.8,222.6,253.6,265.3,292.5,308.1z"/>
</g>
<path class="st0" d="M431.6,238.5c-0.9-8.4-8.5-14.4-16.6-13.5c-7.9,0.9-13.9,8.1-13.2,16.3c-0.1,13.3-2.2,34.6-12.6,57.9
	c-6.3,14.2-14,25.2-20.6,33.1c6.8,7.5,13.6,14.9,20.3,22.4c9.5-10.9,23.4-29.7,32.8-56.3C430.3,273.9,431.8,252.5,431.6,238.5z"/>
<line class="st0" x1="354.5" y1="347.2" x2="374.6" y2="369.4"/>
<path class="st0" d="M338.5,359.9c6.8,7.4,13.5,14.9,20.3,22.3c-52.6,37.6-121.5,43.7-179.2,15.8c-60.3-29.1-98.9-90.7-99.3-158.2
	c0-8.2,6.8-15,15-15s15,6.8,15,15c0.1,13.5,2.4,54.4,32.4,91.6c4.2,5.2,45.1,54.1,113.3,54.1C297,385.6,326.7,367.9,338.5,359.9z"/>
<rect x="241" y="409.6" class="st0" width="29.9" height="102.3"/>
<path class="st0" d="M304.2,511.9h-97.1c-8-0.4-14.3-7.1-14.3-15c0-8.1,6.7-14.9,15-15c31.7,0,63.4,0.1,95.1,0.1
	c8.9-0.6,16.3,6.5,16.3,14.9C319.2,504.8,312.6,511.7,304.2,511.9z"/>
</svg>
