<?xml version="1.0" encoding="utf-8"?>
<!-- Generator: Adobe Illustrator 24.3.0, SVG Export Plug-In . SVG Version: 6.00 Build 0)  -->
<svg version="1.1" id="Calque_1" xmlns="http://www.w3.org/2000/svg" xmlns:xlink="http://www.w3.org/1999/xlink" x="0px" y="0px"
	 viewBox="0 0 448 448" style="enable-background:new 0 0 448 448;" xml:space="preserve">
<style type="text/css">
	.st0{fill:#56EAFF;}
</style>
<path class="st0" d="M348,288c-44.2,0-80,35.8-80,80s35.8,80,80,80s80-35.8,80-80C428,323.8,392.2,288,348,288z M387.6,359.6
	c-3.1,3.1-8.2,3.1-11.3,0L356,339.3V416c0,4.4-3.6,8-8,8s-8-3.6-8-8v-76.7l-20.3,20.3c-3.1,3-8.1,3-11.2-0.1s-3.1-8.1-0.1-11.2
	l33.9-33.9c0.7-0.7,1.6-1.3,2.6-1.7c2-0.8,4.2-0.8,6.1,0c1,0.4,1.9,1,2.6,1.7l33.9,33.9C390.7,351.4,390.7,356.5,387.6,359.6z"/>
<path class="st0" d="M244,154.6L148,182v15.4l96-27.4V154.6z"/>
<path class="st0" d="M244,280c0,8.8-7.2,16-16,16s-16-7.2-16-16s7.2-16,16-16S244,271.2,244,280z"/>
<path class="st0" d="M132,312c0,8.8-7.2,16-16,16s-16-7.2-16-16s7.2-16,16-16S132,303.2,132,312z"/>
<path class="st0" d="M31.3,80H100V11.3L31.3,80z"/>
<path class="st0" d="M20,448h275c-0.1-0.1-0.2-0.1-0.3-0.2c-2.9-2-5.8-4.1-8.5-6.4c-0.7-0.6-1.4-1.3-2.1-1.9
	c-1.9-1.7-3.8-3.5-5.6-5.4c-0.8-0.9-1.6-1.8-2.4-2.7c-1.6-1.8-3.2-3.8-4.7-5.7c-0.7-0.9-1.4-1.8-2-2.7c-1.8-2.6-3.5-5.2-5-8
	c-0.2-0.4-0.4-0.7-0.6-1c-1.7-3.1-3.2-6.4-4.6-9.7c-0.4-1-0.7-2-1.1-3c-0.9-2.4-1.7-4.9-2.4-7.4c-0.3-1.2-0.6-2.4-0.9-3.6
	c-0.6-2.5-1.1-5-1.5-7.6c-0.2-1.1-0.4-2.3-0.5-3.4c-0.9-6.9-1-13.9-0.2-20.8c0.1-1.1,0.3-2.1,0.5-3.1c0.3-2.1,0.5-4.1,0.9-6.2
	c0.2-1.2,0.6-2.4,0.9-3.7c0.4-1.8,0.8-3.6,1.4-5.3c0.4-1.3,0.9-2.5,1.3-3.8c0.6-1.6,1.1-3.3,1.8-4.9c0.5-1.3,1.1-2.5,1.7-3.7
	c0.7-1.5,1.4-3,2.2-4.5c0.6-1.2,1.4-2.4,2-3.6c0.8-1.4,1.7-2.8,2.6-4.2c0.8-1.2,1.6-2.3,2.4-3.4c0.9-1.3,1.9-2.6,2.9-3.9
	c0.9-1.1,1.8-2.1,2.7-3.2c1.1-1.2,2.1-2.4,3.2-3.6c1-1,2-2,3-2.9c1.2-1.1,2.3-2.2,3.6-3.2c1.1-0.9,2.1-1.8,3.2-2.7
	c1.3-1,2.6-2,3.9-2.9c1.1-0.8,2.3-1.6,3.5-2.4c1.4-0.9,2.8-1.7,4.2-2.5c1.2-0.7,2.4-1.4,3.6-2c1.5-0.8,2.9-1.5,4.4-2.1
	c1.3-0.6,2.5-1.2,3.8-1.7c1.6-0.6,3.1-1.2,4.7-1.7c1.3-0.4,2.6-0.9,3.9-1.3c1.6-0.5,3.3-0.9,5-1.3c1.3-0.3,2.6-0.7,4-0.9
	c1.8-0.3,3.5-0.6,5.3-0.8c1.3-0.2,2.6-0.4,4-0.5c0.3,0,0.6-0.1,1-0.1V0H116v88c0,4.4-3.6,8-8,8H20V448z M116,280
	c5.6,0,11.2,1.6,16,4.4V176c0-3.6,2.4-6.7,5.8-7.7l112-32c2.4-0.7,5-0.2,7,1.3s3.2,3.9,3.2,6.4v136c0,17.7-14.3,32-32,32
	s-32-14.3-32-32s14.3-32,32-32c5.6,0,11.2,1.6,16,4.4v-65.8L148,214v98c0,17.7-14.3,32-32,32s-32-14.3-32-32S98.3,280,116,280z"/>
</svg>
