<?xml version="1.0" encoding="utf-8"?>
<!-- Generator: Adobe Illustrator 28.2.0, SVG Export Plug-In . SVG Version: 6.00 Build 0)  -->
<svg version="1.1" id="Layer_1" xmlns="http://www.w3.org/2000/svg" xmlns:xlink="http://www.w3.org/1999/xlink" x="0px" y="0px"
	 viewBox="0 0 512 512" style="enable-background:new 0 0 512 512;" xml:space="preserve">
<style type="text/css">
	.st0{fill:#FFFFFF;}
</style>
<path class="st0" d="M138.7,266.7C79.8,266.7,32,314.4,32,373.3S79.8,480,138.7,480s106.7-47.8,106.7-106.7
	C245.3,314.5,197.5,266.7,138.7,266.7z M138.7,458.7c-47.1,0-85.3-38.2-85.3-85.3S91.5,288,138.7,288s85.3,38.2,85.3,85.3
	C224,420.4,185.8,458.6,138.7,458.7z M426.7,32h-85.3C311.9,32,288,55.9,288,85.3v85.3c0,29.4,23.9,53.3,53.3,53.3h85.3
	c29.4,0,53.3-23.9,53.3-53.3V85.3C480,55.9,456.1,32,426.7,32z M458.7,170.7c0,17.7-14.3,32-32,32h-85.3c-17.7,0-32-14.3-32-32V85.3
	c0-17.7,14.3-32,32-32h85.3c17.7,0,32,14.3,32,32V170.7z M411,294c-7.4-14.9-25.5-20.9-40.4-13.5c-5.8,2.9-10.6,7.7-13.5,13.5
	l-65.8,131.7c-7.5,14.9-1.4,33,13.5,40.4c4.2,2.1,8.8,3.2,13.5,3.2h131.7c16.6,0,30.1-13.5,30.1-30.1c0-4.7-1.1-9.3-3.2-13.5
	L411,294z M457.3,443.8c-1.6,2.6-4.4,4.2-7.5,4.2H318.2c-4.9,0-8.8-3.9-8.8-8.8c0-1.4,0.3-2.7,0.9-4l65.8-131.7
	c2.2-4.3,7.4-6.1,11.8-4c1.7,0.9,3.1,2.2,4,4l65.8,131.7C459.1,438,459,441.2,457.3,443.8L457.3,443.8z M47.2,46.3
	c-5.5,8.9-6,20-1.3,29.3l65.8,131.7c7.4,14.9,25.5,20.9,40.4,13.5c5.8-2.9,10.6-7.7,13.5-13.5l65.8-131.7c7.5-14.9,1.4-33-13.5-40.4
	c-4.2-2.1-8.8-3.2-13.5-3.2H72.8C62.4,32,52.7,37.4,47.2,46.3L47.2,46.3z M65.3,57.5c1.6-2.6,4.4-4.2,7.5-4.2h131.7
	c4.9,0,8.8,3.9,8.8,8.8c0,1.4-0.3,2.7-0.9,4l-65.8,131.7c-2.2,4.3-7.4,6.1-11.8,4c-1.7-0.9-3.1-2.2-4-4L65,66.1
	C63.6,63.4,63.7,60.1,65.3,57.5L65.3,57.5z"/>
</svg>
