<?xml version="1.0" encoding="UTF-8"?>
<svg id="Layer_1" data-name="Layer 1" xmlns="http://www.w3.org/2000/svg" viewBox="0 0 448.13 386.16">
  <defs>
    <style>
      .cls-1 {
        fill: #fff;
      }
    </style>
  </defs>
  <g id="Ikon">
    <path class="cls-1" d="m443.31,237.76c14.9,14.45-8.16,37.52-22.62,22.62l-44.69-44.69-44.69,44.69c-14.46,14.9-37.52-8.17-22.62-22.62l44.69-44.69-44.69-44.69c-14.89-14.45,8.16-37.52,22.62-22.62l44.69,44.69,44.69-44.69c14.46-14.9,37.52,8.17,22.62,22.62l-44.69,44.69,44.69,44.69ZM237.66,5.59L106.96,97.07h-58.96C21.49,97.07,0,118.56,0,145.07v96c0,26.51,21.49,48,48,48h58.96l130.7,91.48c14.7,10.02,34.73,6.23,44.75-8.47,3.57-5.24,5.51-11.41,5.59-17.75V31.81C287.78,14.02,273.17-.22,255.39,0c-6.33.08-12.5,2.02-17.73,5.59h0Zm-141.66,251.48h-48c-8.84,0-16-7.16-16-16v-96c0-8.84,7.16-16,16-16h48v128Zm160.02,97.28h-.02l-128-89.6V121.41L256,31.81l.09,322.59-.08-.04Z"/>
  </g>
</svg>