<?xml version="1.0" encoding="UTF-8"?>
<svg id="Layer_1" data-name="Layer 1" xmlns="http://www.w3.org/2000/svg" viewBox="0 0 512.01 512.03">
  <defs>
    <style>
      .cls-1 {
        fill: #fff;
      }
    </style>
  </defs>
  <path class="cls-1" d="m437.03,74.95c-100-99.96-262.11-99.93-362.07.07C-8.89,158.9-24.15,289.39,38.08,390.35L1.37,484.72c-4,10.29,1.09,21.89,11.39,25.89,4.66,1.81,9.84,1.81,14.5,0l94.37-36.71c120.36,74.21,278.08,36.79,352.29-83.56,62.26-100.98,46.99-231.5-36.89-315.39h0Zm-181.02,397.02c-43.1.08-85.22-12.81-120.9-36.98-5.44-3.68-12.34-4.46-18.46-2.08l-61.52,23.93,23.93-61.52c2.38-6.12,1.61-13.02-2.08-18.46-24.17-35.68-37.05-77.8-36.97-120.9,0-119.1,96.9-216,216-216s216,96.9,216,216-96.9,216-216,216h0Zm138.7-298.96c-5.53-3.71-12.55-4.43-18.72-1.91l-47.07,19.25c-.29-19.56-15.6-35.38-34.38-35.38h-151.7c-18.96,0-34.39,16.12-34.39,35.94v130.11c0,19.82,15.43,35.94,34.39,35.94h151.7c18.78,0,34.09-15.82,34.38-35.38l47.07,19.25c10.22,4.18,21.9-.72,26.08-10.94.98-2.4,1.49-4.98,1.49-7.57v-132.72c0-6.66-3.32-12.89-8.85-16.6h0Zm-105.77,143.96h-140.48v-122h140.48v122Zm74.63-24.43l-34.63-14.16v-44.81l34.63-14.16v73.14Z"/>
</svg>