<?xml version="1.0" encoding="utf-8"?>
<!-- Generator: Adobe Illustrator 28.1.0, SVG Export Plug-In . SVG Version: 6.00 Build 0)  -->
<svg version="1.1" id="Layer_1" xmlns="http://www.w3.org/2000/svg" xmlns:xlink="http://www.w3.org/1999/xlink" x="0px" y="0px"
	 viewBox="0 0 512 512" style="enable-background:new 0 0 512 512;" xml:space="preserve">
<style type="text/css">
	.st0{fill:#FFFFFF;}
</style>
<g id="Layer_4">
	<path class="st0" d="M280,200c13.3,0,24-10.7,24-24v-16c0-13.3-10.7-24-24-24s-24,10.7-24,24v16C256,189.3,266.7,200,280,200z
		 M272,160c0-4.4,3.6-8,8-8s8,3.6,8,8v16c0,4.4-3.6,8-8,8s-8-3.6-8-8V160z"/>
	<path class="st0" d="M376,192h-16c-13.3,0-24,10.7-24,24s10.7,24,24,24h16c13.3,0,24-10.7,24-24S389.3,192,376,192z M376,224h-16
		c-4.4,0-8-3.6-8-8s3.6-8,8-8h16c4.4,0,8,3.6,8,8S380.4,224,376,224z"/>
	<path class="st0" d="M240,336h-32c-17.7,0-32,14.3-32,32s14.3,32,32,32h32c17.7,0,32-14.3,32-32S257.7,336,240,336z M240,384h-32
		c-8.8,0-16-7.2-16-16s7.2-16,16-16h32c8.8,0,16,7.2,16,16S248.8,384,240,384z"/>
	<path class="st0" d="M312,256c-4.4,0-8-3.6-8-8c0-13.3-10.7-24-24-24c-22.1,0-40,17.9-40,40v16c0,22.1,17.9,40,40,40h16
		c22.1,0,40-17.9,40-40C336,266.7,325.3,256,312,256z M296,304h-16c-13.3,0-24-10.7-24-24v-16c0-13.3,10.7-24,24-24c4.4,0,8,3.6,8,8
		c0,13.3,10.7,24,24,24c4.4,0,8,3.6,8,8C320,293.3,309.3,304,296,304z"/>
	<path class="st0" d="M512,104c0-26.2-18.2-48.8-43.7-54.6c-12.4-37.7-53-58.2-90.8-45.8c-9.5,3.1-18.3,8.2-25.8,15
		C220.7-34.4,71.6,28.9,18.6,160c-32,79.2-22.4,169.2,25.7,239.8c-0.2,0.5-0.4,1.1-0.6,1.6c-30.2,6.8-49.1,36.8-42.2,67
		C7.2,493.9,29.9,512,56,512h112c9.6,0,19.1-2.5,27.5-7.3c137.3,33.5,275.8-50.7,309.2-188.1c4.8-19.9,7.3-40.2,7.3-60.7
		c0.1-36.8-7.9-73.2-23.3-106.6C503.3,138.9,512,122,512,104z M454.2,58.4c0.8,3.2,3.5,5.6,6.8,6c21.9,3.1,37.1,23.3,34.1,45.2
		c-2.7,19.5-19.3,34.2-39.1,34.4H344c-22.1-0.2-39.9-18.2-39.7-40.3c0.1-19.9,14.9-36.7,34.7-39.4c3.3-0.4,6-2.8,6.8-6
		c7.5-30,37.9-48.2,67.8-40.7C433.6,22.7,449.2,38.3,454.2,58.4L454.2,58.4z M312,44V22.6c9.7,2.3,19.3,5.3,28.6,8.8
		c-3.8,5.6-6.8,11.6-8.9,18c-9.2,2.1-17.7,6.4-24.8,12.7C310.2,56.6,312,50.4,312,44z M256,16c13.4,0,26.8,1.1,40,3.4V44
		c0,11-9,20-20,20c-19.9,0-36,16.1-36,36v16c0,11-9,20-20,20h-7.6c-19.9,0-36,16.1-36,36c0,3.1,0.4,6.3,1.2,9.3l8.4,31.4
		c7.8,29.5-2.2,60.9-25.6,80.5c-18.4,15.4-45.8,12.9-61.1-5.5c-2.8-3.3-5.1-7.1-6.7-11.1C83.4,254.4,61.7,240,37.7,240H16.6
		C25.1,114,129.7,16.2,256,16z M56,496c-22.1-0.2-39.9-18.2-39.7-40.3c0.1-19.9,14.9-36.7,34.7-39.4c3.3-0.4,6-2.8,6.8-6
		c7.5-30,37.9-48.2,67.8-40.7c20,5,35.7,20.6,40.7,40.7c0.8,3.2,3.5,5.6,6.8,6c21.9,2.9,37.3,23,34.4,44.9
		c-2.6,19.8-19.4,34.6-39.4,34.7H56z M256,496v-24c0-17.7,14.3-32,32-32c26.5,0,48-21.5,48-48c-0.1-22.2,11.3-42.9,30-54.7l34-21.6
		c15-9.5,24-26,24-43.7c0-17.7,14.3-32,32-32h39.4c0.3,5.3,0.6,10.6,0.6,16C495.9,388.5,388.5,495.9,256,496z M493.8,224H456
		c-26.5,0-48,21.5-48,48c0,12.2-6.2,23.6-16.5,30.1l-34,21.6c-23.4,14.8-37.5,40.6-37.5,68.3c0,17.7-14.3,32-32,32
		c-26.5,0-48,21.5-48,48v23.4c-9.7-0.6-19.4-1.9-29-3.7c19.8-23.7,16.6-59-7.1-78.8c-6.8-5.7-14.9-9.7-23.6-11.6
		c-12.4-37.7-53-58.2-90.8-45.8c-15,4.9-28,14.7-36.9,27.7C28.7,345.2,15.9,301.1,16,256h21.7c17.5,0,33.4,10.5,40.1,26.7
		c7.2,17.5,22.3,30.5,40.7,34.9c4.7,1.2,9.5,1.8,14.4,1.8c13.8,0,27.2-4.9,37.8-13.8c28.2-23.6,40.2-61.4,30.8-97l-8.4-31.4
		c-2.8-10.7,3.5-21.6,14.2-24.5c1.7-0.4,3.4-0.7,5.2-0.7h7.6c19.9,0,36-16.1,36-36v-16c0-11,9-20,20-20c8.1,0,16-2.8,22.3-7.9
		c-17.8,25.1-11.9,59.9,13.2,77.7c9.5,6.7,20.9,10.3,32.5,10.3h112c6.3,0,12.6-1.1,18.5-3.2C484.2,178.1,490.7,200.8,493.8,224z"/>
</g>
</svg>
