<?xml version="1.0" encoding="utf-8"?>
<!-- Generator: Adobe Illustrator 24.3.0, SVG Export Plug-In . SVG Version: 6.00 Build 0)  -->
<svg version="1.1" id="Capa_1" xmlns="http://www.w3.org/2000/svg" xmlns:xlink="http://www.w3.org/1999/xlink" x="0px" y="0px"
	 viewBox="0 0 451.7 512" style="enable-background:new 0 0 451.7 512;" xml:space="preserve">
<path d="M436.9,212.6L237.2,12.9c-11.7-11.7-30.7-11.7-42.4,0s-11.7,30.7,0,42.4L394.5,255c11.5,11.9,30.5,12.2,42.4,0.7
	c11.9-11.5,12.2-30.5,0.7-42.4C437.4,213.1,437.2,212.8,436.9,212.6z" fill="#56EAFF"/>
<path d="M179.5,83.1l-1.5,7.5c-10.4,53-36,103.4-70.6,144.3l109,108.3c40.7-34.9,90.2-61.5,143.1-72.3l7.5-1.5L179.5,83.1z" fill="#56EAFF"/>
<path d="M87.4,257l-74.2,74.2c-17.6,17.6-17.6,46.1,0,63.6c0,0,0,0,0,0l42.4,42.4c17.6,17.6,46.1,17.6,63.6,0c0,0,0,0,0,0l74.2-74.2
	L87.4,257z M98,373.7c-6.1,5.6-15.6,5.3-21.2-0.8c-5.4-5.8-5.4-14.7,0-20.5l21.2-21.2c6-5.8,15.5-5.6,21.2,0.4
	c5.6,5.8,5.6,15,0,20.8L98,373.7z" fill="#56EAFF"/>
<path d="M256.1,445.3l20.4-20.4c17.6-17.6,17.6-46.1,0-63.6l-15.1-15.2c-8.4,5.7-16.4,11.7-24.2,18.3l18.1,18.1
	c5.8,5.9,5.8,15.3,0,21.2l-20.7,20.8l-30.5-29.5l-42.4,42.4l68.1,65.9c11.7,11.7,30.7,11.7,42.4,0c11.7-11.7,11.7-30.7,0-42.4l0,0
	L256.1,445.3z" fill="#56EAFF"/>
<path d="M316.7,0c-8.3,0-15,6.7-15,15v30c0,8.3,6.7,15,15,15c8.3,0,15-6.7,15-15V15C331.7,6.7,325,0,316.7,0z" fill="#56EAFF"/>
<path d="M436.7,120h-30c-8.3,0-15,6.7-15,15s6.7,15,15,15h30c8.3,0,15-6.7,15-15S445,120,436.7,120z" fill="#56EAFF"/>
<path d="M417.3,34.4c-5.9-5.9-15.4-5.9-21.2,0l-30,30c-6,5.8-6.1,15.3-0.4,21.2c5.8,6,15.3,6.1,21.2,0.4c0.1-0.1,0.2-0.2,0.4-0.4
	l30-30C423.2,49.7,423.2,40.2,417.3,34.4z" fill="#56EAFF"/>
</svg>
