<?xml version="1.0" encoding="UTF-8"?>
<svg width="341px" height="87px" viewBox="0 0 341 87" version="1.1" xmlns="http://www.w3.org/2000/svg" xmlns:xlink="http://www.w3.org/1999/xlink">
    <!-- Generator: Sketch 49.3 (51167) - http://www.bohemiancoding.com/sketch -->
    <title>LOGO/ciscologo_webex_lockup_white</title>
    <desc>Created with Sketch.</desc>
    <defs></defs>
    <g id="LOGO/ciscologo_webex_lockup_white" stroke="none" stroke-width="1" fill="none" fill-rule="evenodd">
        <g fill="#FFFFFF" fill-rule="nonzero">
            <rect id="Rectangle-path" x="45.38" y="57.19" width="7.04" height="27.88"></rect>
            <path d="M109.14,65.18 C107.323387,64.1933457 105.287242,63.68087 103.22,63.69 C98.67,63.69 95.51,66.85 95.51,71.12 C95.4647213,73.1543607 96.2717812,75.1150576 97.7360583,76.5280565 C99.2003354,77.9410554 101.188545,78.6777388 103.22,78.56 C105.285603,78.5658137 107.320145,78.0571783 109.14,77.08 L109.14,84.57 C107.05959,85.2119177 104.897088,85.548756 102.72,85.57 C94.81,85.57 87.87,80.12 87.87,71.13 C87.87,62.81 94.15,56.7 102.72,56.7 C104.89795,56.7106109 107.062003,57.0476907 109.14,57.7 L109.14,65.18 Z" id="Shape"></path>
            <path d="M35.71,65.18 C33.8973097,64.1925422 31.8641749,63.6799583 29.8,63.69 C25.24,63.69 22.09,66.85 22.09,71.12 C22.0447213,73.1543607 22.8517812,75.1150576 24.3160583,76.5280565 C25.7803354,77.9410554 27.7685446,78.6777388 29.8,78.56 C31.8625283,78.5666795 33.8940434,78.0579414 35.71,77.08 L35.71,84.57 C33.6300384,85.2138575 31.4672509,85.5507403 29.29,85.57 C21.38,85.57 14.45,80.12 14.45,71.13 C14.45,62.81 20.73,56.7 29.29,56.7 C31.4680347,56.7095529 33.6322441,57.0466572 35.71,57.7 L35.71,65.18 Z" id="Shape"></path>
            <path d="M146,71.12 C146.121889,77.1035222 142.611352,82.5659998 137.117905,84.940748 C131.624457,87.3154962 125.240253,86.1303905 120.965075,81.942283 C116.689897,77.7541755 115.373694,71.3957054 117.634917,65.8545627 C119.896141,60.3134201 125.285237,56.6912414 131.27,56.69 C135.158398,56.5756746 138.92577,58.0493029 141.704623,60.7715599 C144.483475,63.4938169 146.034302,67.2300734 146,71.12 Z M131.27,63.79 C128.294132,63.7616211 125.595653,65.5329336 124.438053,68.2745682 C123.280453,71.0162029 123.892871,74.1854744 125.988557,76.298457 C128.084244,78.4114395 131.248375,79.0498846 133.999431,77.9148575 C136.750488,76.7798305 138.543919,74.0960011 138.54,71.12 C138.572419,69.1766332 137.818851,67.302492 136.450151,65.9224966 C135.081452,64.5425011 133.213568,63.7735551 131.27,63.79 Z" id="Shape"></path>
            <path d="M79.09,63.52 C77.2952687,63.0269698 75.4498357,62.7417665 73.59,62.67 C70.77,62.67 69.24,63.62 69.24,64.96 C69.24,66.66 71.31,67.25 72.46,67.61 L74.46,68.23 C79.02,69.68 81.1,72.81 81.1,76.23 C81.1,83.23 74.94,85.58 69.56,85.58 C67.0122896,85.5554943 64.4719879,85.3011295 61.97,84.82 L61.97,78.38 C64.1311373,78.9974114 66.3628795,79.3335171 68.61,79.38 C72.11,79.38 73.72,78.38 73.72,76.78 C73.72,75.37 72.33,74.55 70.58,74 L69,73.56 C65.08,72.32 61.81,70.01 61.81,65.4 C61.81,60.19 65.72,56.68 72.2,56.68 C74.5130877,56.7146014 76.8146609,57.013202 79.06,57.57 L79.09,63.52 Z" id="Shape"></path>
            <path d="M7,27.23 C7,25.2970034 5.43299662,23.73 3.5,23.73 C1.56700338,23.73 2.36723813e-16,25.2970034 0,27.23 L0,34.54 C2.36723813e-16,36.4729966 1.56700338,38.04 3.5,38.04 C5.43299662,38.04 7,36.4729966 7,34.54 L7,27.23 Z" id="Shape"></path>
            <path d="M26.17,17.62 C26.1699999,15.6870034 24.6029966,14.1200001 22.67,14.1200001 C20.7370034,14.1200001 19.1700001,15.6870034 19.17,17.62 L19.17,34.54 C19.17,36.4729966 20.7370034,38.04 22.67,38.04 C24.6029966,38.04 26.17,36.4729966 26.17,34.54 L26.17,17.62 Z" id="Shape"></path>
            <path d="M45.35,4.48 C45.35,2.54700338 43.7829966,0.98 41.85,0.98 C39.9170034,0.98 38.35,2.54700338 38.35,4.48 L38.35,41.48 C38.35,43.4129966 39.9170034,44.98 41.85,44.98 C43.7829966,44.98 45.35,43.4129966 45.35,41.48 L45.35,4.48 Z" id="Shape"></path>
            <path d="M64.54,17.62 C64.54,15.6870034 62.9729966,14.12 61.04,14.12 C59.1070034,14.12 57.54,15.6870034 57.54,17.62 L57.54,34.54 C57.54,36.4729966 59.1070034,38.04 61.04,38.04 C62.9729966,38.04 64.54,36.4729966 64.54,34.54 L64.54,17.62 Z" id="Shape"></path>
            <path d="M83.7,27.23 C83.7,25.2970034 82.1329966,23.73 80.2,23.73 C78.2670034,23.73 76.7,25.2970034 76.7,27.23 L76.7,34.54 C76.7,36.4729966 78.2670034,38.04 80.2,38.04 C82.1329966,38.04 83.7,36.4729966 83.7,34.54 L83.7,27.23 Z" id="Shape"></path>
            <path d="M102.89,17.62 C102.89,15.6870034 101.322997,14.12 99.39,14.12 C97.4570034,14.12 95.89,15.6870034 95.89,17.62 L95.89,34.54 C95.89,36.4729966 97.4570034,38.04 99.39,38.04 C101.322997,38.04 102.89,36.4729966 102.89,34.54 L102.89,17.62 Z" id="Shape"></path>
            <path d="M122.09,4.48 C122.09,2.54700338 120.522997,0.98 118.59,0.98 C116.657003,0.98 115.09,2.54700338 115.09,4.48 L115.09,41.48 C115.09,43.4129966 116.657003,44.98 118.59,44.98 C120.522997,44.98 122.09,43.4129966 122.09,41.48 L122.09,4.48 Z" id="Shape"></path>
            <path d="M141.29,17.62 C141.151522,15.7894151 139.625815,14.374764 137.79,14.374764 C135.954185,14.374764 134.428478,15.7894151 134.29,17.62 L134.29,34.54 C134.428478,36.3705849 135.954185,37.785236 137.79,37.785236 C139.625815,37.785236 141.151522,36.3705849 141.29,34.54 L141.29,17.62 Z" id="Shape"></path>
            <path d="M160.44,27.23 C160.44,25.2970034 158.872997,23.73 156.94,23.73 C155.007003,23.73 153.44,25.2970034 153.44,27.23 L153.44,34.54 C153.44,36.4729966 155.007003,38.04 156.94,38.04 C158.872997,38.04 160.44,36.4729966 160.44,34.54 L160.44,27.23 Z" id="Shape"></path>
            <polygon id="Shape" points="225.9 47.08 228.07 47.08 217.4 85.08 214.23 85.08 203.72 49 193.26 85.11 190 85.11 179.33 47.11 181.71 47.11 191.71 83.18 202.22 47.11 205.45 47.11 215.85 83.11"></polygon>
            <path d="M251.2,77.77 L253.53,77.77 C252.921806,80.3337262 251.349687,82.5647736 249.14,84 C243.804288,87.3025674 236.871023,86.3223181 232.66,81.67 C230.513333,79.0966667 229.44,75.68 229.44,71.42 C229.44,66.56 230.773333,62.81 233.44,60.17 C235.634067,57.9832965 238.633938,56.7999943 241.73,56.9 C245.263338,56.723003 248.668131,58.2469824 250.89,61 C253.003333,63.6666667 254.06,67.2933333 254.06,71.88 L231.66,71.88 C231.8,76.1066667 233.033333,79.2933333 235.36,81.44 C237.279329,83.1562589 239.786683,84.0660703 242.36,83.98 C244.486021,84.0524613 246.573534,83.4001137 248.28,82.13 C249.722864,81.0529479 250.753367,79.5142525 251.2,77.77 Z M231.71,70.05 L251.71,70.05 C251.54,66.14 250.37,63.17 248.23,61.13 C246.484973,59.461831 244.14293,58.5646482 241.73,58.64 C238.947787,58.5719016 236.295599,59.8165036 234.57,62 C232.741868,64.2872202 231.734708,67.1220601 231.71,70.05 Z" id="Shape"></path>
            <path d="M262.24,85.11 L260.45,85.11 L260.45,47.11 L262.66,47.11 L262.66,63.13 C263.523102,61.1960034 264.939228,59.5606742 266.73,58.43 C268.444247,57.3708072 270.425109,56.8226879 272.44,56.85 C275.791029,56.6971654 279.0055,58.1905316 281.05,60.85 C282.91,63.3166667 283.843333,66.7133333 283.85,71.04 C283.85,76.12 282.6,79.9966667 280.1,82.67 C276.348432,86.4824121 270.398277,87.0436679 266,84 C264.516692,82.8952538 263.350848,81.4189788 262.62,79.72 L262.24,85.11 Z M272.07,58.7 C269.365181,58.6151563 266.786602,59.8448253 265.15,62 C263.35,64.22 262.45,67.3733333 262.45,71.46 C262.45,75.82 263.473333,79.13 265.52,81.39 C267.371219,83.2543608 269.944682,84.216706 272.564968,84.024462 C275.185253,83.8322181 277.590706,82.5045818 279.15,80.39 C280.77,78.0566667 281.58,74.9033333 281.58,70.93 C281.58,66.6033333 280.58,63.3833333 278.58,61.27 C276.882703,59.5137968 274.50924,58.5768074 272.07,58.7 Z" id="Shape"></path>
            <path d="M310.2,77.77 L312.53,77.77 C311.921806,80.3337262 310.349687,82.5647736 308.14,84 C302.804288,87.3025674 295.871023,86.3223181 291.66,81.67 C289.52,79.0966667 288.446667,75.68 288.44,71.42 C288.44,66.56 289.773333,62.81 292.44,60.17 C294.634067,57.9832965 297.633938,56.7999943 300.73,56.9 C304.263338,56.723003 307.668131,58.2469824 309.89,61 C312.003333,63.6666667 313.06,67.2933333 313.06,71.88 L290.66,71.88 C290.8,76.1066667 292.033333,79.2933333 294.36,81.44 C296.282543,83.150876 298.787669,84.059879 301.36,83.98 C303.486237,84.0540623 305.574267,83.4015529 307.28,82.13 C308.722864,81.0529479 309.753367,79.5142525 310.2,77.77 Z M290.71,70.05 L310.71,70.05 C310.54,66.14 309.37,63.17 307.23,61.13 C305.484973,59.461831 303.14293,58.5646482 300.73,58.64 C297.947787,58.5719016 295.295599,59.8165036 293.57,62 C291.741868,64.2872202 290.734708,67.1220601 290.71,70.05 Z" id="Shape"></path>
            <polygon id="Shape" points="339.36 57.64 329.8 70.64 341 85.11 338.31 85.11 328.38 72.22 318.87 85.11 316.28 85.11 327.06 70.63 316.76 57.63 319.55 57.63 328.55 69.04 336.85 57.63"></polygon>
        </g>
    </g>
</svg>