<svg viewBox="0 0 32 33" fill="none" xmlns="http://www.w3.org/2000/svg">
  <path
    d="M21.6305 29.5812C22.7983 29.2538 23.9166 28.6562 24.6505 27.6003C25.3749 26.5663 25.5789 25.2547 25.5789 23.9925V5.50099C25.5789 5.17358 25.5611 4.84557 25.5216 4.52148C26.1016 4.74961 26.5486 5.12658 26.8626 5.65239C27.2331 6.25024 27.4184 7.03757 27.4184 8.01435V26.7964C27.4184 28.1184 27.0942 29.1078 26.4458 29.7646C25.7974 30.4214 24.8207 30.7498 23.5155 30.7498H16.4209C16.5889 30.7204 16.7574 30.6901 16.9262 30.659C18.4067 30.3944 19.9713 30.0354 21.6185 29.5846L21.6305 29.5812Z"
    fill="#C9191E"
  />
  <path
    fill-rule="evenodd"
    clip-rule="evenodd"
    d="M4.58203 26.405V7.5977C4.58203 6.45251 4.88938 5.58519 5.50408 4.99575C6.1272 4.40631 6.95242 4.08212 7.97972 4.02318C9.49542 3.93055 10.9311 3.80425 12.2868 3.64425C13.6425 3.47584 14.9393 3.28217 16.1771 3.06324C17.4234 2.8443 18.6359 2.60011 19.8148 2.33065C21.0274 2.04435 21.9578 2.1875 22.6062 2.7601C23.2546 3.33269 23.5788 4.24632 23.5788 5.50099V23.9925C23.5788 25.0956 23.3893 25.9166 23.0104 26.4555C22.6315 27.0029 21.9915 27.4028 21.0905 27.6554C19.4906 28.0933 17.9833 28.4386 16.5687 28.6912C15.154 28.9522 13.7731 29.1501 12.4258 29.2848C11.0785 29.4196 9.69751 29.5248 8.28286 29.6006C7.11241 29.668 6.20299 29.4238 5.5546 28.868C4.90622 28.3207 4.58203 27.4997 4.58203 26.405ZM9.20865 11.0124C11.0635 10.8944 12.7632 10.7131 14.3075 10.4683C14.6822 10.4072 15.0564 10.3436 15.4291 10.2776C15.8192 10.2085 16.1013 9.86859 16.1013 9.47337C16.1013 8.96154 15.638 8.57609 15.135 8.66189C14.846 8.71118 14.5555 8.75909 14.2635 8.80562C12.7346 9.04923 11.0452 9.22998 9.19523 9.3477C8.91819 9.36558 8.69776 9.45188 8.55608 9.62391C8.42209 9.78661 8.35645 9.98229 8.35645 10.2053C8.35645 10.4321 8.43296 10.6295 8.58568 10.7918L8.58783 10.7939C8.75336 10.9595 8.96369 11.0311 9.20865 11.0124ZM9.20801 15.206C11.0631 15.088 12.763 14.9066 14.3075 14.6619C15.8588 14.4089 17.3936 14.1138 18.9112 13.7766C19.2191 13.7081 19.4498 13.6003 19.5652 13.433C19.6786 13.2721 19.7347 13.0876 19.7347 12.8832C19.7347 12.6526 19.6469 12.454 19.476 12.2926C19.2921 12.1189 19.0348 12.0784 18.7304 12.1411L18.7285 12.1415C17.2823 12.4694 15.794 12.7553 14.2635 12.9992C12.7346 13.2428 11.0452 13.4235 9.19523 13.5413C8.91819 13.5591 8.69776 13.6454 8.55608 13.8175C8.42276 13.9794 8.35645 14.1705 8.35645 14.3863C8.35645 14.6203 8.43209 14.8223 8.58558 14.9854L8.59 14.9896C8.75499 15.1449 8.96316 15.2155 9.20551 15.2062L9.20801 15.206ZM9.20847 19.3994C11.0634 19.2729 12.7631 19.0874 14.3075 18.8427C15.8589 18.5982 17.3934 18.3073 18.9112 17.97C19.2199 17.9014 19.4508 17.7891 19.566 17.6127C19.6783 17.4529 19.7347 17.2733 19.7347 17.0766C19.7347 16.8461 19.6469 16.6474 19.476 16.4861C19.2921 16.3123 19.0348 16.2718 18.7304 16.3345L18.729 16.3348C17.2827 16.6543 15.7942 16.9361 14.2635 17.18C12.7345 17.4236 11.045 17.6086 9.19495 17.7347C8.91804 17.7526 8.69771 17.8389 8.55608 18.0109C8.42276 18.1728 8.35645 18.3639 8.35645 18.5797C8.35645 18.8137 8.43209 19.0158 8.58558 19.1789L8.59 19.183C8.75499 19.3383 8.96316 19.4089 9.20551 19.3996L9.20847 19.3994ZM14.3075 23.007C12.7632 23.2518 11.0635 23.4331 9.20867 23.5512C8.9637 23.5698 8.75337 23.4982 8.58783 23.3326L8.58572 23.3305C8.433 23.1682 8.35645 22.9708 8.35645 22.7441C8.35645 22.521 8.42209 22.3253 8.55608 22.1626C8.69776 21.9906 8.91827 21.9043 9.19531 21.8864C11.0453 21.7687 12.7346 21.588 14.2635 21.3443C14.5555 21.2978 14.846 21.2499 15.135 21.2006C15.638 21.1148 16.1013 21.5003 16.1013 22.0121C16.1013 22.4073 15.8192 22.7472 15.4291 22.8163C15.0564 22.8823 14.6822 22.9459 14.3075 23.007Z"
    fill="#000091"
  />
</svg>
