<svg enable-background="new 0 0 100 100" viewBox="0 0 100 100" xmlns="http://www.w3.org/2000/svg"><g id="Layer_1"/><g id="Layer_2"><g><g><path d="m84.025 35.881c5.797 0 10.513-4.729 10.513-10.54-.577-13.983-20.45-13.979-21.026 0 0 5.811 4.717 10.54 10.513 10.54z" fill="#464eb8"/><path d="m90.958 38.71h-18.765-.036c-.005 0-.003 0-.009 0-1.123 0-15.805 0-20.538 0v-3.68c.784.139 1.605.232 2.467.268.093.001.186-.006.279-.007.358-.006.713-.023 1.063-.053.12-.011.239-.021.357-.035.403-.045.801-.104 1.193-.181.024-.005.05-.008.074-.012 1.858-.379 3.61-1.12 5.167-2.17 1.44-.971 2.687-2.203 3.693-3.615.26-.341.497-.697.718-1.061.021-.036.044-.07.065-.107.17-.287.32-.584.466-.884.064-.13.13-.26.19-.392.154-.345.296-.696.421-1.053.011-.03.022-.059.032-.088 1.427-4.208.774-9.156-1.676-12.856-.648-.949-1.417-1.806-2.268-2.574-.176-.153-.344-.314-.529-.457-.714-.588-1.485-1.109-2.304-1.552-.41-.222-.831-.425-1.263-.607-.434-.192-.887-.35-1.347-.493-.264-.081-.538-.141-.808-.207-.239-.058-.475-.121-.717-.166-.2-.038-.405-.062-.607-.092-.352-.05-.704-.096-1.06-.121-.122-.009-.245-.012-.368-.018-.362-.018-.725-.017-1.088-.007-2.08.121-3.926.558-5.543 1.24-.33.149-.664.294-.975.47-3.242 1.766-5.722 4.772-6.867 8.293-.794 2.629-.862 5.468-.187 8.129.007.025.013.051.02.076.032.115.065.23.097.345.039.137.085.273.128.409.039.11.08.219.121.329h-31.78c-2.846 0-5.162 2.316-5.162 5.162v37.672c0 2.847 2.316 5.162 5.162 5.162h20.122c.026.118.059.232.087.349 2.77 10.899 12.463 18.607 23.917 18.885 9.503-.231 17.666-5.721 21.753-13.592.061.022.124.038.185.059 10.182 3.851 21.752-4.229 21.546-15.131v-20.225c.001-2.984-2.434-5.412-5.426-5.412z" fill="#464eb8"/><g><g><path d="m77.444 44.232c.069-2.971-2.287-5.448-5.251-5.521-.012 0-21.432 0-21.432 0-.789 0-1.429.641-1.429 1.433v29.095c0 1.342-1.089 2.433-2.428 2.433h-16.705c-.429 0-.836.194-1.107.527-.271.334-.379.772-.292 1.194 2.367 11.561 12.248 19.837 24.1 20.126 13.856-.34 24.866-11.914 24.544-25.767z" fill="#7b83eb"/></g><path d="m54.077 35.298c.093.001.186-.006.279-.007.358-.005.713-.023 1.064-.053.12-.011.239-.021.357-.035.402-.045.801-.104 1.193-.181.024-.005.05-.008.074-.013 1.858-.379 3.61-1.12 5.167-2.17 1.441-.971 2.687-2.203 3.694-3.615.26-.341.497-.697.718-1.061.021-.036.044-.07.065-.107.17-.287.32-.585.466-.884.064-.13.13-.259.19-.392.154-.345.297-.696.421-1.053.011-.03.022-.059.032-.088 1.427-4.208.774-9.157-1.676-12.856-.648-.949-1.417-1.806-2.268-2.574-.176-.153-.344-.314-.529-.457-.714-.588-1.485-1.109-2.304-1.552-.41-.222-.831-.425-1.263-.607-.434-.192-.887-.35-1.347-.493-.264-.081-.538-.14-.808-.207-.239-.058-.475-.121-.717-.166-.2-.038-.404-.062-.607-.092-.352-.05-.704-.096-1.06-.121-.122-.009-.245-.012-.367-.018-.362-.016-.725-.015-1.088-.005-2.08.121-3.926.557-5.543 1.24-.33.149-.664.294-.975.47-3.242 1.767-5.723 4.773-6.867 8.294-.794 2.629-.862 5.468-.187 8.129.007.025.013.051.02.076.032.115.065.23.097.345.039.137.085.273.128.409.06.171.123.34.187.51h-.027c1.775 4.977 6.268 9.029 13.481 9.334z" fill="#7b83eb"/></g><g><path d="m46.448 25.783h-37.674c-2.846 0-5.162 2.316-5.162 5.162v37.672c0 2.847 2.316 5.162 5.162 5.162h37.674c2.846 0 5.161-2.316 5.161-5.162v-37.672c.001-2.846-2.314-5.162-5.161-5.162z" fill="#464eb8"/><path d="m37.109 36.271h-19.28c-.771 0-1.395.625-1.395 1.396v3.514c0 .771.624 1.396 1.395 1.396h6.22v19.575c0 .771.624 1.396 1.395 1.396h4.134c.771 0 1.395-.625 1.395-1.396v-19.575h6.136c.771 0 1.395-.625 1.395-1.396v-3.514c0-.771-.624-1.396-1.395-1.396z" fill="#fff"/></g></g></g></g></svg>