<svg xmlns="http://www.w3.org/2000/svg" viewBox="0 0 501.86 150"><title>momentum-horiz-outline</title><g id="Layer_2" data-name="Layer 2"><g id="Layer_1-2" data-name="Layer 1"><path d="M101.61,48.45V0H0V101.61H48.39V150h50.8a50.8,50.8,0,0,0,2.42-101.55Zm-50.8-1.06L8.26,4.84H93.35Zm46-39.13V48.39H56.65Zm-43.54,45H96.77V96.77H53.23ZM4.84,96.77V8.26L48.39,51.81v45Zm94.35,48.39h-46V101.61h48.38V53.29a46,46,0,0,1-2.42,91.87Z"/><path d="M199.62,58.75V28h4.67l.59,3.6a10.51,10.51,0,0,1,9-4.49c4.08,0,7.33,1.65,9,4.85,2.36-3.73,6.27-4.85,10-4.85,6.26,0,10.4,3.72,10.4,11.05V58.75h-5.67V38.59c0-4.66-2-6.61-6-6.61-4.55,0-7.39,3.84-7.39,8V58.75h-5.67V38.59c0-4.72-2.07-6.61-6-6.61a7.57,7.57,0,0,0-7.39,7.85V58.75Z"/><path d="M264.75,27.13c8.39,0,15.13,5.2,15.13,16.25,0,10.76-6.51,16.25-15.19,16.25S249.56,54,249.56,43.38C249.56,32.33,256.41,27.13,264.75,27.13ZM264.81,55c5.43,0,9.16-4,9.16-11.64,0-7.8-4-11.64-9.22-11.64s-9.28,4-9.28,11.64S259.49,55,264.81,55Z"/><path d="M286.38,58.75V28h4.67l.59,3.6a10.51,10.51,0,0,1,9-4.49c4.08,0,7.33,1.65,9,4.85,2.37-3.73,6.27-4.85,10-4.85,6.26,0,10.4,3.72,10.4,11.05V58.75h-5.67V38.59c0-4.66-2-6.61-6-6.61-4.55,0-7.39,3.84-7.39,8V58.75h-5.67V38.59c0-4.72-2.07-6.61-6-6.61a7.57,7.57,0,0,0-7.39,7.85V58.75Z"/><path d="M365.16,49.88c-1.54,5.62-6.38,9.75-13.77,9.75-8.75,0-15.07-5.43-15.07-16.25s6.26-16.25,14.77-16.25,14.42,5.08,14.42,17.49h-23.4c.47,7.09,4.32,10.23,9.46,10.23a7.49,7.49,0,0,0,7.44-5Zm-22.81-9.75h17.37c-.41-5.73-3.78-8.45-8.51-8.45C346.66,31.68,343.23,34.46,342.35,40.13Z"/><path d="M372.31,58.75V28H377l.65,3.9A11.31,11.31,0,0,1,387,27.13c6.68,0,10.87,4.08,10.87,11.58v20h-5.67v-20c0-4.61-2.36-6.79-6.56-6.79a7.46,7.46,0,0,0-7.62,7.8v19Z"/><path d="M419.53,59a15,15,0,0,1-4.19.59c-5.44,0-8.22-3.42-8.22-8.51V32.86h-4.55V28h4.55l.36-7.39h5.32V28h6.61v4.84H412.8V51.24c0,2.31,1.12,3.43,3.25,3.43a12.92,12.92,0,0,0,3.48-.47Z"/><path d="M430.23,28V48.17c0,4.55,2.42,6.62,6.38,6.62,5.14,0,7.57-3.84,7.57-8V28h5.67V58.75h-4.67l-.65-3.55a11.1,11.1,0,0,1-9.22,4.43c-6.32,0-10.75-3.72-10.75-11.58V28Z"/><path d="M458.13,58.75V28h4.66l.6,3.6a10.51,10.51,0,0,1,9-4.49c4.07,0,7.33,1.65,9,4.85,2.36-3.73,6.26-4.85,10-4.85,6.26,0,10.4,3.72,10.4,11.05V58.75h-5.68V38.59c0-4.66-2-6.61-6-6.61-4.56,0-7.39,3.84-7.39,8V58.75h-5.68V38.59c0-4.72-2.06-6.61-6-6.61a7.57,7.57,0,0,0-7.39,7.85V58.75Z"/><path d="M222.67,117.85l-1-4.32a11.87,11.87,0,0,1-10.22,5.2c-7.74,0-13.59-5.67-13.59-16.07,0-11,5.73-16.43,13.94-16.43A11.58,11.58,0,0,1,221.66,91V75.3h5.67v42.55Zm-10-4c5.85,0,9.28-4.61,9.28-11,0-7.51-3.61-11.76-9.28-11.76-5.38,0-8.93,3.66-8.93,11.7C203.75,110.17,207.54,113.89,212.68,113.89Z"/><path d="M262.68,109c-1.54,5.62-6.39,9.75-13.77,9.75-8.75,0-15.07-5.43-15.07-16.25s6.26-16.25,14.77-16.25S263,91.31,263,103.72h-23.4c.47,7.09,4.31,10.23,9.45,10.23a7.5,7.5,0,0,0,7.45-5Zm-22.82-9.75h17.38c-.41-5.73-3.78-8.45-8.51-8.45C244.18,90.78,240.75,93.56,239.86,99.23Z"/><path d="M278.87,103.84c-7.21-1.59-10.1-4.31-10.1-8.86,0-5.26,4.19-8.75,11.93-8.75,6.86,0,11.59,3.37,12.59,9H287.5c-.65-2.83-3-4.49-6.86-4.49-4.25,0-6.14,1.6-6.14,3.73,0,2.36,1.24,3.42,7.15,4.72,7.15,1.6,11.88,3.61,11.88,9.93,0,5.62-4.67,9.63-12.83,9.63-7.68,0-12.7-3.78-13.23-9.69h5.79c.65,3.67,3.19,5.2,7.5,5.2,4.61,0,7-2.07,7-4.72C287.8,105.91,284.37,105.08,278.87,103.84Z"/><path d="M299.68,82V75.3h6.38V82Zm.35,35.87V87.12h5.67v30.73Z"/><path d="M319.71,119.92c.53,3.07,3.13,5,7.62,5,5.74,0,8.69-2.9,8.69-8v-4c-2.07,2.43-5.5,4-10.22,4-7.21,0-13.6-5.38-13.6-15.19,0-9.63,5.62-15.54,13.95-15.54,4.79,0,8,2.07,10,5l.89-4.07h4.66V117.2c0,7-5.08,12.17-14.18,12.17-8.21,0-12.88-3.72-13.89-9.45Zm7.33-7.8c5.85,0,9.28-3.85,9.28-10.05,0-7.21-3.79-11-9.28-11-5.2,0-8.93,3.48-8.93,10.81C318.11,108.39,322.13,112.12,327,112.12Z"/><path d="M350,117.85V87.12h4.67l.65,3.9a11.33,11.33,0,0,1,9.34-4.79c6.67,0,10.87,4.08,10.87,11.58v20h-5.67v-20c0-4.61-2.37-6.79-6.56-6.79a7.47,7.47,0,0,0-7.63,7.8v19Z"/></g></g></svg>