<svg xmlns="http://www.w3.org/2000/svg" viewBox="0 0 300 311.01"><title>momentum-vert-outline</title><g id="Layer_2" data-name="Layer 2"><g id="Layer_1-2" data-name="Layer 1"><path d="M1.75,241.31V211H6.36l.58,3.55a10.41,10.41,0,0,1,8.93-4.43c4,0,7.23,1.63,8.92,4.78,2.33-3.67,6.18-4.78,9.86-4.78,6.18,0,10.26,3.67,10.26,10.91v20.29h-5.6V221.43c0-4.61-2-6.54-5.89-6.54-4.49,0-7.29,3.79-7.29,7.94v18.48h-5.6V221.43c0-4.67-2-6.54-5.89-6.54a7.48,7.48,0,0,0-7.29,7.76v18.66Z"/><path d="M66,210.11c8.28,0,14.93,5.13,14.93,16,0,10.62-6.41,16-15,16S51,236.65,51,226.15C51,215.24,57.8,210.11,66,210.11Zm.06,27.53c5.36,0,9-4,9-11.49,0-7.7-3.91-11.49-9.1-11.49s-9.16,3.91-9.16,11.49S60.83,237.64,66.08,237.64Z"/><path d="M87.36,241.31V211H92l.58,3.55a10.42,10.42,0,0,1,8.93-4.43c4,0,7.23,1.63,8.92,4.78,2.33-3.67,6.18-4.78,9.86-4.78,6.18,0,10.26,3.67,10.26,10.91v20.29h-5.6V221.43c0-4.61-2-6.54-5.89-6.54-4.49,0-7.29,3.79-7.29,7.94v18.48h-5.6V221.43c0-4.67-2-6.54-5.89-6.54A7.48,7.48,0,0,0,93,222.65v18.66Z"/><path d="M165.11,232.57c-1.52,5.54-6.3,9.62-13.59,9.62-8.63,0-14.88-5.37-14.88-16s6.19-16,14.59-16,14.23,5,14.23,17.26h-23.1c.47,7,4.26,10.1,9.33,10.1a7.39,7.39,0,0,0,7.35-4.9Zm-22.52-9.63h17.15c-.41-5.66-3.73-8.34-8.4-8.34C146.85,214.6,143.47,217.34,142.59,222.94Z"/><path d="M172.16,241.31V211h4.61l.64,3.85a11.17,11.17,0,0,1,9.22-4.73c6.59,0,10.73,4,10.73,11.43v19.77h-5.6V221.6c0-4.55-2.34-6.71-6.48-6.71a7.37,7.37,0,0,0-7.52,7.7v18.72Z"/><path d="M218.76,241.61a15.41,15.41,0,0,1-4.14.58c-5.37,0-8.11-3.38-8.11-8.4v-18H202V211h4.49l.35-7.3h5.25V211h6.53v4.78h-6.53v18.14c0,2.27,1.11,3.38,3.21,3.38a12.62,12.62,0,0,0,3.44-.47Z"/><path d="M229.31,211v19.88c0,4.5,2.39,6.54,6.3,6.54,5.08,0,7.47-3.79,7.47-7.94V211h5.6v30.32h-4.61l-.64-3.5a11,11,0,0,1-9.1,4.38c-6.24,0-10.61-3.67-10.61-11.43V211Z"/><path d="M256.84,241.31V211h4.61l.58,3.55a10.4,10.4,0,0,1,8.92-4.43c4,0,7.24,1.63,8.93,4.78,2.33-3.67,6.18-4.78,9.86-4.78,6.18,0,10.26,3.67,10.26,10.91v20.29h-5.6V221.43c0-4.61-2-6.54-5.89-6.54-4.49,0-7.29,3.79-7.29,7.94v18.48h-5.6V221.43c0-4.67-2-6.54-5.89-6.54a7.48,7.48,0,0,0-7.29,7.76v18.66Z"/><path d="M24.5,299.63l-1-4.25a11.75,11.75,0,0,1-10.1,5.13C5.77,300.51,0,294.91,0,284.65c0-10.85,5.66-16.22,13.77-16.22a11.43,11.43,0,0,1,9.74,4.73V257.64H29.1v42Zm-9.86-3.9c5.77,0,9.16-4.55,9.16-10.91,0-7.41-3.56-11.61-9.16-11.61-5.31,0-8.81,3.62-8.81,11.55C5.83,292.05,9.57,295.73,14.64,295.73Z"/><path d="M64,290.89c-1.52,5.54-6.3,9.62-13.59,9.62-8.63,0-14.87-5.37-14.87-16s6.18-16,14.58-16,14.23,5,14.23,17.27H41.23c.47,7,4.26,10.09,9.33,10.09a7.39,7.39,0,0,0,7.35-4.9Zm-22.51-9.63H58.61c-.4-5.66-3.73-8.34-8.4-8.34C45.72,272.92,42.34,275.66,41.47,281.26Z"/><path d="M80,285.81c-7.12-1.57-10-4.26-10-8.75,0-5.19,4.14-8.63,11.79-8.63,6.76,0,11.43,3.33,12.42,8.87H88.47c-.64-2.8-2.91-4.44-6.76-4.44-4.2,0-6.07,1.58-6.07,3.68,0,2.33,1.23,3.38,7.06,4.66,7.06,1.58,11.72,3.56,11.72,9.8,0,5.54-4.61,9.51-12.65,9.51-7.59,0-12.54-3.73-13.07-9.57h5.72c.64,3.62,3.15,5.14,7.4,5.14,4.55,0,6.94-2,6.94-4.67C88.76,287.85,85.38,287,80,285.81Z"/><path d="M100.48,264.23v-6.59h6.3v6.59Zm.35,35.4V269.31h5.6v30.32Z"/><path d="M120.26,301.68c.52,3,3.09,4.9,7.52,4.9,5.66,0,8.57-2.86,8.57-7.88v-3.91c-2,2.4-5.42,4-10.09,4-7.11,0-13.41-5.31-13.41-15,0-9.51,5.54-15.34,13.76-15.34,4.73,0,7.94,2,9.86,4.9l.87-4H142V299c0,6.89-5,12-14,12-8.1,0-12.71-3.68-13.7-9.33Zm7.23-7.7c5.77,0,9.16-3.79,9.16-9.92,0-7.11-3.74-10.85-9.16-10.85-5.13,0-8.81,3.44-8.81,10.68C118.68,290.3,122.65,294,127.49,294Z"/><path d="M150.11,299.63V269.31h4.61l.64,3.85a11.17,11.17,0,0,1,9.22-4.73c6.59,0,10.73,4,10.73,11.43v19.77h-5.6V279.92c0-4.55-2.33-6.71-6.47-6.71a7.37,7.37,0,0,0-7.53,7.7v18.72Z"/><path d="M101.61,48.45V0H0V101.61H48.39V150h50.8a50.8,50.8,0,0,0,2.42-101.55Zm-50.8-1.06L8.26,4.84H93.35Zm46-39.13V48.39H56.65Zm-43.54,45H96.77V96.77H53.23ZM4.84,96.77V8.26L48.39,51.81v45Zm94.35,48.39h-46V101.61h48.38V53.29a46,46,0,0,1-2.42,91.87Z"/></g></g></svg>