<svg xmlns="http://www.w3.org/2000/svg" viewBox="0 0 300 308.51"><title>momentum-vert-color</title><g id="Layer_2" data-name="Layer 2"><g id="Layer_1-2" data-name="Layer 1"><path d="M1.75,238.81V208.49H6.36L6.94,212a10.41,10.41,0,0,1,8.93-4.43c4,0,7.23,1.63,8.92,4.78,2.33-3.67,6.18-4.78,9.86-4.78,6.18,0,10.26,3.67,10.26,10.91v20.29h-5.6V218.93c0-4.61-2-6.54-5.89-6.54-4.49,0-7.29,3.79-7.29,7.94v18.48h-5.6V218.93c0-4.67-2-6.54-5.89-6.54a7.48,7.48,0,0,0-7.29,7.76v18.66Z"/><path d="M66,207.61c8.28,0,14.93,5.13,14.93,16,0,10.62-6.41,16-15,16S51,234.15,51,223.65C51,212.74,57.8,207.61,66,207.61Zm.06,27.53c5.36,0,9-4,9-11.49,0-7.7-3.91-11.49-9.1-11.49s-9.16,3.91-9.16,11.49S60.83,235.14,66.08,235.14Z"/><path d="M87.36,238.81V208.49H92l.58,3.55a10.42,10.42,0,0,1,8.93-4.43c4,0,7.23,1.63,8.92,4.78,2.33-3.67,6.18-4.78,9.86-4.78,6.18,0,10.26,3.67,10.26,10.91v20.29h-5.6V218.93c0-4.61-2-6.54-5.89-6.54-4.49,0-7.29,3.79-7.29,7.94v18.48h-5.6V218.93c0-4.67-2-6.54-5.89-6.54A7.48,7.48,0,0,0,93,220.15v18.66Z"/><path d="M165.11,230.07c-1.52,5.54-6.3,9.62-13.59,9.62-8.63,0-14.88-5.37-14.88-16s6.19-16,14.59-16,14.23,5,14.23,17.26h-23.1c.47,7,4.26,10.1,9.33,10.1a7.39,7.39,0,0,0,7.35-4.9Zm-22.52-9.63h17.15c-.41-5.66-3.73-8.34-8.4-8.34C146.85,212.1,143.47,214.84,142.59,220.44Z"/><path d="M172.16,238.81V208.49h4.61l.64,3.85a11.17,11.17,0,0,1,9.22-4.73c6.59,0,10.73,4,10.73,11.43v19.77h-5.6V219.1c0-4.55-2.34-6.71-6.48-6.71a7.37,7.37,0,0,0-7.52,7.7v18.72Z"/><path d="M218.76,239.11a15.41,15.41,0,0,1-4.14.58c-5.37,0-8.11-3.38-8.11-8.4v-18H202v-4.78h4.49l.35-7.3h5.25v7.3h6.53v4.78h-6.53v18.14c0,2.27,1.11,3.38,3.21,3.38a12.62,12.62,0,0,0,3.44-.47Z"/><path d="M229.31,208.49v19.88c0,4.5,2.39,6.54,6.3,6.54,5.08,0,7.47-3.79,7.47-7.94V208.49h5.6v30.32h-4.61l-.64-3.49a11,11,0,0,1-9.1,4.37c-6.24,0-10.61-3.67-10.61-11.43V208.49Z"/><path d="M256.84,238.81V208.49h4.61L262,212a10.4,10.4,0,0,1,8.92-4.43c4,0,7.24,1.63,8.93,4.78,2.33-3.67,6.18-4.78,9.86-4.78,6.18,0,10.26,3.67,10.26,10.91v20.29h-5.6V218.93c0-4.61-2-6.54-5.89-6.54-4.49,0-7.29,3.79-7.29,7.94v18.48h-5.6V218.93c0-4.67-2-6.54-5.89-6.54a7.48,7.48,0,0,0-7.29,7.76v18.66Z"/><path d="M24.5,297.13l-1-4.25A11.75,11.75,0,0,1,13.41,298C5.77,298,0,292.41,0,282.15c0-10.85,5.66-16.22,13.77-16.22a11.43,11.43,0,0,1,9.74,4.73V255.14H29.1v42Zm-9.86-3.9c5.77,0,9.16-4.55,9.16-10.91,0-7.41-3.56-11.61-9.16-11.61-5.31,0-8.81,3.62-8.81,11.55C5.83,289.55,9.57,293.23,14.64,293.23Z"/><path d="M64,288.39c-1.52,5.54-6.3,9.62-13.59,9.62-8.63,0-14.87-5.37-14.87-16s6.18-16,14.58-16,14.23,5,14.23,17.27H41.23c.47,7,4.26,10.09,9.33,10.09a7.39,7.39,0,0,0,7.35-4.9Zm-22.51-9.63H58.61c-.4-5.66-3.73-8.34-8.4-8.34C45.72,270.42,42.34,273.16,41.47,278.76Z"/><path d="M80,283.31c-7.12-1.57-10-4.26-10-8.75,0-5.19,4.14-8.63,11.79-8.63,6.76,0,11.43,3.33,12.42,8.87H88.47c-.64-2.8-2.91-4.44-6.76-4.44-4.2,0-6.07,1.58-6.07,3.68,0,2.33,1.23,3.38,7.06,4.66,7.06,1.58,11.72,3.56,11.72,9.8,0,5.54-4.61,9.51-12.65,9.51-7.59,0-12.54-3.73-13.07-9.57h5.72c.64,3.62,3.15,5.14,7.4,5.14,4.55,0,6.94-2,6.94-4.67C88.76,285.35,85.38,284.54,80,283.31Z"/><path d="M100.48,261.73v-6.59h6.3v6.59Zm.35,35.4V266.81h5.6v30.32Z"/><path d="M120.26,299.18c.52,3,3.09,4.9,7.52,4.9,5.66,0,8.57-2.86,8.57-7.88v-3.91c-2,2.4-5.42,4-10.09,4-7.11,0-13.41-5.31-13.41-15,0-9.51,5.54-15.34,13.76-15.34,4.73,0,7.94,2,9.86,4.9l.87-4H142v29.68c0,6.89-5,12-14,12-8.1,0-12.71-3.68-13.7-9.33Zm7.23-7.7c5.77,0,9.16-3.79,9.16-9.92,0-7.11-3.74-10.85-9.16-10.85-5.13,0-8.81,3.44-8.81,10.68C118.68,287.8,122.65,291.48,127.49,291.48Z"/><path d="M150.11,297.13V266.81h4.61l.64,3.85a11.17,11.17,0,0,1,9.22-4.73c6.59,0,10.73,4,10.73,11.43v19.77h-5.6V277.42c0-4.55-2.33-6.71-6.47-6.71a7.37,7.37,0,0,0-7.53,7.7v18.72Z"/><polygon points="50 50 0 0 0 100 50 100 50 50 50 50" style="fill:#feb400"/><polygon points="100 50 100 50 100 50 100 0 50 50 100 50" style="fill:#feb400"/><polygon points="100 0 0 0 50 50 100 0" style="fill:#ff7033"/><path d="M100,50v50H50v50h50a50,50,0,0,0,50-50h0A50,50,0,0,0,100,50Z" style="fill:#07c1e4"/><polygon points="100 50 100 100 100 100 100 50 100 50 100 50" style="fill:#07c1e4"/><polygon points="100 50 50 50 50 50 50 100 100 100 100 50" style="fill:#a866ff"/></g></g></svg>