<svg xmlns="http://www.w3.org/2000/svg" viewBox="0 0 454.71 514.24"><path d="M297.87,480.62l-37.84-63L233.4,492.09l-52.71,80.27c-8.57,14.59-18.61,23.8-32.81,19.83s-24-19.68-17.48-33.73l53.84-89.25,23.47-85.58c1.39-7.86-3.52-20.52-3.52-20.52-4.62-17.62-1.48-28.09-1.48-28.09l13.94-80.08L182,285l-14.24,60.78c-2.23,12.72-9.12,22.19-20.91,22.29s-21.48-10.37-20.42-21.4l18.32-75.49c2.27-14.78,10.65-19.7,10.65-19.7l75.84-54.36c44.1-17,72.82,13.63,72.82,13.63l36.85,73.63,41.61,31.76c8.92,9.62,10.07,23.1,1.32,31.29-7.52,7-21.92,2.27-29.1-5.14L318.6,314.79c-7.12-4.29-23.52-38.37-23.52-38.37L284,348.54a18.43,18.43,0,0,0,2.67,14.57l56.82,91.06,15.85,104.45c3.72,17.12-3.88,29.42-17.08,32.83-13.91,3.6-26.91-4.76-30.32-18.46Z" transform="translate(-126.35 -78.88)" style="fill:#fff"/><path d="M331.21,139.94c4.11,22.42-10.07,43.8-31.68,47.75s-42.44-11-46.54-33.42,10.08-43.8,31.68-47.75,42.44,11,46.54,33.42" transform="translate(-126.35 -78.88)" style="fill:#fff"/><path d="M495.11,105.88c32.56,0,58.95,103,58.95,229.93s-26.39,229.94-58.95,229.94S436.17,462.8,436.17,335.81s26.39-229.93,58.94-229.93m0-27c-12.41,0-30.46,5.39-46,31.08-8.39,13.85-15.73,32.88-21.8,56.56-11.68,45.56-18.11,105.68-18.11,169.29s6.43,123.74,18.11,169.3c6.07,23.68,13.41,42.71,21.8,56.56,8.59,14.18,23.55,31.08,46,31.08,12.41,0,30.47-5.39,46-31.08,8.39-13.85,15.72-32.88,21.8-56.56,11.67-45.56,18.11-105.68,18.11-169.3S574.62,212.08,563,166.52c-6.08-23.68-13.41-42.71-21.8-56.56-8.6-14.18-23.56-31.08-46-31.08Z" transform="translate(-126.35 -78.88)" style="fill:#fff"/></svg>