<svg id="attach" xmlns="http://www.w3.org/2000/svg" width="24" height="23" viewBox="0 0 24 23">
  <path id="Path" d="M21.753,2.272a7.614,7.614,0,0,0-10.85,0L1.6,11.689a5.6,5.6,0,0,0,0,7.847,5.438,5.438,0,0,0,7.75,0L17.878,10.9a3.359,3.359,0,0,0,0-4.708,3.263,3.263,0,0,0-4.65,0L7.653,11.84a1.12,1.12,0,0,0,0,1.569,1.086,1.086,0,0,0,1.55,0l5.575-5.645a1.088,1.088,0,0,1,1.55,0,1.12,1.12,0,0,1,0,1.569L7.8,17.966a3.263,3.263,0,0,1-4.65,0,3.363,3.363,0,0,1,0-4.709l9.3-9.417a5.438,5.438,0,0,1,7.75,0,5.6,5.6,0,0,1,0,7.847l-9.3,9.417a1.12,1.12,0,0,0,0,1.569,1.086,1.086,0,0,0,1.55,0l9.3-9.417a7.837,7.837,0,0,0,0-10.986Z" fill="#56eaff"/>
</svg>
