<?xml version="1.0" encoding="UTF-8"?>
<svg width="119px" height="118px" viewBox="0 0 119 118" version="1.1" xmlns="http://www.w3.org/2000/svg" xmlns:xlink="http://www.w3.org/1999/xlink">
    <!-- Generator: Sketch 50 (54983) - http://www.bohemiancoding.com/sketch -->
    <title>webex-teams/color/teams-with-container-color</title>
    <desc>Created with Sketch.</desc>
    <defs></defs>
    <g id="webex-teams/color/teams-with-container-color" stroke="none" stroke-width="1" fill="none" fill-rule="evenodd">
        <g>
            <path d="M91.4121,117.7822 L27.3461,117.7822 C12.6021,117.7822 0.6501,105.8302 0.6501,91.0872 L0.6501,27.0212 C0.6501,12.2772 12.6021,0.3252 27.3461,0.3252 L91.4121,0.3252 C106.1551,0.3252 118.1071,12.2772 118.1071,27.0212 L118.1071,91.0872 C118.1071,105.8302 106.1551,117.7822 91.4121,117.7822" id="Fill-1" fill="#FFFFFF"></path>
            <path d="M92,59 C92,77.226 77.226,92 59,92 C40.774,92 26,77.226 26,59 C26,40.774 40.774,26 59,26 C77.226,26 92,40.774 92,59" id="Fill-3" fill="#FFFFFF"></path>
            <path d="M86.9932,30.834 C83.7702,27.579 80.1122,25.016 76.2072,23.133 C83.2402,37.645 80.7332,55.604 68.6662,67.646 C56.6002,79.686 38.6072,82.188 24.0662,75.175 C25.8872,78.932 28.3372,82.463 31.4392,85.597 L31.7762,85.935 C47.0232,101.15 71.7452,101.15 86.9932,85.935 C102.2402,70.719 102.2402,46.05 86.9932,30.834" id="Fill-5" fill="#6EBE4A"></path>
            <path d="M31.9727,39.6851 C29.7527,39.6851 27.5337,38.8401 25.8407,37.1501 C22.4537,33.7711 22.4537,28.2921 25.8407,24.9131 C34.8317,15.9411 46.7847,11.0001 59.4997,11.0001 C64.2897,11.0001 68.1707,14.8741 68.1707,19.6541 C68.1707,24.4331 64.2897,28.3081 59.4997,28.3081 C51.4177,28.3081 43.8197,31.4481 38.1047,37.1501 C36.4117,38.8401 34.1927,39.6851 31.9727,39.6851" id="Fill-7" fill="#D541D8"></path>
            <path d="M61.0044,11.1387 C65.0754,11.8507 68.1714,15.3877 68.1714,19.6537 C68.1714,24.0687 64.8564,27.7047 60.5754,28.2337 C76.8174,28.8027 89.8574,42.1557 89.8574,58.4997 C89.8574,53.7757 93.6954,49.9467 98.4284,49.9467 C103.1624,49.9467 107.0004,53.7757 107.0004,58.4997 C107.0004,32.8677 86.5014,11.9367 61.0044,11.1387" id="Fill-9" fill="#FBAB18"></path>
            <path d="M98.4287,49.9468 C93.6957,49.9468 89.8577,53.7758 89.8577,58.4998 C89.8577,74.8438 76.8177,88.1968 60.5747,88.7658 C64.8557,89.2958 68.1707,92.9318 68.1707,97.3468 C68.1707,101.6128 65.0747,105.1498 61.0047,105.8618 C86.5007,105.0638 106.9997,84.1328 106.9997,58.4998 C106.9997,53.7758 103.1617,49.9468 98.4287,49.9468" id="Fill-11" fill="#005073"></path>
            <path d="M37.3516,37.814 C35.7796,39.058 33.8776,39.685 31.9726,39.685 C29.7526,39.685 27.5336,38.84 25.8406,37.15 C22.8556,34.172 22.5056,29.564 24.7826,26.198 C16.8606,34.67 11.9996,46.026 11.9996,58.5 C11.9996,70.974 16.8616,82.331 24.7846,90.804 C22.5056,87.438 22.8546,82.828 25.8406,79.849 C28.9886,76.709 33.9486,76.492 37.3506,79.185 C32.2656,73.766 29.1426,66.492 29.1426,58.5 C29.1426,50.507 32.2656,43.233 37.3516,37.814" id="Fill-13" fill="#FF3D67"></path>
            <path d="M59.4995,106 C46.7845,106 34.8305,101.059 25.8405,92.087 C22.4545,88.707 22.4545,83.228 25.8405,79.849 C29.2285,76.469 34.7205,76.471 38.1045,79.849 C43.8195,85.552 51.4175,88.692 59.4995,88.692 C64.2895,88.692 68.1705,92.567 68.1705,97.347 C68.1705,102.125 64.2895,106 59.4995,106" id="Fill-15" fill="#00BCEB"></path>
        </g>
    </g>
</svg>