<?xml version="1.0" encoding="UTF-8"?>
<svg width="124px" height="150px" viewBox="0 0 124 150" version="1.1" xmlns="http://www.w3.org/2000/svg" xmlns:xlink="http://www.w3.org/1999/xlink">
    <!-- Generator: Sketch 50 (54983) - http://www.bohemiancoding.com/sketch -->
    <title>webex-teams/color/teams-with-container-and-label-color</title>
    <desc>Created with Sketch.</desc>
    <defs></defs>
    <g id="webex-teams/color/teams-with-container-and-label-color" stroke="none" stroke-width="1" fill="none" fill-rule="evenodd">
        <g>
            <path d="M94.4121,117.7822 L30.3461,117.7822 C15.6021,117.7822 3.6501,105.8302 3.6501,91.0872 L3.6501,27.0212 C3.6501,12.2772 15.6021,0.3252 30.3461,0.3252 L94.4121,0.3252 C109.1551,0.3252 121.1071,12.2772 121.1071,27.0212 L121.1071,91.0872 C121.1071,105.8302 109.1551,117.7822 94.4121,117.7822" id="Fill-1" fill="#FFFFFF"></path>
            <polygon id="Fill-3" fill="#231F20" points="16.8838 135.2207 18.6698 135.2207 15.0598 148.9007 12.8178 148.9007 9.7208 137.3107 6.5288 148.9007 4.1538 148.9007 0.5628 135.2207 2.5388 135.2207 5.4458 146.6017 8.5808 135.2207 10.9938 135.2207 13.9578 146.5637"></polygon>
            <path d="M23.7422,140.1982 C22.9312,140.1982 22.2792,140.4522 21.7852,140.9592 C21.3162,141.4272 21.0192,142.0802 20.8922,142.9162 L26.4782,142.9162 C26.4152,141.9652 26.0982,141.2562 25.5282,140.7872 C25.0722,140.3942 24.4762,140.1982 23.7422,140.1982 M26.2502,146.0512 L28.2262,146.0512 C27.9482,147.0512 27.3962,147.8362 26.5732,148.4062 C25.8012,148.9262 24.8762,149.1852 23.7992,149.1852 C22.2412,149.1852 21.0252,148.6912 20.1512,147.7032 C19.3532,146.7792 18.9542,145.5312 18.9542,143.9612 C18.9542,142.1742 19.4612,140.8192 20.4742,139.8942 C21.3102,139.1222 22.3872,138.7352 23.7042,138.7352 C25.2492,138.7352 26.4152,139.2362 27.2002,140.2362 C27.9602,141.1992 28.3402,142.5732 28.3402,144.3592 L20.8162,144.3592 C20.8922,145.5252 21.2462,146.3922 21.8802,146.9632 C22.3992,147.4182 23.0582,147.6462 23.8562,147.6462 C24.4762,147.6462 25.0152,147.4752 25.4712,147.1332 C25.8512,146.8422 26.1112,146.4802 26.2502,146.0512" id="Fill-5" fill="#231F20"></path>
            <path d="M38.0117,143.8457 C38.0117,142.6057 37.7007,141.6737 37.0807,141.0527 C36.5867,140.5467 35.9407,140.2927 35.1427,140.2927 C34.2177,140.2927 33.4827,140.6287 32.9387,141.3007 C32.4187,141.9467 32.1597,142.7947 32.1597,143.8457 C32.1597,145.1137 32.4697,146.0817 33.0907,146.7537 C33.6097,147.3357 34.2937,147.6267 35.1427,147.6267 C36.0927,147.6267 36.8147,147.2797 37.3087,146.5817 C37.7767,145.9367 38.0117,145.0247 38.0117,143.8457 Z M31.9317,148.9007 L30.4307,148.9007 L30.4307,135.2207 L32.2547,135.2207 L32.2547,140.3887 C33.0267,139.2867 34.1287,138.7357 35.5607,138.7357 C36.9787,138.7357 38.0807,139.2417 38.8667,140.2557 C39.5627,141.1677 39.9117,142.3767 39.9117,143.8847 C39.9117,145.6697 39.4367,147.0387 38.4867,147.9887 C37.6887,148.7867 36.6687,149.1857 35.4277,149.1857 C34.0217,149.1857 32.9507,148.6537 32.2167,147.5897 L31.9317,148.9007 Z" id="Fill-7" fill="#231F20"></path>
            <path d="M46.124,140.1982 C45.313,140.1982 44.661,140.4522 44.167,140.9592 C43.698,141.4272 43.401,142.0802 43.274,142.9162 L48.86,142.9162 C48.797,141.9652 48.48,141.2562 47.91,140.7872 C47.454,140.3942 46.858,140.1982 46.124,140.1982 M48.632,146.0512 L50.608,146.0512 C50.33,147.0512 49.778,147.8362 48.955,148.4062 C48.183,148.9262 47.258,149.1852 46.181,149.1852 C44.623,149.1852 43.407,148.6912 42.533,147.7032 C41.735,146.7792 41.336,145.5312 41.336,143.9612 C41.336,142.1742 41.843,140.8192 42.856,139.8942 C43.692,139.1222 44.769,138.7352 46.086,138.7352 C47.631,138.7352 48.797,139.2362 49.582,140.2362 C50.342,141.1992 50.722,142.5732 50.722,144.3592 L43.198,144.3592 C43.274,145.5252 43.628,146.3922 44.262,146.9632 C44.781,147.4182 45.44,147.6462 46.238,147.6462 C46.858,147.6462 47.397,147.4752 47.853,147.1332 C48.233,146.8422 48.493,146.4802 48.632,146.0512" id="Fill-9" fill="#231F20"></path>
            <polygon id="Fill-11" fill="#231F20" points="60.7734 139.0205 57.4674 143.6365 61.3434 148.9005 59.1204 148.9005 56.4414 145.0825 53.8194 148.9005 51.6724 148.9005 55.3584 143.7705 51.9004 139.0205 54.0854 139.0205 56.4414 142.3455 58.6834 139.0205"></polygon>
            <polygon id="Fill-13" fill="#231F20" points="78.3105 135.2207 78.3105 136.9497 73.7115 136.9497 73.7115 148.9007 71.7735 148.9007 71.7735 136.9497 67.2325 136.9497 67.2325 135.2207"></polygon>
            <path d="M82.4336,140.1982 C81.6226,140.1982 80.9706,140.4522 80.4766,140.9592 C80.0076,141.4272 79.7096,142.0802 79.5836,142.9162 L85.1696,142.9162 C85.1056,141.9652 84.7886,141.2562 84.2186,140.7872 C83.7636,140.3942 83.1676,140.1982 82.4336,140.1982 M84.9416,146.0512 L86.9176,146.0512 C86.6386,147.0512 86.0876,147.8362 85.2636,148.4062 C84.4926,148.9262 83.5666,149.1852 82.4906,149.1852 C80.9316,149.1852 79.7166,148.6912 78.8416,147.7032 C78.0446,146.7792 77.6446,145.5312 77.6446,143.9612 C77.6446,142.1742 78.1526,140.8192 79.1646,139.8942 C80.0016,139.1222 81.0786,138.7352 82.3946,138.7352 C83.9406,138.7352 85.1056,139.2362 85.8906,140.2362 C86.6516,141.1992 87.0316,142.5732 87.0316,144.3592 L79.5076,144.3592 C79.5836,145.5252 79.9376,146.3922 80.5716,146.9632 C81.0896,147.4182 81.7486,147.6462 82.5466,147.6462 C83.1676,147.6462 83.7056,147.4752 84.1626,147.1332 C84.5426,146.8422 84.8016,146.4802 84.9416,146.0512" id="Fill-15" fill="#231F20"></path>
            <path d="M92.4082,147.6465 C93.1812,147.6465 93.8522,147.3925 94.4222,146.8865 C94.9292,146.4175 95.1822,145.8785 95.1822,145.2715 L95.1822,143.9985 L92.7312,144.4355 C91.8322,144.5875 91.2182,144.8225 90.8882,145.1385 C90.6232,145.3925 90.4902,145.7345 90.4902,146.1645 C90.4902,146.6465 90.6542,147.0135 90.9832,147.2665 C91.3122,147.5195 91.7872,147.6465 92.4082,147.6465 M90.6792,141.7755 L88.7422,141.7755 C88.8432,140.7875 89.3112,140.0215 90.1472,139.4765 C90.8942,138.9825 91.8382,138.7355 92.9782,138.7355 C94.3342,138.7355 95.3732,139.0895 96.0952,139.7985 C96.7032,140.4075 97.0062,141.1935 97.0062,142.1555 L97.0062,148.9005 L95.5062,148.9005 L95.2772,147.5505 C94.5052,148.6405 93.4022,149.1855 91.9712,149.1855 C90.8442,149.1855 89.9642,148.8805 89.3302,148.2735 C88.8102,147.7675 88.5512,147.1265 88.5512,146.3545 C88.5512,145.3785 88.8872,144.6255 89.5582,144.0935 C90.1542,143.6255 91.0662,143.2835 92.2952,143.0675 L95.1822,142.5735 L95.1822,142.0805 C95.1822,141.4335 94.9612,140.9455 94.5172,140.6165 C94.1252,140.3255 93.5862,140.1795 92.9022,140.1795 C91.5592,140.1795 90.8182,140.7105 90.6792,141.7755" id="Fill-17" fill="#231F20"></path>
            <path d="M101.2998,148.9004 L99.4768,148.9004 L99.4768,139.0204 L100.9768,139.0204 L101.1668,140.1794 C101.8378,139.2164 102.8068,138.7354 104.0738,138.7354 C105.4548,138.7354 106.4238,139.2544 106.9808,140.2934 C107.6398,139.2544 108.7098,138.7354 110.1918,138.7354 C111.2938,138.7354 112.1428,139.0714 112.7378,139.7424 C113.2698,140.3634 113.5358,141.2124 113.5358,142.2894 L113.5358,148.9004 L111.7118,148.9004 L111.7118,142.4214 C111.7118,141.0034 111.0718,140.2934 109.7928,140.2934 C109.0328,140.2934 108.4248,140.5914 107.9688,141.1864 C107.6018,141.6684 107.4178,142.2314 107.4178,142.8774 L107.4178,148.9004 L105.5938,148.9004 L105.5938,142.4214 C105.5938,141.0034 104.9538,140.2934 103.6748,140.2934 C102.9648,140.2934 102.3768,140.5724 101.9078,141.1294 C101.5018,141.5974 101.2998,142.1624 101.2998,142.8204 L101.2998,148.9004 Z" id="Fill-19" fill="#231F20"></path>
            <path d="M121.7812,146.2207 C121.7812,145.6637 121.4902,145.2457 120.9082,144.9667 C120.5662,144.8157 119.9002,144.6247 118.9122,144.3977 C117.6972,144.1307 116.8292,143.7447 116.3092,143.2387 C115.8792,142.8087 115.6642,142.2437 115.6642,141.5467 C115.6642,140.6227 116.0372,139.9137 116.7852,139.4197 C117.4562,138.9627 118.3612,138.7357 119.5022,138.7357 C120.6792,138.7357 121.6362,139.0277 122.3712,139.6097 C123.0042,140.1167 123.3962,140.7867 123.5492,141.6227 L121.6872,141.6227 C121.4702,140.6607 120.7362,140.1797 119.4822,140.1797 C118.7862,140.1797 118.2662,140.3067 117.9252,140.5597 C117.6462,140.7757 117.5072,141.0467 117.5072,141.3767 C117.5072,141.7817 117.6622,142.0857 117.9722,142.2887 C118.2832,142.4917 118.8932,142.6937 119.8052,142.8967 C121.1992,143.1997 122.1682,143.5747 122.7132,144.0177 C123.3202,144.5117 123.6252,145.2017 123.6252,146.0877 C123.6252,147.0757 123.2182,147.8557 122.4082,148.4257 C121.6742,148.9317 120.7052,149.1857 119.5022,149.1857 C118.1832,149.1857 117.1382,148.8687 116.3672,148.2357 C115.6952,147.6777 115.3222,146.9557 115.2462,146.0697 L117.1072,146.0697 C117.3102,147.1837 118.1152,147.7417 119.5212,147.7417 C120.2812,147.7417 120.8692,147.5767 121.2872,147.2477 C121.6172,146.9817 121.7812,146.6387 121.7812,146.2207" id="Fill-21" fill="#231F20"></path>
            <path d="M95,59 C95,77.226 80.226,92 62,92 C43.774,92 29,77.226 29,59 C29,40.774 43.774,26 62,26 C80.226,26 95,40.774 95,59" id="Fill-23" fill="#FFFFFF"></path>
            <path d="M89.9932,30.834 C86.7702,27.579 83.1122,25.016 79.2072,23.133 C86.2402,37.645 83.7332,55.604 71.6662,67.646 C59.6002,79.686 41.6072,82.188 27.0662,75.175 C28.8872,78.932 31.3372,82.463 34.4392,85.597 L34.7762,85.935 C50.0232,101.15 74.7452,101.15 89.9932,85.935 C105.2402,70.719 105.2402,46.05 89.9932,30.834" id="Fill-25" fill="#6EBE4A"></path>
            <path d="M34.9727,39.6851 C32.7527,39.6851 30.5337,38.8401 28.8407,37.1501 C25.4537,33.7711 25.4537,28.2921 28.8407,24.9131 C37.8317,15.9411 49.7847,11.0001 62.4997,11.0001 C67.2897,11.0001 71.1707,14.8741 71.1707,19.6541 C71.1707,24.4331 67.2897,28.3081 62.4997,28.3081 C54.4177,28.3081 46.8197,31.4481 41.1047,37.1501 C39.4117,38.8401 37.1927,39.6851 34.9727,39.6851" id="Fill-27" fill="#D541D8"></path>
            <path d="M64.0044,11.1387 C68.0754,11.8507 71.1714,15.3877 71.1714,19.6537 C71.1714,24.0687 67.8564,27.7047 63.5754,28.2337 C79.8174,28.8027 92.8574,42.1557 92.8574,58.4997 C92.8574,53.7757 96.6954,49.9467 101.4284,49.9467 C106.1624,49.9467 110.0004,53.7757 110.0004,58.4997 C110.0004,32.8677 89.5014,11.9367 64.0044,11.1387" id="Fill-29" fill="#FBAB18"></path>
            <path d="M101.4287,49.9468 C96.6957,49.9468 92.8577,53.7758 92.8577,58.4998 C92.8577,74.8438 79.8177,88.1968 63.5747,88.7658 C67.8557,89.2958 71.1707,92.9318 71.1707,97.3468 C71.1707,101.6128 68.0747,105.1498 64.0047,105.8618 C89.5007,105.0638 109.9997,84.1328 109.9997,58.4998 C109.9997,53.7758 106.1617,49.9468 101.4287,49.9468" id="Fill-31" fill="#005073"></path>
            <path d="M40.3516,37.814 C38.7796,39.058 36.8776,39.685 34.9726,39.685 C32.7526,39.685 30.5336,38.84 28.8406,37.15 C25.8556,34.172 25.5056,29.564 27.7826,26.198 C19.8606,34.67 14.9996,46.026 14.9996,58.5 C14.9996,70.974 19.8616,82.331 27.7846,90.804 C25.5056,87.438 25.8546,82.828 28.8406,79.849 C31.9886,76.709 36.9486,76.492 40.3506,79.185 C35.2656,73.766 32.1426,66.492 32.1426,58.5 C32.1426,50.507 35.2656,43.233 40.3516,37.814" id="Fill-33" fill="#FF3D67"></path>
            <path d="M62.4995,106 C49.7845,106 37.8305,101.059 28.8405,92.087 C25.4545,88.707 25.4545,83.228 28.8405,79.849 C32.2285,76.469 37.7205,76.471 41.1045,79.849 C46.8195,85.552 54.4175,88.692 62.4995,88.692 C67.2895,88.692 71.1705,92.567 71.1705,97.347 C71.1705,102.125 67.2895,106 62.4995,106" id="Fill-35" fill="#00BCEB"></path>
        </g>
    </g>
</svg>