<?xml version="1.0" encoding="UTF-8"?>
<svg width="124px" height="139px" viewBox="0 0 124 139" version="1.1" xmlns="http://www.w3.org/2000/svg" xmlns:xlink="http://www.w3.org/1999/xlink">
    <!-- Generator: Sketch 50 (54983) - http://www.bohemiancoding.com/sketch -->
    <title>webex-teams/color/teams-with-label-color</title>
    <desc>Created with Sketch.</desc>
    <defs></defs>
    <g id="webex-teams/color/teams-with-label-color" stroke="none" stroke-width="1" fill="none" fill-rule="evenodd">
        <g>
            <polygon id="Fill-1" fill="#231F20" points="16.8838 124.2207 18.6698 124.2207 15.0598 137.9007 12.8178 137.9007 9.7208 126.3107 6.5288 137.9007 4.1538 137.9007 0.5628 124.2207 2.5388 124.2207 5.4458 135.6017 8.5808 124.2207 10.9938 124.2207 13.9578 135.5637"></polygon>
            <g id="Group-34" transform="translate(15.000000, 0.000000)">
                <path d="M8.7422,129.1982 C7.9312,129.1982 7.2792,129.4522 6.7852,129.9592 C6.3162,130.4272 6.0192,131.0802 5.8922,131.9162 L11.4782,131.9162 C11.4152,130.9652 11.0982,130.2562 10.5282,129.7872 C10.0722,129.3942 9.4762,129.1982 8.7422,129.1982 M11.2502,135.0512 L13.2262,135.0512 C12.9482,136.0512 12.3962,136.8362 11.5732,137.4062 C10.8012,137.9262 9.8762,138.1852 8.7992,138.1852 C7.2412,138.1852 6.0252,137.6912 5.1512,136.7032 C4.3532,135.7792 3.9542,134.5312 3.9542,132.9612 C3.9542,131.1742 4.4612,129.8192 5.4742,128.8942 C6.3102,128.1222 7.3872,127.7352 8.7042,127.7352 C10.2492,127.7352 11.4152,128.2362 12.2002,129.2362 C12.9602,130.1992 13.3402,131.5732 13.3402,133.3592 L5.8162,133.3592 C5.8922,134.5252 6.2462,135.3922 6.8802,135.9632 C7.3992,136.4182 8.0582,136.6462 8.8562,136.6462 C9.4762,136.6462 10.0152,136.4752 10.4712,136.1332 C10.8512,135.8422 11.1112,135.4802 11.2502,135.0512" id="Fill-2" fill="#231F20"></path>
                <path d="M23.0117,132.8457 C23.0117,131.6057 22.7007,130.6737 22.0807,130.0527 C21.5867,129.5467 20.9407,129.2927 20.1427,129.2927 C19.2177,129.2927 18.4827,129.6287 17.9387,130.3007 C17.4187,130.9467 17.1597,131.7947 17.1597,132.8457 C17.1597,134.1137 17.4697,135.0817 18.0907,135.7537 C18.6097,136.3357 19.2937,136.6267 20.1427,136.6267 C21.0927,136.6267 21.8147,136.2797 22.3087,135.5817 C22.7767,134.9367 23.0117,134.0247 23.0117,132.8457 Z M16.9317,137.9007 L15.4307,137.9007 L15.4307,124.2207 L17.2547,124.2207 L17.2547,129.3887 C18.0267,128.2867 19.1287,127.7357 20.5607,127.7357 C21.9787,127.7357 23.0807,128.2417 23.8667,129.2557 C24.5627,130.1677 24.9117,131.3767 24.9117,132.8847 C24.9117,134.6697 24.4367,136.0387 23.4867,136.9887 C22.6887,137.7867 21.6687,138.1857 20.4277,138.1857 C19.0217,138.1857 17.9507,137.6537 17.2167,136.5897 L16.9317,137.9007 Z" id="Fill-4" fill="#231F20"></path>
                <path d="M31.124,129.1982 C30.313,129.1982 29.661,129.4522 29.167,129.9592 C28.698,130.4272 28.401,131.0802 28.274,131.9162 L33.86,131.9162 C33.797,130.9652 33.48,130.2562 32.91,129.7872 C32.454,129.3942 31.858,129.1982 31.124,129.1982 M33.632,135.0512 L35.608,135.0512 C35.33,136.0512 34.778,136.8362 33.955,137.4062 C33.183,137.9262 32.258,138.1852 31.181,138.1852 C29.623,138.1852 28.407,137.6912 27.533,136.7032 C26.735,135.7792 26.336,134.5312 26.336,132.9612 C26.336,131.1742 26.843,129.8192 27.856,128.8942 C28.692,128.1222 29.769,127.7352 31.086,127.7352 C32.631,127.7352 33.797,128.2362 34.582,129.2362 C35.342,130.1992 35.722,131.5732 35.722,133.3592 L28.198,133.3592 C28.274,134.5252 28.628,135.3922 29.262,135.9632 C29.781,136.4182 30.44,136.6462 31.238,136.6462 C31.858,136.6462 32.397,136.4752 32.853,136.1332 C33.233,135.8422 33.493,135.4802 33.632,135.0512" id="Fill-6" fill="#231F20"></path>
                <polygon id="Fill-8" fill="#231F20" points="45.7734 128.0205 42.4674 132.6365 46.3434 137.9005 44.1204 137.9005 41.4414 134.0825 38.8194 137.9005 36.6724 137.9005 40.3584 132.7705 36.9004 128.0205 39.0854 128.0205 41.4414 131.3455 43.6834 128.0205"></polygon>
                <polygon id="Fill-10" fill="#231F20" points="63.3105 124.2207 63.3105 125.9497 58.7115 125.9497 58.7115 137.9007 56.7735 137.9007 56.7735 125.9497 52.2325 125.9497 52.2325 124.2207"></polygon>
                <path d="M67.4336,129.1982 C66.6226,129.1982 65.9706,129.4522 65.4766,129.9592 C65.0076,130.4272 64.7096,131.0802 64.5836,131.9162 L70.1696,131.9162 C70.1056,130.9652 69.7886,130.2562 69.2186,129.7872 C68.7636,129.3942 68.1676,129.1982 67.4336,129.1982 M69.9416,135.0512 L71.9176,135.0512 C71.6386,136.0512 71.0876,136.8362 70.2636,137.4062 C69.4926,137.9262 68.5666,138.1852 67.4906,138.1852 C65.9316,138.1852 64.7166,137.6912 63.8416,136.7032 C63.0446,135.7792 62.6446,134.5312 62.6446,132.9612 C62.6446,131.1742 63.1526,129.8192 64.1646,128.8942 C65.0016,128.1222 66.0786,127.7352 67.3946,127.7352 C68.9406,127.7352 70.1056,128.2362 70.8906,129.2362 C71.6516,130.1992 72.0316,131.5732 72.0316,133.3592 L64.5076,133.3592 C64.5836,134.5252 64.9376,135.3922 65.5716,135.9632 C66.0896,136.4182 66.7486,136.6462 67.5466,136.6462 C68.1676,136.6462 68.7056,136.4752 69.1626,136.1332 C69.5426,135.8422 69.8016,135.4802 69.9416,135.0512" id="Fill-12" fill="#231F20"></path>
                <path d="M77.4082,136.6465 C78.1812,136.6465 78.8522,136.3925 79.4222,135.8865 C79.9292,135.4175 80.1822,134.8785 80.1822,134.2715 L80.1822,132.9985 L77.7312,133.4355 C76.8322,133.5875 76.2182,133.8225 75.8882,134.1385 C75.6232,134.3925 75.4902,134.7345 75.4902,135.1645 C75.4902,135.6465 75.6542,136.0135 75.9832,136.2665 C76.3122,136.5195 76.7872,136.6465 77.4082,136.6465 M75.6792,130.7755 L73.7422,130.7755 C73.8432,129.7875 74.3112,129.0215 75.1472,128.4765 C75.8942,127.9825 76.8382,127.7355 77.9782,127.7355 C79.3342,127.7355 80.3732,128.0895 81.0952,128.7985 C81.7032,129.4075 82.0062,130.1935 82.0062,131.1555 L82.0062,137.9005 L80.5062,137.9005 L80.2772,136.5505 C79.5052,137.6405 78.4022,138.1855 76.9712,138.1855 C75.8442,138.1855 74.9642,137.8805 74.3302,137.2735 C73.8102,136.7675 73.5512,136.1265 73.5512,135.3545 C73.5512,134.3785 73.8872,133.6255 74.5582,133.0935 C75.1542,132.6255 76.0662,132.2835 77.2952,132.0675 L80.1822,131.5735 L80.1822,131.0805 C80.1822,130.4335 79.9612,129.9455 79.5172,129.6165 C79.1252,129.3255 78.5862,129.1795 77.9022,129.1795 C76.5592,129.1795 75.8182,129.7105 75.6792,130.7755" id="Fill-14" fill="#231F20"></path>
                <path d="M86.2998,137.9004 L84.4768,137.9004 L84.4768,128.0204 L85.9768,128.0204 L86.1668,129.1794 C86.8378,128.2164 87.8068,127.7354 89.0738,127.7354 C90.4548,127.7354 91.4238,128.2544 91.9808,129.2934 C92.6398,128.2544 93.7098,127.7354 95.1918,127.7354 C96.2938,127.7354 97.1428,128.0714 97.7378,128.7424 C98.2698,129.3634 98.5358,130.2124 98.5358,131.2894 L98.5358,137.9004 L96.7118,137.9004 L96.7118,131.4214 C96.7118,130.0034 96.0718,129.2934 94.7928,129.2934 C94.0328,129.2934 93.4248,129.5914 92.9688,130.1864 C92.6018,130.6684 92.4178,131.2314 92.4178,131.8774 L92.4178,137.9004 L90.5938,137.9004 L90.5938,131.4214 C90.5938,130.0034 89.9538,129.2934 88.6748,129.2934 C87.9648,129.2934 87.3768,129.5724 86.9078,130.1294 C86.5018,130.5974 86.2998,131.1624 86.2998,131.8204 L86.2998,137.9004 Z" id="Fill-16" fill="#231F20"></path>
                <path d="M106.7812,135.2207 C106.7812,134.6637 106.4902,134.2457 105.9082,133.9667 C105.5662,133.8157 104.9002,133.6247 103.9122,133.3977 C102.6972,133.1307 101.8292,132.7447 101.3092,132.2387 C100.8792,131.8087 100.6642,131.2437 100.6642,130.5467 C100.6642,129.6227 101.0372,128.9137 101.7852,128.4197 C102.4562,127.9627 103.3612,127.7357 104.5022,127.7357 C105.6792,127.7357 106.6362,128.0277 107.3712,128.6097 C108.0042,129.1167 108.3962,129.7867 108.5492,130.6227 L106.6872,130.6227 C106.4702,129.6607 105.7362,129.1797 104.4822,129.1797 C103.7862,129.1797 103.2662,129.3067 102.9252,129.5597 C102.6462,129.7757 102.5072,130.0467 102.5072,130.3767 C102.5072,130.7817 102.6622,131.0857 102.9722,131.2887 C103.2832,131.4917 103.8932,131.6937 104.8052,131.8967 C106.1992,132.1997 107.1682,132.5747 107.7132,133.0177 C108.3202,133.5117 108.6252,134.2017 108.6252,135.0877 C108.6252,136.0757 108.2182,136.8557 107.4082,137.4257 C106.6742,137.9317 105.7052,138.1857 104.5022,138.1857 C103.1832,138.1857 102.1382,137.8687 101.3672,137.2357 C100.6952,136.6777 100.3222,135.9557 100.2462,135.0697 L102.1072,135.0697 C102.3102,136.1837 103.1152,136.7417 104.5212,136.7417 C105.2812,136.7417 105.8692,136.5767 106.2872,136.2477 C106.6172,135.9817 106.7812,135.6387 106.7812,135.2207" id="Fill-18" fill="#231F20"></path>
                <path d="M80,48 C80,66.226 65.226,81 47,81 C28.774,81 14,66.226 14,48 C14,29.774 28.774,15 47,15 C65.226,15 80,29.774 80,48" id="Fill-20" fill="#FFFFFF"></path>
                <path d="M74.9932,19.834 C71.7702,16.579 68.1122,14.016 64.2072,12.133 C71.2402,26.645 68.7332,44.604 56.6662,56.646 C44.6002,68.686 26.6072,71.188 12.0662,64.175 C13.8872,67.932 16.3372,71.463 19.4392,74.597 L19.7762,74.935 C35.0232,90.15 59.7452,90.15 74.9932,74.935 C90.2402,59.719 90.2402,35.05 74.9932,19.834" id="Fill-22" fill="#6EBE4A"></path>
                <path d="M19.9727,28.6851 C17.7527,28.6851 15.5337,27.8401 13.8407,26.1501 C10.4537,22.7711 10.4537,17.2921 13.8407,13.9131 C22.8317,4.9411 34.7847,0.0001 47.4997,0.0001 C52.2897,0.0001 56.1707,3.8741 56.1707,8.6541 C56.1707,13.4331 52.2897,17.3081 47.4997,17.3081 C39.4177,17.3081 31.8197,20.4481 26.1047,26.1501 C24.4117,27.8401 22.1927,28.6851 19.9727,28.6851" id="Fill-24" fill="#D541D8"></path>
                <path d="M49.0044,0.1387 C53.0754,0.8507 56.1714,4.3877 56.1714,8.6537 C56.1714,13.0687 52.8564,16.7047 48.5754,17.2337 C64.8174,17.8027 77.8574,31.1557 77.8574,47.4997 C77.8574,42.7757 81.6954,38.9467 86.4284,38.9467 C91.1624,38.9467 95.0004,42.7757 95.0004,47.4997 C95.0004,21.8677 74.5014,0.9367 49.0044,0.1387" id="Fill-26" fill="#FBAB18"></path>
                <path d="M86.4287,38.9468 C81.6957,38.9468 77.8577,42.7758 77.8577,47.4998 C77.8577,63.8438 64.8177,77.1968 48.5747,77.7658 C52.8557,78.2958 56.1707,81.9318 56.1707,86.3468 C56.1707,90.6128 53.0747,94.1498 49.0047,94.8618 C74.5007,94.0638 94.9997,73.1328 94.9997,47.4998 C94.9997,42.7758 91.1617,38.9468 86.4287,38.9468" id="Fill-28" fill="#005073"></path>
                <path d="M25.3516,26.814 C23.7796,28.058 21.8776,28.685 19.9726,28.685 C17.7526,28.685 15.5336,27.84 13.8406,26.15 C10.8556,23.172 10.5056,18.564 12.7826,15.198 C4.8606,23.67 -0.0004,35.026 -0.0004,47.5 C-0.0004,59.974 4.8616,71.331 12.7846,79.804 C10.5056,76.438 10.8546,71.828 13.8406,68.849 C16.9886,65.709 21.9486,65.492 25.3506,68.185 C20.2656,62.766 17.1426,55.492 17.1426,47.5 C17.1426,39.507 20.2656,32.233 25.3516,26.814" id="Fill-30" fill="#FF3D67"></path>
                <path d="M47.4995,95 C34.7845,95 22.8305,90.059 13.8405,81.087 C10.4545,77.707 10.4545,72.228 13.8405,68.849 C17.2285,65.469 22.7205,65.471 26.1045,68.849 C31.8195,74.552 39.4175,77.692 47.4995,77.692 C52.2895,77.692 56.1705,81.567 56.1705,86.347 C56.1705,91.125 52.2895,95 47.4995,95" id="Fill-32" fill="#00BCEB"></path>
            </g>
        </g>
    </g>
</svg>