<?xml version="1.0" encoding="utf-8"?>
<!-- Generator: Adobe Illustrator 28.1.0, SVG Export Plug-In . SVG Version: 6.00 Build 0)  -->
<svg version="1.1" id="svg1032" xmlns:svg="http://www.w3.org/2000/svg"
	 xmlns="http://www.w3.org/2000/svg" xmlns:xlink="http://www.w3.org/1999/xlink" x="0px" y="0px" viewBox="0 0 682.7 682.7"
	 style="enable-background:new 0 0 682.7 682.7;" xml:space="preserve">
<style type="text/css">
	.st0{fill:none;stroke:#FFFFFF;stroke-width:40;stroke-linecap:round;stroke-linejoin:round;stroke-miterlimit:30.568;}
</style>
<g id="g1038" transform="matrix(1.3333333,0,0,-1.3333333,0,682.66667)">
	<g id="g1040">
		<g>
			<g id="g1042">
				<g id="g1048" transform="translate(387,354)">
					<path id="path1050" class="st0" d="M0,0h80c16.5,0,30-13.5,30-30v-309l-67.6,49H-175c-16.5,0-30,13.5-30,30v25"/>
				</g>
				<g id="g1052" transform="translate(204.1211,497)">
					<path id="path1054" class="st0" d="M0,0c104.4,0,189.1-84.7,189.1-189.1c0-104.4-84.7-189.1-189.1-189.1
						c-34.4,0-66.7,9.2-94.4,25.2l-94.7-35l33.7,91.1c-21.2,30.6-33.7,67.7-33.7,107.7C-189.1-84.7-104.4,0,0,0z"/>
				</g>
				<g id="g1056" transform="translate(205.0005,382)">
					<path id="path1058" class="st0" d="M0,0v-148"/>
				</g>
				<g id="g1060" transform="translate(265.001,325.8193)">
					<path id="path1062" class="st0" d="M0,0v-35.6"/>
				</g>
				<g id="g1064" transform="translate(144.9995,325.8193)">
					<path id="path1066" class="st0" d="M0,0v-35.6"/>
				</g>
				<g id="g1068" transform="translate(325.001,349.8184)">
					<path id="path1070" class="st0" d="M0,0v-83.6"/>
				</g>
				<g id="g1072" transform="translate(84.9995,349.8184)">
					<path id="path1074" class="st0" d="M0,0v-83.6"/>
				</g>
			</g>
		</g>
	</g>
</g>
</svg>
