<?xml version="1.0" encoding="UTF-8"?>
<svg id="Capa_1" data-name="Capa 1" xmlns="http://www.w3.org/2000/svg" viewBox="0 0 512 165.65">
  <defs>
    <style>
      .cls-1 {
        fill: #fff;
      }
    </style>
  </defs>
  <path class="cls-1" d="m82.82,165.65C37.08,165.65,0,128.57,0,82.82S37.08,0,82.82,0s82.82,37.08,82.82,82.82-37.08,82.82-82.82,82.82Zm-3.35-105.14c-1.24-.82-2.69-1.26-4.18-1.26-4.16,0-7.53,3.37-7.53,7.53v32.1c0,1.49.44,2.94,1.26,4.18,2.31,3.46,6.98,4.39,10.44,2.09l24.07-16.05c.83-.55,1.54-1.26,2.09-2.09,2.31-3.46,1.37-8.13-2.09-10.44l-24.07-16.05Zm131.35-7.8c0-8.32,6.74-15.06,15.06-15.06s15.06,6.74,15.06,15.06v60.24c0,8.32-6.74,15.06-15.06,15.06s-15.06-6.74-15.06-15.06v-60.24Zm67.76-37.65c0-8.32,6.74-15.06,15.06-15.06s15.06,6.74,15.06,15.06v135.53c0,8.32-6.74,15.06-15.06,15.06s-15.06-6.74-15.06-15.06V15.06Zm67.76,37.65c0-8.32,6.74-15.06,15.06-15.06s15.06,6.74,15.06,15.06v60.24c0,8.32-6.74,15.06-15.06,15.06s-15.06-6.74-15.06-15.06v-60.24Zm135.53,0c0-8.32,6.74-15.06,15.06-15.06s15.06,6.74,15.06,15.06v60.24c0,8.32-6.74,15.06-15.06,15.06s-15.06-6.74-15.06-15.06v-60.24Zm-67.76-37.65c0-8.32,6.74-15.06,15.06-15.06s15.06,6.74,15.06,15.06v135.53c0,8.32-6.74,15.06-15.06,15.06s-15.06-6.74-15.06-15.06V15.06Z"/>
</svg>