<?xml version="1.0" encoding="utf-8"?>
<!-- Generator: Adobe Illustrator 28.0.0, SVG Export Plug-In . SVG Version: 6.00 Build 0)  -->
<svg version="1.1" id="Layer_1" xmlns="http://www.w3.org/2000/svg" xmlns:xlink="http://www.w3.org/1999/xlink" x="0px" y="0px"
	 viewBox="0 0 24 24" style="enable-background:new 0 0 24 24;" xml:space="preserve">
<style type="text/css">
	.st0{fill:#FFFFFF;}
</style>
<g id="Layer_2_00000180326573400453598400000003780424431048324797_">
	<path class="st0" d="M22,12.8c-0.2,0-0.4-0.1-0.5-0.2l-5-5c-0.3-0.3-0.3-0.8,0-1.1c0.3-0.3,0.8-0.3,1.1,0l5,5
		c0.3,0.3,0.3,0.8,0,1.1C22.4,12.7,22.2,12.7,22,12.8z"/>
	<path class="st0" d="M17,12.8c-0.4,0-0.7-0.3-0.7-0.8c0-0.2,0.1-0.4,0.2-0.5l5-5c0.3-0.3,0.8-0.3,1.1,0c0.3,0.3,0.3,0.8,0,1.1l-5,5
		C17.4,12.7,17.2,12.8,17,12.8z"/>
	<path class="st0" d="M8.5,12h1c3.9,0,7,3.1,7,7c0,1.7-1.3,3-3,3h-9c-1.7,0-3-1.3-3-3C1.5,15.1,4.6,12,8.5,12z"/>
	<circle class="st0" cx="9" cy="6.5" r="4.5"/>
</g>
</svg>
