<?xml version="1.0" encoding="UTF-8"?>
<svg id="svg579" xmlns="http://www.w3.org/2000/svg" xmlns:svg="http://www.w3.org/2000/svg" version="1.1" viewBox="0 0 682.7 682.7">
  <defs>
    <style>
      .cls-1 {
        fill: none;
        stroke: #fff;
        stroke-linecap: round;
        stroke-linejoin: round;
        stroke-width: 20px;
      }
    </style>
  </defs>
  <g id="g585">
    <g id="g591">
      <g id="g593">
        <g id="g599">
          <path id="path601" class="cls-1" d="M638.5,489v143.6c0,22.1-17.9,40-40,40H84.2c-22.1,0-40-17.9-40-40v-35.6"/>
        </g>
        <g id="g603">
          <path id="path605" class="cls-1" d="M44.2,528.3V95.8c0-22.1,17.9-40.1,40.1-40.1h514.2c22.1,0,40.1,17.9,40.1,40.1v388.1c0,10.6-4.2,20.8-11.7,28.3l-108.8,108.8c-7.5,7.5-17.7,11.7-28.3,11.7H84.2c-22.1,0-40.1-17.9-40.1-40.1v-24.3"/>
        </g>
        <g id="g607">
          <path id="path609" class="cls-1" d="M473.3,632.7c18.1,0,32.8-14.7,32.8-32.8v-66.8c0-18.1,14.7-32.8,32.8-32.8h66.8c18.1,0,32.8-14.7,32.8-32.8"/>
        </g>
        <g id="g611">
          <path id="path613" class="cls-1" d="M535.7,198.6H44.2"/>
        </g>
        <g id="g615">
          <path id="path617" class="cls-1" d="M638.5,198.6h-62.8"/>
        </g>
        <g id="g619">
          <path id="path621" class="cls-1" d="M157.4,115.5c-11.3,0-20.4-9.1-20.4-20.4V30.4c0-11.3,9.1-20.4,20.4-20.4h4.6c11.3,0,20.4,9.1,20.4,20.4v25.3"/>
        </g>
        <g id="g623">
          <path id="path625" class="cls-1" d="M520.7,115.5c-11.3,0-20.4-9.1-20.4-20.4V30.4c0-11.3,9.1-20.4,20.4-20.4h4.6c11.3,0,20.4,9.1,20.4,20.4v25.3"/>
        </g>
      </g>
    </g>
  </g>
</svg>