<?xml version="1.0" encoding="utf-8"?>
<!-- Generator: Adobe Illustrator 28.1.0, SVG Export Plug-In . SVG Version: 6.00 Build 0)  -->
<svg version="1.1" id="Layer_1" xmlns="http://www.w3.org/2000/svg" xmlns:xlink="http://www.w3.org/1999/xlink" x="0px" y="0px"
	 viewBox="0 0 25 25" style="enable-background:new 0 0 25 25;" xml:space="preserve">
<style type="text/css">
	.st0{fill:#FFFFFF;}
</style>
<g>
	<g>
		<path class="st0" d="M7.9,16H7.4c-0.3,0-0.5-0.2-0.5-0.5S7.1,15,7.4,15h0.5c0.3,0,0.5,0.2,0.5,0.5S8.2,16,7.9,16z"/>
		<path class="st0" d="M5.4,16h-1c-0.3,0-0.5-0.2-0.5-0.5S4.1,15,4.4,15h1c0.3,0,0.5,0.2,0.5,0.5S5.7,16,5.4,16z M2.4,15.9
			c0,0-0.1,0-0.1,0c-0.4-0.1-0.8-0.3-1.1-0.6c-0.2-0.2-0.2-0.5,0-0.7c0.2-0.2,0.5-0.2,0.7,0c0.2,0.2,0.4,0.3,0.6,0.4
			c0.3,0.1,0.4,0.4,0.3,0.6C2.8,15.8,2.6,15.9,2.4,15.9z M0.9,13.5c-0.3,0-0.5-0.2-0.5-0.5v-1c0-0.3,0.2-0.5,0.5-0.5
			c0.3,0,0.5,0.2,0.5,0.5v1C1.4,13.3,1.2,13.5,0.9,13.5z M0.9,10.5c-0.3,0-0.5-0.2-0.5-0.5V9c0-0.3,0.2-0.5,0.5-0.5
			c0.3,0,0.5,0.2,0.5,0.5v1C1.4,10.3,1.2,10.5,0.9,10.5z M0.9,7.5C0.6,7.5,0.4,7.3,0.4,7V6c0-0.3,0.2-0.5,0.5-0.5
			c0.3,0,0.5,0.2,0.5,0.5v1C1.4,7.3,1.2,7.5,0.9,7.5z M14.9,6.4c-0.3,0-0.5-0.2-0.5-0.5v-1c0-0.3,0.2-0.5,0.5-0.5s0.5,0.2,0.5,0.5v1
			C15.4,6.2,15.2,6.4,14.9,6.4z M0.9,4.4c-0.3,0-0.5-0.2-0.5-0.5V3.5c0-0.2,0-0.5,0.1-0.7c0.1-0.3,0.4-0.4,0.6-0.3
			c0.3,0.1,0.4,0.4,0.3,0.6c0,0.1-0.1,0.3-0.1,0.4v0.5C1.4,4.2,1.2,4.4,0.9,4.4z M14.8,3.4c-0.2,0-0.4-0.1-0.5-0.4
			c-0.1-0.2-0.2-0.5-0.4-0.6c-0.2-0.2-0.2-0.5,0-0.7c0.2-0.2,0.5-0.2,0.7,0C15,2,15.2,2.4,15.3,2.8C15.4,3,15.2,3.3,15,3.4
			C14.9,3.4,14.9,3.4,14.8,3.4z M2.3,2.1c-0.2,0-0.4-0.1-0.5-0.4C1.8,1.4,1.9,1.2,2.2,1.1C2.4,1,2.7,1,2.9,1h0.4
			c0.3,0,0.5,0.2,0.5,0.5S3.6,2,3.3,2H2.9C2.8,2,2.6,2,2.5,2C2.4,2.1,2.4,2.1,2.3,2.1z M12.4,2h-1c-0.3,0-0.5-0.2-0.5-0.5
			S11.2,1,11.4,1h1c0.3,0,0.5,0.2,0.5,0.5S12.7,2,12.4,2z M9.4,2h-1C8.1,2,7.9,1.8,7.9,1.5S8.1,1,8.4,1h1c0.3,0,0.5,0.2,0.5,0.5
			S9.7,2,9.4,2z M6.4,2h-1C5.1,2,4.9,1.8,4.9,1.5S5.1,1,5.4,1h1c0.3,0,0.5,0.2,0.5,0.5S6.7,2,6.4,2z"/>
		<path class="st0" d="M15.3,8.1l0.1,0.1V8c0-0.3-0.2-0.5-0.5-0.5c-0.2,0-0.3,0.1-0.4,0.2C14.8,7.8,15,7.9,15.3,8.1z"/>
		<path class="st0" d="M21.9,10h-4.8c0.9,1,1.3,2.2,1.3,3.6c0,3-2.4,5.4-5.4,5.4h-2.1c-0.6,0-1.1-0.2-1.5-0.5c0,0,0,0,0,0v4
			c0,1.4,1.1,2.5,2.5,2.5h10c1.4,0,2.5-1.1,2.5-2.5v-10C24.4,11.1,23.3,10,21.9,10z"/>
		<path class="st0" d="M9.4,15.7v0.8c0,0.8,0.7,1.5,1.5,1.5H13c2.5,0,4.4-2,4.4-4.4c0-1.2-0.5-2.3-1.3-3.1l-1.6-1.6
			c-0.2-0.2-0.6-0.2-0.8,0c-0.1,0.1-0.2,0.2-0.2,0.4s0.1,0.3,0.2,0.4c0.1,0.1,0.1,0.2,0.1,0.4c0,0.1,0,0.3-0.1,0.4
			c-0.2,0.2-0.5,0.2-0.7,0l-0.5-0.5c-0.2-0.2-0.6-0.2-0.8,0c-0.2,0.2-0.2,0.6,0,0.8l0.5,0.5c0.1,0.1,0.1,0.2,0.1,0.4s0,0.3-0.1,0.4
			c-0.2,0.2-0.5,0.2-0.7,0l-0.8-0.8c-0.2-0.2-0.6-0.2-0.8,0c-0.2,0.2-0.2,0.6,0,0.8l1.2,1.2c0.1,0.1,0.1,0.2,0.1,0.4s0,0.3-0.1,0.4
			c-0.2,0.2-0.5,0.2-0.7,0l-1.1-1.1c-0.2-0.2-0.6-0.2-0.8,0c-0.1,0.1-0.2,0.2-0.2,0.4s0.1,0.3,0.2,0.4l2.6,2.6
			c0.1,0.1,0.1,0.2,0.1,0.4s0,0.3-0.1,0.4c-0.2,0.2-0.5,0.2-0.7,0L9.4,15.7z"/>
	</g>
</g>
</svg>
