<svg id="Calque_1" data-name="Calque 1" xmlns="http://www.w3.org/2000/svg" viewBox="0 0 48.97 39.04"><defs><style>.cls-1{fill:#fff;}</style></defs><rect class="cls-1" x="0.7" y="0.5" width="11.76" height="9.75"/><path class="cls-1" d="M35.08,11.78v8.75H24.31V11.78H35.08m1-1H23.31V21.53H36.08V10.78Z" transform="translate(-23.11 -10.78)"/><rect class="cls-1" x="0.5" y="14.77" width="11.76" height="9.75"/><path class="cls-1" d="M34.87,26.05V34.8H24.11V26.05H34.87m1-1H23.11V35.8H35.87V25.05Z" transform="translate(-23.11 -10.78)"/><rect class="cls-1" x="0.5" y="28.79" width="11.76" height="9.75"/><path class="cls-1" d="M34.87,40.07v8.75H24.11V40.07H34.87m1-1H23.11V49.82H35.87V39.07Z" transform="translate(-23.11 -10.78)"/><rect class="cls-1" x="18.7" y="0.5" width="11.76" height="9.75"/><path class="cls-1" d="M53.08,11.78v8.75H42.31V11.78H53.08m1-1H41.31V21.53H54.08V10.78Z" transform="translate(-23.11 -10.78)"/><rect class="cls-1" x="18.5" y="14.77" width="11.76" height="9.75"/><path class="cls-1" d="M52.87,26.05V34.8H42.11V26.05H52.87m1-1H41.11V35.8H53.87V25.05Z" transform="translate(-23.11 -10.78)"/><rect class="cls-1" x="18.5" y="28.79" width="11.76" height="9.75"/><path class="cls-1" d="M52.87,40.07v8.75H42.11V40.07H52.87m1-1H41.11V49.82H53.87V39.07Z" transform="translate(-23.11 -10.78)"/><rect class="cls-1" x="36.7" y="0.5" width="11.76" height="9.75"/><path class="cls-1" d="M71.08,11.78v8.75H60.31V11.78H71.08m1-1H59.31V21.53H72.08V10.78Z" transform="translate(-23.11 -10.78)"/><rect class="cls-1" x="36.5" y="14.77" width="11.76" height="9.75"/><path class="cls-1" d="M70.87,26.05V34.8H60.11V26.05H70.87m1-1H59.11V35.8H71.87V25.05Z" transform="translate(-23.11 -10.78)"/><rect class="cls-1" x="36.5" y="28.79" width="11.76" height="9.75"/><path class="cls-1" d="M70.87,40.07v8.75H60.11V40.07H70.87m1-1H59.11V49.82H71.87V39.07Z" transform="translate(-23.11 -10.78)"/></svg>