<svg width="483" height="65" viewBox="0 0 483 65" fill="none" xmlns="http://www.w3.org/2000/svg">
    <g>
    <path d="M96.1401 54.9998L91.5601 47.8698H93.6801L97.0701 53.2698L100.49 47.8698H102.61L98.0001 54.9998V59.7398H96.1401V54.9998Z" fill="white"/>
    <path d="M102 55.4098C102 53.0498 103.91 51.1298 106.28 51.1298C108.65 51.1298 110.56 53.0398 110.56 55.4098C110.56 57.7798 108.65 59.6998 106.28 59.6998C103.91 59.6998 102 57.7898 102 55.4198V55.4098ZM108.82 55.4098C108.82 53.5098 107.82 52.2898 106.27 52.2898C104.72 52.2898 103.73 53.5098 103.73 55.4098C103.73 57.3098 104.73 58.5198 106.27 58.5198C107.81 58.5198 108.83 57.2998 108.83 55.4098H108.82Z" fill="white"/>
    <path d="M112.78 51.1198H114.49V56.2598C114.49 57.6498 114.91 58.3798 116.08 58.3798C117.25 58.4098 118.22 57.4898 118.26 56.3198C118.26 56.2098 118.26 56.1098 118.24 55.9998V51.0998H120V59.6698H118.29V58.3098C117.77 59.3098 116.72 59.9098 115.6 59.8498C113.6 59.8498 112.86 58.7098 112.86 56.7298L112.78 51.1198Z" fill="white"/>
    <path d="M122.7 51.1198H124.41V52.4498C124.87 51.5398 125.81 50.9798 126.83 50.9998C126.99 50.9898 127.16 50.9898 127.32 50.9998V52.7798C127.08 52.6998 126.84 52.6698 126.59 52.6698C125.44 52.6098 124.46 53.4998 124.4 54.6498C124.4 54.7698 124.4 54.8798 124.41 54.9998V59.6898H122.7V51.1198Z" fill="white"/>
    <path d="M132.76z 51.1198H134.56L136.36 57.5398L138.36 51.1198H140L142 57.5398L143.84 51.1198H145.62L142.95 59.6898H141.26L139.26 53.4598L137.19 59.6898H135.53L132.76 51.1198Z" fill="white"/>
    <path d="M146.46 55.4098C146.46 53.0498 148.37 51.1298 150.74 51.1298C153.11 51.1298 155.02 53.0398 155.02 55.4098C155.02 57.7798 153.11 59.6998 150.74 59.6998C148.37 59.6998 146.46 57.7898 146.46 55.4198V55.4098ZM153.28 55.4098C153.28 53.5098 152.28 52.2898 150.73 52.2898C149.18 52.2898 148.19 53.5098 148.19 55.4098C148.19 57.3098 149.19 58.5198 150.73 58.5198C152.27 58.5198 153.28 57.2998 153.28 55.4098Z" fill="white"/>
    <path d="M157.18 51.1198H158.89V52.4498C159.35 51.5398 160.29 50.9798 161.31 50.9998C161.47 50.9898 161.64 50.9898 161.8 50.9998V52.7798C161.56 52.6998 161.32 52.6698 161.07 52.6698C159.92 52.6098 158.94 53.4998 158.88 54.6498C158.88 54.7698 158.88 54.8798 158.89 54.9998V59.6898H157.18V51.1198Z" fill="white"/>
    <path d="M163.28 47.8398H165V54.9998L168.54 51.1198H170.76L167 54.9998L171.16 59.6798H168.93L165 54.9998V59.6598H163.29V47.8398H163.28Z" fill="white"/>
    <path d="M172.68 51.1198H174.4V52.4498C174.98 51.4798 176.05 50.9198 177.18 50.9998C179.6 50.9998 180.83 52.8798 180.83 55.4398C180.83 57.9998 179.5 59.8898 177.16 59.8898C176.03 59.9498 174.97 59.3498 174.43 58.3498V62.8498H172.71L172.68 51.1198ZM179.09 55.3998C179.09 53.4498 178.22 52.2798 176.68 52.2798C175.14 52.2798 174.38 53.4598 174.38 55.4298C174.38 57.3998 175.1 58.5398 176.7 58.5398C178.3 58.5398 179.09 57.4098 179.09 55.3998Z" fill="white"/>
    <path d="M183 47.8398H184.72V59.6898H183V47.8398Z" fill="white"/>
    <path d="M192.48 58.4898C191.77 59.4198 190.65 59.9298 189.48 59.8498C187.65 59.8498 186.77 58.8498 186.77 57.5698C186.77 55.1098 189.27 55.0598 191.03 54.7598C192.31 54.5498 192.49 54.4498 192.49 53.8498C192.49 52.9498 191.89 52.3198 190.73 52.3198C189.83 52.1798 189 52.7998 188.86 53.6898C188.85 53.7698 188.84 53.8498 188.84 53.9298H187.19C187.38 52.0698 188.37 50.9298 190.74 50.9298C193.11 50.9298 194.2 52.0698 194.2 54.3598V59.6598H192.49V58.4898H192.48ZM192.48 55.4898C190.72 55.9498 188.48 55.8098 188.48 57.2798C188.48 58.0298 189.12 58.5198 190.01 58.5198C191.26 58.6398 192.37 57.7298 192.49 56.4798C192.49 56.3998 192.5 56.3198 192.5 56.2398L192.48 55.4898Z" fill="white"/>
    <path d="M203.92 56.5298C203.8 58.6798 202.44 59.8498 200.2 59.8498C197.47 59.8498 196.2 58.0398 196.2 55.4098C196.2 52.7798 197.61 50.9598 200.2 50.9598C202.44 50.9598 203.81 52.1598 203.93 54.3098H202.23C202.23 53.2398 201.36 52.3698 200.29 52.3698C200.25 52.3698 200.21 52.3698 200.18 52.3698C198.71 52.3698 197.89 53.3698 197.89 55.3698C197.89 57.3698 198.71 58.3698 200.18 58.3698C201.21 58.4698 202.12 57.7198 202.22 56.6898C202.22 56.6098 202.23 56.5398 202.22 56.4598L203.91 56.5298H203.92Z" fill="white"/>
    <path d="M213.42 56.7598C213.28 58.5498 211.95 59.8498 209.69 59.8498C206.89 59.8498 205.69 58.0698 205.69 55.4098C205.69 52.7498 207 50.9998 209.67 50.9998C212.34 50.9998 213.44 52.6998 213.44 55.4398V55.7098H207.44C207.44 57.5698 208.31 58.5098 209.65 58.5098C210.69 58.6398 211.63 57.8998 211.75 56.8598C211.75 56.8398 211.75 56.8198 211.75 56.7998L213.41 56.7598H213.42ZM211.74 54.5498C211.87 53.4498 211.09 52.4598 210 52.3198C209.89 52.3098 209.78 52.2998 209.67 52.3098C208.39 52.3098 207.61 53.0398 207.43 54.5498H211.74Z" fill="white"/>
    <path d="M216.52 57.4898C217.12 57.4598 217.63 57.9298 217.66 58.5298C217.66 58.5598 217.66 58.5998 217.66 58.6298C217.68 59.2398 217.21 59.7498 216.6 59.7698C216.57 59.7698 216.55 59.7698 216.52 59.7698C215.89 59.7698 215.38 59.2598 215.38 58.6298C215.38 57.9998 215.89 57.4898 216.52 57.4898Z" fill="white"/>
    <path d="M224.67 47.8398H229.67C231.83 47.8398 233.05 49.0598 233.05 50.7698C233.07 51.7898 232.53 52.7398 231.64 53.2398C232.94 53.6598 233.83 54.8698 233.84 56.2398C233.84 58.3298 232.39 59.6398 230.09 59.6398H224.7L224.67 47.8398ZM229.26 52.8398C230.18 52.9498 231.01 52.2798 231.12 51.3598C231.12 51.2698 231.13 51.1898 231.12 51.0998C231.17 50.2198 230.49 49.4598 229.61 49.4098C229.52 49.4098 229.44 49.4098 229.35 49.4098H226.51V52.7898L229.25 52.8298L229.26 52.8398ZM229.95 58.1898C230.93 58.3098 231.82 57.5998 231.94 56.6198C231.94 56.5398 231.95 56.4498 231.95 56.3698C232.01 55.3198 231.2 54.4298 230.16 54.3698C230.09 54.3698 230.02 54.3698 229.95 54.3698H226.6V58.1798H229.95V58.1898Z" fill="white"/>
    <path d="M243.21 56.7598C243.07 58.5498 241.74 59.8498 239.48 59.8498C236.68 59.8498 235.48 58.0698 235.48 55.4098C235.48 52.7498 236.8 50.9598 239.48 50.9598C242.16 50.9598 243.24 52.6598 243.24 55.3998V55.6698H237.24C237.29 57.5298 238.11 58.4698 239.45 58.4698C240.5 58.5898 241.45 57.8398 241.57 56.7898C241.57 56.7798 241.57 56.7698 241.57 56.7598H243.21ZM241.53 54.5498C241.66 53.4498 240.88 52.4598 239.79 52.3198C239.69 52.3098 239.58 52.2998 239.47 52.3098C238.19 52.3098 237.4 53.0398 237.23 54.5498H241.53Z" fill="white"/>
    <path d="M245.69 52.5298H244.49V51.1198H245.69V48.9198H247.4V51.1198H249.4V52.5298H247.4V56.9998C247.31 57.5898 247.71 58.1498 248.31 58.2498C248.41 58.2698 248.52 58.2698 248.62 58.2498C248.9 58.2498 249.18 58.2198 249.45 58.1698V59.6898C249.08 59.7698 248.7 59.8098 248.32 59.8198C246.67 59.8198 245.69 59.0198 245.69 57.0998V52.5298Z" fill="white"/>
    <path d="M251.35 52.5298H250.15V51.1198H251.35V48.9198H253.07V51.1198H255.07V52.5298H253.07V56.9998C253.07 57.8598 253.48 58.2498 254.28 58.2498C254.56 58.2498 254.84 58.2198 255.12 58.1698V59.6898C254.74 59.7698 254.36 59.8098 253.98 59.8198C252.33 59.8198 251.35 59.0198 251.35 57.0998V52.5298Z" fill="white"/>
    <path d="M264.06 56.7598C263.92 58.5498 262.59 59.8498 260.33 59.8498C257.53 59.8498 256.33 58.0698 256.33 55.4098C256.33 52.7498 257.66 50.9598 260.33 50.9598C263 50.9598 264.09 52.6598 264.09 55.3998V55.6698H258.09C258.09 57.5298 258.96 58.4698 260.3 58.4698C261.34 58.5998 262.28 57.8598 262.4 56.8198C262.4 56.7998 262.4 56.7798 262.4 56.7598H264.06ZM262.38 54.5498C262.51 53.4498 261.73 52.4598 260.64 52.3198C260.54 52.3098 260.43 52.2998 260.32 52.3098C259.03 52.3098 258.25 53.0398 258.07 54.5498H262.38Z" fill="white"/>
    <path d="M266.49 51.1198H268.2V52.4498C268.66 51.5398 269.6 50.9798 270.62 50.9998C270.79 50.9898 270.95 50.9898 271.12 50.9998V52.7798C270.88 52.6998 270.63 52.6698 270.38 52.6698C269.23 52.6098 268.25 53.4998 268.19 54.6498C268.19 54.7698 268.19 54.8798 268.2 54.9998V59.6898H266.49V51.1198Z" fill="white"/>
    <path d="M272.15 57.4898C272.75 57.4598 273.26 57.9298 273.29 58.5298C273.29 58.5598 273.29 58.5998 273.29 58.6298C273.31 59.2398 272.84 59.7498 272.23 59.7698C272.2 59.7698 272.18 59.7698 272.15 59.7698C271.52 59.7698 271.01 59.2598 271.01 58.6298C271.01 57.9998 271.52 57.4898 272.15 57.4898Z" fill="white"/>
    <path d="M55.8101 1.08984H62.1201C62.9501 1.08984 63.6201 1.75984 63.6201 2.58984V8.89984H55.8101V1.08984Z" fill="white"/>
    <path d="M55.65 16.61V8.81H47.79V1H2.5C1.67 1 1 1.67 1 2.5V62C1 62.83 1.67 63.5 2.5 63.5H62C62.83 63.5 63.5 62.83 63.5 62V16.61H55.65Z" stroke="white" stroke-width="2" stroke-miterlimit="10"/>
    <path d="M53.8699 27.97V29.72H52.1199V41.97H53.8699V38.47H55.6199V27.97H53.8699Z" fill="#F2F2F2"/>
    <path d="M46.8699 26.22V29.72H48.6199V27.97H52.1199H53.8699V26.22H46.8699Z" fill="#F2F2F2"/>
    <path d="M52.1199 41.97H50.3699V43.72H52.1199V41.97Z" fill="#F2F2F2"/>
    <path d="M48.6199 43.72H46.8699V45.47H48.6199V43.72Z" fill="#F2F2F2"/>
    <path d="M34.6199 13.96V17.47H36.3699V13.96H34.6199Z" fill="#E0E0E0"/>
    <path d="M34.6099 17.47H32.8599V19.22H34.6099V17.47Z" fill="#E0E0E0"/>
    <path d="M34.6199 10.46H32.8599V13.96H34.6199V10.46Z" fill="#E0E0E0"/>
    <path d="M27.6099 17.47H29.3599V13.96H27.6099V17.47Z" fill="#E0E0E0"/>
    <path d="M27.6099 17.47H25.8599V19.22H27.6099V17.47Z" fill="#E0E0E0"/>
    <path d="M27.6099 10.46H25.8599V13.96H27.6099V10.46Z" fill="#E0E0E0"/>
    <path d="M20.6099 17.47H22.3599V13.96H20.6099V17.47Z" fill="#E0E0E0"/>
    <path d="M20.6099 17.47H18.8599V19.22H20.6099V17.47Z" fill="#E0E0E0"/>
    <path d="M20.6099 10.46H18.8599V13.96H20.6099V10.46Z" fill="#E0E0E0"/>
    <path d="M48.6199 27.97V29.72H46.8699V26.22V22.72H43.3699V26.22H45.1199V48.97H41.6199V50.72H39.8699V52.48H34.6199V54.23H17.1099V55.98H39.8699V54.23H43.3699V50.72H46.8699V47.22H48.6199V45.47H46.8699V43.72V31.47H50.3699V29.72H52.1199V27.97H48.6199Z" fill="#C7C7C7"/>
    <path d="M15.3599 20.97V22.72H20.6099V20.97H15.3599Z" fill="white"/>
    <path d="M15.3599 24.47V38.47H17.1099V36.72H18.8599V27.97H20.6099V24.47H15.3599Z" fill="white"/>
    <path d="M53.8699 38.47V41.97H55.6199V38.47H53.8699Z" fill="#E0E0E0"/>
    <path d="M53.8699 41.97H52.1199V43.72H53.8699V41.97Z" fill="#E0E0E0"/>
    <path d="M53.8699 27.97H52.1199V29.72H53.8699V27.97Z" fill="#E0E0E0"/>
    <path d="M48.6199 43.72V45.47H52.1199V43.72H50.3699H48.6199Z" fill="#E0E0E0"/>
    <path d="M43.3699 22.72H20.6099H15.3599H10.1099V24.47H15.3599H20.6099H39.8699V45.47H38.1199V47.22H36.3699V48.97H31.1099V50.72H27.6099V52.48H13.6099V54.23H17.1099H34.6199V52.48H39.8699V50.72H41.6199V48.97H45.1199V26.22H43.3699V22.72Z" fill="#E0E0E0"/>
    <path d="M20.6099 20.97V22.72H43.3699H46.8699V20.97H20.6099Z" fill="#F2F2F2"/>
    <path d="M20.6099 24.47V27.97H18.8599V36.72H17.1099V38.47H15.3599V24.47H10.1099V50.72H11.8599V52.48H13.6099H27.6099V50.72H31.1099V48.97H36.3699V47.22H38.1199V45.47H39.8699V24.47H20.6099Z" fill="#F2F2F2"/>
    <path d="M15.3599 22.72V20.97H10.1099V22.72H15.3599Z" fill="#F2F2F2"/>
    <path d="M93.5299 40.0498C93.3799 39.7998 93.2299 39.5298 93.0999 39.2598C92.9599 38.9998 92.8399 38.7298 92.7399 38.4498C90.7999 33.3498 88.8899 28.2998 86.9999 23.2898C85.1099 18.2798 83.1699 13.2298 81.1699 8.11983C81.1799 8.04983 81.1799 7.98983 81.1699 7.91983C81.1699 7.85983 81.1699 7.79983 81.1699 7.73983C81.1699 7.31983 81.4399 7.10983 81.9999 7.10983H89.2399C89.7699 7.11983 90.2199 7.48983 90.3499 7.99983L97.2399 28.4898L103.61 7.99983C103.77 7.45983 104.28 7.10983 104.84 7.13983H112.16C112.42 7.11983 112.67 7.18983 112.89 7.32983C113.03 7.45983 113.11 7.64983 113.1 7.83983C113.1 7.91983 113.1 8.00983 113.1 8.08983V8.14983L109.1 19.6298L112.1 28.4698L119.38 7.99983C119.54 7.45983 120.06 7.09983 120.62 7.13983H127.7C127.96 7.11983 128.22 7.17983 128.43 7.32983C128.58 7.45983 128.66 7.64983 128.65 7.83983C128.65 7.91983 128.65 8.00983 128.65 8.08983V8.14983C127.65 10.7898 126.58 13.4298 125.52 16.0498L122.31 23.9298C121.24 26.5498 120.17 29.1798 119.12 31.8098C118.07 34.4398 117 36.9998 116 39.6698C115.91 39.8798 115.77 40.0698 115.6 40.2198C115.39 40.4198 115.12 40.5298 114.83 40.5198H109.32C109.06 40.5398 108.79 40.4698 108.57 40.3298C108.39 40.2098 108.26 40.0298 108.2 39.8298L104.64 30.4698C104.13 31.8298 103.64 33.1698 103.13 34.4698C102.62 35.7698 102.13 37.1198 101.65 38.4698C101.57 38.6798 101.49 38.8998 101.39 39.1298C101.3 39.3598 101.18 39.5798 101.04 39.7798C100.92 39.9798 100.76 40.1498 100.58 40.2898C100.41 40.4298 100.2 40.4998 99.9799 40.4898H94.4699C94.0999 40.5498 93.7199 40.3798 93.5299 40.0498Z" fill="white"/>
    <path d="M127.86 26.2598C127.86 23.6198 128.54 21.0198 129.86 18.7298C130.5 17.6398 131.27 16.6298 132.16 15.7298C133.06 14.8398 134.06 14.0798 135.16 13.4498C137.45 12.1398 140.04 11.4498 142.68 11.4498C144.65 11.4398 146.6 11.8198 148.42 12.5898C150.17 13.3098 151.76 14.3698 153.1 15.7098C154.44 17.0498 155.51 18.6398 156.25 20.3898C157.54 23.4898 157.76 26.9398 156.88 30.1798C155.88 33.8998 153.45 37.0698 150.12 38.9998C147.86 40.3098 145.29 40.9998 142.68 40.9998C141.33 40.9998 139.98 40.8298 138.68 40.4798C137.44 40.1498 136.25 39.6598 135.14 39.0098C132.95 37.7398 131.13 35.9198 129.86 33.7298C129.22 32.6198 128.72 31.4298 128.38 30.1898C128.03 28.9098 127.86 27.5898 127.86 26.2598ZM136.07 26.2598C136.07 27.2098 136.22 28.1498 136.53 29.0398C136.82 29.8598 137.26 30.6198 137.84 31.2798C138.39 31.9098 139.08 32.4198 139.84 32.7698C140.69 33.1498 141.62 33.3398 142.55 33.3198C143.46 33.3298 144.36 33.1498 145.19 32.7698C145.96 32.4298 146.64 31.9198 147.19 31.2798C147.78 30.6198 148.22 29.8398 148.5 28.9998C149.09 27.1998 149.09 25.2698 148.5 23.4698C148.23 22.6298 147.8 21.8598 147.24 21.1798C146.7 20.5198 146.01 19.9898 145.24 19.6198C144.42 19.2198 143.51 19.0298 142.6 19.0398C141.66 19.0198 140.74 19.2198 139.89 19.6198C139.12 19.9898 138.44 20.5198 137.89 21.1798C137.32 21.8598 136.87 22.6298 136.58 23.4698C136.25 24.3598 136.08 25.3098 136.07 26.2598Z" fill="white"/>
    <path d="M161.88 13.6098C161.88 13.3598 161.94 13.1098 162.05 12.8798C162.15 12.6698 162.29 12.4798 162.47 12.3298C162.83 12.0898 163.25 11.9498 163.68 11.9498H167.08C167.31 11.9398 167.55 11.9898 167.75 12.1098C167.92 12.2098 168.06 12.3498 168.17 12.5098C168.29 12.6898 168.38 12.8698 168.46 13.0698C168.54 13.2898 168.64 13.4998 168.76 13.6998L168.95 14.1398C169.03 14.3798 169.13 14.6298 169.24 14.9098C169.35 15.1898 169.44 15.4498 169.54 15.6998C169.64 15.9498 169.7 16.0998 169.73 16.1798C170.18 15.6798 170.61 15.1798 171.03 14.6198C171.43 14.0798 171.87 13.5698 172.34 13.0998C172.8 12.6598 173.32 12.2898 173.89 11.9998C174.51 11.6898 175.2 11.5398 175.89 11.5498C176.62 11.5498 177.34 11.5998 178.06 11.7298C178.68 11.8398 179.29 12.0198 179.87 12.2598C180.46 12.4998 181.03 12.7998 181.57 13.1498C182.13 13.5098 182.74 13.9298 183.4 14.4098C184.4 14.9598 184.63 15.7898 183.99 16.8798L182 20.3198C181.76 20.7298 181.36 21.0298 180.9 21.1498C180.42 21.2498 179.91 21.1798 179.48 20.9498C178.9 20.3698 178.22 19.8898 177.48 19.5398C176.76 19.2298 175.98 19.0698 175.2 19.0798C174.68 19.0698 174.15 19.1498 173.66 19.3298C173.22 19.4898 172.81 19.7298 172.45 20.0298C172.08 20.3498 171.74 20.7198 171.45 21.1098C171.14 21.5298 170.82 21.9898 170.51 22.4998V38.7898C170.54 39.2598 170.39 39.7198 170.09 40.0798C169.71 40.4098 169.21 40.5698 168.71 40.5198H163.65C162.81 40.6498 162.02 40.0698 161.89 39.2298C161.87 39.0798 161.87 38.9298 161.89 38.7898V13.6098H161.88Z" fill="white"/>
    <path d="M187.78 4.47983C187.78 4.28983 187.86 4.09983 187.97 3.93983C188.11 3.76983 188.29 3.64983 188.5 3.58983C188.83 3.49983 189.16 3.45983 189.5 3.46983H194.88C195.12 3.45983 195.37 3.50983 195.59 3.60983C195.77 3.69983 195.92 3.81983 196.04 3.97983C196.15 4.11983 196.22 4.28983 196.26 4.46983C196.3 4.62983 196.32 4.78983 196.32 4.94983V21.5998L204.42 12.5998C204.76 12.1898 205.27 11.9498 205.81 11.9498H212.72C213.55 11.9498 213.96 12.2698 213.96 12.9498C213.96 13.0898 213.94 13.2198 213.88 13.3498C213.79 13.5098 213.68 13.6698 213.55 13.7998L204.31 23.5698L216 38.4798H215.95C216.13 38.6398 216.27 38.8498 216.37 39.0698C216.44 39.2398 216.48 39.4298 216.49 39.6198C216.53 39.8898 216.42 40.1598 216.21 40.3298C215.96 40.4798 215.66 40.5398 215.37 40.5198H207.76C207.49 40.5198 207.24 40.4098 207.04 40.2298C206.76 39.9698 206.51 39.6698 206.3 39.3498L198.94 28.9398L196.45 31.5198V38.7898C196.45 38.9498 196.43 39.1098 196.39 39.2598C196.35 39.4598 196.28 39.6598 196.17 39.8398C196.05 40.0298 195.89 40.1998 195.7 40.3198C195.47 40.4698 195.21 40.5398 194.94 40.5198H189.29C189.04 40.5198 188.8 40.4498 188.59 40.3098C188.41 40.1798 188.25 40.0198 188.13 39.8298C188.03 39.6698 187.95 39.4998 187.89 39.3198C187.85 39.2298 187.82 39.1398 187.81 39.0398L187.78 4.47983Z" fill="white"/>
    <path d="M274.15 36.9998C273.75 37.3998 273.3 37.8398 272.81 38.2998C272.31 38.7798 271.78 39.2198 271.21 39.6098C270.62 40.0098 269.99 40.3498 269.32 40.6098C268.62 40.8698 267.88 41.0098 267.13 40.9998C263.32 41.0398 259.67 39.4898 257.06 36.7198C255.81 35.3498 254.82 33.7598 254.16 32.0198C252.77 28.2698 252.77 24.1498 254.16 20.3998C254.82 18.6698 255.81 17.0798 257.06 15.7198C258.31 14.3798 259.82 13.3198 261.5 12.5998C263.28 11.8298 265.19 11.4398 267.13 11.4598C267.9 11.4598 268.66 11.5698 269.39 11.8198C270.05 12.0498 270.68 12.3598 271.26 12.7398C271.82 13.1098 272.33 13.5398 272.81 14.0098C273.29 14.4898 273.73 14.9498 274.15 15.3998V5.14983C274.14 4.70983 274.3 4.26983 274.59 3.93983C274.94 3.58983 275.42 3.39983 275.91 3.43983H281C281.21 3.43983 281.42 3.48983 281.62 3.56983C281.84 3.64983 282.04 3.76983 282.22 3.91983C282.4 4.06983 282.54 4.24983 282.65 4.45983C282.77 4.66983 282.83 4.90983 282.82 5.14983V38.7898C282.82 39.9498 282.22 40.5198 281 40.5198H276.59C276.35 40.5298 276.11 40.4998 275.89 40.4098C275.73 40.3398 275.58 40.2198 275.48 40.0798C275.35 39.9198 275.25 39.7398 275.17 39.5498C275.08 39.3298 274.97 39.0798 274.84 38.7898L274.15 36.9998ZM261.22 26.2598C261.22 27.2098 261.37 28.1498 261.68 29.0398C261.96 29.8698 262.41 30.6298 263 31.2798C263.58 31.9098 264.28 32.4198 265.06 32.7698C265.9 33.1498 266.81 33.3298 267.73 33.3198C268.66 33.3198 269.58 33.1498 270.44 32.8098C271.26 32.4798 272.02 31.9898 272.66 31.3798C273.29 30.7598 273.8 30.0298 274.17 29.2298C274.56 28.3898 274.78 27.4898 274.82 26.5698V26.2598C274.82 25.3198 274.64 24.3798 274.28 23.5098C273.93 22.6598 273.42 21.8798 272.78 21.2198C272.14 20.5598 271.37 20.0298 270.53 19.6598C269.65 19.2698 268.69 19.0698 267.73 19.0798C266.81 19.0698 265.89 19.2598 265.06 19.6598C264.27 20.0298 263.57 20.5598 263 21.2198C262.42 21.8898 261.98 22.6698 261.69 23.5098C261.38 24.3898 261.22 25.3198 261.22 26.2598Z" fill="white"/>
    <path d="M339.83 37.0998C338.53 38.3298 337.03 39.3098 335.38 39.9998C333.71 40.6798 331.93 41.0198 330.13 40.9998C326.17 41.0198 322.35 39.4998 319.49 36.7598C318.1 35.3998 316.98 33.7898 316.21 31.9998C315.4 30.1598 314.99 28.1798 315 26.1698C314.99 23.6098 315.63 21.0998 316.86 18.8598C317.45 17.7698 318.18 16.7598 319.02 15.8598C319.86 14.9598 320.81 14.1798 321.86 13.5398C324.06 12.1898 326.6 11.4798 329.18 11.4898C330.4 11.4898 331.62 11.6498 332.8 11.9798C333.95 12.2998 335.06 12.7698 336.09 13.3798C338.14 14.5798 339.85 16.2698 341.09 18.2998C341.71 19.2898 342.19 20.3698 342.52 21.4898C342.86 22.6298 343.03 23.7998 343.03 24.9898V26.8998C343.03 27.3198 342.92 27.7298 342.69 28.0798C342.43 28.4098 342.05 28.6298 341.64 28.6898C340.93 28.8198 340.21 28.8798 339.49 28.8598H323.29C323.4 29.7198 323.71 30.5498 324.2 31.2698C324.63 31.8798 325.17 32.3998 325.79 32.8098C326.38 33.1798 327.02 33.4598 327.7 33.6298C328.32 33.7898 328.97 33.8698 329.61 33.8798C330.17 33.8798 330.73 33.8198 331.28 33.7098C331.84 33.5998 332.39 33.4498 332.93 33.2598C333.43 33.0798 333.92 32.8598 334.39 32.6098C334.78 32.3998 335.14 32.1398 335.46 31.8298C335.65 31.6698 335.86 31.5198 336.08 31.3898C336.25 31.2898 336.44 31.2398 336.63 31.2398C336.85 31.2398 337.06 31.3198 337.23 31.4498C337.48 31.6198 337.71 31.8198 337.92 32.0298L340.3 34.7298C340.44 34.8798 340.55 35.0598 340.62 35.2598C340.66 35.4198 340.68 35.5798 340.68 35.7398C340.68 36.0198 340.6 36.2898 340.44 36.5198C340.27 36.7398 340.06 36.9398 339.83 37.0998ZM329 18.3598C328.42 18.3598 327.84 18.4798 327.3 18.7098C326.74 18.9398 326.23 19.2598 325.76 19.6398C325.28 20.0398 324.84 20.4798 324.46 20.9698C324.1 21.4398 323.79 21.9498 323.53 22.4798H335C334.71 21.9198 334.37 21.3698 334 20.8598C333.64 20.3698 333.22 19.9298 332.74 19.5498C332.25 19.1698 331.71 18.8798 331.12 18.6798C330.44 18.4598 329.72 18.3498 329 18.3598Z" fill="white"/>
    <path d="M382 7.48983C381.99 7.09983 382.16 6.72983 382.47 6.48983C382.87 6.19983 383.31 5.97983 383.78 5.81983L388.88 3.99983H389.28C389.72 3.93983 390.15 4.12983 390.4 4.48983C390.61 4.87983 390.7 5.31983 390.68 5.75983V12.8498H394.43C394.86 12.8298 395.28 12.9798 395.6 13.2698C395.92 13.6198 396.09 14.0898 396.05 14.5598V18.8998C396.09 19.3998 395.93 19.8998 395.6 20.2798C395.29 20.5798 394.86 20.7398 394.43 20.7198H390.68V38.8098C390.71 39.2898 390.53 39.7698 390.18 40.0998C389.79 40.4098 389.31 40.5698 388.81 40.5398H383.73C382.89 40.6598 382.12 40.0798 382 39.2398C381.98 39.0898 381.98 38.9398 382 38.7898V20.6998H380.36C379.2 20.6998 378.63 20.0898 378.63 18.8798V14.5398C378.52 13.7098 379.1 12.9398 379.93 12.8298C380.07 12.8098 380.22 12.8098 380.36 12.8298H382V7.48983Z" fill="white"/>
    <path d="M426.12 40.1398C425.94 40.2998 425.73 40.4098 425.5 40.4598C425.3 40.4998 425.09 40.5198 424.88 40.5298H421.48C421.24 40.5298 421 40.4798 420.78 40.3798C420.59 40.2798 420.43 40.1498 420.29 39.9898C420.15 39.8198 420.04 39.6298 419.95 39.4298C419.86 39.2198 419.79 38.9998 419.73 38.7798L419 35.8998C418.71 36.4498 418.38 36.9798 418 37.4798C417.54 38.1098 416.99 38.6698 416.37 39.1498C415.65 39.6998 414.86 40.1298 414.01 40.4498C413 40.8098 411.93 40.9898 410.86 40.9698C407.7 41.0198 404.69 39.6698 402.63 37.2798C401.63 36.0998 400.85 34.7398 400.35 33.2798C399.8 31.7198 399.53 30.0698 399.54 28.4098V13.6798C399.51 13.2198 399.64 12.7598 399.91 12.3898C400.22 12.0698 400.65 11.9098 401.09 11.9498H406.29C406.76 11.8998 407.23 12.0198 407.62 12.2798C407.91 12.6398 408.04 13.0998 407.98 13.5498V28.2098C407.98 28.8498 408.13 29.4798 408.42 30.0498C408.71 30.6298 409.1 31.1498 409.57 31.5798C410.05 32.0198 410.61 32.3798 411.21 32.6298C411.8 32.8798 412.42 33.0098 413.06 33.0098C413.64 32.9998 414.21 32.8698 414.74 32.6298C415.32 32.3798 415.86 32.0398 416.34 31.6298C416.82 31.1998 417.23 30.6898 417.54 30.1198C417.85 29.5598 418.01 28.9298 418.01 28.2898V13.6198C418.01 13.3598 418.06 13.0898 418.16 12.8498C418.24 12.6098 418.39 12.3998 418.6 12.2598C418.77 12.1498 418.95 12.0698 419.15 12.0198C419.34 11.9698 419.54 11.9498 419.74 11.9498H424.83C425.34 11.8998 425.84 12.0698 426.22 12.4198C426.52 12.7698 426.67 13.2198 426.65 13.6798V38.8598C426.65 39.1398 426.59 39.4098 426.46 39.6498C426.34 39.8798 426.16 40.0798 425.93 40.2098L426.12 40.1398Z" fill="white"/>
    <path d="M432.1 13.6098C432.1 13.3598 432.16 13.1098 432.27 12.8798C432.37 12.6698 432.51 12.4798 432.69 12.3298C433.05 12.1098 433.47 11.9898 433.9 11.9998H437.3C437.53 11.9898 437.77 12.0398 437.97 12.1598C438.14 12.2598 438.28 12.3998 438.39 12.5598C438.51 12.7398 438.6 12.9198 438.68 13.1198C438.77 13.3398 438.87 13.5498 438.99 13.7498C438.99 13.8098 439.08 13.9598 439.17 14.1898C439.26 14.4198 439.35 14.6798 439.46 14.9598C439.57 15.2398 439.66 15.4998 439.76 15.7498C439.86 15.9998 439.92 16.1498 439.95 16.2298C440.4 15.7298 440.83 15.2298 441.25 14.6698C441.65 14.1298 442.09 13.6198 442.56 13.1498C443.02 12.6898 443.54 12.2998 444.12 11.9998C444.74 11.6898 445.43 11.5398 446.12 11.5498C446.85 11.5498 447.57 11.5998 448.29 11.7298C448.91 11.8398 449.52 12.0198 450.1 12.2598C450.69 12.4998 451.26 12.7998 451.8 13.1498C452.36 13.5098 452.98 13.9298 453.64 14.4098C454.43 14.7298 454.82 15.6298 454.5 16.4298C454.43 16.5998 454.34 16.7498 454.22 16.8798L452.17 20.3698C451.93 20.7798 451.53 21.0798 451.07 21.1998C450.59 21.2998 450.09 21.2298 449.65 20.9998C449.07 20.4198 448.39 19.9398 447.65 19.5898C446.93 19.2698 446.15 19.1198 445.37 19.1298C444.85 19.1198 444.32 19.1998 443.83 19.3798C443.39 19.5398 442.99 19.7798 442.63 20.0798C442.26 20.3998 441.92 20.7598 441.63 21.1598C441.32 21.5798 441 22.0398 440.69 22.5498V38.7898C440.72 39.2598 440.57 39.7198 440.27 40.0798C439.89 40.4098 439.39 40.5698 438.89 40.5198H433.83C432.99 40.6498 432.2 40.0698 432.07 39.2298C432.05 39.0798 432.05 38.9298 432.07 38.7898L432.1 13.6098Z" fill="white"/>
    <path d="M479.76 37.0998C478.46 38.3298 476.95 39.3098 475.3 39.9998C473.64 40.6798 471.86 41.0198 470.06 40.9998C466.1 41.0198 462.28 39.4998 459.42 36.7598C458.02 35.3998 456.9 33.7898 456.13 31.9998C455.31 30.1498 454.9 28.1498 454.92 26.1298C454.92 23.5798 455.55 21.0598 456.77 18.8198C457.36 17.7298 458.09 16.7198 458.93 15.8198C461.56 13.0198 465.24 11.4298 469.09 11.4498C470.31 11.4498 471.53 11.6098 472.71 11.9398C475.02 12.5898 477.12 13.8098 478.83 15.4998C479.67 16.3398 480.39 17.2898 481 18.3098C481.61 19.3098 482.09 20.3798 482.43 21.4998C482.79 22.6298 482.98 23.8098 483 24.9998V26.9098C483 27.3298 482.88 27.7398 482.65 28.0898C482.4 28.4098 482.05 28.6198 481.65 28.6998C480.94 28.8298 480.23 28.8898 479.51 28.8698H463.2C463.31 29.7298 463.62 30.5598 464.11 31.2798C464.53 31.8898 465.07 32.4098 465.69 32.8198C466.28 33.1898 466.93 33.4698 467.61 33.6398C468.23 33.7998 468.88 33.8798 469.52 33.8898C470.08 33.8898 470.63 33.8298 471.18 33.7198C471.74 33.6098 472.3 33.4598 472.84 33.2698C473.34 33.0898 473.83 32.8698 474.3 32.6198C474.69 32.4098 475.05 32.1498 475.37 31.8398C475.56 31.6698 475.77 31.5298 475.99 31.3998C476.16 31.2998 476.35 31.2498 476.54 31.2498C476.75 31.2498 476.96 31.3298 477.13 31.4598C477.38 31.6298 477.61 31.8198 477.82 32.0398L480.21 34.7398C480.35 34.8898 480.45 35.0698 480.52 35.2698C480.57 35.4298 480.59 35.5898 480.59 35.7498C480.59 36.0298 480.51 36.3098 480.34 36.5298C480.18 36.7498 479.98 36.9398 479.76 37.0998ZM468.93 18.3598C468.35 18.3598 467.77 18.4798 467.23 18.7098C466.68 18.9498 466.16 19.2598 465.69 19.6398C465.21 20.0398 464.78 20.4998 464.4 20.9998C464.04 21.4698 463.73 21.9798 463.47 22.5098H475C474.71 21.9398 474.38 21.3998 474 20.8898C473.64 20.3998 473.21 19.9598 472.74 19.5798C472.25 19.1998 471.71 18.9098 471.12 18.7098C470.42 18.4698 469.67 18.3498 468.93 18.3598Z" fill="white"/>
    <path d="M239.57 35.0098H234.08V40.4998H239.57V35.0098Z" fill="white"/>
    <path d="M303.89 11.9498H298.4V17.4398H303.89V11.9498Z" fill="white"/>
    <path d="M347.91 11.9898H342.42V17.4798H347.91V11.9898Z" fill="white"/>
    <path d="M355.12 17.4198H347.75V38.7898C347.66 39.6598 348.28 40.4398 349.15 40.5298C349.29 40.5498 349.43 40.5398 349.57 40.5198H354.66C354.86 40.5198 355.06 40.4998 355.25 40.4598C355.45 40.3998 355.64 40.3198 355.81 40.2098C356.01 40.0598 356.16 39.8598 356.24 39.6198C356.34 39.3798 356.39 39.1198 356.39 38.8598V24.2298C356.43 23.5698 356.62 22.9298 356.94 22.3498C357.25 21.7898 357.66 21.2798 358.13 20.8498C358.59 20.4298 359.12 20.0998 359.69 19.8498C360.21 19.6198 360.77 19.4998 361.34 19.4898C361.98 19.4898 362.61 19.6198 363.2 19.8698C363.8 20.1098 364.35 20.4498 364.83 20.8698C365.36 21.3598 365.78 21.9498 366.08 22.6098C366.31 23.1198 366.43 23.6798 366.43 24.2398V38.9298C366.37 39.3798 366.5 39.8398 366.79 40.1998C367.18 40.4598 367.65 40.5698 368.11 40.5198H373.31C373.75 40.5598 374.19 40.3998 374.49 40.0798C374.76 39.7098 374.89 39.2498 374.86 38.7898V24.0498C374.87 22.3998 374.6 20.7498 374.05 19.1898C373.55 17.7298 372.77 16.3698 371.77 15.1898C370.78 14.0498 369.57 13.1298 368.2 12.4998C366.74 11.8198 365.16 11.4798 363.55 11.4998C362.47 11.4798 361.4 11.6598 360.39 12.0298C359.54 12.3398 358.75 12.7798 358.03 13.3298C357.41 13.8098 356.86 14.3698 356.4 14.9998C356.05 15.4698 355.74 15.9698 355.47 16.4898C355.44 16.5498 355.41 16.6098 355.39 16.6798L355.12 17.4198Z" fill="white"/>
    <path d="M303.84 17.3998L300.39 28.3998C300.29 28.1298 300.13 27.6798 299.91 27.0398C299.69 26.3998 299.44 25.6498 299.17 24.7898C298.9 23.9298 298.59 22.9798 298.26 21.9598C297.93 20.9398 297.59 19.8898 297.26 18.8498C296.93 17.8098 296.6 16.7898 296.26 15.7998C295.92 14.8098 295.67 13.9198 295.41 13.1198C295.31 12.7598 295.09 12.4398 294.79 12.2198C294.5 12.0098 294.15 11.8998 293.79 11.9098H288C287.3 11.9098 286.85 12.1298 286.66 12.5598C286.48 13.0898 286.54 13.6598 286.83 14.1398L297.2 39.5198C297.31 39.7998 297.5 40.0498 297.75 40.2298C298.15 40.4298 298.59 40.5198 299.03 40.4798H301.7C302.06 40.4998 302.41 40.3998 302.7 40.1998C302.93 40.0098 303.13 39.7798 303.28 39.5198L312.52 17.3598L303.84 17.3998Z" fill="white"/>
    <path d="M250.46 39.5098L238.65 9.04983L238.09 7.75983C237.97 7.60983 237.83 7.46983 237.68 7.34983C237.5 7.19983 237.27 7.10983 237.03 7.10983H231.27C231.14 7.10983 231.01 7.13983 230.89 7.18983C230.75 7.23983 230.62 7.30983 230.5 7.39983C230.39 7.47983 230.28 7.58983 230.2 7.69983C230.13 7.77983 230.08 7.87983 230.05 7.98983L217.84 39.6198C217.72 39.9198 217.75 40.1498 217.94 40.2998C218.14 40.4498 218.39 40.5298 218.65 40.5198H225.28C225.81 40.5498 226.29 40.2098 226.43 39.6898L227.3 37.4098C227.59 36.6498 227.88 35.8898 228.16 35.1198H234.16V27.8998H230.69C230.98 27.1398 231.27 26.3098 231.56 25.4398C231.85 24.5698 232.14 23.6698 232.43 22.7698C232.72 21.8698 233 20.9798 233.29 20.0898C233.58 19.1998 233.87 18.3798 234.16 17.6198L241.85 39.6898C241.93 39.9398 242.08 40.1698 242.29 40.3298C242.53 40.4698 242.81 40.5398 243.09 40.5198H249.55C249.86 40.5598 250.17 40.4498 250.4 40.2398C250.57 40.0298 250.59 39.7398 250.46 39.5098Z" fill="white"/>
    </g>
<defs>
</defs>
</svg>
