<svg version="1.1" id="prefix__Capa_1" xmlns="http://www.w3.org/2000/svg" x="0" y="0" viewBox="0 0 512 512" xml:space="preserve"><style>.prefix__st0{fill:#fff}</style><path class="prefix__st0" d="M310 190c-5.5 0-10 4.5-10 10s4.5 10 10 10 10-4.5 10-10-4.5-10-10-10z"/><path class="prefix__st0" d="M500.3 443.7L366.8 310.2C388.5 277.5 400 239.6 400 200 400 89.7 310.3 0 200 0S0 89.7 0 200s89.7 200 200 200c39.6 0 77.5-11.5 110.2-33.2l36.9 36.9 96.6 96.6c7.6 7.6 17.6 11.7 28.3 11.7s20.7-4.2 28.3-11.7c7.6-7.6 11.7-17.6 11.7-28.3s-4.2-20.7-11.7-28.3zm-194.8-98C274.7 368.1 238.2 380 200 380c-99.3 0-180-80.7-180-180S100.7 20 200 20s180 80.7 180 180c0 38.2-11.9 74.7-34.3 105.5-11.2 15.5-24.7 29-40.2 40.2zm21 9.1c10.4-8.5 19.8-17.9 28.3-28.3l28.4 28.4c-8.6 10.2-18.1 19.6-28.3 28.3l-28.4-28.4zm159.6 131.3c-3.8 3.8-8.8 5.9-14.1 5.9s-10.4-2.1-14.1-5.9l-88.8-88.8c10.1-8.7 19.6-18.1 28.3-28.3l88.8 88.8c3.8 3.8 5.9 8.8 5.9 14.1s-2.2 10.5-6 14.2z"/><path class="prefix__st0" d="M200 40c-88.2 0-160 71.8-160 160s71.8 160 160 160 160-71.8 160-160S288.2 40 200 40zm0 300c-77.2 0-140-62.8-140-140S122.8 60 200 60s140 62.8 140 140-62.8 140-140 140z"/><path class="prefix__st0" d="M312.1 157.1c-8.6-22.4-23.6-41.6-43.4-55.4C248.5 87.5 224.7 80 200 80c-5.5 0-10 4.5-10 10s4.5 10 10 10c41.1 0 78.6 25.8 93.4 64.2 1.5 4 5.3 6.4 9.3 6.4 1.2 0 2.4-.2 3.6-.7 5.2-1.9 7.7-7.7 5.8-12.8z"/></svg>