<svg id="Capa_1" data-name="Capa 1" xmlns="http://www.w3.org/2000/svg" viewBox="0 0 469.33 426.67"><defs><style>.cls-1{fill:#fff;}</style></defs><path class="cls-1" d="M426.67,21.33h-384A42.66,42.66,0,0,0,0,64V320a42.66,42.66,0,0,0,42.67,42.67H192v42.66H149.33V448H320V405.33H277.33V362.67H426.67A42.66,42.66,0,0,0,469.33,320V64A42.66,42.66,0,0,0,426.67,21.33Zm0,298.67h-384V64h384Z" transform="translate(0 -21.33)"/><path class="cls-1" d="M267.2,127.15V86.26a8.14,8.14,0,0,1,14.18-5.44l73.2,81.34a8.12,8.12,0,0,1,.25,10.57l-73.2,89.47a8.14,8.14,0,0,1-14.43-5.13V216.54c-64.25,2.09-104.35,29.55-122.42,83.77a8.13,8.13,0,0,1-15.84-2.58C128.94,202,186.59,131.59,267.2,127.15Zm8.14,73a8.13,8.13,0,0,1,8.13,8.14v26l54.36-66.44-54.36-60.39v27.6a8.13,8.13,0,0,1-8.13,8.14c-63.93,0-111.77,44.24-125.87,111.73C175.65,218.53,217.8,200.13,275.34,200.13Z" transform="translate(0 -21.33)"/></svg>