<?xml version="1.0" encoding="utf-8"?>
<!-- Generator: Adobe Illustrator 28.0.0, SVG Export Plug-In . SVG Version: 6.00 Build 0)  -->
<svg version="1.1" id="Icon" xmlns="http://www.w3.org/2000/svg" xmlns:xlink="http://www.w3.org/1999/xlink" x="0px" y="0px"
	 viewBox="0 0 24 24" style="enable-background:new 0 0 24 24;" xml:space="preserve">
<style type="text/css">
	.st0{fill:#FFFFFF;}
</style>
<path class="st0" d="M14.9,9.7c-0.1,0-0.1-0.1-0.1-0.2V7.8c0-0.1,0.1-0.2,0.1-0.2c1.3-0.4,2.1-1.7,1.9-3.1c-0.2-1.3-1.4-2.3-2.8-2.3
	h-3.8c-1.4,0-2.6,1-2.8,2.3C7.1,5.9,7.8,7.2,9.1,7.6c0.1,0,0.1,0.1,0.1,0.2v1.6c0,0.1-0.1,0.2-0.1,0.2c-1.8,0.8-2.9,2.5-2.9,4.4
	C6.3,15,7,15.8,8,15.8h3.3V21c0,0.4,0.3,0.8,0.8,0.8s0.8-0.3,0.8-0.8v-5.2h2.6c2.2,0,2.4-1.3,2.4-1.7C17.8,12.2,16.7,10.4,14.9,9.7z
	 M15.4,14.2H8c-0.1,0-0.2-0.1-0.2-0.2c0-1.3,0.7-2.5,2-3c0.6-0.3,1-0.9,1-1.6V7.8c0-0.8-0.5-1.4-1.1-1.7C9.1,6,8.7,5.5,8.8,4.8
	c0.1-0.6,0.7-1,1.3-1h3.8c0.7,0,1.2,0.4,1.3,1c0.1,0.7-0.3,1.2-0.8,1.4c-0.7,0.2-1.1,0.9-1.1,1.7v1.6c0,0.7,0.4,1.3,1,1.6
	c1.2,0.5,2,1.7,2,3C16.2,14.1,16.1,14.2,15.4,14.2L15.4,14.2z"/>
</svg>
