<?xml version="1.0" encoding="utf-8"?>
<!-- Generator: Adobe Illustrator 27.4.1, SVG Export Plug-In . SVG Version: 6.00 Build 0)  -->
<svg version="1.1" id="Capa_1" xmlns="http://www.w3.org/2000/svg" xmlns:xlink="http://www.w3.org/1999/xlink" x="0px" y="0px"
	 viewBox="0 0 512 512" style="enable-background:new 0 0 512 512;" xml:space="preserve">
<style type="text/css">
	.st0{fill:#FFFFFF;}
</style>
<g>
	<g>
		<path class="st0" d="M256,0C114.8,0,0,114.8,0,256s114.8,256,256,256s256-114.9,256-256S397.2,0,256,0z M256,472.3
			c-119.3,0-216.3-97-216.3-216.3S136.7,39.7,256,39.7s216.3,97,216.3,216.3S375.3,472.3,256,472.3z"/>
	</g>
</g>
<g>
	<g>
		<path class="st0" d="M355.1,234.4h-79.3v-79.3c0-10.9-8.9-19.8-19.8-19.8s-19.8,8.9-19.8,19.8v79.3h-79.3
			c-11,0-19.8,8.9-19.8,19.8s8.9,19.8,19.8,19.8h79.3v79.3c0,10.9,8.9,19.8,19.8,19.8c11,0,19.8-8.9,19.8-19.8V274h79.3
			c11,0,19.8-8.9,19.8-19.8S366.1,234.4,355.1,234.4z"/>
	</g>
</g>
</svg>
