<?xml version="1.0" encoding="UTF-8"?>
<svg id="Layer_1" data-name="Layer 1" xmlns="http://www.w3.org/2000/svg" version="1.1" viewBox="0 0 512 512">
  <defs>
    <style>
      .cls-1 {
        fill: #000;
        stroke-width: 0px;
      }

      .cls-2 {
        fill: #fff;
        stroke: #fff;
        stroke-miterlimit: 10;
      }
    </style>
  </defs>
  <g id="Layer_2" data-name="Layer 2">
    <g id="Layer_1-2" data-name="Layer 1-2">
      <g id="_101" data-name=" 101">
        <rect class="cls-2" y="120.6" width="512" height="270.7" rx="57.8" ry="57.8"/>
        <g>
          <path class="cls-1" d="M44.8,260h10.9c3.8-.4,7.5,2.6,7.7,6.5v.8c.6,7.1,2,14.9,11.5,14.9s10.1-4.2,10.1-9.9c0-11.9-12.7-18.1-24-26.4-13.9-10.3-22.2-21.2-22.2-35.3s12.7-30.4,35.5-30.4,34.5,16.9,34.5,29.2-1.4,7.7-6.5,7.7h-10.3c-4.2,0-8.1-2.4-8.3-6.2-.2-6-2.4-11.1-9.1-11.1s-8.9,3.4-8.9,8.3c0,10.5,14.9,17.5,28.6,29,9.7,8.3,16.7,16.9,16.7,32.3s-13.9,32.7-36.3,32.7-37.3-21.2-37.3-33.5,1.8-8.5,7.3-8.5h0Z"/>
          <path class="cls-1" d="M175.8,300.9c-7.7.2-14.9-2.4-20.6-7.5v30.8c.2,3.8-2.8,7.3-6.7,7.5h-12.7c-3.8.2-7.3-2.6-7.5-6.7v-103.4c-.2-3.8,2.8-7.3,6.7-7.5h12.1c3.8-.2,7.3,2.8,7.5,6.7v.2c4-4.8,11.9-8.1,21.4-8.1,17.5,0,32,14.5,32,43.9-.4,29.6-14.5,43.9-32.3,43.9h0ZM166.7,232.4c-9.9,0-12.7,12.3-12.7,24.6s3.4,24.6,12.7,24.6,13.7-9.7,13.7-24.6-2-24.4-13.7-24.6h0Z"/>
          <path class="cls-1" d="M246.3,237.5c-.4,1.4-1.4,3.2-6.5,3.2h-8.9c-5.6,0-7.9-1.6-7.9-6.2,0-7.3,8.7-22.2,35.1-22.2s36.5,16.1,36.5,39.9v40.3c.2,3.8-2.8,7.3-6.7,7.5h-12.7c-4.4,0-6.7-2.8-6.7-7.5v-1.4c-5.2,6.7-13.3,10.5-21.8,10.1-16.3,0-27.4-11.9-27.4-27s15.7-27.8,34.7-27.8,9.5.6,14.1,2v-4c0-7.5-4-12.1-11.1-12.1-5.4-.2-9.5,1.4-10.9,5.2h0ZM254.8,281.4c7.9,0,13.5-8.5,13.7-14.7-1-.8-4.4-2.6-11.9-2.6s-12.1,2-12.1,8.9,4.6,8.5,10.3,8.5h0Z"/>
          <path class="cls-1" d="M377.9,269.7c5.2,0,6.9,1.4,6.9,7.9,0,11.5-10.1,24.6-34.3,24.6s-40.1-15.5-40.1-44.9,12.9-44.9,40.1-44.9,33.9,15.9,33.9,25-2.6,6-6.2,6h-10.7c-2.8.2-5.4-1.6-6.2-4.4-1.4-4.6-5.6-6.9-10.7-6.9-10.9,0-13.1,10.7-13.1,26s2.6,24.6,13.3,24.6,10.3-4,11.1-7.9c.2-2.8,2.6-5,5.4-4.8l10.7-.2Z"/>
          <path class="cls-1" d="M467.4,269.7c4.2,0,5.6,2,5.6,5.4,0,11.7-7.9,27-34.9,27s-40.1-17.7-40.1-46.2,15.3-43.7,40.1-43.7,36.3,15.3,36.3,34.7-3.6,14.1-14.3,14.1h-35.3c0,16.5,3.2,21.6,13.7,21.6s10.3-1.6,12.1-7.7c1-3.8,3-5,7.9-5l8.9-.2ZM425.1,243.5h26c0-5.2-2.6-12.3-12.7-12.3s-13.1,6.7-13.3,12.3Z"/>
        </g>
      </g>
    </g>
  </g>
</svg>