<?xml version="1.0" encoding="utf-8"?>
<!-- Generator: Adobe Illustrator 28.1.0, SVG Export Plug-In . SVG Version: 6.00 Build 0)  -->
<svg version="1.1" id="Layer_1" xmlns="http://www.w3.org/2000/svg" xmlns:xlink="http://www.w3.org/1999/xlink" x="0px" y="0px"
	 viewBox="0 0 512 512" style="enable-background:new 0 0 512 512;" xml:space="preserve">
<style type="text/css">
	.st0{fill:#FFFFFF;}
</style>
<path class="st0" d="M206.7,223.9c0,8.3-6.7,15-15,15c-8.3,0-15-6.7-15-15s6.7-15,15-15C200,208.9,206.7,215.6,206.7,223.9z"/>
<path class="st0" d="M424.7,112.5h-41.2V87.3c0-48.2-39-87.3-87.3-87.3H87.3C39.1,0,0,39,0,87.3v281.2C0,381,14.7,388.2,24.6,380
	l92.2-76.9h11.7v41.2c0,48.2,39,87.3,87.3,87.3h179.3l92.2,76.9c2.8,2.3,6.2,3.5,9.6,3.5c8.2,0,15-6.7,15-15V199.8
	C512,151.6,473,112.5,424.7,112.5z M111.4,273.1c-3.5,0-6.9,1.2-9.6,3.5L30,336.4V87.3C30,55.7,55.6,30,87.3,30h208.9
	c31.6,0,57.3,25.6,57.3,57.3v128.5c0,31.6-25.7,57.3-57.3,57.3H111.4z M482,465l-71.8-59.8c-2.7-2.2-6.1-3.5-9.6-3.5H215.8
	c-15.3,0-29.7-6-40.5-16.8c-10.8-10.8-16.8-25.2-16.8-40.5v-41.2h137.6c18.8,0,36.2-6,50.4-16.1h70.1c8.3,0,15-6.7,15-15
	c0-8.3-6.7-15-15-15h-43.6c5.6-10.4,9.1-22,10.1-34.3h33.5c8.3,0,15-6.7,15-15s-6.7-15-15-15h-33.2v-50.3h41.2
	c15.3,0,29.7,6,40.5,16.8c10.8,10.8,16.8,25.2,16.8,40.5V465z"/>
<path class="st0" d="M166.6,119.4c0-6.7,2.6-13,7.4-17.8c4.8-4.8,11.1-7.4,17.8-7.4c13.9,0,25.2,11.3,25.2,25.2
	c0,13.9-11.3,25.2-25.2,25.2c-8.3,0-15,6.7-15,15v16.1c0,8.3,6.7,15,15,15c8.3,0,15-6.7,15-15v-3.1c23.2-6.6,40.2-27.9,40.2-53.1
	c0-30.4-24.7-55.2-55.2-55.2c-14.7,0-28.6,5.7-39,16.2c-10.4,10.4-16.2,24.3-16.2,39v0c0,8.3,6.7,15,15,15S166.6,127.7,166.6,119.4z
	"/>
<path class="st0" d="M416.7,321.3H223.9c-8.3,0-15,6.7-15,15c0,8.3,6.7,15,15,15h192.8c8.3,0,15-6.7,15-15
	C431.7,328.1,424.9,321.3,416.7,321.3z"/>
</svg>
