<?xml version="1.0" encoding="UTF-8"?>
<svg id="Bold" xmlns="http://www.w3.org/2000/svg" viewBox="0 0 512.03 512">
  <defs>
    <style>
      .cls-1 {
        fill: #fff;
      }
    </style>
  </defs>
  <path class="cls-1" d="m256,0C114.77,0,0,114.77,0,256s114.77,256,256,256c16,0,31.57-1.49,46.93-4.27l-17.49-52.48c-2.56,2.56-5.33,4.69-8.11,6.61v-31.15l-39.68-118.83c-2.13-6.19-2.99-12.59-2.99-18.77v43.31c-20.27.85-40.11,2.56-58.88,5.76-3.84-20.05-6.4-41.81-7.47-65.28h66.35v16.21c0-15.15,5.97-29.87,17.28-41.17,10.88-11.09,25.6-17.28,41.39-17.28,6.4,0,12.59,1.07,18.77,2.99l117.55,39.25h38.61c-.43,4.27-.85,8.32-1.71,12.37l41.17,13.65c2.77-15.36,4.27-30.93,4.27-46.93C512,114.77,397.23,0,256,0Zm-21.33,379.09v82.77c-18.35-12.37-35.84-39.68-48.21-78.29,15.57-2.35,31.57-3.84,48.21-4.48h0ZM76.8,140.59c17.07,8.11,36.27,14.93,57.17,20.48-4.48,22.83-7.25,47.36-8.32,73.17H43.73c3.41-34.13,15.36-65.92,33.07-93.65h0Zm-33.07,136.32h81.92c1.07,26.24,3.84,50.99,8.32,74.03-20.91,5.55-40.11,12.37-57.17,20.48-17.92-27.73-29.65-59.95-33.07-94.51h0Zm125.65,173.87c-24.53-10.88-46.51-26.24-65.07-45.01,12.16-5.33,25.6-9.81,39.89-13.44,6.83,21.97,15.36,41.81,25.17,58.45h0Zm-25.17-331.09c-14.29-3.63-27.73-8.11-39.89-13.44,18.56-18.77,40.53-34.13,65.07-45.01-9.81,16.64-18.35,36.48-25.17,58.45Zm90.45,114.56h-66.35c1.07-23.04,3.63-44.59,7.47-64.43,18.77,3.2,38.61,4.91,58.88,5.76v58.67Zm0-101.33c-16.64-.64-32.64-2.13-48.21-4.48,12.37-38.61,29.87-65.92,48.21-78.29v82.77Zm42.67-82.77c18.35,12.37,35.84,39.68,48.21,78.29-15.57,2.35-31.57,3.84-48.21,4.48V50.13Zm0,184.11v-58.67c20.27-.85,40.11-2.56,58.88-5.76,3.84,19.84,6.4,41.39,7.47,64.43h-66.35Zm65.28-173.01c24.53,10.88,46.51,26.24,65.07,45.01-12.16,5.33-25.6,9.81-39.89,13.44-6.83-21.97-15.36-41.81-25.17-58.45h0Zm43.73,173.01c-1.07-25.81-3.84-50.35-8.32-73.17,20.91-5.55,40.11-12.37,57.17-20.48,17.71,27.73,29.65,59.52,33.07,93.65h-81.92Z"/>
  <path class="cls-1" d="m360.9,512h-.36c-6.74-.15-12.67-4.52-14.81-10.94l-67.56-202.67c-1.92-5.76-.43-12.1,3.86-16.38,4.29-4.31,10.62-5.8,16.38-3.86l202.67,67.56c6.4,2.13,10.77,8.06,10.94,14.81.15,6.74-3.95,12.89-10.26,15.3l-90.94,34.99-34.99,90.94c-2.39,6.21-8.34,10.26-14.93,10.26h0Z"/>
</svg>