<svg id="Capa_1" enable-background="new 0 0 512 512" height="512" viewBox="0 0 512 512" width="512" xmlns="http://www.w3.org/2000/svg"><g><path d="m407.273 512h-302.546c-19.316 0-34.909-15.593-34.909-34.909v-442.182c0-19.316 15.593-34.909 34.909-34.909h209.455l128 128v349.091c0 19.316-15.593 34.909-34.909 34.909z" fill="#ffba00"/><path d="m314.182 0 128 128h-128z" fill="#ff9500"/><g fill="#fff"><path d="m296.727 343.273h-81.455v29.091h81.455z"/><path d="m256 174.545c-41.775 0-75.636 33.862-75.636 75.636 0 26.996 14.08 50.618 35.375 64h80.291c21.236-13.382 35.375-37.004 35.375-64 0-41.775-33.862-75.636-75.636-75.636z"/></g></g></svg>