<svg id="Capa_1" enable-background="new 0 0 511.999 511.999" height="512" viewBox="0 0 511.999 511.999" width="512" xmlns="http://www.w3.org/2000/svg"><g><path id="Path_21_" d="m38.563 418.862 22.51 39.042c4.677 8.219 11.41 14.682 19.319 19.388l80.744-57.248.147-82.19-80.577-36.303-80.706 36.014c-.016 9.09 2.313 18.185 6.991 26.404z" fill="#06d"/><path id="Path_20_" d="m256.293 173.808 4.212-107.064-84.604-32.663c-7.926 4.678-14.682 11.117-19.389 19.319l-149.427 257.786c-4.706 8.203-7.069 17.289-7.085 26.379l161.283.288z" fill="#00ad3c"/><path id="Path_19_" d="m256.293 173.808 77.503-41.694 3.387-97.745c-7.909-4.706-16.996-7.068-26.379-7.085l-108.499-.194c-9.384-.017-18.479 2.606-26.405 6.991z" fill="#00831e"/><path id="Path_18_" d="m350.716 338.192-189.434-.338-80.89 139.438c7.909 4.706 16.996 7.068 26.379 7.085l297.933.532c9.384.017 18.479-2.606 26.405-6.991l.314-93.66z" fill="#0084ff"/><path id="Path_17_" d="m431.109 477.919c7.926-4.678 14.682-11.117 19.388-19.319l9.413-16.111 45.005-77.629c4.706-8.202 7.069-17.288 7.085-26.379l-93.221-49.051-67.768 48.764z" fill="#ff4131"/><path id="Path_16_" d="m430.756 182.917-74.253-129.16c-4.677-8.22-11.41-14.683-19.32-19.389l-80.891 139.439 94.423 164.385 160.99.288c.016-9.09-2.314-18.185-6.991-26.405z" fill="#ffba00"/></g></svg>