<svg id="Capa_1" enable-background="new 0 0 512 512" height="512" viewBox="0 0 512 512" width="512" xmlns="http://www.w3.org/2000/svg"><g><g id="Slides_6_"><g><g><g><g><g><path d="m451 135-105-30-30-105h-210c-24.853 0-45 20.147-45 45v422c0 24.853 20.147 45 45 45h300c24.853 0 45-20.147 45-45z" fill="#fabe2c"/></g></g></g></g></g></g><g id="Slides_3_"><g><g><path d="m316 0h-60v512h150c24.853 0 45-20.147 45-45v-332l-105-30z" fill="#ff9f00"/></g></g></g><path d="m451 135h-105c-16.5 0-30-13.5-30-30v-105c3.9 0 7.8 1.5 10.499 4.501l120 120c3.001 2.699 4.501 6.599 4.501 10.499z" fill="#fdd929"/><g><path d="m346 406h-180c-8.291 0-15-6.709-15-15v-150c0-8.291 6.709-15 15-15h180c8.291 0 15 6.709 15 15v150c0 8.291-6.709 15-15 15zm-165-45h150v-90h-150z" fill="#fff5f5"/></g><g><path d="m346 226h-90v45h75v90h-75v45h90c8.291 0 15-6.709 15-15v-150c0-8.291-6.709-15-15-15z" fill="#e3e7ea"/></g></g></svg>