<svg width="481" height="480" viewBox="0 0 481 480" fill="none" xmlns="http://www.w3.org/2000/svg">
<path d="M128.985 167.13V199.958C107.693 199.963 88.6153 209.286 75.4378 224.006H262.578C249.398 209.288 230.325 199.958 209.031 199.958H209.001V167.099C217.107 158.804 222.631 148.008 224.673 136.005C238.127 136.005 249.001 125.132 249.001 111.974C249.001 104.956 245.854 98.671 240.97 94.2707V64.0206C240.97 28.7029 212.334 0.00488281 177.016 0.00488281H161.017C125.699 0.00488281 97.0007 28.7029 97.0007 64.0206V94.2864C92.1466 98.686 89.032 104.969 89.032 111.974C89.032 125.132 99.8432 136.005 113.313 136.005C115.366 148.022 120.875 158.831 128.985 167.13ZM192.641 82.8491L209.031 99.3337V127.975C209.031 150.273 191.298 168.02 169 168.02C146.702 168.02 129.016 150.273 129.016 127.975V104.006H136.984C166.302 104.006 187.094 87.0855 192.641 82.8491ZM193.031 178.521V199.959C193.031 199.959 193.015 215.958 169 215.958C144.984 215.958 145.015 199.959 145.015 199.959V178.537C152.295 182.012 160.409 184.022 169 184.022C177.606 184.022 185.735 182.007 193.031 178.521ZM48.9841 240.006C35.8265 240.006 24.9998 250.816 24.9998 263.974V399.974H313.015V263.974C313.015 250.816 302.142 240.006 288.984 240.006H48.9841ZM360.859 287.896C356.465 287.987 352.964 291.596 353.015 295.99V327.99C352.773 338.896 369.258 338.896 369.015 327.99V295.99C369.076 291.474 365.375 287.808 360.859 287.896ZM392.875 287.896C388.475 287.987 384.963 291.59 385.015 295.99V327.99C385.015 338.667 401.031 338.667 401.031 327.99V295.99C401.092 291.474 397.391 287.808 392.875 287.896ZM168.984 304.022C182.144 304.022 193.015 314.892 193.015 328.052C193.015 341.212 182.144 352.037 168.984 352.037C155.824 352.037 145 341.212 145 328.052C145 314.892 155.824 304.022 168.984 304.022ZM337 351.974C332.582 351.99 329.014 355.587 329.031 360.005V408.02C329.031 417.042 332.161 425.289 337.234 431.989H416.812C420.351 427.316 422.992 421.932 424.203 415.989H433.031C446.189 415.989 457 405.163 457 392.005V376.005C457.016 371.587 453.449 367.992 449.031 367.975H425V360.005C425.016 355.587 421.449 351.992 417.031 351.974H337ZM425 383.974H441V392.005C441 396.576 437.602 399.974 433.031 399.974H425V383.974ZM24.9998 415.989C24.9998 421.833 26.6961 427.26 29.4687 431.989H308.547C311.317 427.26 313.016 421.833 313.016 415.989H24.9998ZM9.00003 447.99C4.58191 447.974 0.986221 451.541 0.968681 455.958V471.974C0.952683 476.417 4.55742 480.022 9.00003 480.005H473C477.418 479.989 480.985 476.392 480.969 471.974V455.958C480.951 451.565 477.394 448.007 473 447.99H9.00003Z" fill="white"/>
</svg>
