<svg id="Capa_1" enable-background="new 0 0 512 512" height="512" viewBox="0 0 512 512" width="512" xmlns="http://www.w3.org/2000/svg"><g><g id="Sheet_2_"><g><g><g><g><g><path d="m451 135-105-30-30-105h-225c-16.569 0-30 13.431-30 30v452c0 16.569 13.431 30 30 30h330c16.569 0 30-13.431 30-30z" fill="#59c36a"/></g></g></g></g><g id="Sheet_3_"><g><g><path d="m451 135v347c0 16.569-13.431 30-30 30h-162.599v-512h57.599l30 105z" fill="#00a66c"/></g></g></g></g></g><path d="m346 211h-180c-8.291 0-15 6.709-15 15v180c0 8.291 6.709 15 15 15h180c8.291 0 15-6.709 15-15v-180c0-8.291-6.709-15-15-15zm-165 90h60v30h-60zm90 0h60v30h-60zm60-30h-60v-30h60zm-90-30v30h-60v-30zm-60 120h60v30h-60zm90 30v-30h60v30z" fill="#fff5f5"/><path d="m346 211h-87.568v210h87.568c8.291 0 15-6.709 15-15v-180c0-8.291-6.709-15-15-15zm-15 180h-60v-30h60zm0-60h-60v-30h60zm0-60h-60v-30h60z" fill="#e3e7ea"/><path d="m451 135h-105c-16.5 0-30-13.5-30-30v-105c3.9 0 7.8 1.5 10.499 4.501l120 120c3.001 2.699 4.501 6.599 4.501 10.499z" fill="#a0deb0"/></g></svg>