<?xml version="1.0" encoding="UTF-8"?>
<svg id="a" xmlns="http://www.w3.org/2000/svg" viewBox="0 0 170.51 170.51">
  <defs>
    <style>
      .cls-1 {
        fill: #fff;
      }

      .cls-2 {
        fill: #ec2688;
        fill-rule: evenodd;
      }
    </style>
  </defs>
  <path class="cls-2" d="m37.89,0h94.73c20.92,0,37.89,16.97,37.89,37.89v94.73c0,20.92-16.96,37.89-37.89,37.89H37.89c-20.92,0-37.89-16.97-37.89-37.89V37.89C0,16.97,16.97,0,37.89,0"/>
  <path class="cls-1" d="m154.2,82.85l-18.25-44.15c-.44-1.07-1.47-1.76-2.63-1.76-.39,0-.75.08-1.1.22-1.3.55-1.99,1.95-1.68,3.28-.37,2.25-1.97,10.96-5.62,16.52l-40.01,20.2-.81-1.97-.73-1.76-1.76.74-2.32.97c-1.05.44-1.83,1.35-2.18,2.47-.62.2-1.4.44-2.31.74-.59.19-1.29.29-2.09.29-3.5,0-7.86-1.75-10.17-2.81-.31-.16-.64-.33-.95-.48l-.04-.12-.81-.28c-.77-.33-1.57-.65-2.39-.93-3.23-1.18-6.61-1.79-10.04-1.79-3.89,0-7.7.77-11.32,2.29-14.87,6.25-21.98,23.41-15.83,38.27,4.5,10.88,15.01,17.92,26.81,17.92,3.89,0,7.7-.77,11.32-2.29,6.88-2.89,12.36-8.22,15.43-15.03.38-.77.71-1.54.99-2.28h0l.03-.06c.24-.64.44-1.23.62-1.81,1.99-5.41,4.55-9.36,6.86-10.56.86-.45,1.57-.83,2.14-1.13.58.3,1.22.46,1.86.46.5,0,.98-.1,1.44-.29l2.32-.97,1.74-.73-.72-1.74-.82-1.99,42.42-14.41c6.47,1.3,13.72,6.28,15.57,7.6.51.83,1.42,1.34,2.42,1.34.38,0,.75-.08,1.1-.22,1.45-.61,2.13-2.28,1.54-3.73"/>
</svg>