<svg width="80" height="80" viewBox="0 0 80 80" fill="none" xmlns="http://www.w3.org/2000/svg">
<path fill-rule="evenodd" clip-rule="evenodd" d="M40 80C62.0914 80 80 62.0914 80 40C80 17.9086 62.0914 0 40 0C17.9086 0 0 17.9086 0 40C0 62.0914 17.9086 80 40 80ZM40 73C58.2254 73 73 58.2254 73 40C73 21.7746 58.2254 7 40 7C21.7746 7 7 21.7746 7 40C7 58.2254 21.7746 73 40 73Z" fill="#56EAFF"/>
<path d="M43.7812 32.6406V58H37.1953V32.6406H43.7812ZM36.8906 26.0781C36.8906 25.0625 37.2109 24.2266 37.8516 23.5703C38.5078 22.8984 39.3828 22.5625 40.4766 22.5625C41.5859 22.5625 42.4609 22.8984 43.1016 23.5703C43.7422 24.2266 44.0625 25.0625 44.0625 26.0781C44.0625 27.0781 43.7344 27.9141 43.0781 28.5859C42.4375 29.2422 41.5781 29.5703 40.5 29.5703C39.3906 29.5703 38.5078 29.2422 37.8516 28.5859C37.2109 27.9141 36.8906 27.0781 36.8906 26.0781Z" fill="#56EAFF"/>
</svg>
