<?xml version="1.0" encoding="UTF-8"?>
<svg id="line_expanded" data-name="line expanded" xmlns="http://www.w3.org/2000/svg" viewBox="0 0 512.01 511.98">
  <defs>
    <style>
      .cls-1 {
        fill: #fff;
      }
    </style>
  </defs>
  <path class="cls-1" d="M16,416.01c8.83,0,16-7.17,16-16V144.01c0-8.83,7.17-16,16-16H320.64c8.83,0,16-7.17,16-16s-7.17-16-16-16H48C21.54,96.01,0,117.54,0,144.01V400.01c0,8.83,7.17,16,16,16Z"/>
  <path class="cls-1" d="M488.83,129.7l-104.83,52.42v-31.49L507.33,27.3c6.24-6.24,6.24-16.38,0-22.62s-16.38-6.24-22.62,0L4.7,484.68c-6.24,6.24-6.24,16.38,0,22.62,6.24,6.24,16.38,6.24,22.62,0l91.3-91.3h217.38c26.46,0,48-21.54,48-48v-38.11l104.83,52.42c5.06,2.53,10.94,2.18,15.55-.7,4.74-2.91,7.62-8.06,7.62-13.6V144.01c0-5.54-2.88-10.69-7.58-13.6-4.74-2.98-10.62-3.2-15.58-.7h0Zm-152.83,254.3H150.62l201.38-201.38v185.38c0,8.83-7.17,16-16,16Zm144-41.89l-96-48v-76.22l96-48v172.22Z"/>
</svg>