<?xml version="1.0" encoding="UTF-8"?>
<svg width="95px" height="95px" viewBox="0 0 95 95" version="1.1" xmlns="http://www.w3.org/2000/svg" xmlns:xlink="http://www.w3.org/1999/xlink">
    <!-- Generator: Sketch 50 (54983) - http://www.bohemiancoding.com/sketch -->
    <title>webex-meetings/color/meetings-icon-color</title>
    <desc>Created with Sketch.</desc>
    <defs></defs>
    <g id="webex-meetings/color/meetings-icon-color" stroke="none" stroke-width="1" fill="none" fill-rule="evenodd">
        <g>
            <path d="M83,48 C83,67.33 67.33,83 48,83 C28.67,83 13,67.33 13,48 C13,28.67 28.67,13 48,13 C67.33,13 83,28.67 83,48" id="Fill-1" fill="#FFFFFF"></path>
            <path d="M75.0107,19.7627 C71.7867,16.4987 68.1287,13.9297 64.2217,12.0417 C71.2567,26.5917 68.7487,44.5967 56.6787,56.6697 C44.6117,68.7407 26.6147,71.2507 12.0697,64.2197 C13.8907,67.9857 16.3417,71.5257 19.4447,74.6677 L19.7807,75.0057 C35.0317,90.2607 59.7587,90.2607 75.0107,75.0057 C90.2617,59.7507 90.2617,35.0177 75.0107,19.7627" id="Fill-3" fill="#6EBE4A"></path>
            <path d="M19.978,83.6152 C17.784,83.6152 15.59,82.7772 13.916,81.1032 C4.942,72.1272 0,60.1932 0,47.5002 C0,34.8062 4.942,22.8722 13.916,13.8962 C32.439,-4.6318 62.582,-4.6328 81.106,13.8972 C84.455,17.2462 84.455,22.6752 81.106,26.0242 C77.758,29.3732 72.331,29.3732 68.981,26.0242 C57.144,14.1822 37.879,14.1832 26.04,26.0242 C20.305,31.7612 17.146,39.3872 17.146,47.5002 C17.146,55.6132 20.305,63.2392 26.04,68.9752 C29.388,72.3242 29.389,77.7542 26.04,81.1032 C24.366,82.7772 22.172,83.6152 19.978,83.6152" id="Fill-5" fill="#00BCEB"></path>
            <path d="M47.5112,95 C35.3442,95 23.1782,90.367 13.9162,81.104 C10.5682,77.755 10.5682,72.324 13.9162,68.976 C17.2642,65.628 22.6922,65.628 26.0402,68.976 C37.8792,80.819 57.1442,80.819 68.9812,68.976 C80.8212,57.134 80.8212,37.866 68.9812,26.024 C65.6342,22.675 65.6342,17.246 68.9812,13.897 C72.3312,10.548 77.7582,10.548 81.1062,13.897 C99.6312,32.426 99.6312,62.574 81.1062,81.104 C71.8442,90.367 59.6782,95 47.5112,95" id="Fill-7" fill="#005073"></path>
        </g>
    </g>
</svg>