<?xml version="1.0" encoding="UTF-8"?>
<svg width="91px" height="91px" viewBox="0 0 91 91" version="1.1" xmlns="http://www.w3.org/2000/svg" xmlns:xlink="http://www.w3.org/1999/xlink">
    <!-- Generator: Sketch 50 (54983) - http://www.bohemiancoding.com/sketch -->
    <title>webex-meetings/white/meetings-icon-white</title>
    <desc>Created with Sketch.</desc>
    <defs></defs>
    <g id="webex-meetings/white/meetings-icon-white" stroke="none" stroke-width="1" fill="none" fill-rule="evenodd">
        <g fill="#FFFFFF" id="Combined-Shape">
            <path d="M45.6782,71.8018 C39.2982,71.8018 33.2792,69.5208 28.5452,65.3528 C37.8992,65.2698 47.2252,61.6618 54.3622,54.5228 C61.5002,47.3838 65.1062,38.0548 65.1892,28.6988 C74.1472,38.8918 73.7682,54.4768 64.0422,64.2048 C59.1452,69.1048 52.6242,71.8018 45.6782,71.8018 Z M11.875,64.2051 C9.853,66.2271 8.804,68.8521 8.703,71.5071 C3.487,64.0241 0.667,55.1481 0.667,45.8351 C0.667,33.8101 5.349,22.5041 13.851,14.0011 C29.465,-1.6179 53.788,-3.3269 71.324,8.8491 C68.573,8.9571 66.001,10.0671 64.042,12.0251 C61.47,14.5991 60.463,18.1461 61,21.4911 C49.891,14.4941 35.003,15.8221 25.337,25.4901 C19.904,30.9251 16.911,38.1501 16.911,45.8351 C16.911,51.3441 18.456,56.6111 21.327,61.1571 C20.758,61.0661 20.181,61.0081 19.594,61.0081 C16.678,61.0081 13.937,62.1431 11.875,64.2051 Z M71.7617,11.6221 C73.8397,11.6221 75.9177,12.4151 77.5047,14.0011 C95.0537,31.5551 95.0537,60.1161 77.5047,77.6711 C68.7297,86.4461 57.2027,90.8351 45.6777,90.8351 C34.1517,90.8351 22.6257,86.4461 13.8507,77.6711 C10.6787,74.4981 10.6787,69.3531 13.8507,66.1811 C15.4367,64.5951 17.5147,63.8021 19.5937,63.8021 C21.6727,63.8021 23.7507,64.5951 25.3367,66.1811 C30.9457,71.7911 38.3117,74.5961 45.6787,74.5961 C53.0447,74.5961 60.4107,71.7911 66.0177,66.1811 C77.2347,54.9631 77.2347,36.7091 66.0177,25.4901 C62.8457,22.3171 62.8457,17.1741 66.0177,14.0011 C67.6047,12.4151 69.6827,11.6221 71.7617,11.6221 Z"></path>
        </g>
    </g>
</svg>