<?xml version="1.0" encoding="UTF-8"?>
<svg width="119px" height="118px" viewBox="0 0 119 118" version="1.1" xmlns="http://www.w3.org/2000/svg" xmlns:xlink="http://www.w3.org/1999/xlink">
    <!-- Generator: Sketch 50 (54983) - http://www.bohemiancoding.com/sketch -->
    <title>webex-meetings/color/meetings-with-container-color</title>
    <desc>Created with Sketch.</desc>
    <defs></defs>
    <g id="webex-meetings/color/meetings-with-container-color" stroke="none" stroke-width="1" fill="none" fill-rule="evenodd">
        <g>
            <path d="M91.709,117.7822 L27.643,117.7822 C12.899,117.7822 0.947,105.8302 0.947,91.0872 L0.947,27.0212 C0.947,12.2772 12.899,0.3252 27.643,0.3252 L91.709,0.3252 C106.452,0.3252 118.404,12.2772 118.404,27.0212 L118.404,91.0872 C118.404,105.8302 106.452,117.7822 91.709,117.7822" id="Fill-1" fill="#FFFFFF"></path>
            <path d="M95,59 C95,78.33 79.33,94 60,94 C40.67,94 25,78.33 25,59 C25,39.67 40.67,24 60,24 C79.33,24 95,39.67 95,59" id="Fill-3" fill="#FFFFFF"></path>
            <path d="M87.0107,30.7627 C83.7867,27.4987 80.1287,24.9297 76.2217,23.0417 C83.2567,37.5917 80.7487,55.5967 68.6787,67.6697 C56.6117,79.7407 38.6147,82.2507 24.0697,75.2197 C25.8907,78.9857 28.3417,82.5257 31.4447,85.6677 L31.7807,86.0057 C47.0317,101.2607 71.7587,101.2607 87.0107,86.0057 C102.2617,70.7507 102.2617,46.0177 87.0107,30.7627" id="Fill-5" fill="#6EBE4A"></path>
            <path d="M31.978,94.6152 C29.784,94.6152 27.59,93.7772 25.916,92.1032 C16.942,83.1272 12,71.1932 12,58.5002 C12,45.8062 16.942,33.8722 25.916,24.8962 C44.439,6.3682 74.582,6.3672 93.106,24.8972 C96.455,28.2462 96.455,33.6752 93.106,37.0242 C89.758,40.3732 84.331,40.3732 80.981,37.0242 C69.144,25.1822 49.879,25.1832 38.04,37.0242 C32.305,42.7612 29.146,50.3872 29.146,58.5002 C29.146,66.6132 32.305,74.2392 38.04,79.9752 C41.388,83.3242 41.389,88.7542 38.04,92.1032 C36.366,93.7772 34.172,94.6152 31.978,94.6152" id="Fill-7" fill="#00BCEB"></path>
            <path d="M59.5112,106 C47.3442,106 35.1782,101.367 25.9162,92.104 C22.5682,88.755 22.5682,83.324 25.9162,79.976 C29.2642,76.628 34.6922,76.628 38.0402,79.976 C49.8792,91.819 69.1442,91.819 80.9812,79.976 C92.8212,68.134 92.8212,48.866 80.9812,37.024 C77.6342,33.675 77.6342,28.246 80.9812,24.897 C84.3312,21.548 89.7582,21.548 93.1062,24.897 C111.6312,43.426 111.6312,73.574 93.1062,92.104 C83.8442,101.367 71.6782,106 59.5112,106" id="Fill-9" fill="#005073"></path>
        </g>
    </g>
</svg>