<svg id="Calque_1" data-name="Calque 1" xmlns="http://www.w3.org/2000/svg" viewBox="0 0 48.32 49.87"><defs><style>.cls-1,.cls-2,.cls-3,.cls-4,.cls-5{fill-rule:evenodd;}.cls-2{fill:#d5291f;}.cls-3{fill:#a98d4d;}.cls-4{fill:#e6d5ab;}.cls-5{fill:#ff6354;}</style></defs><polygon class="cls-1" points="10.91 1.56 10.91 0 17.14 0 17.14 1.56 10.91 1.56 10.91 1.56"/><polygon class="cls-1" points="10.91 1.56 10.91 4.68 10.91 6.23 9.35 6.23 9.35 4.68 9.35 3.12 9.35 1.56 10.91 1.56 10.91 1.56"/><polygon class="cls-1" points="17.14 1.56 18.7 1.56 18.7 3.12 18.7 4.68 18.7 6.23 17.14 6.23 17.14 3.12 17.14 1.56 17.14 1.56"/><polygon class="cls-1" points="32.73 6.23 32.73 4.68 34.29 4.68 35.85 4.68 37.41 4.68 38.96 4.68 40.52 4.68 42.08 4.68 42.08 6.23 32.73 6.23 32.73 6.23"/><path class="cls-1" d="M11.93,6.36h6.23V7.92h4.68V9.48H18.16V29.74h1.56V31.3H18.16V48.44H30.63V50H13.49V48.44h3.12V32.86H13.49V48.44H1V46.88H11.93V6.36Zm1.56,6.23V31.3h3.12V7.92H13.49v4.67Z" transform="translate(-1.02 -0.13)"/><polygon class="cls-1" points="28.05 7.79 28.05 6.23 29.61 6.23 31.17 6.23 32.73 6.23 32.73 7.79 28.05 7.79 28.05 7.79"/><polygon class="cls-1" points="42.08 6.23 43.64 6.23 45.2 6.23 45.2 7.79 43.64 7.79 42.08 7.79 42.08 6.23 42.08 6.23"/><polygon class="cls-1" points="24.94 9.35 24.94 7.79 26.5 7.79 28.05 7.79 28.05 9.35 26.5 9.35 24.94 9.35 24.94 9.35"/><polygon class="cls-1" points="45.2 7.79 48.32 7.79 48.32 10.91 46.76 10.91 46.76 9.35 45.2 9.35 45.2 7.79 45.2 7.79"/><polygon class="cls-1" points="21.82 9.35 24.94 9.35 24.94 10.91 23.38 10.91 21.82 10.91 21.82 9.35 21.82 9.35"/><polygon class="cls-1" points="45.2 12.47 45.2 10.91 46.76 10.91 46.76 12.47 45.2 12.47 45.2 12.47"/><polygon class="cls-1" points="45.2 12.47 45.2 14.03 45.2 15.59 43.64 15.59 43.64 14.03 43.64 12.47 45.2 12.47 45.2 12.47"/><polygon class="cls-1" points="43.64 15.59 43.64 20.26 42.08 20.26 42.08 18.7 42.08 17.14 42.08 15.59 43.64 15.59 43.64 15.59"/><polygon class="cls-1" points="43.64 20.26 45.2 20.26 45.2 21.82 45.2 23.38 45.2 26.5 43.64 26.5 43.64 24.94 43.64 23.38 43.64 20.26 43.64 20.26"/><polygon class="cls-1" points="31.17 28.05 31.17 26.5 32.73 26.5 34.29 26.5 35.85 26.5 37.41 26.5 37.41 28.05 31.17 28.05 31.17 28.05"/><polygon class="cls-1" points="45.2 26.5 46.76 26.5 46.76 28.05 46.76 29.61 46.76 31.17 45.2 31.17 43.64 31.17 42.08 31.17 40.52 31.17 40.52 29.61 42.08 29.61 43.64 29.61 45.2 29.61 45.2 28.05 45.2 26.5 45.2 26.5"/><polygon class="cls-1" points="28.05 29.61 28.05 28.05 29.61 28.05 31.17 28.05 31.17 29.61 29.61 29.61 28.05 29.61 28.05 29.61"/><polygon class="cls-1" points="37.41 28.05 38.96 28.05 40.52 28.05 40.52 29.61 38.96 29.61 37.41 29.61 37.41 28.05 37.41 28.05"/><polygon class="cls-1" points="23.38 31.17 23.38 29.61 24.94 29.61 26.5 29.61 28.05 29.61 28.05 31.17 26.5 31.17 24.94 31.17 23.38 31.17 23.38 31.17"/><polygon class="cls-1" points="18.7 31.17 23.38 31.17 23.38 32.73 21.82 32.73 20.26 32.73 18.7 32.73 18.7 31.17 18.7 31.17"/><polygon class="cls-2" points="12.47 9.35 12.47 7.79 14.03 7.79 15.59 7.79 15.59 14.03 15.59 20.26 15.59 26.5 15.59 31.17 14.03 31.17 12.47 31.17 12.47 29.61 14.03 29.61 14.03 28.05 14.03 26.5 14.03 24.94 14.03 23.38 14.03 21.82 14.03 20.26 14.03 18.7 14.03 14.03 14.03 12.47 14.03 10.91 14.03 9.35 12.47 9.35 12.47 9.35"/><polygon class="cls-2" points="23.38 31.17 18.7 31.17 18.7 29.61 17.14 29.61 17.14 28.05 17.14 26.5 17.14 23.38 17.14 18.7 17.14 14.03 17.14 9.35 20.26 9.35 21.82 9.35 21.82 10.91 21.82 12.47 21.82 14.03 23.38 14.03 23.38 15.59 24.94 15.59 24.94 17.14 26.5 17.14 26.5 18.7 28.05 18.7 29.61 18.7 29.61 20.26 31.17 20.26 32.73 20.26 32.73 21.82 34.29 21.82 35.85 21.82 37.41 21.82 37.41 20.26 38.96 20.26 38.96 18.7 40.52 18.7 40.52 17.14 42.08 17.14 42.08 18.7 42.08 20.26 43.64 20.26 43.64 21.82 43.64 23.38 43.64 24.94 43.64 26.5 45.2 26.5 45.2 28.05 45.2 29.61 43.64 29.61 42.08 29.61 40.52 29.61 40.52 28.05 38.96 28.05 37.41 28.05 37.41 26.5 35.85 26.5 34.29 26.5 32.73 26.5 31.17 26.5 29.61 26.5 28.05 26.5 26.5 26.5 24.94 26.5 24.94 28.05 23.38 28.05 23.38 29.61 23.38 31.17 23.38 31.17"/><polygon class="cls-2" points="46.76 9.35 46.76 10.91 45.2 10.91 45.2 12.47 43.64 12.47 43.64 10.91 43.64 9.35 45.2 9.35 46.76 9.35 46.76 9.35"/><polygon class="cls-2" points="43.64 12.47 43.64 14.03 43.64 15.59 42.08 15.59 42.08 14.03 42.08 12.47 43.64 12.47 43.64 12.47"/><polygon class="cls-3" points="15.59 1.56 17.14 1.56 17.14 3.12 17.14 4.68 17.14 6.23 10.91 6.23 10.91 4.68 12.47 4.68 12.47 3.12 14.03 3.12 15.59 3.12 15.59 1.56 15.59 1.56"/><polygon class="cls-3" points="14.03 32.73 15.59 32.73 15.59 34.29 15.59 35.85 15.59 37.41 15.59 38.96 15.59 40.52 15.59 42.08 15.59 43.64 15.59 45.2 15.59 46.76 15.59 48.32 14.03 48.32 12.47 48.32 12.47 45.2 12.47 43.64 14.03 43.64 14.03 42.08 14.03 40.52 14.03 38.96 14.03 37.41 14.03 35.85 14.03 34.29 12.47 34.29 12.47 32.73 14.03 32.73 14.03 32.73"/><polygon class="cls-4" points="10.91 1.56 12.47 1.56 14.03 1.56 15.59 1.56 15.59 3.12 12.47 3.12 12.47 4.68 10.91 4.68 10.91 3.12 10.91 1.56 10.91 1.56"/><polygon class="cls-4" points="14.03 34.29 14.03 38.96 14.03 40.52 14.03 42.08 14.03 43.64 12.47 43.64 12.47 38.96 12.47 37.41 12.47 35.85 12.47 34.29 14.03 34.29 14.03 34.29"/><polygon class="cls-5" points="32.73 6.23 37.41 6.23 42.08 6.23 42.08 7.79 43.64 7.79 45.2 7.79 45.2 9.35 43.64 9.35 43.64 10.91 43.64 12.47 42.08 12.47 42.08 14.03 42.08 15.59 42.08 17.14 40.52 17.14 40.52 18.7 38.96 18.7 38.96 20.26 37.41 20.26 37.41 21.82 35.85 21.82 34.29 21.82 32.73 21.82 32.73 20.26 31.17 20.26 29.61 20.26 29.61 18.7 28.05 18.7 26.5 18.7 26.5 17.14 24.94 17.14 24.94 15.59 23.38 15.59 23.38 14.03 21.82 14.03 21.82 12.47 21.82 10.91 23.38 10.91 24.94 10.91 24.94 9.35 26.5 9.35 28.05 9.35 28.05 7.79 29.61 7.79 31.17 7.79 32.73 7.79 32.73 6.23 32.73 6.23"/><polygon class="cls-5" points="12.47 9.35 14.03 9.35 14.03 10.91 14.03 12.47 14.03 14.03 14.03 15.59 14.03 17.14 14.03 18.7 14.03 24.94 14.03 29.61 12.47 29.61 12.47 18.7 12.47 9.35 12.47 9.35"/><polygon class="cls-5" points="28.05 29.61 23.38 29.61 23.38 28.05 24.94 28.05 24.94 26.5 26.5 26.5 28.05 26.5 29.61 26.5 31.17 26.5 31.17 28.05 29.61 28.05 28.05 28.05 28.05 29.61 28.05 29.61"/></svg>