<?xml version="1.0" encoding="UTF-8"?>
<svg width="323px" height="41px" viewBox="0 0 323 41" version="1.1" xmlns="http://www.w3.org/2000/svg" xmlns:xlink="http://www.w3.org/1999/xlink">
    <!-- Generator: Sketch 49.3 (51167) - http://www.bohemiancoding.com/sketch -->
    <title>LOGO/cisco_webex_lockup_white</title>
    <desc>Created with Sketch.</desc>
    <defs></defs>
    <g id="LOGO/cisco_webex_lockup_white" stroke="none" stroke-width="1" fill="none" fill-rule="evenodd">
        <g fill="#FFFFFF" fill-rule="nonzero">
            <path d="M206.14,0.8 L208.33,0.8 L197.52,39.31 L194.32,39.31 L183.67,2.78 L173.08,39.31 L169.76,39.31 L159,0.8 L161.41,0.8 L171.52,37.33 L182.12,0.8 L185.38,0.8 L195.92,37.23 L206.14,0.8 Z M231.76,31.88 L234.11,31.88 C233.489783,34.4598575 231.899718,36.7017055 229.67,38.14 C224.273797,41.4882203 217.254747,40.4945216 213,35.78 C210.833333,33.18 209.746667,29.7233333 209.74,25.41 C209.74,20.49 211.093333,16.69 213.8,14.01 C216.024484,11.7966404 219.063584,10.5990903 222.2,10.7 C225.783462,10.5471898 229.224352,12.1152844 231.46,14.92 C233.586667,17.6266667 234.653333,21.2933333 234.66,25.92 L212,25.92 C212.14,30.2 213.386667,33.4266667 215.74,35.6 C217.693304,37.3357863 220.238295,38.2557058 222.85,38.17 C225.004879,38.2502502 227.122284,37.5903257 228.85,36.3 C230.293322,35.1994392 231.319494,33.6407858 231.76,31.88 Z M212,24.07 L232.27,24.07 C232.09,20.11 230.913333,17.11 228.74,15.07 C226.971814,13.3851068 224.601121,12.4807845 222.16,12.56 C219.342679,12.48306 216.651998,13.7303222 214.89,15.93 C213.042405,18.2431994 212.024722,21.1096133 212,24.07 Z M242.93,39.31 L241.12,39.31 L241.12,0.8 L243.36,0.8 L243.36,17.06 C244.230676,15.0997235 245.664837,13.4427793 247.48,12.3 C249.214072,11.2250315 251.219988,10.6697608 253.26,10.7 C256.642966,10.5276932 259.896155,12.0216952 261.97,14.7 C263.856667,17.2 264.803333,20.64 264.81,25.02 C264.81,30.16 263.543333,34.0833333 261.01,36.79 C258.55906,39.463514 254.919709,40.71193 251.343757,40.1058364 C247.767804,39.4997428 244.743086,37.1218235 243.31,33.79 L242.93,39.31 Z M252.88,12.57 C250.147263,12.4804731 247.53974,13.7171837 245.88,15.89 C244.06,18.13 243.15,21.32 243.15,25.46 C243.15,29.88 244.183333,33.2333333 246.25,35.52 C248.11899,37.416174 250.725332,38.3976262 253.380812,38.2052001 C256.036291,38.0127741 258.473908,36.6658176 260.05,34.52 C261.69,32.1733333 262.51,29 262.51,25 C262.51,20.6066667 261.493333,17.3433333 259.46,15.21 C257.74981,13.4225739 255.351356,12.4602764 252.88,12.57 Z M291.5,31.88 L293.85,31.88 C293.229783,34.4598575 291.639718,36.7017055 289.41,38.14 C284.012477,41.4981083 276.984057,40.5036796 272.73,35.78 C270.55,33.18 269.46,29.7233333 269.46,25.41 C269.46,20.49 270.816667,16.69 273.53,14.01 C275.750743,11.7971775 278.786603,10.5994781 281.92,10.7 C285.504101,10.5439058 288.946411,12.1126474 291.18,14.92 C293.32,17.6266667 294.39,21.2933333 294.39,25.92 L271.71,25.92 C271.85,30.2 273.096667,33.4266667 275.45,35.6 C277.406371,37.337308 279.955041,38.2572633 282.57,38.17 C284.724663,38.2486322 286.841542,37.5888715 288.57,36.3 C290.020777,35.2026305 291.054253,33.6435998 291.5,31.88 Z M271.76,24.07 L292,24.07 C291.833333,20.11 290.656667,17.11 288.47,15.07 C286.703041,13.3831636 284.3315,12.478518 281.89,12.56 C279.072679,12.48306 276.381998,13.7303222 274.62,15.93 C272.783172,18.2471376 271.776185,21.113177 271.76,24.07 Z M321,11.5 L311.32,24.66 L322.66,39.31 L320,39.31 L309.95,26.31 L300.32,39.36 L297.7,39.36 L308.61,24.71 L298.13,11.5 L301,11.5 L310.09,23.05 L318.49,11.5 L321,11.5 Z" id="Webex"></path>
            <path d="M18.08,33.8 C23.28,33.8 26.08,30.9133333 26.48,25.14 L35.62,25.14 C34.9533333,30.38 32.9533333,34.2666667 29.62,36.8 C26.66,39.0066667 22.7566667,40.1133333 17.91,40.12 C12.17,40.12 7.69333333,38.21 4.48,34.39 C1.49333333,30.83 0,26.0333333 0,20 C0,13.12 1.87333333,7.93333333 5.62,4.44 C8.79333333,1.48 13.0366667,0 18.35,0 C23.23,0 27.2033333,1.3 30.27,3.9 C33.0599619,6.33279067 34.8662757,9.70007238 35.35,13.37 L26.35,13.37 C25.35,8.63 22.6833333,6.26 18.35,6.26 C15.5654509,6.15042221 12.9486084,7.58968563 11.55,10 C10.09,12.2866667 9.36,15.62 9.36,20 C9.36,25.1 10.3233333,28.8266667 12.25,31.18 C13.6836709,32.9078205 15.8360897,33.8751168 18.08,33.8 Z M48.46,7.92 L39.46,7.92 L39.46,0.8 L48.46,0.8 L48.46,7.92 Z M48.14,39.31 L39.79,39.31 L39.79,11.5 L48.14,11.5 L48.14,39.31 Z M65,34.45 C68.1,34.45 69.65,33.5733333 69.65,31.82 C69.7109192,31.0704805 69.3169438,30.3573852 68.65,30.01 C66.8350943,29.3050315 64.9655153,28.7498435 63.06,28.35 C59.6,27.53 57.1233333,26.5133333 55.63,25.3 C53.8669772,23.844537 52.8925114,21.6436524 53,19.36 C52.9047946,16.6907669 54.2534479,14.1768465 56.53,12.78 C58.63,11.39 61.53,10.7 65.3,10.7 C69.07,10.7 72.17,11.55 74.45,13.26 C76.3525645,14.7103477 77.6238009,16.8374305 78,19.2 L69.6,19.2 C69.2,17.3066667 67.6666667,16.3633333 65,16.37 C62.5,16.37 61.25,17.13 61.25,18.67 C61.242357,19.4102927 61.6632043,20.0883245 62.33,20.41 C63.8366825,21.0861989 65.412686,21.5958851 67.03,21.93 L68.03,22.2 C70.4265937,22.7016503 72.732961,23.5648521 74.87,24.76 C76.9339592,26.0152351 78.1609107,28.2856686 78.08,30.7 C78.1945818,33.5439978 76.8189589,36.2421894 74.45,37.82 C72.16,39.35 69.03,40.12 65.03,40.12 C61.03,40.12 57.83,39.21 55.4,37.39 C53.4409265,35.9683774 52.1163774,33.8361763 51.71,31.45 L60.11,31.45 C60.3099647,32.371055 60.8964834,33.1615803 61.72,33.62 C62.7131998,34.2004082 63.8502763,34.488144 65,34.45 Z M100.55,30.06 L109.33,30.06 C108.729546,33.1032003 106.986987,35.8011258 104.46,37.6 C101.770737,39.3757546 98.5897048,40.257625 95.37,40.12 C90.4766667,40.12 86.81,38.6933333 84.37,35.84 C82.27,33.38 81.22,29.99 81.22,25.67 C81.22,20.6766667 82.68,16.8433333 85.6,14.17 C88.3255373,11.7739383 91.8749883,10.5298379 95.5,10.7 C98.9645696,10.5705592 102.372615,11.6056475 105.18,13.64 C107.280672,15.2043061 108.727133,17.491568 109.24,20.06 L100.5,20.06 C100.212163,19.0027281 99.5958485,18.0642497 98.74,17.38 C97.9000862,16.7188846 96.8587984,16.3659057 95.79,16.38 C91.87,16.38 89.91,19.5333333 89.91,25.84 C89.91,28.88 90.5166667,31.1633333 91.73,32.69 C92.6359311,33.8265394 94.0167167,34.4800127 95.47,34.46 C98,34.45 99.7,33 100.55,30.06 Z M112.16,25.3 C112.16,20.24 113.623333,16.4433333 116.55,13.91 C119.043333,11.77 122.483333,10.7 126.87,10.7 C131.903333,10.7 135.683333,12.1066667 138.21,14.92 C140.463333,17.42 141.586667,20.88 141.58,25.3 C141.58,30.4 140.116667,34.2333333 137.19,36.8 C134.696667,39.0066667 131.256667,40.1133333 126.87,40.12 C121.95,40.12 118.206667,38.6933333 115.64,35.84 C113.32,33.28 112.16,29.7666667 112.16,25.3 Z M120.77,25.3 C120.77,28.76 121.376667,31.22 122.59,32.68 C123.671045,33.9280147 125.271967,34.6009195 126.92,34.5 C129.166667,34.5 130.753333,33.7166667 131.68,32.15 C132.58,30.68 133.02,28.4 133.02,25.3 C133.02,21.81 132.43,19.36 131.26,17.97 C130.11414,16.7947135 128.50681,16.1869302 126.87,16.31 C124.966912,16.1405201 123.122854,17.0222944 122.06,18.61 C121.2,20.0033333 120.77,22.2333333 120.77,25.3 Z" id="Cisco"></path>
        </g>
    </g>
</svg>