<?xml version="1.0" encoding="UTF-8"?>
<svg width="91px" height="91px" viewBox="0 0 91 91" version="1.1" xmlns="http://www.w3.org/2000/svg" xmlns:xlink="http://www.w3.org/1999/xlink">
    <!-- Generator: Sketch 52.5 (67469) - http://www.bohemiancoding.com/sketch -->
    <title>webex-calling/white/calling-icon-white</title>
    <desc>Created with Sketch.</desc>
    <g id="webex-calling/white/calling-icon-white" stroke="none" stroke-width="1" fill="none" fill-rule="evenodd">
        <g id="Group" fill="#FFFFFF">
            <path d="M45.5005056,73.9631822 C53.12125,73.9631822 60.2859833,71.0016378 65.6731833,65.62556 C65.9229278,65.3768267 66.1837944,65.1462933 66.4507278,64.9299156 C71.4001167,59.61956 74.1260722,52.7247933 74.1260722,45.5004044 C74.1260722,38.8088711 71.7863611,32.4044933 67.5103722,27.27816 C67.5316056,37.72496 63.4922167,48.0372822 55.7653056,55.7490267 C48.0181722,63.47796 37.6502389,67.5082489 27.1549056,67.4657822 C31.8393833,71.3555267 37.8069611,73.7811822 44.3892944,74.0319378 C44.7967722,73.9854267 45.1526833,73.9631822 45.5005056,73.9631822" id="Fill-1"></path>
            <path d="M91,45.5 C91,35.8944444 87.9697,26.6488444 82.3742111,18.9441778 C82.2569222,21.3010778 81.2892889,23.6094444 79.5208556,25.3738333 C77.6715333,27.2201222 75.2125111,28.2362889 72.5977778,28.2362889 C72.1690667,28.2362889 71.7413667,28.2079778 71.3197333,28.1523667 C74.7757111,33.2534222 76.6402,39.2644778 76.6402,45.5 C76.6402,51.7355222 74.7757111,57.7445556 71.3207444,62.8466222 C71.7433889,62.7910111 72.1700778,62.7627 72.5967667,62.7627 C75.1124111,62.7627 77.6189556,63.7283111 79.5208556,65.6241444 C81.2892889,67.3895444 82.2569222,69.6979111 82.3752222,72.0558222 C87.9697,64.3501444 91,55.1055556 91,45.5" id="Fill-3"></path>
            <path d="M77.7459511,13.3276578 C69.1322956,4.73321333 57.6804511,0.000202222222 45.5006067,0.000202222222 C45.10324,0.000202222222 44.6896956,0.0386244444 44.2346956,0.118502222 L44.0587622,0.135691111 C19.3532733,0.909191111 -0.000404444444,20.8351578 -0.000404444444,45.4991911 C-0.000404444444,70.1632244 19.3532733,90.0902022 44.0587622,90.8647133 L44.2367178,90.8829133 C44.6876733,90.96178 45.1002067,91.0002022 45.5006067,91.0002022 C57.6814622,91.0002022 69.1333067,86.2671911 77.7459511,77.6717356 C79.1200511,76.3006689 79.8763622,74.4766244 79.8763622,72.5373133 C79.8763622,70.5990133 79.11904,68.7749689 77.7459511,67.4049133 C74.90574,64.5727911 70.2869844,64.57178 67.4487956,67.4049133 C61.5863733,73.2552022 53.7917178,76.4776133 45.5006067,76.4776133 C45.1932289,76.4776133 44.8929289,76.5039022 44.5966733,76.5392911 L44.4975844,76.5524356 L44.3974844,76.5483911 C27.5543956,75.9599244 14.3604067,62.3210467 14.3604067,45.4991911 C14.3604067,28.6793578 27.5543956,15.0414911 44.3974844,14.4510022 L44.4975844,14.4469578 L44.5966733,14.4601022 C44.89394,14.4975133 45.1932289,14.5238022 45.5006067,14.5238022 C53.7917178,14.5238022 61.5863733,17.7452022 67.4487956,23.59448 C68.8239067,24.9675689 70.6509844,25.7228689 72.5973733,25.7228689 C74.5427511,25.7228689 76.37084,24.9675689 77.7459511,23.59448 C79.11904,22.2234133 79.8763622,20.40038 79.8763622,18.4610689 C79.8763622,16.5217578 79.11904,14.6987244 77.7459511,13.3276578" id="Fill-5"></path>
        </g>
    </g>
</svg>