<?xml version="1.0" encoding="UTF-8"?>
<svg width="95px" height="95px" viewBox="0 0 95 95" version="1.1" xmlns="http://www.w3.org/2000/svg" xmlns:xlink="http://www.w3.org/1999/xlink">
    <!-- Generator: Sketch 52.5 (67469) - http://www.bohemiancoding.com/sketch -->
    <title>webex-calling/color/calling-icon-color</title>
    <desc>Created with Sketch.</desc>
    <g id="webex-calling/color/calling-icon-color" stroke="none" stroke-width="1" fill="none" fill-rule="evenodd">
        <g id="Group-5">
            <path d="M69.4181823,27.2020625 C69.159901,26.9982083 68.9095365,26.7824792 68.6720365,26.5449792 C63.0175573,20.902375 54.7070365,17.4902917 46.4351094,17.7218542 C30.3622969,18.2849271 17.4591198,31.4988333 17.4591198,47.6725833 C17.4591198,63.8453438 31.4270885,76.988 47.5008906,77.5500833 C47.8502135,77.5065417 47.1387031,77.5500833 47.5008906,77.5500833 C55.4987031,77.5500833 63.0175573,74.4427917 68.6720365,68.7991979 C68.910526,68.5607083 69.1628698,68.3439896 69.421151,68.1401354 C69.4201615,68.141125 69.4191719,68.141125 69.4181823,68.1421146 C74.4512031,62.7795625 77.5416719,55.5813333 77.5416719,47.6725833 C77.5416719,39.7628438 74.4502135,32.5646146 69.4181823,27.2020625" id="Fill-25" fill="#FFFFFF"></path>
            <path d="M47.5003958,77.5504792 C55.4982083,77.5504792 63.0180521,74.4421979 68.6725313,68.7995938 C68.9110208,68.5611042 69.1633646,68.3443854 69.4206563,68.1395417 C69.4196667,68.1405313 69.4186771,68.1415208 69.4176875,68.1415208 C74.4507083,62.7799583 77.5411771,55.5807396 77.5411771,47.6729792 C77.5411771,39.7632396 74.4497188,32.5650104 69.4176875,27.2024583 C69.1603958,26.9986042 68.9100313,26.782875 68.6725313,26.545375 C68.3410208,26.2148542 68.0006042,25.8932396 67.6562292,25.5795417 C68.7813854,36.6975104 65.1060729,48.205375 56.5699271,56.7237083 C48.0050833,65.2707396 36.9959688,68.9886042 25.8196146,67.8288125 C31.3454479,73.5258438 39.1097188,77.2565729 47.5003958,77.5504792" id="Fill-26" fill="#6EBE4A"></path>
            <path d="M69.4181823,27.2020625 C70.9728177,28.4331042 72.8559948,29.0535729 74.7401615,29.0535729 C76.9370365,29.0535729 79.1329219,28.217375 80.809276,26.5449792 C83.7621927,23.598 84.1095365,19.038 81.8562552,15.7070625 C89.6947448,24.0908125 94.506099,35.3285208 94.506099,47.6725833 C94.506099,60.0166458 89.6937552,71.2553438 81.854276,79.6400833 C84.1095365,76.3091458 83.7631823,71.7471667 80.809276,68.7991979 C77.6930781,65.6919063 72.7847448,65.4771667 69.4181823,68.1421146 C74.4512031,62.7795625 77.5416719,55.5813333 77.5416719,47.6725833 C77.5416719,39.7628438 74.4502135,32.5646146 69.4181823,27.2020625" id="Fill-27" fill="#E5E5E5"></path>
            <path d="M46.7901719,0.667375 C21.5597552,1.45607292 0.494494792,22.3075833 0.494494792,47.6725833 C0.494494792,73.0385729 20.7809531,93.7505521 46.0113698,94.5402396 C60.6443385,94.6777917 71.912724,89.7882604 80.8090781,80.9097187 C84.1607969,77.5649271 84.1607969,72.143 80.8090781,68.7991979 C77.4553802,65.4544062 72.0215781,65.4563854 68.6718385,68.7991979 C63.0173594,74.4427917 55.4985052,77.5500833 47.5006927,77.5500833 C31.4268906,76.988 17.4589219,63.8453437 17.4589219,47.6725833 C17.4589219,31.4988333 30.362099,18.2849271 46.435901,17.7218542 C54.7068385,17.4902917 63.0173594,20.902375 68.6718385,26.5449792 C70.3481927,28.217375 72.5440781,29.0535729 74.7399635,29.0535729 C76.9368385,29.0535729 79.1337135,28.217375 80.8090781,26.5449792 C84.1607969,23.2011771 84.1607969,17.77925 80.8090781,14.4354479 C71.9117344,5.55690625 60.0832448,0.667375 47.5006927,0.667375 L46.7901719,0.667375 Z" id="Fill-28" fill="#00BDEB"></path>
        </g>
    </g>
</svg>