<?xml version="1.0" encoding="UTF-8"?>
<svg width="126px" height="143px" viewBox="0 0 126 143" version="1.1" xmlns="http://www.w3.org/2000/svg" xmlns:xlink="http://www.w3.org/1999/xlink">
    <!-- Generator: Sketch 52.5 (67469) - http://www.bohemiancoding.com/sketch -->
    <title>webex-calling/color/calling-with-label-color</title>
    <desc>Created with Sketch.</desc>
    <defs>
        <polygon id="path-1" points="0 0.5781 18.1068 0.5781 18.1068 14.2581 0 14.2581"></polygon>
    </defs>
    <g id="webex-calling/color/calling-with-label-color" stroke="none" stroke-width="1" fill="none" fill-rule="evenodd">
        <g id="webex-calling/color/calling-icon-color" transform="translate(16.000000, 0.000000)">
            <g id="Group-5">
                <path d="M69.4181823,27.2020625 C69.159901,26.9982083 68.9095365,26.7824792 68.6720365,26.5449792 C63.0175573,20.902375 54.7070365,17.4902917 46.4351094,17.7218542 C30.3622969,18.2849271 17.4591198,31.4988333 17.4591198,47.6725833 C17.4591198,63.8453438 31.4270885,76.988 47.5008906,77.5500833 C47.8502135,77.5065417 47.1387031,77.5500833 47.5008906,77.5500833 C55.4987031,77.5500833 63.0175573,74.4427917 68.6720365,68.7991979 C68.910526,68.5607083 69.1628698,68.3439896 69.421151,68.1401354 C69.4201615,68.141125 69.4191719,68.141125 69.4181823,68.1421146 C74.4512031,62.7795625 77.5416719,55.5813333 77.5416719,47.6725833 C77.5416719,39.7628438 74.4502135,32.5646146 69.4181823,27.2020625" id="Fill-25" fill="#FFFFFF"></path>
                <path d="M47.5003958,77.5504792 C55.4982083,77.5504792 63.0180521,74.4421979 68.6725313,68.7995938 C68.9110208,68.5611042 69.1633646,68.3443854 69.4206563,68.1395417 C69.4196667,68.1405313 69.4186771,68.1415208 69.4176875,68.1415208 C74.4507083,62.7799583 77.5411771,55.5807396 77.5411771,47.6729792 C77.5411771,39.7632396 74.4497188,32.5650104 69.4176875,27.2024583 C69.1603958,26.9986042 68.9100313,26.782875 68.6725313,26.545375 C68.3410208,26.2148542 68.0006042,25.8932396 67.6562292,25.5795417 C68.7813854,36.6975104 65.1060729,48.205375 56.5699271,56.7237083 C48.0050833,65.2707396 36.9959688,68.9886042 25.8196146,67.8288125 C31.3454479,73.5258438 39.1097188,77.2565729 47.5003958,77.5504792" id="Fill-26" fill="#6EBE4A"></path>
                <path d="M69.4181823,27.2020625 C70.9728177,28.4331042 72.8559948,29.0535729 74.7401615,29.0535729 C76.9370365,29.0535729 79.1329219,28.217375 80.809276,26.5449792 C83.7621927,23.598 84.1095365,19.038 81.8562552,15.7070625 C89.6947448,24.0908125 94.506099,35.3285208 94.506099,47.6725833 C94.506099,60.0166458 89.6937552,71.2553438 81.854276,79.6400833 C84.1095365,76.3091458 83.7631823,71.7471667 80.809276,68.7991979 C77.6930781,65.6919063 72.7847448,65.4771667 69.4181823,68.1421146 C74.4512031,62.7795625 77.5416719,55.5813333 77.5416719,47.6725833 C77.5416719,39.7628438 74.4502135,32.5646146 69.4181823,27.2020625" id="Fill-27" fill="#E5E5E5"></path>
                <path d="M46.7901719,0.667375 C21.5597552,1.45607292 0.494494792,22.3075833 0.494494792,47.6725833 C0.494494792,73.0385729 20.7809531,93.7505521 46.0113698,94.5402396 C60.6443385,94.6777917 71.912724,89.7882604 80.8090781,80.9097187 C84.1607969,77.5649271 84.1607969,72.143 80.8090781,68.7991979 C77.4553802,65.4544062 72.0215781,65.4563854 68.6718385,68.7991979 C63.0173594,74.4427917 55.4985052,77.5500833 47.5006927,77.5500833 C31.4268906,76.988 17.4589219,63.8453437 17.4589219,47.6725833 C17.4589219,31.4988333 30.362099,18.2849271 46.435901,17.7218542 C54.7068385,17.4902917 63.0173594,20.902375 68.6718385,26.5449792 C70.3481927,28.217375 72.5440781,29.0535729 74.7399635,29.0535729 C76.9368385,29.0535729 79.1337135,28.217375 80.8090781,26.5449792 C84.1607969,23.2011771 84.1607969,17.77925 80.8090781,14.4354479 C71.9117344,5.55690625 60.0832448,0.667375 47.5006927,0.667375 L46.7901719,0.667375 Z" id="Fill-28" fill="#00BDEB"></path>
            </g>
        </g>
        <g id="Group-8" transform="translate(0.000000, 123.300000)">
            <g id="Group-6" transform="translate(0.000000, 0.317000)">
                <mask id="mask-2" fill="white">
                    <use xlink:href="#path-1"></use>
                </mask>
                <g id="Clip-5"></g>
                <polygon id="Fill-4" fill="#000000" mask="url(#mask-2)" points="16.3208 0.5781 18.1068 0.5781 14.4968 14.2581 12.2548 14.2581 9.1578 2.6681 5.9658 14.2581 3.5908 14.2581 -0.0002 0.5781 1.9758 0.5781 4.8828 11.9591 8.0178 0.5781 10.4308 0.5781 13.3948 11.9211"></polygon>
            </g>
            <path d="M23.1792,5.8727 C22.3682,5.8727 21.7162,6.1267 21.2222,6.6337 C20.7532,7.1017 20.4562,7.7547 20.3292,8.5907 L25.9152,8.5907 C25.8522,7.6397 25.5352,6.9307 24.9652,6.4617 C24.5092,6.0687 23.9132,5.8727 23.1792,5.8727 M25.6872,11.7257 L27.6632,11.7257 C27.3852,12.7257 26.8332,13.5107 26.0102,14.0807 C25.2382,14.6007 24.3132,14.8597 23.2362,14.8597 C21.6782,14.8597 20.4622,14.3657 19.5882,13.3777 C18.7902,12.4537 18.3912,11.2057 18.3912,9.6357 C18.3912,7.8487 18.8982,6.4937 19.9112,5.5687 C20.7472,4.7967 21.8242,4.4097 23.1412,4.4097 C24.6862,4.4097 25.8522,4.9107 26.6372,5.9107 C27.3972,6.8737 27.7772,8.2477 27.7772,10.0337 L20.2532,10.0337 C20.3292,11.1997 20.6832,12.0667 21.3172,12.6377 C21.8362,13.0927 22.4952,13.3207 23.2932,13.3207 C23.9132,13.3207 24.4522,13.1497 24.9082,12.8077 C25.2882,12.5167 25.5482,12.1547 25.6872,11.7257" id="Fill-7" fill="#000000"></path>
            <path d="M37.4487,9.5201 C37.4487,8.2801 37.1377,7.3481 36.5177,6.7271 C36.0237,6.2211 35.3777,5.9671 34.5797,5.9671 C33.6547,5.9671 32.9197,6.3031 32.3757,6.9751 C31.8557,7.6211 31.5967,8.4691 31.5967,9.5201 C31.5967,10.7881 31.9067,11.7561 32.5277,12.4281 C33.0467,13.0101 33.7307,13.3011 34.5797,13.3011 C35.5297,13.3011 36.2517,12.9541 36.7457,12.2561 C37.2137,11.6111 37.4487,10.6991 37.4487,9.5201 Z M31.3687,14.5751 L29.8677,14.5751 L29.8677,0.8951 L31.6917,0.8951 L31.6917,6.0631 C32.4637,4.9611 33.5657,4.4101 34.9977,4.4101 C36.4157,4.4101 37.5177,4.9161 38.3037,5.9301 C38.9997,6.8421 39.3487,8.0511 39.3487,9.5591 C39.3487,11.3441 38.8737,12.7131 37.9237,13.6631 C37.1257,14.4611 36.1057,14.8601 34.8647,14.8601 C33.4587,14.8601 32.3877,14.3281 31.6537,13.2641 L31.3687,14.5751 Z" id="Fill-9" fill="#000000"></path>
            <path d="M45.561,5.8727 C44.75,5.8727 44.098,6.1267 43.604,6.6337 C43.135,7.1017 42.838,7.7547 42.711,8.5907 L48.297,8.5907 C48.234,7.6397 47.917,6.9307 47.347,6.4617 C46.891,6.0687 46.295,5.8727 45.561,5.8727 M48.069,11.7257 L50.045,11.7257 C49.767,12.7257 49.215,13.5107 48.392,14.0807 C47.62,14.6007 46.695,14.8597 45.618,14.8597 C44.06,14.8597 42.844,14.3657 41.97,13.3777 C41.172,12.4537 40.773,11.2057 40.773,9.6357 C40.773,7.8487 41.28,6.4937 42.293,5.5687 C43.129,4.7967 44.206,4.4097 45.523,4.4097 C47.068,4.4097 48.234,4.9107 49.019,5.9107 C49.779,6.8737 50.159,8.2477 50.159,10.0337 L42.635,10.0337 C42.711,11.1997 43.065,12.0667 43.699,12.6377 C44.218,13.0927 44.877,13.3207 45.675,13.3207 C46.295,13.3207 46.834,13.1497 47.29,12.8077 C47.67,12.5167 47.93,12.1547 48.069,11.7257" id="Fill-11" fill="#000000"></path>
            <polygon id="Fill-13" fill="#000000" points="60.2104 4.6949 56.9044 9.3109 60.7804 14.5749 58.5574 14.5749 55.8784 10.7569 53.2564 14.5749 51.1094 14.5749 54.7954 9.4449 51.3374 4.6949 53.5224 4.6949 55.8784 8.0199 58.1204 4.6949"></polygon>
            <path d="M73.6001,13.2633 C74.1581,13.2633 74.6701,13.1743 75.1391,12.9963 C75.6081,12.8203 76.0191,12.5763 76.3731,12.2653 C76.7281,11.9553 77.0101,11.5873 77.2191,11.1633 C77.4281,10.7393 77.5451,10.2803 77.5711,9.7853 L79.5281,9.7853 C79.4901,10.4573 79.3221,11.1003 79.0251,11.7143 C78.7271,12.3283 78.3181,12.8703 77.7991,13.3383 C77.2801,13.8073 76.6621,14.1843 75.9471,14.4693 C75.2311,14.7543 74.4361,14.8973 73.5621,14.8973 C72.6121,14.8973 71.7501,14.7393 70.9781,14.4213 C70.2051,14.1053 69.5461,13.6463 69.0021,13.0443 C68.4571,12.4433 68.0361,11.6993 67.7391,10.8123 C67.4411,9.9253 67.2921,8.9113 67.2921,7.7723 C67.2921,6.6193 67.4511,5.5993 67.7671,4.7123 C68.0831,3.8263 68.5271,3.0823 69.0971,2.4803 C69.6671,1.8783 70.3441,1.4223 71.1301,1.1133 C71.9151,0.8023 72.7771,0.6473 73.7141,0.6473 C74.5371,0.6473 75.2941,0.7743 75.9851,1.0273 C76.6741,1.2813 77.2731,1.6183 77.7801,2.0433 C78.2871,2.4683 78.6891,2.9643 78.9871,3.5343 C79.2841,4.1053 79.4581,4.7003 79.5091,5.3213 L77.5521,5.3213 C77.4251,4.3833 77.0201,3.6393 76.3361,3.0883 C75.6521,2.5373 74.7781,2.2623 73.7141,2.2623 C73.0551,2.2623 72.4541,2.3753 71.9091,2.6043 C71.3641,2.8313 70.8951,3.1733 70.5031,3.6293 C70.1101,4.0853 69.8061,4.6593 69.5911,5.3493 C69.3751,6.0393 69.2681,6.8473 69.2681,7.7723 C69.2681,8.6593 69.3721,9.4443 69.5811,10.1273 C69.7901,10.8123 70.0851,11.3853 70.4651,11.8473 C70.8451,12.3103 71.3011,12.6613 71.8331,12.9023 C72.3651,13.1433 72.9541,13.2633 73.6001,13.2633" id="Fill-15" fill="#000000"></path>
            <path d="M85.0034,13.358 C85.3454,13.358 85.6844,13.297 86.0204,13.177 C86.3554,13.057 86.6524,12.889 86.9124,12.673 C87.1724,12.459 87.3814,12.209 87.5394,11.923 C87.6974,11.638 87.7764,11.325 87.7764,10.983 L87.7764,9.71 L85.3264,10.147 C84.8824,10.223 84.5194,10.315 84.2334,10.422 C83.9484,10.53 83.7214,10.657 83.5494,10.802 C83.3784,10.948 83.2584,11.11 83.1894,11.287 C83.1184,11.464 83.0844,11.661 83.0844,11.876 C83.0844,12.357 83.2484,12.724 83.5784,12.978 C83.9074,13.231 84.3824,13.358 85.0034,13.358 Z M81.3364,7.487 C81.4374,6.575 81.8584,5.84 82.6004,5.283 C83.3404,4.725 84.3314,4.447 85.5724,4.447 C86.2194,4.447 86.7924,4.53 87.2924,4.694 C87.7924,4.859 88.2144,5.093 88.5564,5.397 C88.8984,5.701 89.1574,6.062 89.3354,6.48 C89.5124,6.898 89.6014,7.36 89.6014,7.867 L89.6014,14.612 L88.1004,14.612 L87.8724,13.263 C87.5424,13.719 87.1084,14.105 86.5704,14.421 C86.0314,14.739 85.3634,14.897 84.5664,14.897 C84.0214,14.897 83.5364,14.824 83.1124,14.678 C82.6884,14.533 82.3304,14.334 82.0394,14.08 C81.7474,13.827 81.5254,13.529 81.3744,13.187 C81.2224,12.845 81.1464,12.471 81.1464,12.066 C81.1464,11.167 81.4374,10.451 82.0204,9.919 C82.6034,9.387 83.5594,9.006 84.8894,8.779 L87.7764,8.285 L87.7764,7.791 C87.7764,7.183 87.5804,6.714 87.1884,6.385 C86.7954,6.055 86.2324,5.891 85.4974,5.891 C84.7874,5.891 84.2554,6.034 83.9004,6.318 C83.5464,6.603 83.3374,6.993 83.2744,7.487 L81.3364,7.487 Z" id="Fill-17" fill="#000000"></path>
            <polygon id="Fill-19" fill="#000000" points="92.265 14.612 94.089 14.612 94.089 0.932 92.265 0.932"></polygon>
            <polygon id="Fill-21" fill="#000000" points="96.82 14.612 98.644 14.612 98.644 0.932 96.82 0.932"></polygon>
            <path d="M101.379,14.612 L103.203,14.612 L103.203,4.732 L101.379,4.732 L101.379,14.612 Z M101.265,3.078 L103.317,3.078 L103.317,0.932 L101.265,0.932 L101.265,3.078 Z" id="Fill-22" fill="#000000"></path>
            <path d="M105.9389,14.6119 L105.9389,4.7319 L107.4399,4.7319 L107.6489,5.9859 C108.0159,5.4789 108.4599,5.0959 108.9789,4.8369 C109.4989,4.5769 110.0549,4.4469 110.6509,4.4469 C111.7269,4.4469 112.5799,4.7629 113.2069,5.3969 C113.8339,6.0309 114.1469,6.9549 114.1469,8.1709 L114.1469,14.6119 L112.3229,14.6119 L112.3229,8.1899 C112.3229,7.4429 112.1419,6.8909 111.7819,6.5369 C111.4199,6.1819 110.8979,6.0049 110.2139,6.0049 C109.8839,6.0049 109.5709,6.0619 109.2729,6.1759 C108.9759,6.2899 108.7159,6.4549 108.4949,6.6699 C108.2729,6.8849 108.0949,7.1479 107.9619,7.4589 C107.8299,7.7689 107.7629,8.1209 107.7629,8.5129 L107.7629,14.6119 L105.9389,14.6119 Z" id="Fill-23" fill="#000000"></path>
            <path d="M118.1772,9.482 C118.1772,10.002 118.2532,10.467 118.4052,10.878 C118.5572,11.291 118.7632,11.635 119.0232,11.914 C119.2812,12.193 119.5862,12.405 119.9352,12.55 C120.2822,12.696 120.6542,12.769 121.0462,12.769 C121.9952,12.769 122.7312,12.481 123.2502,11.905 C123.7692,11.328 124.0292,10.54 124.0292,9.539 C124.0292,8.374 123.7532,7.494 123.2022,6.898 C122.6522,6.302 121.9322,6.004 121.0462,6.004 C120.2102,6.004 119.5232,6.29 118.9852,6.86 C118.4462,7.43 118.1772,8.304 118.1772,9.482 Z M118.6902,15.277 C118.7792,15.771 119.0292,16.161 119.4412,16.446 C119.8522,16.73 120.4192,16.873 121.1412,16.873 C122.0662,16.873 122.7622,16.651 123.2312,16.208 C123.6992,15.764 123.9342,15.131 123.9342,14.308 L123.9342,13.035 C123.6052,13.427 123.1642,13.741 122.6142,13.975 C122.0632,14.21 121.4062,14.327 120.6472,14.327 C120.0642,14.327 119.5102,14.219 118.9852,14.003 C118.4582,13.789 117.9962,13.475 117.5972,13.063 C117.1982,12.652 116.8782,12.142 116.6382,11.534 C116.3972,10.926 116.2772,10.229 116.2772,9.444 C116.2772,8.671 116.3842,7.974 116.6002,7.354 C116.8152,6.733 117.1192,6.208 117.5122,5.777 C117.9052,5.346 118.3762,5.017 118.9272,4.789 C119.4792,4.561 120.0892,4.447 120.7612,4.447 C121.5332,4.447 122.1832,4.596 122.7082,4.893 C123.2342,5.191 123.6562,5.575 123.9722,6.043 L124.2572,4.732 L125.7582,4.732 L125.7582,14.403 C125.7582,14.961 125.6562,15.479 125.4532,15.961 C125.2512,16.442 124.9562,16.857 124.5712,17.206 C124.1842,17.553 123.7092,17.826 123.1462,18.022 C122.5812,18.218 121.9322,18.317 121.1982,18.317 C119.8672,18.317 118.8322,18.042 118.0912,17.491 C117.3512,16.939 116.8982,16.202 116.7332,15.277 L118.6902,15.277 Z" id="Fill-24" fill="#000000"></path>
        </g>
    </g>
</svg>