<?xml version="1.0" encoding="UTF-8"?>
<svg width="119px" height="119px" viewBox="0 0 119 119" version="1.1" xmlns="http://www.w3.org/2000/svg" xmlns:xlink="http://www.w3.org/1999/xlink">
    <!-- Generator: Sketch 52.5 (67469) - http://www.bohemiancoding.com/sketch -->
    <title>webex-calling/color/calling-with-container-color</title>
    <desc>Created with Sketch.</desc>
    <g id="webex-calling/color/calling-with-container-color" stroke="none" stroke-width="1" fill="none" fill-rule="evenodd">
        <g id="Group-7">
            <g id="Group-3" fill="#FFFFFF">
                <path d="M91.9533021,119 L27.0466979,119 C12.1090101,119 1.42108547e-14,106.89099 1.42108547e-14,91.9543152 L1.42108547e-14,27.0466979 C1.42108547e-14,12.1090101 12.1090101,-1.13686838e-13 27.0466979,-1.13686838e-13 L91.9533021,-1.13686838e-13 C106.89099,-1.13686838e-13 119,12.1090101 119,27.0466979 L119,91.9543152 C119,106.89099 106.89099,119 91.9533021,119" id="Fill-1"></path>
            </g>
            <g id="Group-5" transform="translate(11.000000, 12.000000)">
                <path d="M70.1489,27.4884 C69.8879,27.2824 69.6349,27.0644 69.3949,26.8244 C63.6809,21.1224 55.2829,17.6744 46.9239,17.9084 C30.6819,18.4774 17.6429,31.8304 17.6429,48.1744 C17.6429,64.5174 31.7579,77.7984 48.0009,78.3664 C48.3539,78.3224 47.6349,78.3664 48.0009,78.3664 C56.0829,78.3664 63.6809,75.2264 69.3949,69.5234 C69.6359,69.2824 69.8909,69.0634 70.1519,68.8574 C70.1509,68.8584 70.1499,68.8584 70.1489,68.8594 C75.2349,63.4404 78.3579,56.1664 78.3579,48.1744 C78.3579,40.1814 75.2339,32.9074 70.1489,27.4884" id="Fill-25" fill="#FFFFFF"></path>
                <path d="M48.0004,78.3668 C56.0824,78.3668 63.6814,75.2258 69.3954,69.5238 C69.6364,69.2828 69.8914,69.0638 70.1514,68.8568 C70.1504,68.8578 70.1494,68.8588 70.1484,68.8588 C75.2344,63.4408 78.3574,56.1658 78.3574,48.1748 C78.3574,40.1818 75.2334,32.9078 70.1484,27.4888 C69.8884,27.2828 69.6354,27.0648 69.3954,26.8248 C69.0604,26.4908 68.7164,26.1658 68.3684,25.8488 C69.5054,37.0838 65.7914,48.7128 57.1654,57.3208 C48.5104,65.9578 37.3854,69.7148 26.0914,68.5428 C31.6754,74.2998 39.5214,78.0698 48.0004,78.3668" id="Fill-26" fill="#6EBE4A"></path>
                <path d="M70.1489,27.4884 C71.7199,28.7324 73.6229,29.3594 75.5269,29.3594 C77.7469,29.3594 79.9659,28.5144 81.6599,26.8244 C84.6439,23.8464 84.9949,19.2384 82.7179,15.8724 C90.6389,24.3444 95.5009,35.7004 95.5009,48.1744 C95.5009,60.6484 90.6379,72.0054 82.7159,80.4784 C84.9949,77.1124 84.6449,72.5024 81.6599,69.5234 C78.5109,66.3834 73.5509,66.1664 70.1489,68.8594 C75.2349,63.4404 78.3579,56.1664 78.3579,48.1744 C78.3579,40.1814 75.2339,32.9074 70.1489,27.4884" id="Fill-27" fill="#E5E5E5"></path>
                <path d="M47.2827,0.6744 C21.7867,1.4714 0.4997,22.5424 0.4997,48.1744 C0.4997,73.8074 20.9997,94.7374 46.4957,95.5354 C61.2827,95.6744 72.6697,90.7334 81.6597,81.7614 C85.0467,78.3814 85.0467,72.9024 81.6597,69.5234 C78.2707,66.1434 72.7797,66.1454 69.3947,69.5234 C63.6807,75.2264 56.0827,78.3664 48.0007,78.3664 C31.7577,77.7984 17.6427,64.5174 17.6427,48.1744 C17.6427,31.8304 30.6817,18.4774 46.9247,17.9084 C55.2827,17.6744 63.6807,21.1224 69.3947,26.8244 C71.0887,28.5144 73.3077,29.3594 75.5267,29.3594 C77.7467,29.3594 79.9667,28.5144 81.6597,26.8244 C85.0467,23.4454 85.0467,17.9664 81.6597,14.5874 C72.6687,5.6154 60.7157,0.6744 48.0007,0.6744 L47.2827,0.6744 Z" id="Fill-28" fill="#00BDEB"></path>
            </g>
        </g>
    </g>
</svg>