<?xml version="1.0" encoding="UTF-8"?>
<svg width="91px" height="91px" viewBox="0 0 91 91" version="1.1" xmlns="http://www.w3.org/2000/svg" xmlns:xlink="http://www.w3.org/1999/xlink">
    <!-- Generator: Sketch 50 (54983) - http://www.bohemiancoding.com/sketch -->
    <title>webex-teams/white/teams-icon-white</title>
    <desc>Created with Sketch.</desc>
    <defs></defs>
    <g id="webex-teams/white/teams-icon-white" stroke="none" stroke-width="1" fill="none" fill-rule="evenodd">
        <g fill="#FFFFFF" id="Combined-Shape">
            <path d="M65.0693,28.0244 C69.2443,32.7564 71.5283,38.7714 71.5283,45.0974 C71.5283,51.8424 68.9313,58.2334 64.2163,63.0934 C59.5623,67.8904 53.3473,70.6784 46.6983,70.9654 C46.3253,70.9274 45.9463,70.9074 45.5623,70.9074 C39.2503,70.9074 33.2873,68.6614 28.5783,64.5584 C37.8813,64.4394 47.1473,60.8464 54.2463,53.7624 C61.3773,46.6464 64.9813,37.3494 65.0693,28.0244 Z M53.7383,0.9609 C72.0573,4.3319 86.5233,18.8009 89.8353,37.1049 C87.8883,35.3089 85.2963,34.2009 82.4423,34.2009 C78.8043,34.2009 75.5853,35.9939 73.6003,38.7349 C71.1663,28.0499 62.7353,19.6319 52.0433,17.1629 C54.7823,15.1609 56.5713,11.9369 56.5713,8.2959 C56.5713,5.4759 55.4933,2.9089 53.7383,0.9609 Z M82.4424,36.9946 C86.9264,36.9946 90.5624,40.6226 90.5624,45.0976 C90.5624,67.0756 74.6554,85.4026 53.7284,89.2456 C55.4894,87.2956 56.5714,84.7246 56.5714,81.8996 C56.5714,78.2666 54.7894,75.0496 52.0604,73.0466 C64.7984,70.0996 74.3224,58.6916 74.3224,45.0976 C74.3224,40.6226 77.9584,36.9946 82.4424,36.9946 Z M21.1719,29.9268 C18.4079,34.3308 16.8029,39.5288 16.8029,45.0978 C16.8029,50.6668 18.4079,55.8648 21.1719,60.2688 C20.6179,60.1838 20.0569,60.1288 19.4849,60.1288 C16.5459,60.1288 13.7819,61.2708 11.7019,63.3448 C9.7649,65.2778 8.6509,67.8068 8.5049,70.5158 C3.5039,63.2838 0.5629,54.5308 0.5629,45.0978 C0.5629,35.6658 3.5039,26.9118 8.5049,19.6798 C8.6509,22.3888 9.7649,24.9178 11.7019,26.8498 C13.7799,28.9248 16.5439,30.0678 19.4849,30.0678 C20.0559,30.0678 20.6179,30.0108 21.1719,29.9268 Z M19.4844,27.2734 C17.3814,27.2734 15.2784,26.4734 13.6744,24.8724 C10.4664,21.6704 10.4664,16.4804 13.6744,13.2784 C22.1924,4.7784 33.5164,0.0984 45.5624,0.0984 C50.1004,0.0984 53.7774,3.7684 53.7774,8.2964 C53.7774,12.8244 50.1004,16.4944 45.5624,16.4944 C37.9054,16.4944 30.7074,19.4704 25.2934,24.8724 C23.6904,26.4734 21.5874,27.2734 19.4844,27.2734 Z M19.4849,62.9224 C21.5879,62.9224 23.6909,63.7224 25.2939,65.3234 C30.7079,70.7264 37.9059,73.7014 45.5629,73.7014 C50.0999,73.7014 53.7769,77.3724 53.7769,81.8994 C53.7769,86.4274 50.0999,90.0974 45.5629,90.0974 C33.5169,90.0974 22.1919,85.4174 13.6749,76.9174 C10.4669,73.7154 10.4669,68.5244 13.6749,65.3224 C15.2799,63.7224 17.3829,62.9224 19.4849,62.9224 Z"></path>
        </g>
    </g>
</svg>