<?xml version="1.0" encoding="UTF-8"?>
<svg width="95px" height="95px" viewBox="0 0 95 95" version="1.1" xmlns="http://www.w3.org/2000/svg" xmlns:xlink="http://www.w3.org/1999/xlink">
    <!-- Generator: Sketch 50 (54983) - http://www.bohemiancoding.com/sketch -->
    <title>webex-teams/color/teams-icon-color</title>
    <desc>Created with Sketch.</desc>
    <defs></defs>
    <g id="webex-teams/color/teams-icon-color" stroke="none" stroke-width="1" fill="none" fill-rule="evenodd">
        <g>
            <path d="M79.9913194,48 C79.9913194,66.226 65.2189225,81 46.9949002,81 C28.7708778,81 13.9984809,66.226 13.9984809,48 C13.9984809,29.774 28.7708778,15 46.9949002,15 C65.2189225,15 79.9913194,29.774 79.9913194,48" id="Fill-1" fill="#FFFFFF"></path>
            <path d="M74.9850627,19.834 C71.7624124,16.579 68.1048094,14.016 64.2002331,12.133 C71.2324699,26.645 68.725742,44.604 56.6600513,56.646 C44.5953606,68.686 26.6043129,71.188 12.0648907,64.175 C13.8856931,67.932 16.3354273,71.463 19.4370907,74.597 L19.7740541,74.935 C35.0193997,90.15 59.7387172,90.15 74.9850627,74.935 C90.2304083,59.719 90.2304083,35.05 74.9850627,19.834" id="Fill-3" fill="#6EBE4A"></path>
            <path d="M19.9705328,28.6851 C17.7507737,28.6851 15.5320145,27.8401 13.8391982,26.1501 C10.4525657,22.7711 10.4525657,17.2921 13.8391982,13.9131 C22.8292226,4.9411 34.7809256,0.0001 47.494546,0.0001 C52.2840262,0.0001 56.1646051,3.8741 56.1646051,8.6541 C56.1646051,13.4331 52.2840262,17.3081 47.494546,17.3081 C39.4134229,17.3081 31.8162473,20.4481 26.1018675,26.1501 C24.4090512,27.8401 22.1902919,28.6851 19.9705328,28.6851" id="Fill-5" fill="#D541D8"></path>
            <path d="M48.9990827,0.1387 C53.069641,0.8507 56.165305,4.3877 56.165305,8.6537 C56.165305,13.0687 52.8506647,16.7047 48.5701292,17.2337 C64.8103669,17.8027 77.8489519,31.1557 77.8489519,47.4997 C77.8489519,42.7757 81.6865355,38.9467 86.4190219,38.9467 C91.1525082,38.9467 94.9900918,42.7757 94.9900918,47.4997 C94.9900918,21.8677 74.4933161,0.9367 48.9990827,0.1387" id="Fill-7" fill="#FBAB18"></path>
            <path d="M86.4193219,38.9468 C81.6868354,38.9468 77.8492519,42.7758 77.8492519,47.4998 C77.8492519,63.8438 64.8106668,77.1968 48.5694293,77.7658 C52.8499648,78.2958 56.1646051,81.9318 56.1646051,86.3468 C56.1646051,90.6128 53.068941,94.1498 48.9993826,94.8618 C74.4926162,94.0638 94.9893919,73.1328 94.9893919,47.4998 C94.9893919,42.7758 91.1518083,38.9468 86.4193219,38.9468" id="Fill-9" fill="#005073"></path>
            <path d="M25.3488492,26.814 C23.7770197,28.058 21.8752261,28.685 19.9704328,28.685 C17.7506737,28.685 15.5319145,27.84 13.8390982,26.15 C10.8544221,23.172 10.5044601,18.564 12.781213,15.198 C4.86007259,23.67 -0.000399956597,35.026 -0.000399956597,47.5 C-0.000399956597,59.974 4.86107248,71.331 12.7832128,79.804 C10.5044601,76.438 10.8534222,71.828 13.8390982,68.849 C16.9867566,65.709 21.9462184,65.492 25.3478493,68.185 C20.263401,62.766 17.1407399,55.492 17.1407399,47.5 C17.1407399,39.507 20.263401,32.233 25.3488492,26.814" id="Fill-11" fill="#FF3D67"></path>
            <path d="M47.494346,95 C34.7807256,95 22.8280227,90.059 13.8389982,81.087 C10.4533656,77.707 10.4533656,72.228 13.8389982,68.849 C17.2266306,65.469 22.7180347,65.471 26.1016675,68.849 C31.8160474,74.552 39.4132229,77.692 47.494346,77.692 C52.2838262,77.692 56.1644051,81.567 56.1644051,86.347 C56.1644051,91.125 52.2838262,95 47.494346,95" id="Fill-13" fill="#00BCEB"></path>
        </g>
    </g>
</svg>