<?xml version="1.0" encoding="utf-8"?>
<!-- Generator: Adobe Illustrator 26.5.0, SVG Export Plug-In . SVG Version: 6.00 Build 0)  -->
<svg version="1.1" id="Layer_1" xmlns="http://www.w3.org/2000/svg" xmlns:xlink="http://www.w3.org/1999/xlink" x="0px" y="0px"
	 viewBox="0 0 512 512" style="enable-background:new 0 0 512 512;" xml:space="preserve">
<style type="text/css">
	.st0{fill:#FFFFFF;}
</style>
<g>
	<g>
		<g>
			<path class="st0" d="M469.3,170.7h-5.9l-73.3-128c-5.7-9.9-14.8-17-25.8-19.9c-4.1-1.1-8.2-1.6-12.3-1.4
				c-6.9,0.2-13.6,2.2-19.8,5.7L21.1,208.2C7.5,216.1-0.1,230.5,0,245.3c0,7.2,1.9,14.4,5.7,21L64,368.2V448
				c0,23.5,19.1,42.7,42.7,42.7h362.7c23.5,0,42.7-19.1,42.7-42.7V213.3C512,189.8,492.9,170.7,469.3,170.7z M64,213.3v112
				l-39.8-69.6c-5.8-10.2-2.4-23.3,7.7-29.1l32.7-19C64.3,209.5,64,211.4,64,213.3z M343,45.5c4.8-2.8,10.5-3.6,15.9-2.1
				c5.4,1.5,10,5,12.8,9.9l67.2,117.4H128L343,45.5z M490.7,448c0,11.8-9.6,21.3-21.3,21.3H106.7c-11.8,0-21.3-9.6-21.3-21.3V213.3
				c0-11.8,9.6-21.3,21.3-21.3h362.7c11.8,0,21.3,9.6,21.3,21.3V448z"/>
			<path class="st0" d="M458.7,362.7h-128c-5.9,0-10.7,4.8-10.7,10.7s4.8,10.7,10.7,10.7h128c5.9,0,10.7-4.8,10.7-10.7
				C469.3,367.4,464.6,362.7,458.7,362.7z"/>
			<path class="st0" d="M458.7,298.7H288c-5.9,0-10.7,4.8-10.7,10.7S282.1,320,288,320h170.7c5.9,0,10.7-4.8,10.7-10.7
				C469.3,303.4,464.6,298.7,458.7,298.7z"/>
			<path class="st0" d="M192,341.3c23.5,0,42.7-19.1,42.7-42.7S215.5,256,192,256s-42.7,19.1-42.7,42.7S168.5,341.3,192,341.3z
				 M192,277.3c11.8,0,21.3,9.6,21.3,21.3S203.8,320,192,320c-11.8,0-21.3-9.6-21.3-21.3C170.7,286.9,180.2,277.3,192,277.3z"/>
			<path class="st0" d="M255.7,367.7c-14.9-7.2-38.1-15.7-63.7-15.7s-48.8,8.6-63.7,15.7c-13.3,6.4-21.6,19.2-21.6,33.4v4.9
				c0,11.4,9.6,20.7,21.3,20.7h128c11.8,0,21.3-9.3,21.3-20.7v-4.9C277.3,386.9,269.1,374.1,255.7,367.7z M256,405.3L128,406v-4.9
				c0-5.9,3.6-11.4,9.5-14.2c12.9-6.2,32.8-13.6,54.5-13.6s41.6,7.4,54.5,13.6c5.9,2.8,9.5,8.3,9.5,14.2V405.3z"/>
		</g>
	</g>
</g>
</svg>
