<svg xmlns="http://www.w3.org/2000/svg" viewBox="0 0 263.49 487.24"><path d="M389.79,413.92l-37.84-63L325.32,425.4l-52.71,80.26C264,520.25,254,529.47,239.8,525.5s-24-19.68-17.48-33.74l53.84-89.25,23.46-85.57c1.39-7.87-3.51-20.53-3.51-20.53-4.62-17.61-1.48-28.08-1.48-28.08l13.94-80.08-34.65,30.09-14.25,60.77c-2.23,12.72-9.11,22.19-20.91,22.3S217.28,291,218.35,280l18.32-75.49c2.26-14.78,10.64-19.69,10.64-19.69l75.84-54.37C367.26,113.51,396,144.08,396,144.08l36.84,73.63,41.61,31.76c8.93,9.62,10.08,23.1,1.32,31.29-7.52,7-21.92,2.28-29.09-5.13l-36.14-27.54c-7.13-4.28-23.52-38.37-23.52-38.37l-11.08,72.12a18.38,18.38,0,0,0,2.67,14.57l56.82,91.06,15.85,104.45c3.72,17.13-3.88,29.42-17.08,32.83-13.91,3.6-26.91-4.75-30.33-18.45Z" transform="translate(-218.27 -39.19)" style="fill:#fff"/><path d="M423.13,73.25C427.24,95.66,413.05,117,391.45,121S349,110,344.9,87.57,355,43.77,376.59,39.82s42.44,11,46.54,33.43" transform="translate(-218.27 -39.19)" style="fill:#fff"/></svg>