<?xml version="1.0" encoding="UTF-8"?>
<svg width="147px" height="142px" viewBox="0 0 147 142" version="1.1" xmlns="http://www.w3.org/2000/svg" xmlns:xlink="http://www.w3.org/1999/xlink">
    <!-- Generator: Sketch 50 (54983) - http://www.bohemiancoding.com/sketch -->
    <title>webex-meetings/color/meetings-with-label-color</title>
    <desc>Created with Sketch.</desc>
    <defs></defs>
    <g id="webex-meetings/color/meetings-with-label-color" stroke="none" stroke-width="1" fill="none" fill-rule="evenodd">
        <g>
            <path d="M108.9844,48 C108.9844,67.33 93.3144,83 73.9844,83 C54.6544,83 38.9844,67.33 38.9844,48 C38.9844,28.67 54.6544,13 73.9844,13 C93.3144,13 108.9844,28.67 108.9844,48" id="Fill-1" fill="#FFFFFF"></path>
            <path d="M100.9941,19.7627 C97.7711,16.4987 94.1121,13.9297 90.2061,12.0417 C97.2411,26.5917 94.7331,44.5967 82.6631,56.6697 C70.5951,68.7407 52.5981,71.2507 38.0541,64.2197 C39.8741,67.9857 42.3251,71.5257 45.4291,74.6677 L45.7651,75.0057 C61.0161,90.2607 85.7431,90.2607 100.9941,75.0057 C116.2461,59.7507 116.2461,35.0177 100.9941,19.7627" id="Fill-3" fill="#6EBE4A"></path>
            <path d="M45.9624,83.6152 C43.7684,83.6152 41.5744,82.7772 39.9004,81.1032 C30.9264,72.1272 25.9844,60.1932 25.9844,47.5002 C25.9844,34.8062 30.9264,22.8722 39.9004,13.8962 C58.4234,-4.6318 88.5664,-4.6328 107.0904,13.8972 C110.4384,17.2462 110.4384,22.6752 107.0904,26.0242 C103.7424,29.3732 98.3144,29.3732 94.9654,26.0242 C83.1274,14.1822 63.8634,14.1832 52.0244,26.0242 C46.2894,31.7612 43.1304,39.3872 43.1304,47.5002 C43.1304,55.6132 46.2894,63.2392 52.0244,68.9752 C55.3724,72.3242 55.3724,77.7542 52.0244,81.1032 C50.3504,82.7772 48.1564,83.6152 45.9624,83.6152" id="Fill-5" fill="#00BCEB"></path>
            <path d="M73.4951,95 C61.3291,95 49.1621,90.367 39.9001,81.104 C36.5521,77.755 36.5521,72.324 39.9001,68.976 C43.2481,65.628 48.6761,65.628 52.0241,68.976 C63.8641,80.819 83.1281,80.819 94.9661,68.976 C106.8061,57.134 106.8061,37.866 94.9661,26.024 C91.6181,22.675 91.6181,17.246 94.9661,13.897 C98.3141,10.548 103.7421,10.548 107.0911,13.897 C125.6151,32.426 125.6151,62.574 107.0911,81.104 C97.8281,90.367 85.6621,95 73.4951,95" id="Fill-7" fill="#005073"></path>
            <polygon id="Fill-9" fill="#231F20" points="18.46 124.2207 14.851 137.9007 12.608 137.9007 9.511 126.3107 6.319 137.9007 3.944 137.9007 0.354 124.2207 2.329 124.2207 5.236 135.6017 8.371 124.2207 10.784 124.2207 13.749 135.5637 16.675 124.2207"></polygon>
            <path d="M23.5332,129.1982 C22.7992,129.1982 22.1752,129.4242 21.6612,129.8732 C21.1492,130.3222 20.8232,131.0042 20.6832,131.9162 L26.2692,131.9162 C26.2062,130.9902 25.9252,130.3062 25.4242,129.8632 C24.9232,129.4202 24.2942,129.1982 23.5332,129.1982 Z M28.0172,135.0512 C27.8902,135.5062 27.7002,135.9242 27.4472,136.3042 C27.1942,136.6842 26.8802,137.0132 26.5072,137.2932 C26.1342,137.5712 25.7022,137.7892 25.2152,137.9472 C24.7272,138.1052 24.1852,138.1852 23.5912,138.1852 C22.8812,138.1852 22.2312,138.0782 21.6432,137.8622 C21.0542,137.6462 20.5442,137.3202 20.1132,136.8842 C19.6822,136.4472 19.3462,135.9022 19.1062,135.2502 C18.8662,134.5972 18.7452,133.8342 18.7452,132.9612 C18.7452,132.0992 18.8662,131.3422 19.1062,130.6892 C19.3462,130.0372 19.6772,129.4922 20.0952,129.0552 C20.5122,128.6192 21.0122,128.2892 21.5952,128.0682 C22.1782,127.8452 22.8112,127.7352 23.4952,127.7352 C24.1792,127.7352 24.8052,127.8402 25.3762,128.0492 C25.9462,128.2582 26.4332,128.5902 26.8392,129.0472 C27.2452,129.5022 27.5612,130.0852 27.7902,130.7952 C28.0172,131.5042 28.1322,132.3592 28.1322,133.3592 L20.6072,133.3592 C20.6832,134.5002 21.0032,135.3322 21.5672,135.8572 C22.1302,136.3842 22.8232,136.6462 23.6472,136.6462 C24.2552,136.6462 24.7712,136.4942 25.1962,136.1902 C25.6202,135.8862 25.9012,135.5062 26.0422,135.0512 L28.0172,135.0512 Z" id="Fill-11" fill="#231F20"></path>
            <path d="M37.8018,132.8457 C37.8018,132.2387 37.7298,131.7127 37.5828,131.2697 C37.4388,130.8257 37.2358,130.4547 36.9758,130.1577 C36.7158,129.8607 36.4108,129.6427 36.0638,129.5017 C35.7148,129.3637 35.3388,129.2927 34.9328,129.2927 C34.5278,129.2927 34.1448,129.3687 33.7838,129.5217 C33.4228,129.6737 33.1068,129.8947 32.8328,130.1867 C32.5618,130.4787 32.3458,130.8487 32.1878,131.2977 C32.0298,131.7477 31.9498,132.2637 31.9498,132.8457 C31.9498,134.0497 32.2218,134.9807 32.7668,135.6387 C33.3118,136.2987 34.0338,136.6267 34.9328,136.6267 C35.7938,136.6267 36.4878,136.3237 37.0138,135.7147 C37.5388,135.1077 37.8018,134.1517 37.8018,132.8457 Z M30.2218,137.9007 L30.2218,124.2207 L32.0448,124.2207 L32.0448,129.3887 C32.3738,128.9077 32.8148,128.5117 33.3658,128.2007 C33.9168,127.8907 34.5778,127.7357 35.3508,127.7357 C35.9968,127.7357 36.5888,127.8497 37.1278,128.0767 C37.6658,128.3047 38.1248,128.6377 38.5048,129.0747 C38.8858,129.5117 39.1798,130.0507 39.3888,130.6897 C39.5978,131.3297 39.7018,132.0607 39.7018,132.8847 C39.7018,133.7457 39.5908,134.5057 39.3698,135.1637 C39.1478,135.8237 38.8368,136.3737 38.4388,136.8177 C38.0398,137.2607 37.5648,137.5997 37.0138,137.8337 C36.4618,138.0687 35.8648,138.1857 35.2178,138.1857 C34.4578,138.1857 33.8158,138.0357 33.2898,137.7387 C32.7638,137.4417 32.3368,137.0587 32.0068,136.5897 L31.7218,137.9007 L30.2218,137.9007 Z" id="Fill-13" fill="#231F20"></path>
            <path d="M45.915,129.1982 C45.181,129.1982 44.557,129.4242 44.044,129.8732 C43.53,130.3222 43.204,131.0042 43.065,131.9162 L48.651,131.9162 C48.588,130.9902 48.306,130.3062 47.806,129.8632 C47.306,129.4202 46.675,129.1982 45.915,129.1982 Z M50.399,135.0512 C50.272,135.5062 50.083,135.9242 49.829,136.3042 C49.575,136.6842 49.263,137.0132 48.889,137.2932 C48.515,137.5712 48.084,137.7892 47.597,137.9472 C47.108,138.1052 46.567,138.1852 45.972,138.1852 C45.263,138.1852 44.614,138.0782 44.024,137.8622 C43.436,137.6462 42.926,137.3202 42.495,136.8842 C42.064,136.4472 41.728,135.9022 41.488,135.2502 C41.247,134.5972 41.127,133.8342 41.127,132.9612 C41.127,132.0992 41.247,131.3422 41.488,130.6892 C41.728,130.0372 42.058,129.4922 42.476,129.0552 C42.894,128.6192 43.394,128.2892 43.978,128.0682 C44.56,127.8452 45.193,127.7352 45.877,127.7352 C46.561,127.7352 47.188,127.8402 47.759,128.0492 C48.328,128.2582 48.815,128.5902 49.222,129.0472 C49.626,129.5022 49.943,130.0852 50.171,130.7952 C50.399,131.5042 50.513,132.3592 50.513,133.3592 L42.989,133.3592 C43.065,134.5002 43.385,135.3322 43.948,135.8572 C44.513,136.3842 45.206,136.6462 46.029,136.6462 C46.638,136.6462 47.153,136.4942 47.577,136.1902 C48.002,135.8862 48.284,135.5062 48.423,135.0512 L50.399,135.0512 Z" id="Fill-15" fill="#231F20"></path>
            <polygon id="Fill-17" fill="#231F20" points="57.2578 132.6367 61.1338 137.9007 58.9108 137.9007 56.2318 134.0817 53.6108 137.9007 51.4628 137.9007 55.1498 132.7707 51.6908 128.0207 53.8758 128.0207 56.2318 131.3457 58.4738 128.0207 60.5638 128.0207"></polygon>
            <polygon id="Fill-19" fill="#231F20" points="74.3574 137.9004 70.1394 127.1844 70.1394 137.9004 68.2584 137.9004 68.2584 124.2204 70.9564 124.2204 75.3074 135.6214 79.4114 124.2204 81.9584 124.2204 81.9584 137.9004 80.1334 137.9004 80.1334 127.2794 76.1814 137.9004"></polygon>
            <path d="M88.835,129.1982 C88.101,129.1982 87.478,129.4242 86.964,129.8732 C86.451,130.3222 86.125,131.0042 85.985,131.9162 L91.571,131.9162 C91.509,130.9902 91.227,130.3062 90.726,129.8632 C90.226,129.4202 89.596,129.1982 88.835,129.1982 Z M93.319,135.0512 C93.192,135.5062 93.003,135.9242 92.749,136.3042 C92.496,136.6842 92.183,137.0132 91.81,137.2932 C91.436,137.5712 91.005,137.7892 90.517,137.9472 C90.029,138.1052 89.487,138.1852 88.893,138.1852 C88.183,138.1852 87.534,138.0782 86.945,137.8622 C86.356,137.6462 85.847,137.3202 85.415,136.8842 C84.985,136.4472 84.649,135.9022 84.409,135.2502 C84.168,134.5972 84.048,133.8342 84.048,132.9612 C84.048,132.0992 84.168,131.3422 84.409,130.6892 C84.649,130.0372 84.979,129.4922 85.397,129.0552 C85.814,128.6192 86.315,128.2892 86.898,128.0682 C87.48,127.8452 88.114,127.7352 88.798,127.7352 C89.481,127.7352 90.108,127.8402 90.679,128.0492 C91.249,128.2582 91.735,128.5902 92.142,129.0472 C92.547,129.5022 92.864,130.0852 93.092,130.7952 C93.319,131.5042 93.434,132.3592 93.434,133.3592 L85.909,133.3592 C85.985,134.5002 86.306,135.3322 86.869,135.8572 C87.433,136.3842 88.126,136.6462 88.95,136.6462 C89.558,136.6462 90.073,136.4942 90.498,136.1902 C90.923,135.8862 91.204,135.5062 91.344,135.0512 L93.319,135.0512 Z" id="Fill-21" fill="#231F20"></path>
            <path d="M99.7412,129.1982 C99.0072,129.1982 98.3832,129.4242 97.8702,129.8732 C97.3562,130.3222 97.0302,131.0042 96.8912,131.9162 L102.4772,131.9162 C102.4142,130.9902 102.1322,130.3062 101.6322,129.8632 C101.1322,129.4202 100.5012,129.1982 99.7412,129.1982 Z M104.2252,135.0512 C104.0982,135.5062 103.9092,135.9242 103.6552,136.3042 C103.4012,136.6842 103.0892,137.0132 102.7152,137.2932 C102.3412,137.5712 101.9102,137.7892 101.4232,137.9472 C100.9342,138.1052 100.3932,138.1852 99.7982,138.1852 C99.0892,138.1852 98.4402,138.0782 97.8502,137.8622 C97.2622,137.6462 96.7522,137.3202 96.3212,136.8842 C95.8902,136.4472 95.5542,135.9022 95.3142,135.2502 C95.0732,134.5972 94.9532,133.8342 94.9532,132.9612 C94.9532,132.0992 95.0732,131.3422 95.3142,130.6892 C95.5542,130.0372 95.8842,129.4922 96.3022,129.0552 C96.7202,128.6192 97.2202,128.2892 97.8042,128.0682 C98.3862,127.8452 99.0192,127.7352 99.7032,127.7352 C100.3872,127.7352 101.0142,127.8402 101.5852,128.0492 C102.1542,128.2582 102.6412,128.5902 103.0482,129.0472 C103.4522,129.5022 103.7692,130.0852 103.9972,130.7952 C104.2252,131.5042 104.3392,132.3592 104.3392,133.3592 L96.8152,133.3592 C96.8912,134.5002 97.2112,135.3322 97.7742,135.8572 C98.3392,136.3842 99.0322,136.6462 99.8552,136.6462 C100.4642,136.6462 100.9792,136.4942 101.4032,136.1902 C101.8282,135.8862 102.1102,135.5062 102.2492,135.0512 L104.2252,135.0512 Z" id="Fill-23" fill="#231F20"></path>
            <path d="M110.8369,137.9961 C110.3679,138.1221 109.9189,138.1851 109.4879,138.1851 C108.6139,138.1851 107.9559,137.9351 107.5129,137.4351 C107.0679,136.9341 106.8469,136.2731 106.8469,135.4491 L106.8469,129.5781 L105.3839,129.5781 L105.3839,128.0201 L106.8469,128.0201 L106.9609,125.6451 L108.6709,125.6451 L108.6709,128.0201 L110.7999,128.0201 L110.7999,129.5781 L108.6709,129.5781 L108.6709,135.4871 C108.6709,136.2231 109.0199,136.5901 109.7159,136.5901 C109.8799,136.5901 110.0389,136.5801 110.1909,136.5601 C110.3429,136.5421 110.5589,136.5011 110.8369,136.4371 L110.8369,137.9961 Z" id="Fill-25" fill="#231F20"></path>
            <path d="M112.452,137.901 L114.276,137.901 L114.276,128.021 L112.452,128.021 L112.452,137.901 Z M112.338,126.367 L114.39,126.367 L114.39,124.221 L112.338,124.221 L112.338,126.367 Z" id="Fill-27" fill="#231F20"></path>
            <path d="M116.8408,137.9004 L116.8408,128.0204 L118.3418,128.0204 L118.5508,129.2744 C118.9178,128.7674 119.3618,128.3844 119.8808,128.1254 C120.3998,127.8654 120.9568,127.7354 121.5528,127.7354 C122.6298,127.7354 123.4818,128.0524 124.1088,128.6854 C124.7358,129.3184 125.0488,130.2434 125.0488,131.4594 L125.0488,137.9004 L123.2248,137.9004 L123.2248,131.4784 C123.2248,130.7304 123.0438,130.1794 122.6828,129.8254 C122.3218,129.4704 121.7998,129.2934 121.1158,129.2934 C120.7858,129.2934 120.4728,129.3504 120.1748,129.4644 C119.8778,129.5784 119.6178,129.7434 119.3968,129.9594 C119.1748,130.1734 118.9968,130.4364 118.8638,130.7474 C118.7318,131.0574 118.6648,131.4084 118.6648,131.8004 L118.6648,137.9004 L116.8408,137.9004 Z" id="Fill-29" fill="#231F20"></path>
            <path d="M128.8486,132.7705 C128.8486,133.2905 128.9246,133.7555 129.0776,134.1665 C129.2286,134.5785 129.4346,134.9235 129.6946,135.2025 C129.9536,135.4805 130.2566,135.6935 130.6066,135.8385 C130.9536,135.9845 131.3256,136.0575 131.7176,136.0575 C132.6666,136.0575 133.4016,135.7695 133.9206,135.1935 C134.4406,134.6175 134.7006,133.8285 134.7006,132.8275 C134.7006,131.6625 134.4246,130.7815 133.8736,130.1865 C133.3236,129.5915 132.6046,129.2925 131.7176,129.2925 C130.8816,129.2925 130.1946,129.5785 129.6556,130.1485 C129.1186,130.7185 128.8486,131.5915 128.8486,132.7705 Z M129.3616,138.5655 C129.4506,139.0595 129.7006,139.4495 130.1126,139.7345 C130.5236,140.0195 131.0906,140.1625 131.8126,140.1625 C132.7376,140.1625 133.4336,139.9395 133.9026,139.4965 C134.3706,139.0525 134.6056,138.4195 134.6056,137.5955 L134.6056,136.3235 C134.2766,136.7165 133.8356,137.0295 133.2856,137.2635 C132.7336,137.4985 132.0786,137.6155 131.3186,137.6155 C130.7356,137.6155 130.1816,137.5075 129.6556,137.2925 C129.1296,137.0775 128.6676,136.7635 128.2686,136.3515 C127.8696,135.9405 127.5496,135.4295 127.3096,134.8225 C127.0696,134.2145 126.9486,133.5175 126.9486,132.7325 C126.9486,131.9595 127.0556,131.2635 127.2716,130.6425 C127.4876,130.0215 127.7896,129.4965 128.1836,129.0655 C128.5766,128.6345 129.0476,128.3045 129.5986,128.0775 C130.1496,127.8495 130.7606,127.7355 131.4326,127.7355 C132.2046,127.7355 132.8546,127.8845 133.3796,128.1815 C133.9056,128.4795 134.3276,128.8635 134.6436,129.3325 L134.9286,128.0205 L136.4296,128.0205 L136.4296,137.6915 C136.4296,138.2485 136.3276,138.7675 136.1256,139.2495 C135.9226,139.7305 135.6276,140.1455 135.2426,140.4945 C134.8556,140.8415 134.3796,141.1145 133.8176,141.3105 C133.2526,141.5075 132.6046,141.6055 131.8696,141.6055 C130.5396,141.6055 129.5036,141.3305 128.7626,140.7795 C128.0226,140.2285 127.5696,139.4905 127.4046,138.5655 L129.3616,138.5655 Z" id="Fill-30" fill="#231F20"></path>
            <path d="M144.7705,135.2207 C144.7705,134.9297 144.7045,134.6897 144.5715,134.4997 C144.4385,134.3097 144.2485,134.1517 144.0005,134.0247 C143.7535,133.8987 143.4535,133.7867 143.0985,133.6917 C142.7435,133.5967 142.3445,133.4987 141.9015,133.3977 C140.7355,133.1447 139.9035,132.7887 139.4035,132.3337 C138.9025,131.8767 138.6525,131.2827 138.6525,130.5467 C138.6525,129.6997 138.9785,129.0177 139.6305,128.5047 C140.2835,127.9917 141.2365,127.7357 142.4915,127.7357 C143.6045,127.7357 144.5165,127.9887 145.2265,128.4957 C145.9355,129.0017 146.3725,129.7107 146.5385,130.6227 L144.6755,130.6227 C144.5745,130.1677 144.3395,129.8127 143.9725,129.5597 C143.6045,129.3067 143.1045,129.1797 142.4715,129.1797 C141.7885,129.1797 141.2875,129.2927 140.9705,129.5217 C140.6535,129.7497 140.4955,130.0337 140.4955,130.3767 C140.4955,130.5667 140.5265,130.7347 140.5905,130.8797 C140.6535,131.0257 140.7675,131.1557 140.9325,131.2697 C141.0965,131.3827 141.3285,131.4917 141.6255,131.5917 C141.9225,131.6937 142.3135,131.7947 142.7935,131.8967 C143.3645,132.0237 143.8875,132.1657 144.3625,132.3247 C144.8365,132.4827 145.2395,132.6817 145.5685,132.9217 C145.8975,133.1627 146.1545,133.4567 146.3375,133.8057 C146.5215,134.1547 146.6145,134.5817 146.6145,135.0877 C146.6145,135.5447 146.5215,135.9587 146.3375,136.3327 C146.1545,136.7067 145.8855,137.0327 145.5305,137.3117 C145.1755,137.5897 144.7455,137.8047 144.2395,137.9567 C143.7315,138.1097 143.1495,138.1857 142.4915,138.1857 C141.2495,138.1857 140.2505,137.9037 139.4985,137.3397 C138.7445,136.7767 138.3235,136.0197 138.2345,135.0697 L140.0965,135.0697 C140.1985,135.6647 140.4515,136.0917 140.8565,136.3517 C141.2615,136.6117 141.8135,136.7417 142.5095,136.7417 C143.2565,136.7417 143.8205,136.5957 144.2005,136.3047 C144.5815,136.0137 144.7705,135.6527 144.7705,135.2207" id="Fill-31" fill="#231F20"></path>
        </g>
    </g>
</svg>