<?xml version="1.0" encoding="utf-8"?>
<!-- Generator: Adobe Illustrator 24.1.0, SVG Export Plug-In . SVG Version: 6.00 Build 0)  -->
<svg version="1.1" id="Capa_1" xmlns="http://www.w3.org/2000/svg" xmlns:xlink="http://www.w3.org/1999/xlink" x="0px" y="0px"
	 viewBox="0 0 332.8 332.8" style="enable-background:new 0 0 332.8 332.8;" xml:space="preserve">
<style type="text/css">
	.st0{fill:#FFFFFF;}
</style>
<g>
	<g>
		<g>
			<path class="st0" d="M330.8,171c-3.6-6.4-12-8.8-18.8-4.8l-45.6,26.4l-11.6,6.8v63.2l10.8,6.4c0.4,0,0.4,0.4,0.8,0.4l44.8,26
				c2,1.6,4.8,2.4,7.6,2.4c7.6,0,13.6-6,13.6-13.6v-53.6l0.4-52.8C332.8,175.4,332.4,173,330.8,171z"/>
			<path class="st0" d="M193.2,150.6c35.6,0,64.4-28.8,64.4-64.4s-28.8-64.4-64.4-64.4s-64.4,28.8-64.4,64.4
				C128.8,121.8,157.6,150.6,193.2,150.6z M193.2,59.8c14.8,0,26.4,12,26.4,26.4c0,14.8-12,26.4-26.4,26.4s-26.4-12-26.4-26.4
				C166.8,71.4,178.4,59.8,193.2,59.8z"/>
		</g>
	</g>
</g>
<g>
	<g>
	</g>
</g>
<rect x="134.8" y="-45.3" transform="matrix(-0.7402 0.6723 -0.6723 -0.7402 376.0669 224.8258)" class="st0" width="19.6" height="460.7"/>
<path class="st0" d="M90.6,83.3c-0.2-2.2-1.3-8.9-6.7-14.9c-5.4-5.9-11.9-7.6-14.1-8.1C59.7,49.2,49.5,38,39.4,26.8
	c24.3-9.8,52-4.4,70.2,13.6c19.9,19.7,24.7,50.8,11.5,76.4C110.9,105.6,100.8,94.5,90.6,83.3z"/>
<path class="st0" d="M10.1,51.6c9.4,10.2,18.8,20.4,28.2,30.6c-0.2,1.8-1.4,11.7,5.5,20.5c8.2,10.3,20.7,10.2,22.1,10.1
	c9.2,10.3,18.5,20.6,27.7,30.8c-4.8,2.3-24.6,11.2-48.3,4.1c-6-1.8-20.7-7.3-32.1-22C-0.3,108.1-0.2,89.1,0.1,83.4
	C0.8,68,6.8,56.8,10.1,51.6z"/>
<g>
	<path class="st0" d="M243.4,178.2c0.1,24.5,0.2,49,0.2,73.5c-30.7-33.8-61.3-67.7-92-101.5c5.9,3.9,20.9,12.4,41.6,12.4
		c16,0,28.2-5.2,34.4-8.4c2.5,1.5,7,4.6,10.7,10.3C242,170,243,175.4,243.4,178.2z"/>
	<g>
		<path class="st0" d="M211.2,311C150.8,258.7,90.4,206.5,30,154.2c6.1,3.1,18.2,8.4,34.4,8.4c18.1,0,31.5-6.5,37.5-9.9
			c44.5,49,89.1,98.1,133.6,147.1c-1.8,2.1-5.3,5.5-10.6,8.1C219.2,310.6,214,311,211.2,311z"/>
		<path class="st0" d="M46.8,311C36,267.7,25.2,224.3,14.4,181c0.1-3.2,0.7-11.3,6.5-18.8c3.1-4.1,6.7-6.6,9.1-8
			C90.4,206.5,150.8,258.7,211.2,311C156.4,311,101.6,311,46.8,311z"/>
		<path class="st0" d="M14.4,278.6L14.4,278.6c0-32.5,0-65.1,0-97.6c10.8,43.3,21.6,86.7,32.4,130c-2.6,0-12.7-0.4-21.5-8.1
			C14.7,293.5,14.4,280.7,14.4,278.6z"/>
	</g>
</g>
</svg>
