<?xml version="1.0" encoding="utf-8"?>
<!-- Generator: Adobe Illustrator 24.1.0, SVG Export Plug-In . SVG Version: 6.00 Build 0)  -->
<svg version="1.1" id="Capa_1" xmlns="http://www.w3.org/2000/svg" xmlns:xlink="http://www.w3.org/1999/xlink" x="0px" y="0px"
	 viewBox="0 0 512 512" style="enable-background:new 0 0 512 512;" xml:space="preserve">
<style type="text/css">
	.st0{fill:#FFFFFF;}
</style>
<g>
	<g>
		<path class="st0" d="M431.7,239.9c0-8.3-6.7-15-15-15c-8.3,0-15,6.7-15,15c0,80.3-65.3,145.7-145.7,145.7s-145.7-65.3-145.7-145.7
			c0-8.3-6.7-15-15-15c-8.3,0-15,6.7-15,15c0,91.8,70.8,167.4,160.7,175v67h-33.2c-8.3,0-15,6.7-15,15s6.7,15,15,15h96.4
			c8.3,0,15-6.7,15-15s-6.7-15-15-15H271v-67C360.9,407.3,431.7,331.7,431.7,239.9z"/>
	</g>
</g>
<g>
	<g>
		<path class="st0" d="M256,0c-43.7,0-79.3,35.6-79.3,79.3v160.7c0,43.7,35.6,79.3,79.3,79.3c43.7,0,79.3-35.6,79.3-79.3V79.3
			C335.3,35.6,299.7,0,256,0z"/>
	</g>
</g>
</svg>
