<?xml version="1.0" encoding="utf-8"?>
<!-- Generator: Adobe Illustrator 24.3.0, SVG Export Plug-In . SVG Version: 6.00 Build 0)  -->
<svg version="1.1" id="Capa_1" xmlns="http://www.w3.org/2000/svg" xmlns:xlink="http://www.w3.org/1999/xlink" x="0px" y="0px"
	 viewBox="0 0 469.3 469.3" style="enable-background:new 0 0 469.3 469.3;" xml:space="preserve">
<style type="text/css">
	.st0{fill:#FFFFFF;}
	.st1{opacity:0.9;fill:#FFFFFF;stroke:#FFFFFF;stroke-width:15;stroke-miterlimit:10;enable-background:new    ;}
</style>
<g>
	<g>
		<path class="st0" d="M426.7,21.3h-384C19.1,21.3,0,40.4,0,64v256c0,23.6,19.1,42.7,42.7,42.7H192v42.7h-42.7V448H320v-42.7h-42.7
			v-42.7h149.3c23.6,0,42.7-19.1,42.7-42.7V64C469.3,40.4,450.2,21.3,426.7,21.3z M426.7,320h-384V64h384V320z"/>
	</g>
</g>
<g>
	<g>
		<path class="st0" d="M267.2,127.2V86.3c0-4.5,3.6-8.1,8.1-8.1c2.3,0,4.5,1,6,2.7l73.2,81.3c2.7,3,2.8,7.5,0.3,10.6l-73.2,89.5
			c-2.8,3.5-8,4-11.4,1.1c-1.9-1.5-3-3.8-3-6.3v-40.5c-64.3,2.1-104.4,29.6-122.4,83.8c-1.1,3.3-4.2,5.6-7.7,5.6
			c-0.4,0-0.9,0-1.3-0.1c-3.9-0.6-6.8-4-6.8-8C128.9,202,186.6,131.6,267.2,127.2z M275.3,200.1c4.5,0,8.1,3.6,8.1,8.1v26l54.4-66.4
			l-54.4-60.4V135c0,4.5-3.6,8.1-8.1,8.1c-63.9,0-111.8,44.2-125.9,111.7C175.6,218.5,217.8,200.1,275.3,200.1z"/>
	</g>
</g>
<path class="st1" d="M13.4,42.7C153.6,142.3,293.8,241.9,434,341.5"/>
</svg>
