<?xml version="1.0" encoding="utf-8"?>
<!-- Generator: Adobe Illustrator 24.1.3, SVG Export Plug-In . SVG Version: 6.00 Build 0)  -->
<svg version="1.1" id="Layer_1" xmlns="http://www.w3.org/2000/svg" xmlns:xlink="http://www.w3.org/1999/xlink" x="0px" y="0px"
	 viewBox="0 0 512 480" style="enable-background:new 0 0 512 480;" xml:space="preserve">
<style type="text/css">
	.st0{fill:#FFFFFF;}
</style>
<path class="st0" d="M466,0H46C20.6,0,0,20.6,0,46v292c0,25.4,20.6,46,46,46h162v64h-64c-8.8,0-16,7.2-16,16s7.2,16,16,16h224
	c8.8,0,16-7.2,16-16s-7.2-16-16-16h-64v-64h162c25.4,0,46-20.6,46-46V46C512,20.6,491.4,0,466,0z M232,264c0-13.3,10.7-24,24-24
	c13.3,0,24,10.7,24,24s-10.7,24-24,24C242.7,288,232,277.3,232,264z M272,448h-32v-64h32V448z M312.6,214.1
	c-6.2,6.2-16.4,6.2-22.6,0c-18.7-18.8-49.1-18.8-67.9,0c0,0,0,0,0,0c-6.4,6.1-16.5,5.8-22.6-0.6c-5.9-6.2-5.9-15.9,0-22
	c31.2-31.2,81.9-31.2,113.1,0c0,0,0,0,0,0C318.8,197.7,318.8,207.8,312.6,214.1z M352.2,174.5c-6.2,6.2-16.4,6.3-22.6,0c0,0,0,0,0,0
	c-40.6-40.6-106.4-40.6-147.1,0c-6.2,6.3-16.4,6.3-22.6,0c-6.3-6.2-6.3-16.4,0-22.6c53.1-53.1,139.2-53.1,192.3,0c0,0,0,0,0,0
	C358.4,158.1,358.4,168.2,352.2,174.5C352.2,174.5,352.2,174.5,352.2,174.5L352.2,174.5z"/>
</svg>
