<svg id="Capa_1" data-name="Capa 1" xmlns="http://www.w3.org/2000/svg" viewBox="0 0 512 377.87"><defs><style>.cls-1{fill:#ffda01;}</style></defs><path class="cls-1" d="M494.6,67.07H17.4A17.4,17.4,0,0,0,0,84.46V343.84a17.4,17.4,0,0,0,17.4,17.39H494.6A17.4,17.4,0,0,0,512,343.84V84.46a17.4,17.4,0,0,0-17.4-17.39Z" transform="translate(0 -67.07)"/><path class="cls-1" d="M355.42,414.75H296.35V391.42h-80.7v23.33H156.58a15.1,15.1,0,1,0,0,30.19H355.42a15.1,15.1,0,1,0,0-30.19Z" transform="translate(0 -67.07)"/></svg>