<?xml version="1.0" encoding="utf-8"?>
<!-- Generator: Adobe Illustrator 24.1.3, SVG Export Plug-In . SVG Version: 6.00 Build 0)  -->
<svg version="1.1" id="Layer_1" xmlns="http://www.w3.org/2000/svg" xmlns:xlink="http://www.w3.org/1999/xlink" x="0px" y="0px"
	 viewBox="0 0 512 480" style="enable-background:new 0 0 512 480;" xml:space="preserve">
<style type="text/css">
	.st0{fill:#FFFFFF;}
</style>
<g>
	<path class="st0" d="M411.1,384.2c-12.2,0-24.3,0-36.5,0C259.6,257.6,144.5,130.9,29.5,4.3c11.4-0.8,22.9-1.6,34.3-2.4
		C179.6,129.3,295.3,256.8,411.1,384.2z"/>
	<g>
		<path class="st0" d="M352,152.5c-8.8-8.7-34.2-31.6-74.5-38.1c-32.3-5.2-58.1,2.7-70,7.3C170.9,81.5,134.3,41.3,97.8,1
			C220.4,1,343,1,465.6,1C427.7,51.5,389.8,102,352,152.5z"/>
		<path class="st0" d="M511.5,338.3c0,4.7-0.8,12.2-4.7,20.2c-1.2,2.4-3.4,6.3-7.1,10.5c-4,4.4-7.9,7.1-10.2,8.5
			c-5.6,3.5-10.7,4.9-13.5,5.6c-3.8,0.9-6.7,1-10.2,1.2c-3.6,0.2-5.3,0-13.1,0c-3,0-5.4,0-7,0C414.5,307,383.2,229.8,352,152.5
			C402.9,62.7,448.7,1,465.6,1c7.5,0,14.3,2.3,14.3,2.3c14.5,4.8,22.3,15.8,23.6,17.8c7.4,10.8,8,21.7,8,25.9
			C511.5,144.1,511.5,241.2,511.5,338.3z"/>
		<path class="st0" d="M312.5,192c-5.2-5.2-15.6-14.1-31.4-19.4c-12.8-4.2-24-4.3-30.9-3.8c-6.2-7.1-12.4-14.2-18.6-21.3
			c10.3-2.4,36.5-6.8,65.1,5.3c15.3,6.5,26.1,15.5,32.7,22.2C323.7,180.8,318.1,186.4,312.5,192z"/>
		<path class="st0" d="M329.4,175.1c38.8,69.7,77.6,139.4,116.4,209.1c-50.3-55.4-100.6-110.8-151-166.2c6.9,2.9,14.9,0.7,19.2-5.2
			c4.6-6.2,4-15.1-1.6-20.8C318.1,186.4,323.7,180.8,329.4,175.1z"/>
		<path class="st0" d="M445.8,384.2L445.8,384.2c-38.8-69.7-77.6-139.4-116.4-209.1c5.3,4.9,12.9,6,18.9,2.7
			c7.8-4.2,8.3-13.4,8.3-13.8C386.4,237.4,416.1,310.8,445.8,384.2z"/>
	</g>
	<path class="st0" d="M162.2,150.4C108.3,213,54.4,275.7,0.5,338.3c0-97.1,0-194.3,0-291.4c0-4,0.6-15.1,8.1-26
		C16,10.2,25.7,5.8,29.5,4.3C73.7,53,118,101.7,162.2,150.4z"/>
	<path class="st0" d="M199.5,192c-5.3-6-10.6-12-15.8-18C122.6,228.8,61.6,283.6,0.5,338.3c0,4.1,0.6,15.5,8.6,26.7
		c1.7,2.4,9.6,12.9,24.1,17.2c5.3,1.6,10,1.9,13.1,1.9C97.5,320.2,148.5,256.1,199.5,192z"/>
	<path class="st0" d="M84.7,384.2c-12.7,0-25.5,0-38.2,0c58.2-56.2,116.5-112.5,174.7-168.7c8.3,9.1,16.6,18.2,24.9,27.2
		c-2.2,1.1-5.5,3-8.4,6.4c-3.1,3.7-4.2,7.3-4.4,7.8C231.3,262.4,194.5,295.2,84.7,384.2z"/>
	<path class="st0" d="M46.4,384.2c-15.3-15.3-30.6-30.6-45.9-45.9C52.8,277.5,105.1,216.8,157.4,156c-3.7,6.7-2.2,15.1,3.5,20
		c5.4,4.6,13.3,5.1,19.4,1C135.7,246.1,91.1,315.1,46.4,384.2z"/>
	<path class="st0" d="M49.6,384.3c-1.1,0-2.1,0-3.2-0.1c50.1-62.9,100.2-125.8,150.3-188.7c-3.5,6.6-2.1,14.8,3.4,19.7
		c5.8,5.2,14.8,5.3,21,0.3C164,271.7,106.8,328,49.6,384.3z"/>
	<path class="st0" d="M374.6,384.2c-96.6,0-193.3,0-289.9,0C16.5,308,1.3,223,28.5,194.5C57,164.7,150.6,177,233.3,256.9
		c-3.9,11.8,2,24.8,13.3,29.6c11,4.7,24,0.4,30.2-10C309.3,312.4,342,348.3,374.6,384.2z"/>
	<path class="st0" d="M219.7,226.7"/>
	<path class="st0" d="M368.9,480c-74.9,0-149.8,0-224.7,0c-8.8,0-16-7.2-16-16c0-8.8,7.2-16,16-16c74.9,0,149.9,0,224.8,0.1
		c8.3,0.7,14.7,7.6,14.7,15.9C383.7,472.3,377.2,479.3,368.9,480z"/>
	<rect x="208.1" y="384.2" class="st0" width="31.9" height="63.9"/>
	<rect x="272" y="384.2" class="st0" width="32" height="63.9"/>
	<path class="st0" d="M410.3,395.5"/>
</g>
</svg>
