<?xml version="1.0" encoding="utf-8"?>
<!-- Generator: Adobe Illustrator 24.3.0, SVG Export Plug-In . SVG Version: 6.00 Build 0)  -->
<svg version="1.1" id="Capa_1" xmlns="http://www.w3.org/2000/svg" xmlns:xlink="http://www.w3.org/1999/xlink" x="0px" y="0px"
	 viewBox="0 0 512 512" style="enable-background:new 0 0 512 512;" xml:space="preserve">
<g>
	<g>
		<path d="M453.6,237.3c-1.5-18.8-5.6-37-12.3-54.5l46.1-37l-75-93.6L366.5,89c-15.8-10.7-33-18.9-51.1-24.6V6.1h-120v58.7
			c-19,6.1-36.8,15-53.2,26.5l-46.3-36L22.3,150l47.2,36.6c-6.3,17.5-10,35.8-11.2,54.5L0,255l27.9,116.7l41-9.8
			c20.2-20.2,38.4-38.4,62.4-62.4C99.4,213,163.5,120.6,256.1,120.6c73.4,0,132.9,59.5,132.9,132.9c0,90.7-89,154.7-174.8,126.2
			c-6.9,6.9-77.9,77.9-88.9,88.9l79.1,37.3l26.3-55.8c18.2,2.3,36.3,2.1,54.1-0.5l26.9,55.1L419.6,452l-26.9-54.9
			c13.3-12.7,24.7-27,34.1-42.8l59,13.2L512,250.4L453.6,237.3z"/>
	</g>
</g>
<g>
	<g>
		<path d="M336,219.4l-7.6-19.1L282.6,246L262,225.4l45.8-45.8l-19.1-7.6c-74.9-29.8-144.2,52.2-104.9,120.7
			C82.6,393.9,169.1,307.5,47.6,429c-17,17,18.4,52.5,35.4,35.4c70.6-70.6,2-2,137.5-137.5C289.6,360.5,364.5,291,336,219.4z"/>
	</g>
</g>
</svg>
