<svg id="Capa_1" data-name="Capa 1" xmlns="http://www.w3.org/2000/svg" viewBox="0 0 512 499.81"><defs><style>.cls-1{fill:#ffda01;}</style></defs><path class="cls-1" d="M453.58,237.31a195.46,195.46,0,0,0-12.33-54.5l46.14-37-75-93.62L366.55,89a196.1,196.1,0,0,0-51.12-24.58V6.1h-120V64.75a195.85,195.85,0,0,0-53.23,26.53l-46.34-36L22.3,150l47.16,36.64a196.64,196.64,0,0,0-11.19,54.46L0,255,27.91,371.68l41-9.81,62.4-62.39C99.44,213,163.49,120.57,256.09,120.57A133,133,0,0,1,389,253.51c0,90.69-89,154.71-174.78,126.22l-88.88,88.89,79.1,37.28,26.31-55.81a199.26,199.26,0,0,0,54.12-.45l27,55.07L419.6,452l-26.88-54.93a197.42,197.42,0,0,0,34.06-42.84l59,13.22,26.2-117Z" transform="translate(0 -6.1)"/><path class="cls-1" d="M336,219.37l-7.61-19.14L282.55,246,262,225.44l45.79-45.78L288.63,172c-74.92-29.8-144.18,52.17-104.87,120.7C82.63,393.88,169.06,307.46,47.55,429,30.51,446,66,481.44,83,464.4c70.58-70.59,2-2,137.48-137.47C289.61,360.46,364.47,291,336,219.37Z" transform="translate(0 -6.1)"/></svg>