<?xml version="1.0" encoding="UTF-8"?>
<svg width="64px" height="32px" viewBox="0 0 64 32" version="1.1" xmlns="http://www.w3.org/2000/svg" xmlns:xlink="http://www.w3.org/1999/xlink">
    <!-- Generator: Sketch 49.3 (51167) - http://www.bohemiancoding.com/sketch -->
    <title>LOGO/cisco logo_white</title>
    <desc>Created with Sketch.</desc>
    <defs>
        <polygon id="path-1" points="0.6424 0 61.3574 0 61.3574 31.9998 0.6424 31.9998"></polygon>
    </defs>
    <g id="LOGO/cisco-logo_white" stroke="none" stroke-width="1" fill="none" fill-rule="evenodd">
        <g>
            <polygon id="Fill-1" points="0 32 64 32 64 0 0 0"></polygon>
            <g id="Group-4" transform="translate(1.000000, 0.000000)">
                <mask id="mask-2" fill="white">
                    <use xlink:href="#path-1"></use>
                </mask>
                <g id="Clip-3"></g>
                <path d="M61.3574,9.9248 C61.3574,9.1968 60.7664,8.6088 60.0404,8.6088 C59.3114,8.6088 58.7204,9.1968 58.7204,9.9248 L58.7204,12.6948 C58.7204,13.4248 59.3114,14.0148 60.0404,14.0148 C60.7664,14.0148 61.3574,13.4248 61.3574,12.6948 L61.3574,9.9248 Z M54.1094,6.2888 C54.1094,5.5628 53.5194,4.9718 52.7754,4.9718 C52.0474,4.9718 51.4584,5.5628 51.4584,6.2888 L51.4584,12.6948 C51.4584,13.4248 52.0474,14.0148 52.7754,14.0148 C53.5194,14.0148 54.1094,13.4248 54.1094,12.6948 L54.1094,6.2888 Z M46.8464,1.3168 C46.8464,0.5898 46.2564,-0.0002 45.5284,-0.0002 C44.8004,-0.0002 44.2104,0.5898 44.2104,1.3168 L44.2104,15.3258 C44.2104,16.0568 44.8004,16.6468 45.5284,16.6468 C46.2564,16.6468 46.8464,16.0568 46.8464,15.3258 L46.8464,1.3168 Z M39.5814,6.2888 C39.5814,5.5628 38.9914,4.9718 38.2634,4.9718 C37.5364,4.9718 36.9454,5.5628 36.9454,6.2888 L36.9454,12.6948 C36.9454,13.4248 37.5364,14.0148 38.2634,14.0148 C38.9914,14.0148 39.5814,13.4248 39.5814,12.6948 L39.5814,6.2888 Z M32.3174,9.9248 C32.3174,9.1968 31.7274,8.6088 31.0034,8.6088 C30.2764,8.6088 29.6824,9.1968 29.6824,9.9248 L29.6824,12.6948 C29.6824,13.4248 30.2764,14.0148 31.0034,14.0148 C31.7274,14.0148 32.3174,13.4248 32.3174,12.6948 L32.3174,9.9248 Z M25.0664,6.2888 C25.0664,5.5628 24.4724,4.9718 23.7434,4.9718 C23.0164,4.9718 22.4224,5.5628 22.4224,6.2888 L22.4224,12.6948 C22.4224,13.4248 23.0164,14.0148 23.7434,14.0148 C24.4724,14.0148 25.0664,13.4248 25.0664,12.6948 L25.0664,6.2888 Z M17.8054,1.3168 C17.8054,0.5898 17.2124,-0.0002 16.4844,-0.0002 C15.7564,-0.0002 15.1624,0.5898 15.1624,1.3168 L15.1624,15.3258 C15.1624,16.0568 15.7564,16.6468 16.4844,16.6468 C17.2124,16.6468 17.8054,16.0568 17.8054,15.3258 L17.8054,1.3168 Z M10.5454,6.2888 C10.5454,5.5628 9.9514,4.9718 9.2244,4.9718 C8.4964,4.9718 7.9024,5.5628 7.9024,6.2888 L7.9024,12.6948 C7.9024,13.4248 8.4964,14.0148 9.2244,14.0148 C9.9514,14.0148 10.5454,13.4248 10.5454,12.6948 L10.5454,6.2888 Z M3.2854,9.9248 C3.2854,9.1968 2.6924,8.6088 1.9634,8.6088 C1.2364,8.6088 0.6424,9.1968 0.6424,9.9248 L0.6424,12.6948 C0.6424,13.4248 1.2364,14.0148 1.9634,14.0148 C2.6924,14.0148 3.2854,13.4248 3.2854,12.6948 L3.2854,9.9248 Z M30.5734,21.4088 C30.4934,21.3868 29.2744,21.0718 27.9784,21.0718 C25.5244,21.0718 24.0454,22.3968 24.0454,24.3708 C24.0454,26.1168 25.2834,26.9878 26.7664,27.4558 C26.9304,27.5118 27.1714,27.5868 27.3344,27.6408 C27.9954,27.8478 28.5204,28.1568 28.5204,28.6908 C28.5204,29.2888 27.9114,29.6768 26.5864,29.6768 C25.4244,29.6768 24.3074,29.3438 24.0734,29.2848 L24.0734,31.7128 C24.2044,31.7408 25.5314,31.9998 26.9464,31.9998 C28.9844,31.9998 31.3154,31.1108 31.3154,28.4598 C31.3154,27.1758 30.5264,25.9898 28.7994,25.4418 L28.0654,25.2078 C27.6274,25.0698 26.8444,24.8458 26.8444,24.2028 C26.8444,23.6958 27.4244,23.3388 28.4924,23.3388 C29.4124,23.3388 30.5334,23.6488 30.5734,23.6608 L30.5734,21.4088 Z M50.3184,23.7618 C51.8954,23.7618 53.0724,25.0048 53.0724,26.5358 C53.0724,28.0708 51.8954,29.3138 50.3184,29.3138 C48.7384,29.3138 47.5654,28.0708 47.5654,26.5358 C47.5654,25.0048 48.7384,23.7618 50.3184,23.7618 Z M55.8924,26.5358 C55.8924,23.5238 53.5624,21.0758 50.3184,21.0758 C47.0734,21.0758 44.7464,23.5238 44.7464,26.5358 C44.7464,29.5548 47.0734,31.9998 50.3184,31.9998 C53.5624,31.9998 55.8924,29.5548 55.8924,26.5358 Z M14.1544,21.4518 C13.9034,21.3798 12.9784,21.0758 11.7264,21.0758 C8.4864,21.0758 6.1084,23.3868 6.1084,26.5358 C6.1084,29.9358 8.7334,31.9998 11.7264,31.9998 C12.9164,31.9998 13.8224,31.7188 14.1544,31.6238 L14.1544,28.7928 C14.0394,28.8558 13.1694,29.3528 11.9184,29.3528 C10.1434,29.3528 8.9994,28.1048 8.9994,26.5358 C8.9994,24.9198 10.1934,23.7238 11.9184,23.7238 C13.1904,23.7238 14.0474,24.2308 14.1544,24.2848 L14.1544,21.4518 Z M41.9424,21.4518 C41.6914,21.3798 40.7654,21.0758 39.5154,21.0758 C36.2714,21.0758 33.8944,23.3868 33.8944,26.5358 C33.8944,29.9358 36.5214,31.9998 39.5154,31.9998 C40.6984,31.9998 41.6074,31.7188 41.9424,31.6238 L41.9424,28.7928 C41.8264,28.8558 40.9544,29.3528 39.7034,29.3528 C37.9314,29.3528 36.7874,28.1048 36.7874,26.5358 C36.7874,24.9198 37.9814,23.7238 39.7034,23.7238 C40.9764,23.7238 41.8344,24.2308 41.9424,24.2848 L41.9424,21.4518 Z M17.8134,31.8138 L20.4764,31.8138 L20.4764,21.2628 L17.8134,21.2628 L17.8134,31.8138 Z" id="Fill-2" fill="#FFFFFF" mask="url(#mask-2)"></path>
            </g>
        </g>
    </g>
</svg>