<?xml version="1.0" encoding="utf-8"?>
<!-- Generator: Adobe Illustrator 28.0.0, SVG Export Plug-In . SVG Version: 6.00 Build 0)  -->
<svg version="1.1" id="Capa_1" xmlns="http://www.w3.org/2000/svg" xmlns:xlink="http://www.w3.org/1999/xlink" x="0px" y="0px"
	 viewBox="0 0 512 512" style="enable-background:new 0 0 512 512;" xml:space="preserve">
<style type="text/css">
	.st0{fill:#FFFFFF;}
</style>
<g>
	<path class="st0" d="M502.9,304.8L188.5,168.8c-5.6-2.4-12.2-1.1-16.5,3.2s-5.6,10.9-3.2,16.5l136.1,314.4
		c2.4,5.6,7.8,9.1,13.8,9.1c0.4,0,0.9,0,1.4-0.1c6.5-0.6,11.8-5.3,13.3-11.6l31.6-135.5l135.5-31.6c6.3-1.4,11-6.8,11.6-13.3
		C512.5,313.5,508.9,307.4,502.9,304.8z"/>
	<path class="st0" d="M135,0h-30c-8.3,0-15,6.7-15,15s6.7,15,15,15h30c8.3,0,15-6.7,15-15S143.3,0,135,0z"/>
	<path class="st0" d="M195,30h30c8.3,0,15-6.7,15-15s-6.7-15-15-15h-30c-8.3,0-15,6.7-15,15S186.7,30,195,30z"/>
	<path class="st0" d="M285,30h30c8.3,0,15-6.7,15-15s-6.7-15-15-15h-30c-8.3,0-15,6.7-15,15S276.7,30,285,30z"/>
	<path class="st0" d="M135,390h-30c-8.3,0-15,6.7-15,15s6.7,15,15,15h30c8.3,0,15-6.7,15-15S143.3,390,135,390z"/>
	<path class="st0" d="M195,390c-8.3,0-15,6.7-15,15s6.7,15,15,15h40.2l-12.8-30H195z"/>
	<path class="st0" d="M375,30h15v15c0,8.3,6.7,15,15,15s15-6.7,15-15V15c0-8.3-6.7-15-15-15h-30c-8.3,0-15,6.7-15,15
		S366.7,30,375,30z"/>
	<path class="st0" d="M45,0H15C6.7,0,0,6.7,0,15v30c0,8.3,6.7,15,15,15s15-6.7,15-15V30h15c8.3,0,15-6.7,15-15S53.3,0,45,0z"/>
	<path class="st0" d="M15,150c8.3,0,15-6.7,15-15v-30c0-8.3-6.7-15-15-15S0,96.7,0,105v30C0,143.3,6.7,150,15,150z"/>
	<path class="st0" d="M15,240c8.3,0,15-6.7,15-15v-30c0-8.3-6.7-15-15-15s-15,6.7-15,15v30C0,233.3,6.7,240,15,240z"/>
	<path class="st0" d="M15,330c8.3,0,15-6.7,15-15v-30c0-8.3-6.7-15-15-15s-15,6.7-15,15v30C0,323.3,6.7,330,15,330z"/>
	<path class="st0" d="M420,105c0-8.3-6.7-15-15-15s-15,6.7-15,15v30c0,8.3,6.7,15,15,15s15-6.7,15-15V105z"/>
	<path class="st0" d="M45,390H30v-15c0-8.3-6.7-15-15-15s-15,6.7-15,15v30c0,8.3,6.7,15,15,15h30c8.3,0,15-6.7,15-15
		S53.3,390,45,390z"/>
	<path class="st0" d="M405,180c-8.3,0-15,6.7-15,15v27.3l30,12.8V195C420,186.7,413.3,180,405,180z"/>
</g>
</svg>
