<?xml version="1.0" encoding="UTF-8"?>
<svg id="a5c9ea9b-5ddf-4501-ac09-ad2630afebcb" xmlns="http://www.w3.org/2000/svg" version="1.1" viewBox="0 0 512 512">
  <defs>
    <style>
      .cls-1 {
        fill: #fff;
        stroke-width: 0px;
      }
    </style>
  </defs>
  <path class="cls-1" d="M78.3,260.5c13,10.3,29.3,1.7,41.8-4.9,13.8-7.3,27.4-15,40.6-23.3,9.9-6.2,19.8-12.3,30-18.1,9.4-5.2,15.9-14.4,17.7-25,.5-7.5-1.8-14.8-6.7-20.6-3.8-2.8-8.5-4-13.2-3.3-11.4.2-22.6,2.5-33,7-3.5,1.4-3.6.8-2.9-2.4,18.6-50.1,70.8-79.4,122.1-84.2,28.4-4,57.3-2.6,81.9,13.4,32.1,21.2,43.9,62.9,43.1,99.7-.2,15.8,6.5,21.9,20.5,20.2,18.3-3.2,24.4-25.5,25.2-41.5.3-30.9-9-61.1-26.5-86.5-6.7-9.9-14.8-18.8-24-26.4-45.2-37.3-109.8-37.8-163.2-20.6-28.9,9.1-55.7,23.9-78.9,43.6-20.6,18.1-36.9,40.7-47.5,66-7,15.4-6.9,12.4-11.2.8-2.6-8.9-5.7-17.6-9.4-26.1-4.9-8.8-13.2-9.8-23.3-6.1-14.1,5.2-17.9,12.7-16,25.2,2.1,13.2,4.9,26.2,8.5,39,3.6,12.8,7,26,10.4,39.2,2.7,10.5,5.2,27.9,14.3,34.9h0ZM465.6,361.2c-3.8-10.1-8.6-19.9-14.3-29.1-5.5-10.7-10.7-21.6-15.6-32.7-5.5-12.6-9.3-31.1-24.1-36.1-11.2-3.8-23.8,3.4-33.3,8.6-26.3,13.6-53.3,25.9-80.8,36.9-12.6,4.9-12.5,13.3-9.1,26.8,4.8,18,17.4,15.7,38.3,14.8,10.2-.9,20.2-2.6,27-3.8-3.5,6.7-7.7,13.1-12.4,19-26,33.6-68,65.1-109.3,64.7-47.3-.5-78.3-39.1-99.7-77-7.5-14.4-14-29.2-19.4-44.5-4.7-10.2-16.1-15.5-26.9-12.5-15.1,2.8-14.3,21.9-11.9,33,14.3,64.7,70.6,145,141.2,149.3,43.4,4.2,86.8-8.4,121.2-35.2,25.2-18.6,48.4-49.4,66.7-91.1,2,2.8,7.2,10.6,10.6,15.8,5.6,8.8,9.1,13.4,15.1,21.9,8.7,12.1,34.4,2.4,37.8-10.3,1.3-6,1-12.3-1-18.1h0Z"/>
</svg>