<svg width="512" height="512" viewBox="0 0 512 512" fill="none" xmlns="http://www.w3.org/2000/svg">
<g clip-path="url(#clip0_79_5)">
<path d="M149.28 412.205C144.912 410.436 142.807 405.463 144.575 401.096C148.692 390.931 150.15 379.479 148.793 367.976C148.239 363.297 151.585 359.056 156.265 358.503C160.956 357.953 165.185 361.297 165.736 365.975C167.431 380.322 165.581 394.682 160.39 407.5C158.62 411.868 153.644 413.973 149.28 412.205ZM505.889 407.5C511.08 394.682 512.93 380.322 511.235 365.975C510.684 361.297 506.453 357.953 501.764 358.503C497.084 359.056 493.74 363.297 494.292 367.976C495.649 379.479 494.191 390.931 490.075 401.096C487.802 406.707 491.947 412.831 497.979 412.831C501.35 412.831 504.545 410.818 505.889 407.5ZM160.39 88.66C165.581 75.8413 167.431 61.4818 165.736 47.135C165.185 42.4569 160.957 39.115 156.265 39.6631C151.585 40.2155 148.241 44.4564 148.793 49.1355C150.149 60.6383 148.692 72.091 144.575 82.2555C142.303 87.8666 146.448 93.9907 152.479 93.9907C155.851 93.9907 159.046 91.9774 160.39 88.66ZM98.2359 105.015C119.392 97.7102 134.62 77.588 134.62 53.9789C134.62 24.2169 110.403 -1.52588e-05 80.641 -1.52588e-05C46.3812 -1.52588e-05 24.764 26.1492 24.764 53.9789C24.764 77.588 39.9916 97.7102 61.1481 105.015C38.7013 108.352 18.5791 121.042 5.83618 140.354C-9.22929 163.181 7.50929 193.16 34.3932 193.16H124.991C151.809 193.16 168.649 163.226 153.548 140.343C140.806 121.031 120.684 108.352 98.2359 105.015ZM443.735 423.855C464.892 416.551 480.119 396.428 480.119 372.819C480.119 344.83 458.356 318.84 424.242 318.84C394.48 318.84 370.263 343.057 370.263 372.819C370.263 396.428 385.491 416.551 406.647 423.855C384.2 427.193 364.078 439.882 351.335 459.194C336.27 482.022 353.009 512 379.892 512H470.49C497.308 512 514.149 482.066 499.047 459.183C486.305 439.872 466.182 427.193 443.735 423.855ZM98.2359 423.855C119.392 416.551 134.62 396.428 134.62 372.819C134.62 343.057 110.403 318.84 80.641 318.84C46.3812 318.84 24.764 344.99 24.764 372.819C24.764 396.428 39.9916 416.551 61.1481 423.855C38.7013 427.193 18.5791 439.882 5.83618 459.194C-9.22929 482.022 7.50929 512 34.3932 512H124.991C151.809 512 168.649 482.066 153.548 459.183C140.806 439.872 120.684 427.193 98.2359 423.855ZM379.893 193.16H470.491C497.309 193.16 514.15 163.226 499.048 140.343C486.305 121.031 466.183 108.352 443.736 105.015C464.893 97.7102 480.12 77.588 480.12 53.9789C480.12 25.9892 458.357 -1.52588e-05 424.243 -1.52588e-05C394.481 -1.52588e-05 370.264 24.2169 370.264 53.9789C370.264 77.588 385.492 97.7102 406.648 105.015C384.202 108.352 364.079 121.042 351.336 140.354C336.271 163.181 353.01 193.16 379.893 193.16ZM505.889 88.66C511.08 75.8413 512.93 61.4818 511.235 47.135C510.684 42.4569 506.453 39.115 501.764 39.6631C497.084 40.2155 493.74 44.4564 494.292 49.1355C495.649 60.6383 494.191 72.091 490.075 82.2555C487.802 87.8666 491.947 93.9907 497.979 93.9907C501.35 93.9907 504.545 91.9774 505.889 88.66ZM267.99 256.075L304.076 219.989C307.403 216.651 307.403 211.256 304.076 207.918C300.738 204.591 295.342 204.591 292.004 207.918L255.919 244.004L219.834 207.918C216.496 204.591 211.1 204.591 207.762 207.918C204.435 211.256 204.435 216.651 207.762 219.989L243.848 256.075L207.762 292.16C204.435 295.498 204.435 300.894 207.762 304.231C211.112 307.559 216.485 307.558 219.834 304.231L255.919 268.146L292.004 304.231C293.679 305.895 295.854 306.727 298.04 306.727C305.613 306.727 309.436 297.538 304.076 292.16L267.99 256.075Z" fill="white"/>
</g>
<defs>
<clipPath id="clip0_79_5">
<rect width="512" height="512" fill="white"/>
</clipPath>
</defs>
</svg>
