<?xml version="1.0" encoding="iso-8859-1"?>
<!-- Generator: Adobe Illustrator 18.0.0, SVG Export Plug-In . SVG Version: 6.00 Build 0)  -->
<!DOCTYPE svg PUBLIC "-//W3C//DTD SVG 1.1//EN" "http://www.w3.org/Graphics/SVG/1.1/DTD/svg11.dtd">
<svg version="1.1" id="Capa_1" xmlns="http://www.w3.org/2000/svg" xmlns:xlink="http://www.w3.org/1999/xlink" x="0px" y="0px"
	 viewBox="0 0 188.149 188.149" style="enable-background:new 0 0 188.149 188.149;" xml:space="preserve">
<g>
	<g>
		<defs>
			<circle id="SVGID_1_" cx="94.075" cy="94.075" r="94.074"/>
		</defs>
		<use xlink:href="#SVGID_1_"  style="overflow:visible;fill:#4AC8EB;"/>
		<clipPath id="SVGID_2_">
			<use xlink:href="#SVGID_1_"  style="overflow:visible;"/>
		</clipPath>
		<g style="clip-path:url(#SVGID_2_);">
			<path style="fill:#A57561;" d="M148.572,197.629v0.01H39.507v-0.01c0-15.124,6.147-28.809,16.09-38.679
				c0.463-0.463,0.926-0.905,1.408-1.347c1.43-1.326,2.931-2.57,4.493-3.732c1.028-0.771,2.098-1.491,3.177-2.189
				c1.08-0.699,2.19-1.357,3.331-1.975c0.021-0.021,0.042-0.021,0.042-0.021c0.441-0.247,0.873-0.493,1.306-0.761
				c1.295-0.761,2.519-1.624,3.69-2.56c4.966-3.948,8.812-9.254,11.001-15.34v-0.011c1.306-3.629,2.016-7.546,2.016-11.639
				l16.121,0.072c0,4.04,0.688,7.927,1.964,11.525c2.169,6.117,5.994,11.433,10.96,15.401c0.339,0.277,0.688,0.545,1.038,0.802
				c0.483,0.36,0.977,0.71,1.47,1.039c0.37,0.246,0.751,0.493,1.132,0.72c0.421,0.257,0.853,0.514,1.285,0.75
				c0.041,0.011,0.071,0.021,0.103,0.041c0.03,0.02,0.062,0.041,0.093,0.061c1.265,0.699,2.498,1.439,3.69,2.221
				c0.401,0.258,0.802,0.524,1.192,0.803c0.515,0.37,1.039,0.74,1.543,1.131h0.021C139.966,163.875,148.572,179.729,148.572,197.629
				z"/>
			<path style="fill:#EB6D4A;" d="M148.572,197.629H39.507c0-15.124,6.147-28.809,16.09-38.679c0.463-0.463,0.926-0.905,1.408-1.347
				c1.43-1.326,2.931-2.581,4.493-3.742c1.028-0.762,2.098-1.491,3.177-2.18c1.08-0.699,2.19-1.357,3.331-1.975
				c0.021-0.021,0.042-0.021,0.042-0.021c0.441-0.247,0.873-0.493,1.306-0.761c1.295-0.761,2.519-1.624,3.69-2.56
				c5.347,5.469,12.79,8.852,21.046,8.852c8.226,0,15.669-3.393,21.016-8.842c0.339,0.277,0.688,0.545,1.038,0.802
				c0.483,0.36,0.977,0.71,1.47,1.039c0.37,0.246,0.751,0.493,1.132,0.72c0.421,0.267,0.853,0.514,1.285,0.75
				c0.041,0.011,0.071,0.021,0.103,0.041c0.03,0.011,0.062,0.031,0.093,0.052c1.265,0.699,2.498,1.439,3.69,2.23
				c0.401,0.258,0.802,0.524,1.192,0.803c0.515,0.37,1.039,0.74,1.543,1.131h0.021C139.966,163.875,148.572,179.729,148.572,197.629
				z"/>
			<path style="fill:#A57561;" d="M52.183,46.81v34.117c0,28.977,25.437,52.466,41.857,52.466c16.421,0,41.858-23.489,41.858-52.466
				V46.81H52.183z"/>
			<path style="fill:#141720;" d="M52.183,76.823L52.183,76.823c2.063,0,3.734-1.671,3.734-3.733V49.356h-3.734V76.823z"/>
			<path style="fill:#141720;" d="M135.899,76.823L135.899,76.823V49.356h-3.733V73.09
				C132.165,75.152,133.836,76.823,135.899,76.823z"/>
			<path style="fill:#141720;" d="M135.893,48.33c0,4.884-0.328,6.061-3.734,5.801c-0.137-2.367-17.141-4.296-38.111-4.296
				c-20.985,0-37.989,1.929-38.126,4.296c-3.406,0.26-3.734-0.917-3.734-5.801c0-0.479,0.014-0.984,0.027-1.519
				c0.52-12.052,7.318-34.582,41.833-34.582c34.5,0,41.299,22.53,41.818,34.582C135.879,47.346,135.893,47.852,135.893,48.33z"/>
		</g>
		<path style="clip-path:url(#SVGID_2_);fill:#FFFFFF;" d="M115.106,146.119c-3.517,10.826-10.601,21.539-21.036,30.299
			c-10.436-8.76-17.509-19.473-21.025-30.299c0.052,0.02,0.113,0.041,0.165,0.061c5.531,4.955,12.852,7.979,20.86,7.979
			c8.009,0,15.319-3.013,20.851-7.968C114.982,146.17,115.044,146.14,115.106,146.119z"/>
	</g>
</g>
<g>
</g>
<g>
</g>
<g>
</g>
<g>
</g>
<g>
</g>
<g>
</g>
<g>
</g>
<g>
</g>
<g>
</g>
<g>
</g>
<g>
</g>
<g>
</g>
<g>
</g>
<g>
</g>
<g>
</g>
</svg>
