<?xml version="1.0" encoding="utf-8"?>
<!-- Generator: Adobe Illustrator 24.1.0, SVG Export Plug-In . SVG Version: 6.00 Build 0)  -->
<svg version="1.1" id="Capa_1" xmlns="http://www.w3.org/2000/svg" xmlns:xlink="http://www.w3.org/1999/xlink" x="0px" y="0px"
	 viewBox="0 0 384 384" style="enable-background:new 0 0 384 384;" xml:space="preserve">
<style type="text/css">
	.st0{fill:#FFFFFF;}
</style>
<g>
	<g>
		<path class="st0" d="M32.6,256.8c17.3-15.9,36.8-28.8,57.8-38.3c10.4-4.5,17.8-15.9,18.1-25.3l9.8-53.2
			c55-14.2,98.5-12.3,151.6,6.5l5.2,52.4c-0.5,11.6,5.4,22.5,15.6,28.3c20.3,11.3,38.5,25.8,54.4,43.2c11.5,12.5,31,13.4,43.5,1.9
			l51.9-47.7c12.5-11.5,13.4-31,1.9-43.5c-131.8-143.5-355.6-153-499-21.3c-12.5,11.5-13.4,31-1.9,43.5l47.5,51.8
			C0.6,267.4,20.1,268.3,32.6,256.8z"/>
	</g>
</g>
</svg>
