<?xml version="1.0" encoding="UTF-8" ?>
<svg version="1.1" viewBox="0 0 16 16" xmlns="http://www.w3.org/2000/svg">
<rect x="7" y="0" width="1" height="1" fill="#000000" />
<rect x="8" y="0" width="1" height="1" fill="#000000" />
<rect x="2" y="1" width="1" height="1" fill="#000000" />
<rect x="7" y="1" width="1" height="1" fill="#000000" />
<rect x="8" y="1" width="1" height="1" fill="#000000" />
<rect x="13" y="1" width="1" height="1" fill="#000000" />
<rect x="1" y="2" width="1" height="1" fill="#000000" />
<rect x="2" y="2" width="1" height="1" fill="#000000" />
<rect x="3" y="2" width="1" height="1" fill="#000000" />
<rect x="5" y="2" width="1" height="1" fill="#000000" />
<rect x="6" y="2" width="1" height="1" fill="#000000" />
<rect x="7" y="2" width="1" height="1" fill="#000000" />
<rect x="8" y="2" width="1" height="1" fill="#000000" />
<rect x="9" y="2" width="1" height="1" fill="#000000" />
<rect x="10" y="2" width="1" height="1" fill="#000000" />
<rect x="12" y="2" width="1" height="1" fill="#000000" />
<rect x="13" y="2" width="1" height="1" fill="#000000" />
<rect x="14" y="2" width="1" height="1" fill="#000000" />
<rect x="2" y="3" width="1" height="1" fill="#000000" />
<rect x="3" y="3" width="1" height="1" fill="#000000" />
<rect x="4" y="3" width="1" height="1" fill="#000000" />
<rect x="5" y="3" width="1" height="1" fill="#000000" />
<rect x="6" y="3" width="1" height="1" fill="#000000" />
<rect x="7" y="3" width="1" height="1" fill="#000000" />
<rect x="8" y="3" width="1" height="1" fill="#000000" />
<rect x="9" y="3" width="1" height="1" fill="#000000" />
<rect x="10" y="3" width="1" height="1" fill="#000000" />
<rect x="11" y="3" width="1" height="1" fill="#000000" />
<rect x="12" y="3" width="1" height="1" fill="#000000" />
<rect x="13" y="3" width="1" height="1" fill="#000000" />
<rect x="3" y="4" width="1" height="1" fill="#000000" />
<rect x="4" y="4" width="1" height="1" fill="#000000" />
<rect x="11" y="4" width="1" height="1" fill="#000000" />
<rect x="12" y="4" width="1" height="1" fill="#000000" />
<rect x="2" y="5" width="1" height="1" fill="#000000" />
<rect x="3" y="5" width="1" height="1" fill="#000000" />
<rect x="12" y="5" width="1" height="1" fill="#000000" />
<rect x="13" y="5" width="1" height="1" fill="#000000" />
<rect x="2" y="6" width="1" height="1" fill="#000000" />
<rect x="3" y="6" width="1" height="1" fill="#000000" />
<rect x="12" y="6" width="1" height="1" fill="#000000" />
<rect x="13" y="6" width="1" height="1" fill="#000000" />
<rect x="0" y="7" width="1" height="1" fill="#000000" />
<rect x="1" y="7" width="1" height="1" fill="#000000" />
<rect x="2" y="7" width="1" height="1" fill="#000000" />
<rect x="3" y="7" width="1" height="1" fill="#000000" />
<rect x="12" y="7" width="1" height="1" fill="#000000" />
<rect x="13" y="7" width="1" height="1" fill="#000000" />
<rect x="14" y="7" width="1" height="1" fill="#000000" />
<rect x="15" y="7" width="1" height="1" fill="#000000" />
<rect x="0" y="8" width="1" height="1" fill="#000000" />
<rect x="1" y="8" width="1" height="1" fill="#000000" />
<rect x="2" y="8" width="1" height="1" fill="#000000" />
<rect x="3" y="8" width="1" height="1" fill="#000000" />
<rect x="12" y="8" width="1" height="1" fill="#000000" />
<rect x="13" y="8" width="1" height="1" fill="#000000" />
<rect x="14" y="8" width="1" height="1" fill="#000000" />
<rect x="15" y="8" width="1" height="1" fill="#000000" />
<rect x="2" y="9" width="1" height="1" fill="#000000" />
<rect x="3" y="9" width="1" height="1" fill="#000000" />
<rect x="12" y="9" width="1" height="1" fill="#000000" />
<rect x="13" y="9" width="1" height="1" fill="#000000" />
<rect x="2" y="10" width="1" height="1" fill="#000000" />
<rect x="3" y="10" width="1" height="1" fill="#000000" />
<rect x="12" y="10" width="1" height="1" fill="#000000" />
<rect x="13" y="10" width="1" height="1" fill="#000000" />
<rect x="3" y="11" width="1" height="1" fill="#000000" />
<rect x="4" y="11" width="1" height="1" fill="#000000" />
<rect x="11" y="11" width="1" height="1" fill="#000000" />
<rect x="12" y="11" width="1" height="1" fill="#000000" />
<rect x="2" y="12" width="1" height="1" fill="#000000" />
<rect x="3" y="12" width="1" height="1" fill="#000000" />
<rect x="4" y="12" width="1" height="1" fill="#000000" />
<rect x="5" y="12" width="1" height="1" fill="#000000" />
<rect x="6" y="12" width="1" height="1" fill="#000000" />
<rect x="7" y="12" width="1" height="1" fill="#000000" />
<rect x="8" y="12" width="1" height="1" fill="#000000" />
<rect x="9" y="12" width="1" height="1" fill="#000000" />
<rect x="10" y="12" width="1" height="1" fill="#000000" />
<rect x="11" y="12" width="1" height="1" fill="#000000" />
<rect x="12" y="12" width="1" height="1" fill="#000000" />
<rect x="13" y="12" width="1" height="1" fill="#000000" />
<rect x="1" y="13" width="1" height="1" fill="#000000" />
<rect x="2" y="13" width="1" height="1" fill="#000000" />
<rect x="3" y="13" width="1" height="1" fill="#000000" />
<rect x="5" y="13" width="1" height="1" fill="#000000" />
<rect x="6" y="13" width="1" height="1" fill="#000000" />
<rect x="7" y="13" width="1" height="1" fill="#000000" />
<rect x="8" y="13" width="1" height="1" fill="#000000" />
<rect x="9" y="13" width="1" height="1" fill="#000000" />
<rect x="10" y="13" width="1" height="1" fill="#000000" />
<rect x="12" y="13" width="1" height="1" fill="#000000" />
<rect x="13" y="13" width="1" height="1" fill="#000000" />
<rect x="14" y="13" width="1" height="1" fill="#000000" />
<rect x="2" y="14" width="1" height="1" fill="#000000" />
<rect x="7" y="14" width="1" height="1" fill="#000000" />
<rect x="8" y="14" width="1" height="1" fill="#000000" />
<rect x="13" y="14" width="1" height="1" fill="#000000" />
<rect x="7" y="15" width="1" height="1" fill="#000000" />
<rect x="8" y="15" width="1" height="1" fill="#000000" />
</svg>
