<svg id="Calque_1" data-name="Calque 1" xmlns="http://www.w3.org/2000/svg" viewBox="0 0 300 38.91"><g id="Calque_2" data-name="Calque 2"><g id="Calque_1-2" data-name="Calque 1-2"><path d="M57.6,32.46c-.09-.16-.19-.32-.27-.49a4.46,4.46,0,0,1-.22-.5c-1.21-3.18-2.4-6.32-3.58-9.45s-2.38-6.26-3.62-9.43v-.13a.2.2,0,0,1,0-.11c0-.26.16-.39.51-.39h4.51a.71.71,0,0,1,.73.53L60,25.25l3.92-12.77a.74.74,0,0,1,.77-.53H69.2a.65.65,0,0,1,.45.11.39.39,0,0,1,.13.32.38.38,0,0,1,0,.15v0l-2.49,7.14,1.87,5.51,4.53-12.74a.74.74,0,0,1,.77-.53h4.41a.65.65,0,0,1,.45.11.37.37,0,0,1,.14.32.38.38,0,0,1,0,.15v0c-.62,1.65-1.29,3.29-1.95,4.92l-2,5c-.66,1.63-1.33,3.26-2,4.91s-1.31,3.24-1.93,4.87a.94.94,0,0,1-.25.34.67.67,0,0,1-.48.2H67.43a.85.85,0,0,1-.47-.12.62.62,0,0,1-.23-.32l-2.21-5.83c-.32.86-.63,1.68-.94,2.49s-.63,1.65-.93,2.49l-.16.42a2.32,2.32,0,0,1-.22.41,1.18,1.18,0,0,1-.28.31.65.65,0,0,1-.38.13H58.18A.59.59,0,0,1,57.6,32.46Z" transform="translate(0 -0.65)" style="fill:#14304c"/><path d="M79,23.87a9.15,9.15,0,0,1,2.68-6.55,8.9,8.9,0,0,1,1.86-1.42,9.41,9.41,0,0,1,4.69-1.25A9.18,9.18,0,0,1,97,26.31a9.21,9.21,0,0,1-2.35,4.08,8.43,8.43,0,0,1-1.87,1.43,9.05,9.05,0,0,1-4.63,1.24,10,10,0,0,1-2.49-.32,9.23,9.23,0,0,1-2.2-.92,8.92,8.92,0,0,1-1.87-1.43,9.65,9.65,0,0,1-1.43-1.87A8.94,8.94,0,0,1,79,23.87Zm5.11,0a5.07,5.07,0,0,0,.29,1.73,4.17,4.17,0,0,0,.81,1.4,3.82,3.82,0,0,0,1.25.93,4.25,4.25,0,0,0,3.33,0A3.78,3.78,0,0,0,91,27a4.13,4.13,0,0,0,.79-1.4,5.58,5.58,0,0,0,0-3.43A4.36,4.36,0,0,0,91,20.74a3.57,3.57,0,0,0-1.24-1,3.77,3.77,0,0,0-1.65-.35,3.63,3.63,0,0,0-2.93,1.33,4.49,4.49,0,0,0-.81,1.43A5.19,5.19,0,0,0,84.08,23.87Z" transform="translate(0 -0.65)" style="fill:#14304c"/><path d="M100.15,16a1,1,0,0,1,.1-.45,1,1,0,0,1,.26-.34,1.29,1.29,0,0,1,.76-.24h2.11a.76.76,0,0,1,.42.09.81.81,0,0,1,.26.26,1.29,1.29,0,0,1,.18.35c.06.13.12.27.19.39l.12.27c0,.15.11.3.18.48s.12.33.19.49l.11.3c.28-.31.55-.62.81-1a9.32,9.32,0,0,1,.82-.95,4.19,4.19,0,0,1,1-.71,2.6,2.6,0,0,1,1.25-.28,6.83,6.83,0,0,1,1.35.11,6,6,0,0,1,2.18.88c.35.23.73.49,1.14.79a1,1,0,0,1,.37,1.54l-1.24,2.17a1.18,1.18,0,0,1-.68.52,1.37,1.37,0,0,1-.89-.13,4.09,4.09,0,0,0-1.24-.87,3.32,3.32,0,0,0-1.42-.29,2.61,2.61,0,0,0-1,.15,2.47,2.47,0,0,0-.75.44,4.46,4.46,0,0,0-.63.67c-.19.26-.39.55-.58.87V31.68a1.11,1.11,0,0,1-.26.8,1.18,1.18,0,0,1-.86.28h-3.15a1,1,0,0,1-1.09-.82.76.76,0,0,1,0-.26Z" transform="translate(0 -0.65)" style="fill:#14304c"/><path d="M116.27,10.75v-.43a.55.55,0,0,1,.14-.33.63.63,0,0,1,.33-.22,2.15,2.15,0,0,1,.62-.08h3.35a1,1,0,0,1,.44.1.7.7,0,0,1,.28.23.64.64,0,0,1,.14.3,1.53,1.53,0,0,1,0,.3V21l5.05-5.6a1.08,1.08,0,0,1,.86-.41h4.3c.52,0,.78.2.78.62a.7.7,0,0,1-.05.25,1.46,1.46,0,0,1-.21.28l-5.75,6.08,7.26,9.28h0a1.08,1.08,0,0,1,.26.37,1,1,0,0,1,.07.35.5.5,0,0,1-.17.44,1,1,0,0,1-.53.12h-4.73a.72.72,0,0,1-.45-.18,3.44,3.44,0,0,1-.46-.55l-4.6-6.48-1.55,1.61v4.53a1.55,1.55,0,0,1,0,.29,1.17,1.17,0,0,1-.14.35,1,1,0,0,1-.29.31.79.79,0,0,1-.47.12h-3.52a.65.65,0,0,1-.43-.13,1.37,1.37,0,0,1-.29-.3,1.87,1.87,0,0,1-.15-.32.53.53,0,0,1,0-.18Z" transform="translate(0 -0.65)" style="fill:#14304c"/><path d="M170,30.58c-.25.26-.53.53-.84.82a7.08,7.08,0,0,1-1,.81,5.7,5.7,0,0,1-1.17.62,3.76,3.76,0,0,1-1.36.25,8.23,8.23,0,0,1-6.27-2.64,9.11,9.11,0,0,1-1.81-2.92,10.45,10.45,0,0,1,0-7.23,8.94,8.94,0,0,1,1.81-2.92,8.48,8.48,0,0,1,6.27-2.65,4.18,4.18,0,0,1,1.4.22,5.31,5.31,0,0,1,1.17.58,6,6,0,0,1,1,.79c.3.29.57.58.84.86V10.74a1.11,1.11,0,0,1,.27-.76,1,1,0,0,1,.82-.31h3.17a1.36,1.36,0,0,1,.39.08,1.17,1.17,0,0,1,.37.22,1.09,1.09,0,0,1,.27.33.86.86,0,0,1,.1.44V31.68c0,.72-.37,1.08-1.13,1.08h-2.75a1.29,1.29,0,0,1-.43-.07.75.75,0,0,1-.26-.21,1.35,1.35,0,0,1-.19-.33,3.63,3.63,0,0,0-.21-.47Zm-8-6.71a5.06,5.06,0,0,0,.28,1.73,4.2,4.2,0,0,0,.82,1.4A3.92,3.92,0,0,0,166,28.27a4.39,4.39,0,0,0,3.07-1.21,4.55,4.55,0,0,0,1.34-3v-.2a4.44,4.44,0,0,0-1.27-3.13,4.27,4.27,0,0,0-1.4-1,4.33,4.33,0,0,0-1.74-.35,3.81,3.81,0,0,0-1.66.35,4.13,4.13,0,0,0-1.29,1,4.31,4.31,0,0,0-.81,1.43A4.68,4.68,0,0,0,162,23.87Z" transform="translate(0 -0.65)" style="fill:#14304c"/><path d="M210.92,30.63a9.48,9.48,0,0,1-2.77,1.77,8.52,8.52,0,0,1-3.27.62,9.61,9.61,0,0,1-6.62-2.64,9.27,9.27,0,0,1-2-2.92,8.8,8.8,0,0,1-.76-3.64,9.5,9.5,0,0,1,1.16-4.55A8.9,8.9,0,0,1,198,17.4,8.45,8.45,0,0,1,199.73,16a9,9,0,0,1,2.13-.94,8.7,8.7,0,0,1,2.43-.34,8.54,8.54,0,0,1,2.25.31,8.43,8.43,0,0,1,2.05.87,9,9,0,0,1,3.12,3.06,8.47,8.47,0,0,1,.89,2,7.61,7.61,0,0,1,.31,2.18v1.19a1.38,1.38,0,0,1-.21.74,1.05,1.05,0,0,1-.65.37,6.67,6.67,0,0,1-1.34.11H200.62a3.57,3.57,0,0,0,.57,1.5,3.45,3.45,0,0,0,1,1,3.79,3.79,0,0,0,1.19.51,4.38,4.38,0,0,0,1.19.16,5.17,5.17,0,0,0,1-.11,6.29,6.29,0,0,0,1-.28,5.15,5.15,0,0,0,.9-.4,2.69,2.69,0,0,0,.67-.49,2.7,2.7,0,0,1,.39-.27.67.67,0,0,1,.34-.09.72.72,0,0,1,.37.13,2.54,2.54,0,0,1,.43.37l1.48,1.68a.83.83,0,0,1,.2.32,1,1,0,0,1,0,.3.78.78,0,0,1-.15.48A2,2,0,0,1,210.92,30.63ZM204.18,19a2.78,2.78,0,0,0-1.06.21,4.13,4.13,0,0,0-1,.59,4.9,4.9,0,0,0-.81.83,5.57,5.57,0,0,0-.58.93h7.14a8,8,0,0,0-.62-1,4,4,0,0,0-.78-.81,3.54,3.54,0,0,0-1-.55A4.22,4.22,0,0,0,204.18,19Z" transform="translate(0 -0.65)" style="fill:#14304c"/><path d="M237.17,12.2a.76.76,0,0,1,.29-.66,3.5,3.5,0,0,1,.82-.41L241.46,10h.25a.76.76,0,0,1,.7.3,1.66,1.66,0,0,1,.17.79v4.42h2.34a1,1,0,0,1,.72.26,1,1,0,0,1,.28.8v2.7a1.15,1.15,0,0,1-.28.87,1,1,0,0,1-.72.27h-2.34V31.69a1,1,0,0,1-.31.8,1.2,1.2,0,0,1-.85.28h-3.17a1,1,0,0,1-1.08-.8,1.41,1.41,0,0,1,0-.29V20.42h-1q-1.08,0-1.08-1.14v-2.7a1,1,0,0,1,.81-1.07h1.29Z" transform="translate(0 -0.65)" style="fill:#14304c"/><path d="M264.64,32.52a.84.84,0,0,1-.39.19,1.74,1.74,0,0,1-.39,0h-2.11a1,1,0,0,1-.44-.1.78.78,0,0,1-.3-.24,1.13,1.13,0,0,1-.21-.35,2.12,2.12,0,0,1-.14-.4l-.46-1.76a6.73,6.73,0,0,1-.62,1,5.19,5.19,0,0,1-1,1,5.56,5.56,0,0,1-1.47.81,5.49,5.49,0,0,1-2,.33,6.64,6.64,0,0,1-5.13-2.3,7.79,7.79,0,0,1-1.42-2.49,8.92,8.92,0,0,1-.5-3V16.05a1.22,1.22,0,0,1,.23-.81.88.88,0,0,1,.73-.27h3.24a1.22,1.22,0,0,1,.83.2,1.08,1.08,0,0,1,.24.79v9.13a2.37,2.37,0,0,0,.27,1.14,3.19,3.19,0,0,0,.72.95,3.35,3.35,0,0,0,1,.63,2.81,2.81,0,0,0,1.15.23,2.47,2.47,0,0,0,1-.23,4,4,0,0,0,1-.63,3.61,3.61,0,0,0,.75-.94,2.38,2.38,0,0,0,.29-1.14V16a1.27,1.27,0,0,1,.09-.47.74.74,0,0,1,.28-.37,1.3,1.3,0,0,1,.34-.15,1.5,1.5,0,0,1,.37,0h3.17a1,1,0,0,1,1.12.84,1,1,0,0,1,0,.24V31.72a1,1,0,0,1-.12.49.93.93,0,0,1-.33.35Z" transform="translate(0 -0.65)" style="fill:#14304c"/><path d="M268.36,16a1,1,0,0,1,.1-.45.89.89,0,0,1,.27-.34,1.26,1.26,0,0,1,.75-.24h2.12a.73.73,0,0,1,.41.09.81.81,0,0,1,.26.26,1.29,1.29,0,0,1,.18.35,2.87,2.87,0,0,0,.2.39,1.45,1.45,0,0,0,.11.27l.18.48c.06.17.12.33.19.49l.12.3c.28-.31.54-.62.8-1a9.32,9.32,0,0,1,.82-.95,4.25,4.25,0,0,1,1-.71,2.57,2.57,0,0,1,1.25-.28,6.83,6.83,0,0,1,1.35.11,5.53,5.53,0,0,1,1.12.33,5.92,5.92,0,0,1,1.06.55c.35.23.74.49,1.15.79a1,1,0,0,1,.53,1.26,1,1,0,0,1-.17.28l-1.28,2.17a1.18,1.18,0,0,1-.68.52,1.37,1.37,0,0,1-.89-.13A4.09,4.09,0,0,0,278,19.7a3.32,3.32,0,0,0-1.42-.29,2.47,2.47,0,0,0-1.71.59,3.94,3.94,0,0,0-.62.67c-.19.26-.39.55-.58.87V31.68a1.12,1.12,0,0,1-.27.8,1.14,1.14,0,0,1-.85.28h-3.15a1,1,0,0,1-1.1-.82,1.13,1.13,0,0,1,0-.26Z" transform="translate(0 -0.65)" style="fill:#14304c"/><path d="M298,30.63a9.67,9.67,0,0,1-2.78,1.77A8.44,8.44,0,0,1,292,33a9.53,9.53,0,0,1-6.62-2.64,9.3,9.3,0,0,1-2.05-2.92,8.86,8.86,0,0,1-.76-3.66,9.5,9.5,0,0,1,1.16-4.55,8.76,8.76,0,0,1,3.11-3.32A9,9,0,0,1,289,15a8.68,8.68,0,0,1,2.42-.34,8.23,8.23,0,0,1,2.26.32,8.54,8.54,0,0,1,3.81,2.21,9.11,9.11,0,0,1,1.35,1.74,8.65,8.65,0,0,1,.89,2,7.66,7.66,0,0,1,.31,2.18v1.19a1.39,1.39,0,0,1-.22.74,1,1,0,0,1-.62.37,6,6,0,0,1-1.33.11H287.72a3.38,3.38,0,0,0,.56,1.5,3.48,3.48,0,0,0,1,1,4,4,0,0,0,1.19.51,4.79,4.79,0,0,0,1.19.15,5.16,5.16,0,0,0,1-.1,7.47,7.47,0,0,0,1-.28,6.18,6.18,0,0,0,.91-.41,3.09,3.09,0,0,0,.66-.48,3.48,3.48,0,0,1,.39-.28A.77.77,0,0,1,296,27a.63.63,0,0,1,.37.12,2.54,2.54,0,0,1,.43.37l1.49,1.68a.94.94,0,0,1,.19.32,1.06,1.06,0,0,1,0,.31.76.76,0,0,1-.15.48A2.45,2.45,0,0,1,298,30.63ZM291.29,19a2.71,2.71,0,0,0-1.06.21,4.27,4.27,0,0,0-1,.59,4.71,4.71,0,0,0-.8.81,4.51,4.51,0,0,0-.58.93h7.17a8,8,0,0,0-.62-1,4.6,4.6,0,0,0-.78-.81,3.29,3.29,0,0,0-1-.54A3.92,3.92,0,0,0,291.29,19Z" transform="translate(0 -0.65)" style="fill:#14304c"/><rect x="145.09" y="28.68" width="3.42" height="3.42" style="fill:#14304c"/><rect x="185.13" y="14.32" width="3.42" height="3.42" style="fill:#14304c"/><rect x="212.53" y="14.34" width="3.42" height="3.42" style="fill:#14304c"/><path d="M220.44,18.37h-4.59V31.68a1,1,0,0,0,.87,1.08,1.13,1.13,0,0,0,.26,0h3.17a1.5,1.5,0,0,0,.37,0,1.19,1.19,0,0,0,.35-.15.8.8,0,0,0,.27-.36,1.36,1.36,0,0,0,.09-.48v-9.1a2.83,2.83,0,0,1,.34-1.17,3.8,3.8,0,0,1,.74-.94,3.85,3.85,0,0,1,1-.63,2.65,2.65,0,0,1,1-.22,2.9,2.9,0,0,1,1.16.24,3.62,3.62,0,0,1,1,.62,3.28,3.28,0,0,1,.78,1.07,2.4,2.4,0,0,1,.22,1v9.16a1.06,1.06,0,0,0,.22.79,1.21,1.21,0,0,0,.82.21h3.24a.92.92,0,0,0,.74-.28,1.2,1.2,0,0,0,.23-.8V22.5a9.22,9.22,0,0,0-.51-3A7.63,7.63,0,0,0,230.8,17a6.56,6.56,0,0,0-5.11-2.29,5.51,5.51,0,0,0-2,.33,5.43,5.43,0,0,0-1.49.82,5.19,5.19,0,0,0-1,1,7.56,7.56,0,0,0-.58.93.61.61,0,0,0,0,.12Z" transform="translate(0 -0.65)" style="fill:#14304c"/><line x1="193.96" y1="17.71" x2="188.52" y2="17.71" style="fill:none"/><path d="M188.52,18.36l-2.15,6.85-.3-.85c-.14-.4-.29-.87-.46-1.4s-.36-1.13-.57-1.76-.41-1.29-.62-1.94-.41-1.28-.62-1.9-.37-1.17-.53-1.67a1,1,0,0,0-1-.75h-3.6c-.44,0-.72.14-.84.41a1.17,1.17,0,0,0,.11,1l6.45,15.8a1,1,0,0,0,.35.44,1.54,1.54,0,0,0,.79.16h1.66a1,1,0,0,0,.63-.18,1.82,1.82,0,0,0,.36-.42l5.75-13.8Z" transform="translate(0 -0.65)" style="fill:#14304c"/><path d="M155.29,32.13l-7.35-19-.35-.8a2.13,2.13,0,0,0-.26-.26.53.53,0,0,0-.4-.14h-3.59a.59.59,0,0,0-.23,0,1.23,1.23,0,0,0-.25.14.77.77,0,0,0-.18.18.4.4,0,0,0-.1.18L135,32.2a.33.33,0,0,0,.06.41.74.74,0,0,0,.45.15h4.12a.72.72,0,0,0,.72-.52l.54-1.43.54-1.42h3.73V24.93H143c.18-.48.36-1,.54-1.54l.54-1.66c.19-.56.36-1.12.54-1.67s.36-1.06.54-1.54l4.79,13.74a.8.8,0,0,0,.27.4.88.88,0,0,0,.5.12h4a.68.68,0,0,0,.53-.17A.41.41,0,0,0,155.29,32.13Z" transform="translate(0 -0.65)" style="fill:#14304c"/><path d="M34,.65h3.92a.93.93,0,0,1,.93.93V5.51H34V.65Z" transform="translate(0 -0.65)" style="fill:#14304c"/><path d="M34,10.4V5.54H29.13V.68H.93A.93.93,0,0,0,0,1.61v37a.93.93,0,0,0,.93.93H38a.93.93,0,0,0,.94-.93V10.4Z" transform="translate(0 -0.65)" style="fill:#14304c"/><polygon points="32.91 16.82 32.91 17.91 31.82 17.91 31.82 19 31.82 20.09 31.82 21.18 31.82 22.27 31.82 23.36 31.82 24.45 31.82 25.54 32.91 25.54 32.91 24.45 32.91 23.36 34 23.36 34 22.27 34 21.18 34 20.09 34 19 34 17.91 34 16.82 32.91 16.82" style="fill:#f2f2f2"/><polygon points="31.82 15.73 30.73 15.73 29.64 15.73 28.55 15.73 28.55 16.82 28.55 17.91 29.64 17.91 29.64 16.82 30.73 16.82 31.82 16.82 32.91 16.82 32.91 15.73 31.82 15.73" style="fill:#f2f2f2"/><rect x="30.73" y="25.54" width="1.09" height="1.09" style="fill:#f2f2f2"/><rect x="28.55" y="26.63" width="1.09" height="1.09" style="fill:#f2f2f2"/><polygon points="20.93 8.11 20.93 9.19 20.93 10.28 22.02 10.28 22.02 9.19 22.02 8.11 20.93 8.11" style="fill:#e0e0e0"/><rect x="19.83" y="10.28" width="1.09" height="1.09" style="fill:#e0e0e0"/><polygon points="20.93 5.93 19.83 5.93 19.83 7.02 19.83 8.11 20.93 8.11 20.93 7.02 20.93 5.93" style="fill:#e0e0e0"/><polygon points="16.57 9.19 16.57 10.28 17.65 10.28 17.65 9.19 17.65 8.11 16.57 8.11 16.57 9.19" style="fill:#e0e0e0"/><rect x="15.48" y="10.28" width="1.09" height="1.09" style="fill:#e0e0e0"/><polygon points="16.57 5.93 15.47 5.93 15.47 7.02 15.47 8.11 16.57 8.11 16.57 7.02 16.57 5.93" style="fill:#e0e0e0"/><polygon points="12.21 9.19 12.21 10.28 13.3 10.28 13.3 9.19 13.3 8.11 12.21 8.11 12.21 9.19" style="fill:#e0e0e0"/><rect x="11.12" y="10.28" width="1.09" height="1.09" style="fill:#e0e0e0"/><polygon points="12.21 5.93 11.12 5.93 11.12 7.02 11.12 8.11 12.21 8.11 12.21 7.02 12.21 5.93" style="fill:#e0e0e0"/><polygon points="30.73 16.82 29.64 16.82 29.64 17.91 28.55 17.91 28.55 16.82 28.55 15.73 28.55 14.64 28.55 13.55 27.46 13.55 26.38 13.55 26.38 14.64 26.38 15.73 27.46 15.73 27.46 16.82 27.46 17.91 27.46 19 27.46 20.09 27.46 21.18 27.46 22.27 27.46 23.36 27.46 24.45 27.46 25.54 27.46 26.63 27.46 27.72 27.46 28.81 27.46 29.9 26.38 29.9 25.29 29.9 25.29 30.99 24.2 30.99 24.2 32.08 23.11 32.08 22.02 32.08 20.93 32.08 20.93 33.17 19.83 33.17 18.74 33.17 17.65 33.17 16.57 33.17 15.47 33.17 14.39 33.17 13.3 33.17 12.21 33.17 11.12 33.17 10.03 33.17 10.03 34.26 11.12 34.26 12.21 34.26 13.3 34.26 14.39 34.26 15.47 34.26 16.57 34.26 17.65 34.26 18.74 34.26 19.83 34.26 20.93 34.26 22.02 34.26 23.11 34.26 24.2 34.26 24.2 33.17 25.29 33.17 26.38 33.17 26.38 32.08 26.38 30.99 27.46 30.99 28.55 30.99 28.55 29.9 28.55 28.81 29.64 28.81 29.64 27.72 28.55 27.72 28.55 26.63 28.55 25.54 28.55 24.45 28.55 23.36 28.55 22.27 28.55 21.18 28.55 20.09 28.55 19 29.64 19 30.73 19 30.73 17.91 31.82 17.91 31.82 16.82 30.73 16.82" style="fill:#c7c7c7"/><polygon points="11.12 12.46 10.03 12.46 8.94 12.46 8.94 13.55 10.03 13.55 11.12 13.55 12.21 13.55 12.21 12.46 11.12 12.46" style="fill:#fff"/><polygon points="10.03 14.64 8.94 14.64 8.94 15.73 8.94 16.82 8.94 17.91 8.94 19 8.94 20.09 8.94 21.18 8.94 22.27 8.94 23.36 10.03 23.36 10.03 22.27 11.12 22.27 11.12 21.18 11.12 20.09 11.12 19 11.12 17.91 11.12 16.82 12.21 16.82 12.21 15.73 12.21 14.64 11.12 14.64 10.03 14.64" style="fill:#fff"/><polygon points="32.91 23.36 32.91 24.45 32.91 25.54 34 25.54 34 24.45 34 23.36 32.91 23.36" style="fill:#e0e0e0"/><rect x="31.82" y="25.54" width="1.09" height="1.09" style="fill:#e0e0e0"/><rect x="31.82" y="16.82" width="1.09" height="1.09" style="fill:#e0e0e0"/><polygon points="29.64 26.63 29.64 27.72 30.73 27.72 31.82 27.72 31.82 26.63 30.73 26.63 29.64 26.63" style="fill:#e0e0e0"/><polygon points="26.38 14.64 26.38 13.55 25.29 13.55 24.2 13.55 23.11 13.55 22.02 13.55 20.93 13.55 19.83 13.55 18.74 13.55 17.65 13.55 16.57 13.55 15.47 13.55 14.39 13.55 13.3 13.55 12.21 13.55 11.12 13.55 10.03 13.55 8.94 13.55 7.85 13.55 6.76 13.55 5.67 13.55 5.67 14.64 6.76 14.64 7.85 14.64 8.94 14.64 10.03 14.64 11.12 14.64 12.21 14.64 13.3 14.64 14.39 14.64 15.47 14.64 16.57 14.64 17.65 14.64 18.74 14.64 19.83 14.64 20.93 14.64 22.02 14.64 23.11 14.64 24.2 14.64 24.2 15.73 24.2 16.82 24.2 17.91 24.2 19 24.2 20.09 24.2 21.18 24.2 22.27 24.2 23.36 24.2 24.45 24.2 25.54 24.2 26.63 24.2 27.72 23.11 27.72 23.11 28.81 22.02 28.81 22.02 29.9 20.93 29.9 19.83 29.9 18.74 29.9 18.74 30.99 17.65 30.99 16.57 30.99 16.57 32.08 15.47 32.08 14.39 32.08 13.3 32.08 12.21 32.08 11.12 32.08 10.03 32.08 8.94 32.08 7.85 32.08 7.85 33.17 8.94 33.17 10.03 33.17 11.12 33.17 12.21 33.17 13.3 33.17 14.39 33.17 15.47 33.17 16.57 33.17 17.65 33.17 18.74 33.17 19.83 33.17 20.93 33.17 20.93 32.08 22.02 32.08 23.11 32.08 24.2 32.08 24.2 30.99 25.29 30.99 25.29 29.9 26.38 29.9 27.46 29.9 27.46 28.81 27.46 27.72 27.46 26.63 27.46 25.54 27.46 24.45 27.46 23.36 27.46 22.27 27.46 21.18 27.46 20.09 27.46 19 27.46 17.91 27.46 16.82 27.46 15.73 26.38 15.73 26.38 14.64" style="fill:#e0e0e0"/><polygon points="27.46 12.46 26.38 12.46 25.29 12.46 24.2 12.46 23.11 12.46 22.02 12.46 20.93 12.46 19.83 12.46 18.74 12.46 17.65 12.46 16.57 12.46 15.47 12.46 14.39 12.46 13.3 12.46 12.21 12.46 12.21 13.55 13.3 13.55 14.39 13.55 15.47 13.55 16.57 13.55 17.65 13.55 18.74 13.55 19.83 13.55 20.93 13.55 22.02 13.55 23.11 13.55 24.2 13.55 25.29 13.55 26.38 13.55 27.46 13.55 28.55 13.55 28.55 12.46 27.46 12.46" style="fill:#f2f2f2"/><polygon points="22.02 14.64 20.93 14.64 19.83 14.64 18.74 14.64 17.65 14.64 16.57 14.64 15.47 14.64 14.39 14.64 13.3 14.64 12.21 14.64 12.21 15.73 12.21 16.82 11.12 16.82 11.12 17.91 11.12 19 11.12 20.09 11.12 21.18 11.12 22.27 10.03 22.27 10.03 23.36 8.94 23.36 8.94 22.27 8.94 21.18 8.94 20.09 8.94 19 8.94 17.91 8.94 16.82 8.94 15.73 8.94 14.64 7.85 14.64 6.76 14.64 5.67 14.64 5.67 15.73 5.67 16.82 5.67 17.91 5.67 19 5.67 20.09 5.67 21.18 5.67 22.27 5.67 23.36 5.67 24.45 5.67 25.54 5.67 26.63 5.67 27.72 5.67 28.81 5.67 29.9 5.67 30.99 6.76 30.99 6.76 32.08 7.85 32.08 8.94 32.08 10.03 32.08 11.12 32.08 12.21 32.08 13.3 32.08 14.39 32.08 15.47 32.08 16.57 32.08 16.57 30.99 17.65 30.99 18.74 30.99 18.74 29.9 19.83 29.9 20.93 29.9 22.02 29.9 22.02 28.81 23.11 28.81 23.11 27.72 24.2 27.72 24.2 26.63 24.2 25.54 24.2 24.45 24.2 23.36 24.2 22.27 24.2 21.18 24.2 20.09 24.2 19 24.2 17.91 24.2 16.82 24.2 15.73 24.2 14.64 23.11 14.64 22.02 14.64" style="fill:#f2f2f2"/><polygon points="7.85 13.55 8.94 13.55 8.94 12.46 7.85 12.46 6.76 12.46 5.67 12.46 5.67 13.55 6.76 13.55 7.85 13.55" style="fill:#f2f2f2"/></g></g></svg>