<svg width="512" height="512" viewBox="0 0 512 512" fill="none" xmlns="http://www.w3.org/2000/svg">
	<style>
		@media (prefers-color-scheme: dark) {
            path {
                fill: #fff !important;
            }
        }
	</style>
	<path class="fill" d="M453.485 0H500.762C503.742 0 506.602 1.18404 508.708 3.29163C510.816 5.39923 512 8.25776 512 11.2384V58.5143H453.485V0Z" fill="#1B2A41"/>
	<path class="fill" fill-rule="evenodd" clip-rule="evenodd" d="M0 0H383.304V63.9795H447.693V127.877H512V512H0V0ZM29.2571 29.2571V482.743H482.743V157.134H418.436V93.2367H354.047V29.2571H29.2571Z" fill="#1B2A41"/>
	<path class="fill" d="M274.199 101.738V130.414H288.617V101.738H274.199Z" fill="#1B2A41"/>
	<path class="fill" d="M274.13 130.413H259.714V144.709H274.13V130.413Z" fill="#1B2A41"/>
	<path class="fill" d="M274.214 73.1429H259.714V101.737H274.214V73.1429Z" fill="#1B2A41"/>
	<path class="fill" d="M216.456 130.414H230.874V101.738H216.456V130.414Z" fill="#1B2A41"/>
	<path class="fill" d="M216.456 130.414L202.028 130.413V144.709H216.446L216.456 130.414Z" fill="#1B2A41"/>
	<path class="fill" d="M216.446 73.1429H202.028V101.737L216.456 101.738L216.446 73.1429Z" fill="#1B2A41"/>
	<path class="fill" d="M158.799 130.414H173.217V101.738H158.799V130.414Z" fill="#1B2A41"/>
	<path class="fill" d="M158.799 130.414L144.371 130.413V144.709H158.788L158.799 130.414Z" fill="#1B2A41"/>
	<path class="fill" d="M158.788 73.1429H144.371V101.737L158.799 101.738L158.788 73.1429Z" fill="#1B2A41"/>
	<path class="fill" d="M259.571 101.738V130.414H273.989V101.738H259.571Z" fill="#1B2A41"/>
	<path class="fill" d="M259.502 130.413H245.086V144.709H259.502V130.413Z" fill="#1B2A41"/>
	<path class="fill" d="M259.586 73.1429H245.086V101.737H259.586V73.1429Z" fill="#1B2A41"/>
	<path class="fill" d="M201.827 130.414H216.245V101.738H201.827V130.414Z" fill="#1B2A41"/>
	<path class="fill" d="M201.828 130.414L187.399 130.413V144.709H201.817L201.828 130.414Z" fill="#1B2A41"/>
	<path class="fill" d="M201.817 73.1429H187.399V101.737L201.828 101.738L201.817 73.1429Z" fill="#1B2A41"/>
	<path class="fill" d="M144.171 130.414H158.588V101.738H144.171V130.414Z" fill="#1B2A41"/>
	<path class="fill" d="M144.171 130.414L129.743 130.413V144.709H144.161L144.171 130.414Z" fill="#1B2A41"/>
	<path class="fill" d="M144.161 73.1429H129.743V101.737L144.171 101.738L144.161 73.1429Z" fill="#1B2A41"/>
	<path class="fill" d="M433.645 217.806V232.104H419.229V332.184H433.645V303.59H448.063V217.806H433.645Z" fill="#1B2A41"/>
	<path class="fill" d="M419.246 332.186H404.828V346.482H419.246V332.186Z" fill="#1B2A41"/>
	<path class="fill" d="M390.395 217.808V232.104H375.979V174.915H347.143V203.51H361.561V389.375H332.727V403.671H318.309V418.049H275.056V432.347H130.8V446.645H318.309V432.347H347.143V403.671H375.979V375.077H390.395V360.78H375.979V246.402H404.813V232.104H419.228L419.231 217.808H390.395Z" fill="#1B2A41"/>
	<path class="fill" d="M116.4 160.617V174.914H159.652V160.617H116.4Z" fill="#1B2A41"/>
	<path class="fill" d="M116.4 189.212V303.59H130.818V289.293H145.235V217.806H159.652V189.212H116.4Z" fill="#1B2A41"/>
	<path class="fill" d="M433.645 332.184H419.229V346.482H433.645V332.184Z" fill="#1B2A41"/>
	<path class="fill" d="M433.645 217.806L419.231 217.808L419.229 232.104H433.645V217.806Z" fill="#1B2A41"/>
	<path class="fill" d="M390.4 346.482L390.396 360.78L419.234 360.779L419.228 346.482H404.828H390.4Z" fill="#1B2A41"/>
	<path class="fill" d="M347.143 174.915H332.738L159.652 174.914H116.4L73.1426 174.915V189.213L116.4 189.212H159.652L318.322 189.213V360.78H303.904V375.077H289.486V389.375H246.152V403.671H217.316V418.049H101.978V432.347H130.8H275.056V418.049H318.309V403.671H332.727V389.375H361.561V203.51H347.143V174.915Z" fill="#1B2A41"/>
	<path class="fill" d="M159.651 160.617V174.914L332.738 174.915L376.001 174.914V160.617H159.651Z" fill="#1B2A41"/>
	<path class="fill" d="M159.652 189.212V217.806H145.234V289.293H130.817V303.59H116.4V189.212L73.1426 189.213V403.671H87.5601V418.049H101.978H217.316V403.671H246.152V389.375H289.486V375.077H303.904V360.78H318.322V189.213L159.652 189.212Z" fill="#1B2A41"/>
	<path class="fill" d="M116.4 174.914V160.617H73.1426V174.915L116.4 174.914Z" fill="#1B2A41"/>
</svg>
